<?xml version="1.0" encoding="UTF-8" standalone="no"?>
<!-- Generator: Adobe Illustrator 19.1.0, SVG Export Plug-In . SVG Version: 6.00 Build 0)  -->

<svg
   xmlns:dc="http://purl.org/dc/elements/1.1/"
   xmlns:cc="http://creativecommons.org/ns#"
   xmlns:rdf="http://www.w3.org/1999/02/22-rdf-syntax-ns#"
   xmlns:svg="http://www.w3.org/2000/svg"
   xmlns="http://www.w3.org/2000/svg"
   xmlns:sodipodi="http://sodipodi.sourceforge.net/DTD/sodipodi-0.dtd"
   xmlns:inkscape="http://www.inkscape.org/namespaces/inkscape"
   version="1.1"
   id="Capa_1"
   x="0px"
   y="0px"
   viewBox="0 0 451 451"
   style="enable-background:new 0 0 451 451;"
   xml:space="preserve"
   inkscape:version="0.48.4 r9939"
   width="100%"
   height="100%"
   sodipodi:docname="FRED-ICON_SEARCH.svg"><metadata
   id="metadata3065"><rdf:RDF><cc:Work
       rdf:about=""><dc:format>image/svg+xml</dc:format><dc:type
         rdf:resource="http://purl.org/dc/dcmitype/StillImage" /><dc:title></dc:title></cc:Work></rdf:RDF></metadata><defs
   id="defs3063">
	
</defs><sodipodi:namedview
   pagecolor="#ffffff"
   bordercolor="#666666"
   borderopacity="1"
   objecttolerance="10"
   gridtolerance="10"
   guidetolerance="10"
   inkscape:pageopacity="0"
   inkscape:pageshadow="2"
   inkscape:window-width="1203"
   inkscape:window-height="938"
   id="namedview3061"
   showgrid="false"
   inkscape:zoom="4.1862528"
   inkscape:cx="267.17283"
   inkscape:cy="90.762154"
   inkscape:window-x="0"
   inkscape:window-y="0"
   inkscape:window-maximized="0"
   inkscape:current-layer="Capa_1" />
<path
   inkscape:connector-curvature="0"
   style="fill:#4db6ac;fill-opacity:1;stroke:#4d4124;stroke-width:1.131;stroke-miterlimit:4;stroke-opacity:0;stroke-dasharray:none"
   id="path3029"
   d="m 393.57678,448.64954 14.22286,-14.22286 c -3.81525,-4.38625 -6.12517,-10.10914 -6.12517,-16.36409 0,-13.76866 11.19921,-24.9549 24.9549,-24.9549 13.76867,0 24.9549,11.19921 24.9549,24.9549 0,13.75569 -11.19921,24.9549 -24.9549,24.9549 -6.25495,0 -11.97784,-2.30991 -16.36408,-6.12517 l -14.22287,14.22287 c -0.3374,0.3374 -0.7916,0.51908 -1.23282,0.51908 -0.44122,0 -0.89542,-0.1687 -1.23282,-0.51908 -0.67481,-0.67481 -0.67481,-1.79084 0,-2.46565 z m 54.51666,-30.58695 c 0,-11.83508 -9.62898,-21.45109 -21.45109,-21.45109 -11.83509,0 -21.4511,9.62899 -21.4511,21.45109 0,11.82212 9.61601,21.46408 21.4511,21.46408 11.82211,0 21.45109,-9.62899 21.45109,-21.46408 z"
   inkscape:export-filename="C:\FRED\Projet FRED\Fred-Web\Dev\Fred.Web\medias\images\ico\search_background_mini.png"
   inkscape:export-xdpi="72"
   inkscape:export-ydpi="72" />
<g
   id="g3031">
</g>
<g
   id="g3033">
</g>
<g
   id="g3035">
</g>
<g
   id="g3037">
</g>
<g
   id="g3039">
</g>
<g
   id="g3041">
</g>
<g
   id="g3043">
</g>
<g
   id="g3045">
</g>
<g
   id="g3047">
</g>
<g
   id="g3049">
</g>
<g
   id="g3051">
</g>
<g
   id="g3053">
</g>
<g
   id="g3055">
</g>
<g
   id="g3057">
</g>
<g
   id="g3059">
</g>
<g
   id="g2987"
   transform="matrix(0.3125,0,0,0.3125,195.85693,343.66373)"
   inkscape:export-filename="C:\FRED\Projet FRED\Fred-Web\Dev\Fred.Web\medias\images\ico\resize.png"
   inkscape:export-xdpi="72"
   inkscape:export-ydpi="72"
   style="fill:#3771c8"><g
     id="g2989"
     style="fill:#3771c8"><path
       id="path2991"
       d="M 28.618,52.79 V 37.389 c 0,-0.262 -0.053,-0.521 -0.155,-0.767 C 28.26,36.131 27.869,35.738 27.377,35.536 27.132,35.433 26.871,35.381 26.61,35.381 H 11.209 c -1.111,0 -2.008,0.899 -2.008,2.008 0,1.109 0.896,2.008 2.008,2.008 H 21.764 L 0.525,60.635 c -0.783,0.785 -0.783,2.056 0,2.84 0.393,0.393 0.906,0.588 1.42,0.588 0.514,0 1.027,-0.195 1.42,-0.588 L 24.602,42.237 V 52.79 c 0,1.108 0.897,2.008 2.008,2.008 1.111,0 2.008,-0.9 2.008,-2.008 z"
       inkscape:connector-curvature="0"
       style="fill:#3771c8" /><path
       id="path2993"
       d="M 60.511,0.651 39.273,21.89 V 11.336 c 0,-1.109 -0.898,-2.008 -2.008,-2.008 -1.11,0 -2.008,0.898 -2.008,2.008 v 15.4 c 0,0.262 0.053,0.521 0.154,0.768 0.204,0.49 0.595,0.882 1.086,1.086 0.246,0.102 0.507,0.154 0.768,0.154 h 15.401 c 1.11,0 2.008,-0.898 2.008,-2.008 0,-1.108 -0.897,-2.008 -2.008,-2.008 H 42.112 L 63.35,3.49 c 0.784,-0.784 0.784,-2.055 0,-2.839 -0.784,-0.784 -2.056,-0.784 -2.839,0 z"
       inkscape:connector-curvature="0"
       style="fill:#3771c8" /></g></g><g
   id="g3082"
   transform="matrix(0.3125,0,0,0.3125,255.18158,343.91722)"
   inkscape:export-filename="C:\FRED\Projet FRED\Fred-Web\Dev\Fred.Web\medias\images\ico\extend.png"
   inkscape:export-xdpi="72"
   inkscape:export-ydpi="72"
   style="fill:#3771c8"><g
     id="g3084"
     style="fill:#3771c8"><path
       id="path3086"
       d="M 25.255,35.905 4.016,57.145 V 46.59 C 4.016,45.482 3.119,44.582 2.008,44.582 0.898,44.582 0,45.481 0,46.59 v 15.402 c 0,0.261 0.053,0.521 0.155,0.767 0.203,0.492 0.594,0.882 1.086,1.087 C 1.486,63.947 1.747,64 2.008,64 h 15.403 c 1.109,0 2.008,-0.898 2.008,-2.008 0,-1.11 -0.898,-2.008 -2.008,-2.008 H 6.855 l 21.238,-21.24 c 0.784,-0.784 0.784,-2.055 0,-2.839 -0.784,-0.784 -2.054,-0.784 -2.838,0 z"
       inkscape:connector-curvature="0"
       style="fill:#3771c8" /><path
       id="path3088"
       d="M 63.845,1.241 C 63.642,0.75 63.251,0.359 62.759,0.154 62.514,0.053 62.253,0 61.992,0 H 46.589 c -1.109,0 -2.008,0.898 -2.008,2.008 0,1.11 0.898,2.008 2.008,2.008 h 10.556 l -21.238,21.24 c -0.784,0.784 -0.784,2.055 0,2.839 0.392,0.392 0.906,0.589 1.42,0.589 0.514,0 1.027,-0.197 1.419,-0.589 L 59.984,6.855 V 17.41 c 0,1.108 0.897,2.008 2.008,2.008 1.109,0 2.008,-0.899 2.008,-2.008 V 2.008 C 64,1.747 63.947,1.486 63.845,1.241 z"
       inkscape:connector-curvature="0"
       style="fill:#3771c8" /></g></g></svg>