<!-- Generated by IcoMoon.io -->
<svg version="1.1" xmlns="http://www.w3.org/2000/svg" width="20" height="32" viewBox="0 0 20 32">
<title>uni000B</title>
<path fill="white" d="M18 4q0.813 0 1.406 0.563t0.594 1.438v20q0 0.875-0.594 1.438t-1.406 0.563q-0.625 0-1.25-0.438l-6.688-5.125q-0.25-0.188-0.938-0.313t-1.063-0.125h-6.063q-0.75 0-1.156-0.313t-0.594-0.688q-0.25-0.438-0.25-1v-8q0-0.563 0.25-1 0.188-0.375 0.594-0.688t1.156-0.313h6.063q0.375 0 1.063-0.094t0.938-0.344l6.688-5.125q0.625-0.438 1.25-0.438zM18 6l-0.188 0.188-6.625 5.063q-0.875 0.563-1.969 0.656t-1.156 0.094h-6.063v8h6.063q0.063 0 1.156 0.094t1.969 0.656l6.625 5.063 0.188 0.188v-20z"></path>
</svg>
