<!-- Generated by IcoMoon.io -->
<svg version="1.1" xmlns="http://www.w3.org/2000/svg" width="32" height="32" viewBox="0 0 32 32">
<title>uniE0CB</title>
<path d="M11.688 12h2.313v10h-2v-8h-2.625zM27.75 29.688q1.688 0 3.063-1l0.438-0.375v2.813q-1.813 0.75-3.375 0.75-3.188 0-4.938-1.313t-2.625-4.125h-2.313l0.5-2h1.438v-1h-1.938l0.5-2h1.75q0.688-2.375 2.719-3.844t4.969-1.469q2.125 0 3.563 0.875l0.25 0.125-0.625 2.438-0.313-0.25q-0.875-0.563-2.063-0.781t-2.375 0.031-2.094 0.969-1.219 1.906h7.438l-0.5 2h-7.188v1h7.188l-0.5 2h-6.375q1.063 3.25 4.625 3.25zM2 30h12v2h-12q-0.875 0-1.438-0.563t-0.563-1.438v-26q0-0.813 0.563-1.406t1.438-0.594h4v-2h2v2h12v-2h2v2h4q0.813 0 1.406 0.594t0.594 1.406v6h-2v-2h-24v22zM20 6h2v-2h-2v2zM6 6h2v-2h-2v2z"></path>
</svg>
