<!-- Generated by IcoMoon.io -->
<svg version="1.1" xmlns="http://www.w3.org/2000/svg" width="32" height="32" viewBox="0 0 32 32">
<title>uniE103</title>
<path d="M28 28h2v2h-28v-2h2v-2h24v2zM4 16h2v8h-2v-8zM8 24v-8h2v8h-2zM26 24v-8h2v8h-2zM22 24v-8h2v8h-2zM14 24v-6h4v6h-4zM31.75 12q0.313 0.313 0.281 0.719t-0.344 0.719q-0.563 0.563-1.375-0.063l-14.313-8.875-14.25 8.875q-0.875 0.688-1.438 0.063-0.313-0.313-0.313-0.719t0.313-0.719q4.125-2.688 7.438-4.813 1.375-0.938 2.719-1.781t2.406-1.531 1.719-1.125l0.656-0.438q0.438-0.313 0.75-0.313 0.438 0 0.75 0.313l2.344 1.563t2.375 1.531 2.781 1.781q3.313 2.125 7.5 4.813zM28 14h-24l12-8zM16 12q0.875 0 1.438-0.563t0.563-1.438q0-0.813-0.563-1.406t-1.438-0.594-1.438 0.594-0.563 1.406q0 0.875 0.563 1.438t1.438 0.563z"></path>
</svg>
