<!-- Generated by IcoMoon.io -->
<svg version="1.1" xmlns="http://www.w3.org/2000/svg" width="28" height="32" viewBox="0 0 28 32">
<title>uniE168</title>
<path d="M24.875 9.125q1.438 1.813 2.281 4.063t0.844 4.813q0 2.875-1.094 5.438t-3 4.469-4.469 3-5.438 1.094-5.438-1.094-4.469-3-3-4.469-1.094-5.438q0-2.625 0.938-5t2.531-4.219 3.781-3.063 4.75-1.594v-2.125h-4v-2h12v2h-4v2.125q1.625 0.25 3.125 0.813t2.75 1.438l2.125-2.125 2.875 2.875zM14 30q2.5 0 4.688-0.938t3.813-2.594 2.563-3.844 0.938-4.625q0-2.5-0.938-4.688t-2.563-3.813-3.813-2.563-4.688-0.938-4.688 0.938-3.813 2.563-2.563 3.813-0.938 4.688q0 2.438 0.938 4.625t2.563 3.844 3.813 2.594 4.688 0.938zM21 18q1 0 1 1 0 0.375-0.281 0.688t-0.719 0.313h-7.063q-0.438 0-0.719-0.313t-0.281-0.688v-6q0-1 1-1t1 1v5h6.063z"></path>
</svg>
