<!-- Generated by IcoMoon.io -->
<svg version="1.1" xmlns="http://www.w3.org/2000/svg" width="32" height="32" viewBox="0 0 32 32">
<title>uniE130</title>
<path d="M16.063 3.438q3.25 0 6.156 1.063t5.094 2.938 3.438 4.375 1.25 5.313l-0.063 1.25q-0.313-1.063-1.906-1.75t-3.719-0.688q-1.688 0-3.063 0.469t-2.125 1.156q-0.688-0.688-2.063-1.156t-3-0.469q-1.75 0-3.125 0.469t-2.063 1.156q-0.688-0.688-2.063-1.156t-3.125-0.469q-2.125 0-3.719 0.688t-1.906 1.75q-0.063-0.125-0.063-0.625v-0.625q0-2.813 1.25-5.313t3.438-4.375 5.125-2.938 6.25-1.063zM26.313 13.938q0.938 0 1.781 0.125t1.531 0.313q-0.563-1.875-1.813-3.531t-3.031-2.844-4-1.875-4.719-0.688q-2.438 0-4.688 0.688t-4.031 1.875-3.063 2.813-1.844 3.563q0.75-0.188 1.563-0.313t1.688-0.125q3 0 5.188 1.188 2.25-1.188 5.188-1.188t5.125 1.188q2.188-1.188 5.125-1.188zM16 0q0.75 0.063 1.156 0.375t0.594 0.688q0.25 0.438 0.25 0.938h-4q0.063-0.563 0.313-1 0.188-0.375 0.594-0.688t1.094-0.313zM19.375 26.063q0.563 0 0.781 0.344t0.094 1.594q-0.188 2-0.906 3t-2.281 1q-1.063 0-2.063-0.875t-1-3.063v-10.063h2v10.063q0.125 0.688 0.344 1.219t1.031 0.594q0.563 0.063 0.719-0.531t0.219-1.313 0.219-1.344 0.844-0.625z"></path>
</svg>
