<!-- Generated by IcoMoon.io -->
<svg version="1.1" xmlns="http://www.w3.org/2000/svg" width="32" height="32" viewBox="0 0 32 32">
<title>uniE1BA</title>
<path d="M22 26h2v4q0 0.875-0.563 1.438t-1.438 0.563h-20q-0.875 0-1.438-0.563t-0.563-1.438v-22l8-8h14q0.813 0 1.406 0.563t0.594 1.438v4h-2v-4h-12v6q0 0.875-0.594 1.438t-1.469 0.563h-5.938v20h20v-4zM22.375 10q2.688 0 5.344 1.469t4.281 4.469q-1.625 3-4.281 4.5t-5.344 1.563h-0.063q-2.688 0-5.313-1.5t-4.25-4.5q1.625-3 4.281-4.5t5.344-1.5zM22.313 20q1.75-0.063 3.781-0.969t3.531-3.094q-1.5-2.188-3.531-3.063t-3.719-0.875-3.719 0.906-3.531 3.094q1.25 1.813 3.156 2.906t4.031 1.094zM22.375 13.188q1.188 0 2 0.813t0.813 2q0 1.125-0.813 1.938t-2 0.813-2-0.813-0.813-1.938q0-1.188 0.813-2t2-0.813z"></path>
</svg>
