<!-- Generated by IcoMoon.io -->
<svg version="1.1" xmlns="http://www.w3.org/2000/svg" width="28" height="32" viewBox="0 0 28 32">
<title>uniE125</title>
<path d="M26 2h2v26q0 0.875-0.563 1.438t-1.438 0.563h-24q-0.813 0-1.406-0.563t-0.594-1.438v-24q0-0.813 0.563-1.406t1.438-0.594h20q0.875 0 1.438 0.594t0.563 1.406v18l-6 6h8v-26zM14 22q0-0.813 0.594-1.406t1.469-0.594h5.938v-16h-20v24h12v-6zM19.625 5.563q0.813 0.438 0.5 1.313l-3.313 6.625q-0.313 0.688-1.188 0.438h-0.063l-0.063-0.063q-0.063 0-0.063-0.031t-0.063-0.031q-0.063-0.063-0.094-0.063t-0.094-0.063q0-0.063-0.063-0.125t-0.063-0.094-0.063-0.094l-2.063-4-2 3.125-0.188 0.188q-0.313 0.313-0.688 0.313t-0.688-0.313l-2.563-2.563-2.188 2.188q-0.313 0.313-0.719 0.313t-0.719-0.313q-0.688-0.688 0-1.438l2.875-2.875q0.75-0.688 1.438 0l2.375 2.375 2.313-3.563 0.188-0.188q0.063-0.063 0.094-0.063t0.094-0.063l0.063-0.063h0.063q0.063 0 0.094-0.031t0.156-0.031h0.125q0.063 0 0.094 0.031t0.156 0.031q0.063 0 0.125 0.063 0.063 0 0.125 0.063l0.063 0.063q0.125 0 0.125 0.125l0.125 0.125q0 0.063 0.031 0.063t0.031 0.063l2 3.813 2.375-4.875q0.438-0.813 1.313-0.375zM18.938 15.938q1 0 1 1 0 0.375-0.281 0.688t-0.719 0.313h-14q-0.375 0-0.688-0.313t-0.313-0.688q0-0.438 0.313-0.719t0.688-0.281h14zM11 20.063q1 0 1 1 0 0.375-0.281 0.688t-0.719 0.313h-6q-0.375 0-0.688-0.313t-0.313-0.688q0-0.438 0.313-0.719t0.688-0.281h6zM11 24q1 0 1 1 0 0.375-0.281 0.688t-0.719 0.313h-6q-0.375 0-0.688-0.313t-0.313-0.688q0-0.438 0.313-0.719t0.688-0.281h6z"></path>
</svg>
