<!-- Generated by IcoMoon.io -->
<svg version="1.1" xmlns="http://www.w3.org/2000/svg" width="28" height="32" viewBox="0 0 28 32">
<title>uniE1E2</title>
<path d="M24.625 8.563q0.563-0.563 1.406-0.563t1.406 0.563q0.625 0.625 0.625 1.438t-0.625 1.438l-12.063 12.313q-0.25 0.125-0.313 0.188-0.125 0.063-0.156 0.094t-0.156 0.094q-0.375 0.125-0.688 0.125-0.125 0-0.188-0.031t-0.125-0.031q-0.25 0-0.375-0.063t-0.219-0.125-0.219-0.125q-0.063-0.063-0.094-0.063t-0.094-0.063-0.125-0.063l-12-12.25q-0.625-0.625-0.625-1.438t0.625-1.438q0.563-0.563 1.406-0.563t1.406 0.563l9.625 9.688q1 0.625 2 0z"></path>
</svg>
