<!-- Generated by IcoMoon.io -->
<svg version="1.1" xmlns="http://www.w3.org/2000/svg" width="32" height="32" viewBox="0 0 32 32">
<title>uniE121</title>
<path d="M30.813 3.75q0.5 0.125 0.844 0.531t0.344 0.906v21.563q0 0.188-0.063 0.438-0.063 0.188-0.125 0.406t-0.25 0.344q-0.125 0.063-0.375 0.063-0.313 0-0.813-0.125-0.25-0.063-0.375-0.188v-20.813q0-0.5-0.344-0.906t-0.844-0.531l-12.813-3.313q-0.125 0-0.188-0.031t-0.188-0.031q-0.188 0-0.563 0.125l-5.5 2.063 15.25 3.875q1.188 0.313 1.188 1.5v20.875q0 0.625-0.438 1.063t-1.063 0.438h-0.5v-22l-16-4v2h-2v-3.438q0-1 0.938-1.438l8.125-3q0.188-0.125 0.563-0.125h0.25zM21.688 30.313q0.688 0.688 0 1.375-0.313 0.313-0.688 0.313t-0.688-0.313l-5.75-5.688q-1.125 0.938-2.531 1.469t-3.031 0.531q-1.875 0-3.531-0.719t-2.875-1.938-1.906-2.844-0.688-3.5 0.688-3.5 1.906-2.844 2.875-1.938 3.531-0.719 3.5 0.719 2.844 1.938 1.938 2.844 0.719 3.5q0 3.188-2 5.563zM9 26q1.438 0 2.719-0.563t2.219-1.5 1.5-2.219 0.563-2.719-0.563-2.719-1.5-2.219-2.219-1.5-2.719-0.563-2.719 0.563-2.219 1.5-1.5 2.219-0.563 2.719 0.563 2.719 1.5 2.219 2.219 1.5 2.719 0.563zM12.063 15.313l1.25 1.25-5.813 6.75-3.063-3.375 1.25-1.25 1.813 2.063z"></path>
</svg>
