<!-- Generated by IcoMoon.io -->
<svg version="1.1" xmlns="http://www.w3.org/2000/svg" width="32" height="32" viewBox="0 0 32 32">
<title>uniE0CF</title>
<path d="M30 12q0.813 0 1.406 0.594t0.594 1.406v4q0 0.875-0.594 1.438t-1.406 0.563h-4q-0.875 0-1.438-0.563t-0.563-1.438v-2h-4v2q0 0.688-0.563 1.375l1.813 2.813q0.375-0.188 0.75-0.188h4q0.813 0 1.406 0.594t0.594 1.406v4q0 0.875-0.594 1.438t-1.406 0.563h-4q-0.875 0-1.438-0.563t-0.563-1.438v-4q0-0.563 0.438-1.25l-1.875-2.875q-0.375 0.125-0.563 0.125h-3.5l-3 4.688q0.188 0.313 0.344 0.625t0.156 0.688v4q0 0.875-0.594 1.438t-1.406 0.563h-4q-0.875 0-1.438-0.563t-0.563-1.438v-4q0-0.813 0.563-1.406t1.438-0.594h4q0.25 0 0.625 0.125l2.75-4.25q0.375 0.125 0.625 0.125-0.875 0-1.438-0.563t-0.563-1.438v-2h-4v2q0 0.875-0.594 1.438t-1.406 0.563h-4q-0.875 0-1.438-0.563t-0.563-1.438v-4q0-0.813 0.563-1.406t1.438-0.594h4q0.813 0 1.406 0.594t0.594 1.406v1h4v-1q0-0.813 0.563-1.406t1.438-0.594q-0.188 0-0.563 0.125l-2.813-4.25q-0.375 0.125-0.625 0.125h-4q-0.875 0-1.438-0.563t-0.563-1.438v-4q0-0.813 0.563-1.406t1.438-0.594h4q0.813 0 1.406 0.594t0.594 1.406v4q0 0.688-0.563 1.375l3.125 4.625h3.438q0.188 0 0.438 0.125l1.938-3q-0.375-0.438-0.375-1.125v-4q0-0.813 0.563-1.406t1.438-0.594h4q0.813 0 1.406 0.594t0.594 1.406v4q0 0.875-0.594 1.438t-1.406 0.563h-4q-0.5 0-0.875-0.188l-1.75 2.75q0.625 0.625 0.625 1.438v1h4v-1q0-0.813 0.563-1.406t1.438-0.594h4zM22 8h4v-4h-4v4zM10 2h-4v4h4v-4zM6 14h-4v4h4v-4zM10 26h-4v4h4v-4zM18 14h-4v4h4v-4zM22 28h4v-4h-4v4zM19.313 12.563q-0.125-0.125-0.375-0.25 0.25 0.125 0.375 0.25zM19.188 19.563q-0.125 0.125-0.25 0.188 0.125-0.063 0.25-0.188zM30 14h-4v4h4v-4z"></path>
</svg>
