<!-- Generated by IcoMoon.io -->
<svg version="1.1" xmlns="http://www.w3.org/2000/svg" width="32" height="32" viewBox="0 0 32 32">
<title>uniE212</title>
<path d="M23.875 6.938q0.688 0.75 0 1.438-0.75 0.688-1.438 0l-5.438-5.438v14.125q0 1-1 1t-1-1v-14l-5.313 5.313q-0.313 0.313-0.688 0.313t-0.688-0.313q-0.75-0.688 0-1.438l6.375-6.313q0.563-0.625 1.375-0.625t1.438 0.625zM30 20h-6q0 2-1.938 2h-12.063q-2 0-2-2h-6q-0.875 0-1.438 0.594t-0.563 1.406v8q0 0.875 0.563 1.438t1.438 0.563h28q0.813 0 1.406-0.563t0.594-1.438v-8q0-0.813-0.594-1.406t-1.406-0.594zM30 30h-28v-8h4.438q1.063 2 3.563 2h12.063q2.438 0 3.5-2h4.438v8zM21 26h-10q-0.438 0-0.719 0.313t-0.281 0.688q0 1 1 1h10q0.375 0 0.688-0.281t0.313-0.719q0-0.375-0.313-0.688t-0.688-0.313z"></path>
</svg>
