<!-- Generated by IcoMoon.io -->
<svg version="1.1" xmlns="http://www.w3.org/2000/svg" width="28" height="32" viewBox="0 0 28 32">
<title>uniE052</title>
<path d="M9.5 14.063q0.5 0 0.5 0.5v4.938q0 0.5-0.5 0.5h-9q-0.5 0-0.5-0.5v-4.938q0-0.5 0.5-0.5h9zM7.5 24q0.5 0 0.5 0.5v5q0 0.5-0.5 0.5h-7q-0.5 0-0.5-0.5v-5q0-0.5 0.5-0.5h7zM0.5 10q-0.5 0-0.5-0.5v-5q0-0.5 0.5-0.5h5q0.5 0 0.5 0.5v5q0 0.5-0.5 0.5h-5zM14.5 10q-0.5 0-0.5-0.5v-5q0-0.5 0.5-0.5h5q0.5 0 0.5 0.5v5q0 0.5-0.5 0.5h-5zM12 14.5q0-0.5 0.5-0.5h9q0.5 0 0.5 0.5v5q0 0.5-0.5 0.5h-9q-0.5 0-0.5-0.5v-5zM27.5 24q0.5 0 0.5 0.5v4.938q0 0.5-0.5 0.5h-7q-0.5 0-0.5-0.5v-4.938q0-0.5 0.5-0.5h7zM12 9.5q0 0.5-0.5 0.5h-3q-0.5 0-0.5-0.5v-5q0-0.5 0.5-0.5h3q0.5 0 0.5 0.5v5zM27.5 14q0.5 0 0.5 0.5v5q0 0.5-0.5 0.5h-3q-0.5 0-0.5-0.5v-5q0-0.5 0.5-0.5h3zM17.5 24q0.5 0 0.5 0.5v4.938q0 0.5-0.5 0.5h-5q-0.5 0-0.5-0.5v-4.938q0-0.5 0.5-0.5h5z"></path>
</svg>
