<!-- Generated by IcoMoon.io -->
<svg version="1.1" xmlns="http://www.w3.org/2000/svg" width="32" height="32" viewBox="0 0 32 32">
<title>uniE155</title>
<path d="M30 4q0.875 0 1.438 0.563t0.563 1.438v20q0 0.875-0.563 1.438t-1.438 0.563h-20q-0.875 0-1.438-0.563t-0.563-1.438v-4h2v4h20v-20h-20v4h-2v-4q0-0.875 0.563-1.438t1.438-0.563h20zM21.438 14.5q0.563 0.625 0.563 1.438t-0.563 1.438l-5.75 5.375q-0.313 0.313-0.688 0.313t-0.688-0.313-0.313-0.719 0.313-0.719l4.688-4.313h-18q-1 0-1-1t1-1h18l-4.688-4.25q-0.313-0.313-0.313-0.719t0.313-0.719q0.688-0.688 1.375 0z"></path>
</svg>
