<!-- Generated by IcoMoon.io -->
<svg version="1.1" xmlns="http://www.w3.org/2000/svg" width="32" height="32" viewBox="0 0 32 32">
<title>uniE029</title>
<path d="M27.625 18h0.25q0.125 0.125 0.125 0.188v11.813q0 0.813-0.563 1.406t-1.438 0.594h-24q-0.813 0-1.406-0.594t-0.594-1.406v-20q0-0.875 0.594-1.438t1.406-0.563h12v2h-12v13.188l2.313-2.25q-0.313-0.5-0.313-0.938 0-0.875 0.594-1.438t1.406-0.563q0.875 0 1.438 0.563t0.563 1.438q0 0.313-0.25 0.938l3.313 3.313q0.625-0.25 0.938-0.25h0.063l2.813-6.438q-0.875-0.563-0.875-1.563 0-0.875 0.594-1.438t1.406-0.563q0.875 0 1.438 0.563t0.563 1.438q0 0.938-0.563 1.375l2.5 6.625h0.063q0.563 0 1.063 0.313l6.5-6.313h0.063zM26 20.938l-4.25 4.125q0.25 0.313 0.25 0.938 0 0.813-0.563 1.406t-1.438 0.594q-0.813 0-1.406-0.594t-0.594-1.406q0-0.563 0.281-0.969t0.656-0.719l-2.375-6.438q-0.375 0.125-0.563 0.125-0.063 0-0.094-0.031t-0.094-0.031l-2.813 6.375q1 0.5 1 1.688 0 0.813-0.563 1.406t-1.438 0.594q-0.813 0-1.406-0.594t-0.594-1.406q0-0.313 0.125-0.563l0.25-0.5-3.313-3.313-0.5 0.25t-0.563 0.125-0.531-0.125-0.469-0.25l-3 3v5.375h24v-9.063zM23.313 14.375l-5.188-5.188 1.688-1.75 3.5 3.5 6.813-6.938 1.875 2.125z"></path>
</svg>
