<!-- Generated by IcoMoon.io -->
<svg version="1.1" xmlns="http://www.w3.org/2000/svg" width="32" height="32" viewBox="0 0 32 32">
<title>uniE0F6</title>
<path d="M12 14q1.438 0 2.563 0.125t1.875 0.688 1.156 1.781 0.406 3.406h-12q0-2.188 0.406-3.406t1.156-1.781 1.875-0.688 2.563-0.125zM16 10q0 1.688-1.188 2.844t-2.813 1.156-2.813-1.156-1.188-2.844q0-1.625 1.188-2.813t2.813-1.188 2.813 1.188 1.188 2.813zM31 2q0.438 0 0.719 0.313t0.281 0.688q0 1-1 1h-1v16q0 1.688-1.188 2.844t-2.813 1.156h-20q-1.625 0-2.813-1.156t-1.188-2.844v-16h-1q-1 0-1-1 0-0.375 0.281-0.688t0.719-0.313h30zM28 4h-24v16q0 0.875 0.563 1.438t1.438 0.563h20q0.875 0 1.438-0.563t0.563-1.438v-16zM25 10q1 0 1 1 0 0.375-0.281 0.688t-0.719 0.313h-6q-0.375 0-0.688-0.313t-0.313-0.688q0-0.438 0.313-0.719t0.688-0.281h6zM25 6q1 0 1 1 0 0.375-0.281 0.688t-0.719 0.313h-6q-0.375 0-0.688-0.313t-0.313-0.688q0-0.438 0.313-0.719t0.688-0.281h6z"></path>
</svg>
