<!-- Generated by IcoMoon.io -->
<svg version="1.1" xmlns="http://www.w3.org/2000/svg" width="30" height="32" viewBox="0 0 30 32">
<title>uniE258</title>
<path d="M29.5 23.188q0.563 1.188 0.469 2.406t-0.688 2.188-1.625 1.594-2.344 0.625h-18.625q-1.313 0-2.344-0.625t-1.656-1.594-0.688-2.188 0.5-2.406l3.188-6.313q0.313 0.063 0.625 0.094t0.688 0.031q0.25 0 0.438-0.031t0.438-0.031l-3.625 7.188q-0.625 1.375 0.125 2.625t2.313 1.25h18.625q1.5 0 2.25-1.25 0.813-1.313 0.125-2.625l-9.313-18.625q-0.5-1.125-1.875-1.438l-0.375-1t-0.5-1q0.125 0 0.188-0.031t0.188-0.031q1.25 0 2.375 0.656t1.813 1.906zM7 14q-1.438 0-2.719-0.563t-2.219-1.5-1.5-2.219-0.563-2.719 0.563-2.719 1.5-2.219 2.219-1.5 2.719-0.563 2.719 0.563 2.219 1.5 1.5 2.219 0.563 2.719-0.563 2.719-1.5 2.219-2.219 1.5-2.719 0.563z"></path>
</svg>
