<!-- Generated by IcoMoon.io -->
<svg version="1.1" xmlns="http://www.w3.org/2000/svg" width="32" height="32" viewBox="0 0 32 32">
<title>uniE032</title>
<path d="M30 4q0.688 0 1.125 0.313t0.625 0.688q0.25 0.438 0.25 1v5.938h-2q-0.063-4.5-0.313-4.938-0.188-0.375-0.594-0.688t-1.094-0.313h-14l-2-2h-8q-0.75 0-1.156 0.313t-0.594 0.688q-0.25 0.438-0.25 1v20q0 0.813 0.313 1.188t0.688 0.563q0.438 0.25 7 0.25v2h-8q-0.563 0-1-0.25-0.375-0.188-0.688-0.594t-0.313-1.156v-24q0-0.563 0.25-1 0.188-0.375 0.594-0.688t1.156-0.313h11.75l1.688 2h14.563zM30 16q0.875 0 1.438 0.563t0.563 1.438v11.938q0 0.813-0.563 1.406t-1.438 0.594h-14q-0.813 0-1.406-0.594t-0.594-1.406v-11.938q0-0.875 0.594-1.438t1.406-0.563h14z"></path>
</svg>
