<!-- Generated by IcoMoon.io -->
<svg version="1.1" xmlns="http://www.w3.org/2000/svg" width="32" height="32" viewBox="0 0 32 32">
<title>uniE1C3</title>
<path d="M16 0q3.313 0 6.219 1.25t5.094 3.406 3.438 5.094 1.25 6.25-1.25 6.219-3.438 5.094-5.094 3.438-6.219 1.25-6.25-1.25-5.094-3.438-3.406-5.094-1.25-6.219 1.25-6.25 3.406-5.094 5.094-3.406 6.25-1.25zM15.688 26.563q0.938 0 1.625-0.688t0.688-1.625-0.688-1.594-1.625-0.656-1.594 0.656-0.656 1.594 0.656 1.625 1.594 0.688zM22 11.625q0-2-1.688-3.563t-4.813-1.563q-2.875 0-4.531 1.5t-1.844 3.688h3.25q0.313-1.5 1.094-2.031t2.219-0.531 2.188 0.781 0.75 1.719q0 0.625-0.156 0.875t-0.844 0.938l-1.25 1.063q-0.938 0.75-1.438 1.313t-0.719 1.156-0.281 1.313-0.063 1.719h3.125q0-0.75 0.031-1.188t0.188-0.781 0.469-0.656 0.938-0.813l1.688-1.563 1-1.125 0.563-1z"></path>
</svg>
