<!-- Generated by IcoMoon.io -->
<svg version="1.1" xmlns="http://www.w3.org/2000/svg" width="28" height="32" viewBox="0 0 28 32">
<title>uniE112</title>
<path d="M7.563 19.625q2.188 1.313 2.75 2.531t0.563 2.781v2.375l-8.375-4.125v-1.938q0-1 0.281-1.75t1.406-0.75q0.313 0 0.688 0.063t0.875 0.063q-0.813-0.75-1.313-1.688t-0.5-2.063q0-1.063 0.719-1.781t1.531-0.719q1.438 0 2.375 1.281t0.938 3.094q0 2.5-1.938 2.625zM27.563 6.875v18.25l-13.813 6.875v-18.313l-13.688-6.813 13.75-6.875zM13.813 4.5l6.875 3.5 2.25-1.125-6.875-3.438zM8.125 5.125l9.125 4.625 2.313-1.188-9.188-4.563zM13.813 11.438l2.25-1.188-4.563-2.25-2.25 1.125zM24.063 23.188q-0.125-0.25-0.531-1.125t-0.469-1.938q1.25-1.25 1.938-2.75t0.688-2.75q0-2.438-2.313-2.438-1.313 0-2.688 0.844t-2.5 2.063-1.844 2.656-0.719 2.625q0 1.25 0.656 1.875t1.719 0.625q0.5 0 1.406-0.219t1.469-0.781q0.875 1.25 1.656 1.625t0.906 0.375q0.375 0 0.5-0.219t0.125-0.469z"></path>
</svg>
