<!-- Generated by IcoMoon.io -->
<svg version="1.1" xmlns="http://www.w3.org/2000/svg" width="24" height="32" viewBox="0 0 24 32">
<title>uniE113</title>
<path d="M22 4q0.875 0 1.438 0.594t0.563 1.406v24q0 0.875-0.563 1.438t-1.438 0.563h-20q-0.813 0-1.406-0.563t-0.594-1.438v-24q0-0.813 0.594-1.406t1.406-0.594h4.188q0.625-1.625 2.375-1.938 0.5-0.875 1.438-1.469t2-0.594q1.125 0 2.063 0.594t1.438 1.469q1.75 0.313 2.375 1.938h4.125zM9 4q-0.375 0-0.688 0.313t-0.313 0.688q0 0.438 0.313 0.719t0.688 0.281h6q1 0 1-1 0-0.375-0.281-0.688t-0.719-0.313h-1q0-0.813-0.563-1.406t-1.438-0.594q-0.813 0-1.406 0.594t-0.594 1.406h-1zM22 6h-4.188q-0.188 0.625-0.625 1.25-0.563 0.75-1.563 0.75h-7.188q-1 0-1.563-0.75-0.438-0.625-0.625-1.25h-4.25v24h20v-24zM16.938 12q1 0 1 1 0 0.375-0.281 0.688t-0.719 0.313h-9.938q-0.375 0-0.688-0.313t-0.313-0.688q0-0.438 0.313-0.719t0.688-0.281h9.938zM16.938 16q1 0 1 1 0 0.375-0.281 0.688t-0.719 0.313h-9.938q-0.375 0-0.688-0.313t-0.313-0.688q0-0.438 0.313-0.719t0.688-0.281h9.938zM16.938 20q1 0 1 1 0 0.375-0.281 0.688t-0.719 0.313h-9.938q-0.375 0-0.688-0.313t-0.313-0.688q0-0.438 0.313-0.719t0.688-0.281h9.938zM14.188 24.438q0.688-0.75 1.438 0 0.313 0.313 0.313 0.688t-0.313 0.688l-2.188 1.625q-0.625 0.563-1.438 0.563t-1.375-0.563l-2.375-1.688q-0.313-0.313-0.313-0.719t0.313-0.719 0.719-0.313 0.719 0.313l2 1.375q0.313 0.375 0.688 0z"></path>
</svg>
