<!-- Generated by IcoMoon.io -->
<svg version="1.1" xmlns="http://www.w3.org/2000/svg" width="23" height="32" viewBox="0 0 23 32">
<title>uniE0E9</title>
<path d="M23.25 23.875l-15.625 8.063-7.563-14.625v-9.188l3.5-1.875q-0.125-0.438-0.25-0.969t-0.125-1.031q0-0.438 0.188-0.938 0.563-1.5 1.563-2.063t2.25-0.563q1.125 0 2.438 0.313l5.125 1.5 2.438 0.313q1.313 0 2.344-0.594t1.656-2.219l1.063 2.313q-0.938 1.25-2.094 1.75t-2.406 0.5q-1.313 0-2.688-0.375t-2.688-0.813l-2.5-0.875-2.25-0.438q-0.75 0-1.375 0.281t-1.125 0.969q-0.188 0.313-0.188 0.688t0.094 0.75 0.156 0.688l3-1.563 7.5 5.375zM8.375 29.813l12.75-6.625-6.688-12.688-6-4.938-2.625 1.375q0.125 0.188 0.438 0.344t0.688 0.281q0.688 0.125 0.688 0.625 0 0.188-0.063 0.25-0.125 0.75-0.75 0.75h-0.25q-1.125-0.188-1.875-0.875-0.188-0.125-0.281-0.313t-0.219-0.313l-2.938 1.5 0.5 7.875zM7.063 12.563q-0.5 0.25-1.125 0.25-0.688 0-1.219-0.313t-0.844-1q-0.25-0.438-0.25-1.125 0-0.625 0.25-1.063 0.625 0.5 1.563 0.625h0.438q1.375 0 1.938-1 0.188 0.313 0.25 0.438 0.25 0.438 0.25 1.063 0 0.688-0.313 1.25t-0.938 0.875zM14.188 13.875l-10 5.063-0.75-1.313 9.938-5.188zM13.563 19.063l-7.063 3.688-0.688-1.438 7-3.625zM17.313 22l-8.5 4.438-0.75-1.438 8.5-4.438z"></path>
</svg>
