<!-- Generated by IcoMoon.io -->
<svg version="1.1" xmlns="http://www.w3.org/2000/svg" width="33" height="32" viewBox="0 0 33 32">
<title>uniE190</title>
<path d="M14.625 8.938q0 1.188-0.906 2.813t-2.531 2.5l-2.875-5 5.938-2.563q0.375 1.063 0.375 2.25zM7.125 15.375q-1.438 0-2.719-0.563t-2.25-1.531-1.531-2.25-0.563-2.781q0-2.938 1.906-4.906t4.031-2.219v7.313l3.438 6.375q-1.125 0.563-2.313 0.563zM8.063-0.063q2.25 0.125 4.031 1.344t2.719 3.094l-6.75 2.938v-7.375zM33 9q0 1.188-0.906 2.813t-2.531 2.5l-2.875-5 5.938-2.563q0.375 1.063 0.375 2.25zM25.5 15.438q-1.438 0-2.719-0.563t-2.25-1.531-1.531-2.25-0.563-2.781q0-2.938 1.906-4.906t4.031-2.219v7.313l3.438 6.375q-1.125 0.563-2.313 0.563zM26.438 0q2.25 0.125 4.031 1.344t2.719 3.094l-6.75 2.938v-7.375zM14.625 26q0 1.188-0.906 2.813t-2.531 2.5l-2.875-5 5.938-2.563q0.375 1.063 0.375 2.25zM7.125 32.438q-1.438 0-2.719-0.563t-2.25-1.531-1.531-2.25-0.563-2.781q0-2.938 1.906-4.906t4.031-2.219v7.313l3.438 6.375q-1.125 0.563-2.313 0.563zM8.063 17q2.25 0.125 4.031 1.344t2.719 3.094l-6.75 2.938v-7.375zM33 26.063q0 1.188-0.906 2.813t-2.531 2.5l-2.875-5 5.938-2.563q0.375 1.063 0.375 2.25zM25.5 32.5q-1.438 0-2.719-0.563t-2.25-1.531-1.531-2.25-0.563-2.781q0-2.938 1.906-4.906t4.031-2.219v7.313l3.438 6.375q-1.125 0.563-2.313 0.563zM26.438 17.063q2.25 0.125 4.031 1.344t2.719 3.094l-6.75 2.938v-7.375z"></path>
</svg>
