<!-- Generated by IcoMoon.io -->
<svg version="1.1" xmlns="http://www.w3.org/2000/svg" width="28" height="32" viewBox="0 0 28 32">
<title>uniE09E</title>
<path d="M12 10.063q3.313 0 6.219 1.25t5.094 3.438 3.438 5.094 1.25 6.219v2q0 0.813-0.563 1.406t-1.438 0.594q-0.813 0-1.406-0.594t-0.594-1.406v-2q0-2.5-0.938-4.688t-2.563-3.813-3.813-2.563-4.688-0.938h-5.188l4.625 4.563q0.563 0.563 0.563 1.406t-0.563 1.406q-0.625 0.625-1.438 0.625t-1.438-0.625l-8-8q-0.563-0.563-0.563-1.375t0.563-1.438l8.063-8q0.625-0.625 1.438-0.625t1.375 0.625q0.625 0.563 0.625 1.375t-0.625 1.438l-4.625 4.625h5.188z"></path>
</svg>
