<!-- Generated by IcoMoon.io -->
<svg version="1.1" xmlns="http://www.w3.org/2000/svg" width="32" height="32" viewBox="0 0 32 32">
<title>uniE23E</title>
<path d="M16 0q3.313 0 6.219 1.25t5.094 3.406 3.438 5.094 1.25 6.25-1.25 6.219-3.438 5.094-5.094 3.438-6.219 1.25-6.219-1.25-5.094-3.438-3.438-5.094-1.25-6.219 1.25-6.25 3.438-5.094 5.094-3.406 6.219-1.25zM16 30q2.375 0 4.531-0.781t3.969-2.094l-19.625-19.625q-1.375 1.813-2.125 3.969t-0.75 4.531q0 2.875 1.094 5.438t3 4.469 4.469 3 5.438 1.094zM27.25 24.25q1.313-1.75 2.031-3.844t0.719-4.406q0-2.875-1.094-5.438t-3-4.469-4.469-3-5.438-1.094q-2.313 0-4.406 0.719t-3.844 1.969z"></path>
</svg>
