<!-- Generated by IcoMoon.io -->
<svg version="1.1" xmlns="http://www.w3.org/2000/svg" width="32" height="32" viewBox="0 0 32 32">
<title>uniE151</title>
<path d="M32 4v2h-2v5q0 1-1 1t-1-1v-5h-2v7q0 1-1 1t-1-1v-7h-2v5q0 1-1 1t-1-1v-5h-2v7q0 1-1 1t-1-1v-7h-2v5q0 1-1 1t-1-1v-5h-2v7q0 1-1 1t-1-1v-7h-2v5q0 1-1 1t-1-1v-5h-2v7q0 1-1 1t-1-1v-9h32zM23 20h9v2h-8l1 2h7v2h-6l0.625 1.313q0.125 0.25 0 0.469t-0.438 0.219h-10.375q-0.313 0-0.438-0.219t0-0.469l0.625-1.313h-16v-2h17l1-2h-18v-2h19l1.563-3.063q0.125-0.313 0.438-0.313t0.438 0.313zM23.75 26l-2.75-5.5-2.75 5.5h5.5z"></path>
</svg>
