<!-- Generated by IcoMoon.io -->
<svg version="1.1" xmlns="http://www.w3.org/2000/svg" width="32" height="32" viewBox="0 0 32 32">
<title>uniE1C6</title>
<path d="M0 16q0-3.313 1.25-6.25t3.438-5.094 5.094-3.406 6.219-1.25 6.25 1.25 5.094 3.406 3.406 5.094 1.25 6.25-1.25 6.219-3.406 5.094-5.094 3.438-6.25 1.25-6.219-1.25-5.094-3.438-3.438-5.094-1.25-6.219zM23.188 8q-1.063-1-2.063 0l-6.438 6.188q-0.688 0.813-0.688 1.75 0 1.125 0.75 1.75l6.375 6.313q0.5 0.5 1.063 0.5t1.063-0.5 0.5-1.063-0.5-1.063l-6.063-5.938 6-5.813q0.313-0.313 0.406-0.594t0.094-0.469q0-0.625-0.5-1.063zM16 8q-1.063-1.063-2.125 0l-6.375 6.188q-0.688 0.813-0.688 1.75 0 1.063 0.688 1.75l6.375 6.313q0.5 0.5 1.094 0.5t1.094-0.5q0.438-0.438 0.438-1.063t-0.438-1.063l-6.125-5.938 6-5.813q0.375-0.313 0.469-0.594t0.094-0.469q0-0.563-0.5-1.063z"></path>
</svg>
