<!-- Generated by IcoMoon.io -->
<svg version="1.1" xmlns="http://www.w3.org/2000/svg" width="32" height="32" viewBox="0 0 32 32">
<title>uniE1C5</title>
<path d="M0 16q0-3.313 1.25-6.25t3.438-5.094 5.094-3.406 6.219-1.25 6.25 1.25 5.094 3.406 3.406 5.094 1.25 6.25-1.25 6.219-3.406 5.094-5.094 3.438-6.25 1.25-6.219-1.25-5.094-3.438-3.438-5.094-1.25-6.219zM30 16q0-2.875-1.094-5.438t-3-4.469-4.469-3-5.438-1.094-5.438 1.094-4.469 3-3 4.469-1.094 5.438 1.094 5.438 3 4.469 4.469 3 5.438 1.094 5.438-1.094 4.469-3 3-4.469 1.094-5.438zM14.25 8.313q0.688-0.688 1.375 0 0.75 0.75 0 1.438l-6 5.813q-0.375 0.375 0 0.688l6.063 5.938q0.688 0.75 0 1.438-0.75 0.75-1.438 0l-6.375-6.313q-0.563-0.563-0.563-1.375t0.563-1.438zM20.938 8.313q0.688-0.688 1.375 0 0.75 0.75 0 1.438l-6 5.813q-0.375 0.375 0 0.688l6.063 5.938q0.688 0.75 0 1.438-0.75 0.75-1.438 0l-6.375-6.313q-0.563-0.563-0.563-1.375t0.563-1.438z"></path>
</svg>
