<!-- Generated by IcoMoon.io -->
<svg version="1.1" xmlns="http://www.w3.org/2000/svg" width="32" height="32" viewBox="0 0 32 32">
<title>uniE0B2</title>
<path d="M2 14q0 0.875 0.563 1.438t1.438 0.563h4v2h-4q-1.688 0-2.844-1.188t-1.156-2.813v-10q0-1.625 1.156-2.813t2.844-1.188h14q1.625 0 2.813 1.188t1.188 2.813v4h-2v-4q0-0.875-0.594-1.438t-1.406-0.563h-14q-0.875 0-1.438 0.563t-0.563 1.438v10zM28 10q1.625 0 2.813 1.188t1.188 2.813v8q0 1.688-1.188 2.844t-2.813 1.156v4.75q0 0.563-0.406 0.906t-0.906 0.344-0.813-0.25l-4.875-5.688-7-0.063q-1.625 0-2.813-1.156t-1.188-2.844v-8q0-1.625 1.188-2.813t2.813-1.188h14zM30 14q0-0.813-0.594-1.406t-1.406-0.594h-14q-0.875 0-1.438 0.594t-0.563 1.406v8q0 0.875 0.563 1.438t1.438 0.563l8 0.063 4 4.938v-5h2q0.813 0 1.406-0.563t0.594-1.438v-8z"></path>
</svg>
