<!-- Generated by IcoMoon.io -->
<svg version="1.1" xmlns="http://www.w3.org/2000/svg" width="32" height="32" viewBox="0 0 32 32">
<title>uniE0FD</title>
<path d="M26.125 20.688q1.188 0 2.219 0.438t1.813 1.188 1.219 1.781 0.438 2.219q0 2.375-1.656 4.031t-4.031 1.656q-1.188 0-2.219-0.438t-1.781-1.219-1.188-1.813-0.438-2.219v-0.563q-0.375-0.25-1-0.469t-1.375-0.219q-1.063 0-1.719 0.5t-1.125 1.281-0.875 1.688-1.063 1.688-1.656 1.281-2.563 0.5q-4.313 0-6.688-1.406t-2.375-4.281q0-2.313 1.938-3.938 1.188-1 2.625-1.25t2.719-0.406 2.125-0.594 0.844-1.875q0-0.375-0.25-1.031t-0.563-1.281q-2-0.188-3.719-1.031t-2.969-2.188-2-3.156-0.75-3.875q0-3.125 1.688-5.688h5.188v2.25h-3.875q-0.75 1.5-0.75 3.438 0 1.688 0.625 3.125t1.719 2.5 2.531 1.688 3.125 0.625q1.625 0 3.063-0.625t2.531-1.719 1.719-2.531 0.625-3.063q0-1.938-0.75-3.438h-3.813v-2.25h5.125q1.688 2.563 1.688 5.688 0 3.875-2.406 6.625t-6.156 3.438q0.25 0.688 0.438 1.313t0.188 1.188q0 1.875-0.75 2.781t-1.906 1.313-2.469 0.531-2.469 0.406-1.906 0.938-0.75 2.094q0 1.875 1.844 2.656t4.969 0.781q1.25 0 1.938-0.5t1.125-1.281 0.813-1.688 0.969-1.688 1.594-1.281 2.688-0.5q0.875 0 1.625 0.219t1.313 0.531q0.75-1.313 2.031-2.094t2.906-0.781zM23.688 28.75q1 1 2.438 1t2.438-1 1-2.438-1-2.406-2.438-0.969-2.406 0.969-0.969 2.406 0.938 2.438zM26.125 24.063q1 0 1.656 0.656t0.656 1.594q0 1-0.656 1.688t-1.656 0.688q-0.938 0-1.594-0.688t-0.656-1.688q0-0.938 0.656-1.594t1.594-0.656z"></path>
</svg>
