<!-- Generated by IcoMoon.io -->
<svg version="1.1" xmlns="http://www.w3.org/2000/svg" width="28" height="32" viewBox="0 0 28 32">
<title>uniE236</title>
<path d="M4 0q1.625 0 2.813 1.156t1.188 2.844q0 1.625-1.188 2.813t-2.813 1.188-2.813-1.188-1.188-2.813q0-1.688 1.188-2.844t2.813-1.156zM4 12q1.625 0 2.813 1.156t1.188 2.844q0 1.625-1.188 2.813t-2.813 1.188-2.813-1.188-1.188-2.813q0-1.688 1.188-2.844t2.813-1.156zM4 24q1.625 0 2.813 1.156t1.188 2.844q0 1.625-1.188 2.813t-2.813 1.188-2.813-1.188-1.188-2.813q0-1.688 1.188-2.844t2.813-1.156zM27 4.063q1 0 1 1 0 0.375-0.281 0.688t-0.719 0.313h-11.938q-0.375 0-0.688-0.313t-0.313-0.688q0-0.438 0.313-0.719t0.688-0.281h11.938zM27 16q1 0 1 1 0 0.375-0.281 0.688t-0.719 0.313h-11.938q-0.375 0-0.688-0.313t-0.313-0.688q0-0.438 0.313-0.719t0.688-0.281h11.938zM27 28q1 0 1 1 0 0.375-0.281 0.688t-0.719 0.313h-11.938q-0.375 0-0.688-0.313t-0.313-0.688q0-0.438 0.313-0.719t0.688-0.281h11.938z"></path>
</svg>
