<!-- Generated by IcoMoon.io -->
<svg version="1.1" xmlns="http://www.w3.org/2000/svg" width="32" height="32" viewBox="0 0 32 32">
<title>uniE0B0</title>
<path d="M30.625 2q0.563 0 0.969 0.406t0.406 0.969v21.25q0 0.563-0.406 0.969t-0.969 0.406h-2.313q-0.625 0-1.188-0.688-0.375-0.625-1.281-1.281t-2.094-1.281q-2.688-1.313-4.844-2.219t-3.719-1.469q-1.813-0.688-3.188-1.063l1.75 10.438q0.125 0.625-0.281 1.094t-1.094 0.469h-3.438q-0.938 0-1.25-0.875l-3.688-10.438q-0.25-0.625-0.938-0.813-1.375-0.375-2.219-1.281t-0.844-2.344q0-1.938 1.344-3.094t3.219-1.156h5.75q0.563 0 1.844-0.125t3.094-0.625 4.031-1.438 4.594-2.625q1.25-0.875 2.094-1.5t1.219-1.125q0.438-0.563 1-0.563h2.438zM12 11.875q-0.5 0.125-0.938 0.125h-6.5q-1 0-1.781 0.531t-0.781 1.719q0 0.313 0.188 0.844t1.375 0.844q0.813 0.188 1.406 0.75t0.906 1.313l3.5 10h2.25q-0.625-3.438-1.063-6.125l-0.375-2.25t-0.313-2-0.219-1.438l-0.094-0.563q0-0.063 0.875 0.094t1.563 0.281v-4.125zM30 4h-1.438q-0.5 0.625-1.406 1.313t-2.156 1.563q-3.188 2.188-6.031 3.25t-4.969 1.438v5q1.438 0.5 4.156 1.531t6.469 2.844q1.375 0.688 2.406 1.469t1.656 1.594h1.313v-20z"></path>
</svg>
