<!-- Generated by IcoMoon.io -->
<svg version="1.1" xmlns="http://www.w3.org/2000/svg" width="32" height="32" viewBox="0 0 32 32">
<title>uniE028</title>
<path d="M23.25 12.188l-5.188-5.188 1.688-1.688 3.5 3.438 6.875-6.938 1.813 2.188zM12 20q1.688 0 3.125 0.625t2.531 1.719 1.719 2.531 0.625 3.125v2h-20v-2q0-1.688 0.625-3.125t1.719-2.531 2.563-1.719 3.094-0.625h4zM18 28q0-2.5-1.75-4.25t-4.25-1.75h-4q-1.25 0-2.313 0.469t-1.906 1.281-1.313 1.906-0.469 2.344h16zM16 14q0 2.5-1.75 4.25t-4.25 1.75-4.25-1.75-1.75-4.25 1.75-4.25 4.25-1.75 4.25 1.75 1.75 4.25zM10 18q1.688 0 2.844-1.188t1.156-2.813q0-1.688-1.156-2.844t-2.844-1.156q-1.625 0-2.813 1.156t-1.188 2.844q0 1.625 1.188 2.813t2.813 1.188zM28.938 24q1 0 1 1 0 0.375-0.281 0.688t-0.719 0.313h-5.938q-0.375 0-0.688-0.313t-0.313-0.688q0-0.438 0.313-0.719t0.688-0.281h5.938zM28.938 28q1 0 1 1 0 0.375-0.281 0.688t-0.719 0.313h-5.938q-0.375 0-0.688-0.313t-0.313-0.688q0-0.438 0.313-0.719t0.688-0.281h5.938z"></path>
</svg>
