<!-- Generated by IcoMoon.io -->
<svg version="1.1" xmlns="http://www.w3.org/2000/svg" width="30" height="32" viewBox="0 0 30 32">
<title>uniE1D9</title>
<path d="M8 17h16v-2h-16v2zM28 2h-8v2h8v24h-24v-16h-2v16q0 0.875 0.563 1.438t1.438 0.563h24q0.813 0 1.406-0.563t0.594-1.438v-24q0-0.813-0.594-1.406t-1.406-0.594zM14.188 2.375q0.688-0.75 1.438 0 0.313 0.313 0.313 0.688t-0.313 0.688l-6.188 5.75q-0.625 0.563-1.438 0.563t-1.375-0.563l-6.313-5.75q-0.313-0.313-0.313-0.719t0.313-0.719 0.719-0.313 0.719 0.313l5.938 5.438q0.313 0.375 0.688 0z"></path>
</svg>
