<!-- Generated by IcoMoon.io -->
<svg version="1.1" xmlns="http://www.w3.org/2000/svg" width="32" height="32" viewBox="0 0 32 32">
<title>uniE13D</title>
<path d="M26 20q2.5 0 4.25 1.75t1.75 4.25-1.75 4.25-4.25 1.75-4.25-1.75-1.75-4.25q0-0.313 0.031-0.594t0.094-0.594l-9.375-5.125q-0.875 1.063-2.094 1.688t-2.656 0.625q-2.5 0-4.25-1.75t-1.75-4.25 1.75-4.25 4.25-1.75q1.75 0 3.156 0.938t2.156 2.375l9.125-5.125q-0.188-0.5-0.313-1.031t-0.125-1.156q0-2.5 1.75-4.25t4.25-1.75 4.25 1.75 1.75 4.25-1.75 4.25-4.25 1.75q-1.375 0-2.531-0.563t-1.969-1.5l-9.563 5.313q0 0.188 0.031 0.375t0.031 0.375q0 0.875-0.313 1.938l9.188 5q0.813-1.313 2.156-2.125t2.969-0.813zM26 2q-1.625 0-2.813 1.188t-1.188 2.813q0 1.688 1.188 2.844t2.813 1.156 2.813-1.156 1.188-2.844q0-1.625-1.188-2.813t-2.813-1.188zM6 20q1.625 0 2.813-1.156t1.188-2.844q0-1.625-1.188-2.813t-2.813-1.188-2.813 1.188-1.188 2.813q0 1.688 1.188 2.844t2.813 1.156zM26 30q1.625 0 2.813-1.156t1.188-2.844q0-1.625-1.188-2.813t-2.813-1.188-2.813 1.188-1.188 2.813q0 1.688 1.188 2.844t2.813 1.156z"></path>
</svg>
