<!-- Generated by IcoMoon.io -->
<svg version="1.1" xmlns="http://www.w3.org/2000/svg" width="33" height="32" viewBox="0 0 33 32">
<title>uniE100</title>
<path d="M13.125 16l1.125 5.875-4.688 2.375-4.813-3.563 2.375-5.938zM22.563 4.063l3.563 3.563-2.438 4.813-5.875-1.25v-5.875zM16.688-0.625q3.438 0 6.438 1.313t5.25 3.563 3.531 5.281 1.281 6.469-1.281 6.438-3.531 5.25-5.25 3.531-6.438 1.281q-3.5 0-6.531-1.281t-5.281-3.531-3.531-5.25-1.281-6.438 1.281-6.469 3.531-5.281 5.281-3.563 6.531-1.313zM29.688 23.625q1.063-1.75 1.719-3.688t0.656-3.938l-2.063-7.188q-2.188-3.563-5.719-5.938t-7.594-2.375q-3 0-6 1.438v2.125l-4.688 4.813h-2.75q-0.938 1.625-1.5 3.438t-0.563 3.688q0 1.938 0.594 3.813t1.625 3.563 2.438 3.125 3.094 2.5h0.625l7.125 2.375q2.188 0 4.281-0.781t3.969-2.031l-2.375-0.75-1.188-3.563 4.75-4.813 3.563 2.438v1.75z"></path>
</svg>
