<!-- Generated by IcoMoon.io -->
<svg version="1.1" xmlns="http://www.w3.org/2000/svg" width="32" height="32" viewBox="0 0 32 32">
<title>uniE22D</title>
<path d="M32 23.938l-5.125 6.438q-0.438 0.438-0.938 0.438-0.438 0-0.688-0.25-0.438-0.25-0.438-0.875 0-0.438 0.25-0.688l4-5.063-4-5q-0.25-0.25-0.25-0.688 0-1.125 1.125-1.125 0.5 0 0.938 0.438zM22.563 15.938q0.5 0 0.781 0.375t0.281 0.75-0.063 0.438l-4.5 13.688q-0.25 0.813-1.125 0.813-0.5 0-0.813-0.375t-0.313-0.813q0-0.313 0.063-0.375l4.563-13.625q0.313-0.875 1.125-0.875zM15.625 18.313q0 0.375-0.188 0.625l-4 5 4 5.063q0.125 0.5 0.125 0.688 0 0.375-0.219 0.75t-0.844 0.375q-0.438 0-0.875-0.438l-5.125-6.438 5.125-6.375q0.25-0.438 0.875-0.438 0.438 0 0.688 0.25 0.438 0.375 0.438 0.938zM19.438 14q-0.5-0.875-1.438-1.438t-2-0.563q-1.5 0-2.594 0.938t-1.344 2.375l-1.813 2.25q-0.25-0.688-0.25-1.563 0-2.5 1.75-4.25t4.25-1.75q2 0 3.5 1.125t2.125 2.875h-2.188zM27.313 7.5l-2.813-2.813-1.25 1.25-1.063 1-1.313-0.625q-0.375-0.188-0.75-0.344t-0.75-0.281l-1.375-0.5v-3.188h-4v3.188l-1.375 0.5q-0.375 0.125-0.781 0.281t-0.781 0.344l-1.25 0.625-1.063-1-1.25-1.25-2.813 2.813 1.25 1.25 1 1.063-0.625 1.25q-0.188 0.375-0.344 0.781t-0.281 0.781l-0.5 1.375h-3.188v4h3.188l0.5 1.375q0.125 0.375 0.281 0.75t0.344 0.75l0.625 1.313-1 1.063-1.25 1.25 1.875 1.875-1.25 1.563-2.063-2.063q-0.563-0.563-0.563-1.406t0.563-1.406l1.25-1.25q-0.188-0.438-0.406-0.875t-0.344-0.938h-1.75q-0.875 0-1.438-0.594t-0.563-1.406v-4q0-0.875 0.563-1.438t1.438-0.563h1.75q0.125-0.5 0.344-0.938t0.406-0.875l-1.25-1.25q-0.563-0.625-0.563-1.438t0.563-1.375l2.875-2.875q0.563-0.563 1.375-0.563 0.875 0 1.438 0.563l1.25 1.25q0.438-0.188 0.875-0.406t0.938-0.344v-1.75q0-0.875 0.563-1.438t1.438-0.563h4q0.875 0 1.438 0.563t0.563 1.438v1.75q0.5 0.125 0.938 0.344t0.875 0.406l1.25-1.25q0.563-0.563 1.438-0.563 0.813 0 1.375 0.563l2.875 2.875q0.563 0.563 0.563 1.375t-0.563 1.438l-1.25 1.25 0.688 1.688h-2.125q-0.125-0.188-0.188-0.406t-0.188-0.406l-0.688-1.25 1.063-1.063z"></path>
</svg>
