<!-- Generated by IcoMoon.io -->
<svg version="1.1" xmlns="http://www.w3.org/2000/svg" width="32" height="32" viewBox="0 0 32 32">
<title>uniE045</title>
<path d="M30 8q0.563 0 1 0.25 0.375 0.188 0.688 0.563t0.313 1.063v18.125q0 0.75-0.563 1.375t-1.438 0.625h-28q-0.813 0-1.406-0.625t-0.594-1.375v-18.125q0-0.813 0.594-1.344t1.406-0.531h4q0.25-0.875 0.75-1.906t1.063-1.938 1.125-1.531 1.063-0.625h12q0.5 0 1.094 0.594t1.156 1.5 1 1.969 0.75 1.938h4zM30 10h-5.438l-0.438-1.375q-0.5-1.563-1.25-2.875t-1.188-1.75h-11.313q-0.5 0.438-1.219 1.75t-1.219 2.875l-0.438 1.375h-5.5v18h28v-18zM16 10q1.688 0 3.125 0.625t2.531 1.719 1.719 2.563 0.625 3.094q0 1.688-0.625 3.125t-1.719 2.531-2.531 1.719-3.125 0.625-3.125-0.625-2.531-1.719-1.719-2.531-0.625-3.125q0-1.625 0.625-3.094t1.719-2.563 2.531-1.719 3.125-0.625zM16 24q2.5 0 4.25-1.75t1.75-4.25-1.75-4.25-4.25-1.75-4.25 1.75-1.75 4.25 1.75 4.25 4.25 1.75zM27 12q1 0 1 1t-1 1-1-1 1-1z"></path>
</svg>
