<!-- Generated by IcoMoon.io -->
<svg version="1.1" xmlns="http://www.w3.org/2000/svg" width="32" height="32" viewBox="0 0 32 32">
<title>uniE0A1</title>
<path d="M23.625 18.625q-0.313 0.188-0.188 0.563l4.5 12.125q0.125 0.313-0.063 0.5t-0.438 0.188q-0.188 0-0.25-0.063l-10.938-7.75q-0.063-0.063-0.25-0.063-0.25 0-0.313 0.063l-10.938 7.75q-0.063 0.063-0.25 0.063-0.25 0-0.438-0.188t-0.063-0.5l4.5-12.125q0.125-0.375-0.188-0.563l-8.125-5.75q-0.313-0.188-0.188-0.531t0.5-0.344h10.313q0.375 0 0.5-0.313l4.188-11.375q0.125-0.313 0.5-0.313 0.313 0 0.438 0.313l4.188 11.375q0.125 0.313 0.5 0.313h10.375q0.313 0 0.438 0.344t-0.188 0.531zM21.563 19.875q-0.313-0.813-0.063-1.594t0.938-1.281l4.313-3h-5.625q-1.75 0-2.375-1.625l-2.75-7.563-2.813 7.563q-0.625 1.625-2.375 1.625h-5.563l4.25 3q0.688 0.5 0.938 1.281t-0.063 1.594l-2.813 7.625 7-4.938q0.625-0.438 1.438-0.438 0.688 0 1.375 0.375l7 5z"></path>
</svg>
