<!-- Generated by IcoMoon.io -->
<svg version="1.1" xmlns="http://www.w3.org/2000/svg" width="30" height="32" viewBox="0 0 30 32">
<title>uniE19C</title>
<path d="M28.75 15.188q0.313 1.063 0.563 2.094t0.25 2.031q0 2.688-0.906 4.469t-2.313 2.906-3.063 1.75-3.156 1.063-2.625 0.813-1.438 0.938l-0.063 0.5-0.813 0.25h-0.625l-0.875-0.25-0.063-0.5q-2-0.875-4.344-1.625t-4.375-1.938-3.406-3.094-1.375-5.031q0-0.375 0.313-1.75t0.688-3 0.688-3.094 0.313-1.969q0-1.938-1.438-5.188l4.75-4.563q1.813 1.25 3.094 1.938t2.781 0.688q1.438 0 3-1.063l0.5-0.438 0.563 0.438q0.75 0.813 1.594 0.938t1.594 0.125q1.25 0 2.563-0.75l3.125-1.875 4.813 4.563q-1.063 1.938-1.281 3.031t-0.219 2.156q0 1.438 0.344 2.813t0.844 2.625zM27.375 19.438q0-0.75-0.375-1.813l-1.375-4.75-0.375-3q0-2.188 1.063-4.813l-2.438-2.125q-3.688 2-5.5 2-1.75 0-3.5-0.75-1.875 0.75-3.563 0.75-1.125 0-5.625-2.063l-2.188 2.188q0.438 1.25 0.656 2.438t0.219 2.5q0.063 0.813-0.25 2.094t-0.75 3.156l-0.938 4.188q0 2.938 1.313 4.438t3.25 2.344 4.063 1.375 3.813 1.594q1.063-0.813 2.406-1.25t2.719-0.813 2.656-0.813 2.313-1.281 1.688-2.156 0.719-3.438zM17.688 12.938l6.188 0.875-4.5 4.5 1.125 6.188-5.625-2.938-5.625 2.938 1.063-6.188-4.5-4.5 6.188-0.875 2.875-5.625z"></path>
</svg>
