<!-- Generated by IcoMoon.io -->
<svg version="1.1" xmlns="http://www.w3.org/2000/svg" width="28" height="32" viewBox="0 0 28 32">
<title>uniE080</title>
<path d="M13.75 6.813l-5.75-3.375 5.75-3.438 5.688 3.438zM27.375 8v6.813l-5.688 3.438v-6.813l-5.688-3.438 5.688-3.438zM0.063 17.125l5.688 3.375v6.875l-5.688-3.438v-6.813zM13.75 9.125l5.688 3.375v6.875l-5.688 3.375-5.75-3.375v-6.875zM11.438 7.938l-5.688 3.5v6.813l-5.688-3.438v-6.813l5.688-3.438zM21.688 20.5l5.688-3.375v6.813l-5.688 3.438v-6.875zM13.75 25.125l5.688-3.438v6.813l-5.688 3.438-5.75-3.438v-6.813z"></path>
</svg>
