<!-- Generated by IcoMoon.io -->
<svg version="1.1" xmlns="http://www.w3.org/2000/svg" width="32" height="32" viewBox="0 0 32 32">
<title>uniE0BC</title>
<path d="M24 8q0.813 0 1.406 0.594t0.594 1.406v20q0 0.875-0.594 1.438t-1.406 0.563h-14q-0.875 0-1.438-0.563t-0.563-1.438v-20q0-0.813 0.563-1.406t1.438-0.594h14zM24 10h-14v20h14v-20zM2 22h4v2h-4q-0.875 0-1.438-0.563t-0.563-1.438v-20q0-0.813 0.563-1.406t1.438-0.594h14q0.813 0 1.406 0.594t0.594 1.406h-16v20zM30 4q0.813 0 1.406 0.594t0.594 1.406v20q0 0.875-0.594 1.438t-1.406 0.563h-2v-2h2v-20h-16q0-0.813 0.563-1.406t1.438-0.594h14z"></path>
</svg>
