<!-- Generated by IcoMoon.io -->
<svg version="1.1" xmlns="http://www.w3.org/2000/svg" width="28" height="32" viewBox="0 0 28 32">
<title>uniE016</title>
<path d="M26 2q0.875 0 1.438 0.563t0.563 1.438v24q0 0.813-0.563 1.406t-1.438 0.594h-24q-0.875 0-1.438-0.594t-0.563-1.406v-24q0-0.875 0.563-1.438t1.438-0.563h24zM26 4h-24v20h24v-20zM18 12l6 10h-12zM12.125 18h-8.125v-10h8.75q-0.313 0.688-0.531 1.406t-0.219 1.594q0 1.25 0.438 2.375t1.188 2zM14.75 13.563q-0.313-0.563-0.531-1.219t-0.219-1.344q0-2.125 1.469-3.563t3.531-1.438q2.125 0 3.563 1.438t1.438 3.563q0 1.188-0.5 2.188t-1.375 1.688l-4.125-6.813z"></path>
</svg>
