<!-- Generated by IcoMoon.io -->
<svg version="1.1" xmlns="http://www.w3.org/2000/svg" width="32" height="32" viewBox="0 0 32 32">
<title>uniE136</title>
<path d="M31.875 25.5v6.5h-6.438l-7.438-8q-1.25 1.063-2.719 1.531t-2.781 0.469q-3.375 0-6.094-1.688t-4.406-4.313h10q0.75 0 1.438-0.625t1.25-1.688 0.906-2.375 0.344-2.75q0-1.375-0.344-2.563t-0.875-2.094-1.25-1.406-1.469-0.5h-10q1.688-2.625 4.406-4.313t6.094-1.688q2.625 0 4.906 1t4 2.688 2.719 3.969 1 4.906q0 1.375-0.313 2.625t-0.813 2.438zM29.875 26.313l-8.25-8.25 0.563-1.25q0.938-2.25 0.938-4.25 0-2.188-0.844-4.094t-2.281-3.344-3.375-2.281-4.125-0.844q-3.375 0-5.938 2h5.438q1.188 0 2.281 0.656t1.906 1.844 1.281 2.75 0.469 3.313q0 1.688-0.438 3.344t-1.219 3.031-1.875 2.219-2.406 0.844h-5.438q1.25 0.938 2.781 1.469t3.156 0.531q0.875 0 2.063-0.344t2.125-1.156l1.5-1.313 1.313 1.438 6.813 7.375h3.563v-3.688zM3 18l-3-3.063v-3.875l2.938-3.063h4.125l2.938 3v3.938l-3 3.063h-4z"></path>
</svg>
