<!-- Generated by IcoMoon.io -->
<svg version="1.1" xmlns="http://www.w3.org/2000/svg" width="34" height="32" viewBox="0 0 34 32">
<title>uniE10A</title>
<path d="M16 15.313q0-1.25 0.719-1.781t1.594-0.531q1 0 1.719 0.563t0.719 1.75q0 0.938-0.719 1.625t-1.719 0.688-1.656-0.688-0.656-1.625zM14.25 15.125q1.188 0 1.188 1.188 0 0.438-0.281 0.781t-0.906 0.344h-4.75q-1.188 0-1.188-1.188 0-1.125 1.188-1.125h4.75zM1.313 17.438q-0.625 0-0.938-0.344t-0.313-0.781q0-1.188 1.25-1.188h6.625q-1.25 0-1.25 1.188 0 0.438 0.313 0.781t0.938 0.344h-6.625zM21.063 21h-21v-2.375h21v2.375zM18.813 0.188q2.938 0.438 5.469 1.844t4.406 3.531 2.938 4.875 1.063 5.813q0 3.375-1.281 6.344t-3.469 5.156-5.188 3.469-6.375 1.281q-2.563 0-4.844-0.75t-4.25-2.063-3.469-3.156-2.438-4.031h2.75q1.688 3.375 4.969 5.438t7.281 2.063q2.875 0 5.406-1.063t4.406-2.938 2.938-4.375 1.063-5.375q0-2.688-0.969-5.094t-2.656-4.25-4-3-4.938-1.406l-1.25 2.5-1.188-2.5q-4.375 0.438-7.625 3.156t-4.438 6.844h-2.563q0.563-2.438 1.813-4.531t3-3.688 3.938-2.656 4.688-1.438l-0.063-0.188h4.938zM16.375 25.063q1.813 0 3.438-0.688t2.813-1.906 1.875-2.813 0.688-3.406-0.688-3.406-1.875-2.813-2.813-1.906-3.438-0.688q-2.625 0-4.719 1.406t-3.156 3.656h-2.688q1.125-3.375 4-5.438t6.625-2.063q2.313 0 4.375 0.875t3.594 2.406 2.406 3.594 0.875 4.375q0 2.375-0.875 4.406t-2.406 3.563-3.594 2.406-4.375 0.875q-3 0-5.438-1.344t-3.938-3.656h3.188q1.25 1.188 2.813 1.875t3.313 0.688z"></path>
</svg>
