<!-- Generated by IcoMoon.io -->
<svg version="1.1" xmlns="http://www.w3.org/2000/svg" width="32" height="32" viewBox="0 0 32 32">
<title>uniE144</title>
<path d="M28 13q0 0.438-0.313 0.719t-0.688 0.281q-1 0-1-1t1-1q0.375 0 0.688 0.281t0.313 0.719zM26 24h6v2h-6v6h-2v-6h-6v-2h6v-6h2v6zM30 8q0.563 0 1 0.25 0.375 0.188 0.688 0.531t0.313 1.031v6.188h-2v-6h-5.5l-0.438-1.375q-0.5-1.563-1.219-2.875t-1.219-1.75h-11.313q-0.438 0.438-1.188 1.75t-1.25 2.875l-0.438 1.375h-5.438v18h14v2h-14q-0.875 0-1.438-0.625t-0.563-1.375v-18.188q0-0.75 0.563-1.281t1.438-0.531h4q0.25-0.875 0.719-1.938t1.031-1.938 1.156-1.5 1.094-0.625h12q0.5 0 1.063 0.594t1.125 1.5 1.031 1.969 0.781 1.938h4zM16 12q-2.5 0-4.25 1.75t-1.75 4.25 1.75 4.25 4.25 1.75v2q-1.688 0-3.125-0.625t-2.531-1.719-1.719-2.531-0.625-3.125 0.625-3.125 1.719-2.531 2.531-1.719 3.125-0.625q2.813 0 4.906 1.688t2.781 4.313h-2.063q-0.688-1.75-2.188-2.875t-3.438-1.125z"></path>
</svg>
