<!-- Generated by IcoMoon.io -->
<svg version="1.1" xmlns="http://www.w3.org/2000/svg" width="32" height="32" viewBox="0 0 32 32">
<title>uniE018</title>
<path d="M2 28q-0.813 0-1.406-0.563t-0.594-1.438v-24q0-0.813 0.594-1.406t1.406-0.594h4q0.875 0 1.438 0.594t0.563 1.406v24q0 0.875-0.563 1.438t-1.438 0.563h-4zM30 4q0.875 0 1.438 0.594t0.563 1.406v24q0 0.875-0.563 1.438t-1.438 0.563h-28q-0.813 0-1.406-0.563t-0.594-1.438h30v-24h-20v-2h20zM14 20q-0.813 0-1.406-0.563t-0.594-1.438q0-0.813 0.594-1.406t1.406-0.594q0.875 0 1.438 0.594t0.563 1.406q0 0.875-0.563 1.438t-1.438 0.563zM20 16q0.875 0 1.438 0.594t0.563 1.406q0 0.875-0.563 1.438t-1.438 0.563q-0.813 0-1.406-0.563t-0.594-1.438q0-0.813 0.594-1.406t1.406-0.594zM26 16q0.875 0 1.438 0.594t0.563 1.406q0 0.875-0.563 1.438t-1.438 0.563q-0.813 0-1.406-0.563t-0.594-1.438q0-0.813 0.594-1.406t1.406-0.594zM26 22q0.875 0 1.438 0.594t0.563 1.406q0 0.875-0.563 1.438t-1.438 0.563q-0.813 0-1.406-0.563t-0.594-1.438q0-0.813 0.594-1.406t1.406-0.594zM20 22q0.875 0 1.438 0.594t0.563 1.406q0 0.875-0.563 1.438t-1.438 0.563q-0.813 0-1.406-0.563t-0.594-1.438q0-0.813 0.594-1.406t1.406-0.594zM14 26q-0.813 0-1.406-0.563t-0.594-1.438q0-0.813 0.594-1.406t1.406-0.594q0.875 0 1.438 0.594t0.563 1.406q0 0.875-0.563 1.438t-1.438 0.563zM28 11q0 1-1 1h-14q-1 0-1-1v-2q0-0.375 0.281-0.688t0.719-0.313h14q0.438 0 0.719 0.313t0.281 0.688v2z"></path>
</svg>
