<!-- Generated by IcoMoon.io -->
<svg version="1.1" xmlns="http://www.w3.org/2000/svg" width="32" height="32" viewBox="0 0 32 32">
<title>uniE082</title>
<path d="M22 14q0 2.5-1.75 4.25t-4.25 1.75-4.25-1.75-1.75-4.25 1.75-4.25 4.25-1.75 4.25 1.75 1.75 4.25zM16 18q1.688 0 2.844-1.188t1.156-2.813-1.156-2.813-2.844-1.188q-1.625 0-2.813 1.188t-1.188 2.813 1.188 2.813 2.813 1.188zM16 0q3.313 0 6.25 1.25t5.094 3.438 3.406 5.094 1.25 6.219-1.25 6.219-3.406 5.094-5.094 3.438-6.25 1.25-6.219-1.25-5.094-3.438-3.438-5.094-1.25-6.219 1.25-6.219 3.438-5.094 5.094-3.438 6.219-1.25zM16 30q2.25 0 4.25-0.656t3.688-1.781q-0.313-2.438-1.969-4t-3.969-1.563h-4q-2.25 0-3.906 1.563t-1.969 3.938q1.688 1.188 3.688 1.844t4.188 0.656zM25.75 26.063q2-1.938 3.125-4.5t1.125-5.563q0-2.875-1.094-5.438t-3-4.469-4.469-3-5.438-1.094-5.438 1.094-4.469 3-3 4.469-1.094 5.438q0 3 1.156 5.563t3.156 4.5q0.688-2.625 2.781-4.344t4.906-1.719h4q2.813 0 4.938 1.719t2.813 4.344z"></path>
</svg>
