<!-- Generated by IcoMoon.io -->
<svg version="1.1" xmlns="http://www.w3.org/2000/svg" width="32" height="32" viewBox="0 0 32 32">
<title>uniE23C</title>
<path d="M2 30h4v2h-3.938q-0.875 0-1.469-0.563t-0.594-1.438v-22l8-8h14q0.875 0 1.438 0.594t0.563 1.406v6h-2v-6h-12v6q0 0.875-0.594 1.438t-1.406 0.563h-6v20zM31.688 12.375q0.313 0.313 0.313 0.688t-0.313 0.688l-16.25 16.313q-0.063 0.063-1.063 0.375t-2.25 0.625q-1.438 0.438-3.188 0.938 0.563-1.688 1.063-3.063 0.438-1.125 0.781-2.094t0.406-1.031l16.313-16.25q0.313-0.313 0.688-0.313t0.688 0.313zM25.625 17l-1.375-1.375-11.375 11.313 1.438 1.375zM29.563 13.063l-1.375-1.375-2.563 2.5 1.438 1.438z"></path>
</svg>
