<!-- Generated by IcoMoon.io -->
<svg version="1.1" xmlns="http://www.w3.org/2000/svg" width="28" height="32" viewBox="0 0 28 32">
<title>uniE24C</title>
<path d="M27.5 23.75q0.563 0.563 0.563 1.406t-0.563 1.406l-2.875 2.813q-0.563 0.625-1.375 0.625-0.875 0-1.438-0.625l-7.75-7.75v3.813q0 1.063-0.75 1.813t-1.813 0.75q-0.688 0-1.281-0.344t-0.906-0.969l-0.125-0.25q-1.938-4.938-3.688-9.375-0.75-1.875-1.531-3.844t-1.5-3.813-1.344-3.406-1-2.688q-0.188-0.5 0.125-0.906t0.813-0.406q0.188 0 0.313 0.063 1.125 0.375 2.688 1t3.375 1.313 3.813 1.438 3.875 1.5q4.375 1.688 9.313 3.625l0.125 0.063h0.063q0.813 0.438 1.188 1.25t0.188 1.75q-0.25 0.875-0.938 1.438t-1.563 0.563h-3.813zM26.063 25.188l-7.75-7.813-3.438-3.375h8.625q0.375 0 0.563-0.5 0.125-0.5-0.313-0.688-0.063 0-1.156-0.438t-2.844-1.125-3.969-1.531-4.531-1.75-4.531-1.75-3.969-1.531q0.688 1.75 1.563 3.969t1.781 4.531 1.781 4.531 1.563 3.969 1.125 2.844 0.438 1.156h0.063q0.125 0.313 0.438 0.313 0.563 0 0.563-0.563v-8.625l3.375 3.438 7.813 7.75z"></path>
</svg>
