<!-- Generated by IcoMoon.io -->
<svg version="1.1" xmlns="http://www.w3.org/2000/svg" width="28" height="32" viewBox="0 0 28 32">
<title>uniE226</title>
<path d="M4.563 10.5q-1.063-1.063-1.063-2.438v-4.938q0-0.438 0.438-0.438 0.188 0 0.313 0.125l8.5 8.5-1.063 1.063-6.688-6.688v2.375q0 0.75 0.625 1.375l4.5 4.5-1.063 1.063zM22 18q2.5 0 4.25 1.75t1.75 4.25-1.75 4.25-4.25 1.75-4.25-1.75-1.75-4.25q0-0.688 0.063-1l0.188-0.75-2.25-2.313-2.313 2.313 0.125 0.375t0.063 0.375q0.063 0.25 0.094 0.469t0.031 0.531q0 2.5-1.75 4.25t-4.25 1.75-4.25-1.75-1.75-4.25 1.75-4.25 4.25-1.75h0.563t0.563 0.125q0.25 0.063 0.5 0.094t0.5 0.156l15.563-15.563q0.25-0.125 0.313-0.125 0.438 0 0.438 0.438v4.938q0 1.313-1 2.438l-5.75 5.75 2.188 2.125q0.375-0.125 1-0.25 0.313-0.125 0.563-0.125h0.563zM22 28q1.625 0 2.813-1.188t1.188-2.813q0-1.688-1.188-2.844t-2.813-1.156-2.813 1.156-1.188 2.844q0 1.625 1.188 2.813t2.813 1.188zM6 28q1.625 0 2.813-1.188t1.188-2.813q0-1.688-1.188-2.844t-2.813-1.156-2.813 1.156-1.188 2.844q0 1.625 1.188 2.813t2.813 1.188zM16.938 20.75q0.75-1.063 1.563-1.625l-1.875-1.813-1.063-1.063 6.813-6.813q0.563-0.563 0.563-1.375v-2.375l-13.438 13.438q0.25 0.188 0.438 0.375t0.438 0.375q0.188 0.25 0.344 0.438t0.344 0.438l2.938-2.938 1.063 1.063z"></path>
</svg>
