<!-- Generated by IcoMoon.io -->
<svg version="1.1" xmlns="http://www.w3.org/2000/svg" width="32" height="32" viewBox="0 0 32 32">
<title>uniE15E</title>
<path d="M32 26h-4v6h-12v-6h-4l10-10zM26 24q-1.063-1.125-1.938-2l-1.375-1.375t-0.563-0.625h-0.25l-0.625 0.625q-0.313 0.313-0.625 0.656t-0.688 0.719q-0.875 0.875-1.938 2v6h2v-4h4v4h2v-6zM2 30h12v2h-11.938q-0.875 0-1.469-0.563t-0.594-1.438v-22l8-8h14q0.875 0 1.438 0.594t0.563 1.406v9.063h-2v-9.063h-12v6q0 0.875-0.594 1.438t-1.406 0.563h-6v20z"></path>
</svg>
