<!-- Generated by IcoMoon.io -->
<svg version="1.1" xmlns="http://www.w3.org/2000/svg" width="34" height="32" viewBox="0 0 34 32">
<title>uniE07F</title>
<path d="M9.875 7.25l-10 8.563-1.813-1.563 10.625-8.938zM8.438 26.125q-0.938-0.938-1.875-2.063t-1.688-2.281-1.156-2.281-0.219-2.125q0.188-1.313 1.281-2.594t2.5-2.281 2.813-1.563 2.281-0.438q0.25 0 0.75 0.188l1 0.375t0.875 0.344 0.5 0.156l-2.188 0.625q-0.75 0.188-1.313 0.125-1.063-0.188-2.156 0.563t-2.031 1.688q-0.5 0.5-1.031 1.156t-1.094 1.344q-0.125 0.938 0.219 2t0.938 2.094 1.406 2 1.625 1.781l4.625 4.875q0.375 0.563 1 0.563 0.5 0.125 0.875-0.125t0.438-0.625q0-0.313-0.125-0.5l-3.5-4.063 1.125-0.938q0.938 1.125 1.813 2 0.688 0.875 1.344 1.563t0.844 0.813q0.188 0.25 0.438 0.25 0.5 0.125 0.938-0.219t0.5-0.844q0.063-0.313-0.125-0.688l-3.5-4.063 0.938-0.875 3.5 4q0.188 0.188 0.313 0.188 0.438 0.125 0.844-0.125t0.531-0.75q0-0.5-0.25-0.938l-4.688-5.875-1.875 0.313q-1.75 0.313-2.75 0.125-1-0.125-1.688-1.031t-0.5-2.156q0.25-1.25 1.563-1.844t2.5-0.781q2.063-0.313 3.406-0.969t2.438-1.281 2.094-1.031 2.438-0.219q1.5 0.25 2.594 1.094t1.75 1.969 0.906 2.438 0.063 2.5-0.844 2.188-1.469 1.75-1.594 1.219-1.219 0.594l-0.875-1.938q1.5-0.875 2.625-2.063t1.375-2.625q0.188-1.188-0.188-2.125t-1.031-1.625-1.406-1.063-1.313-0.5q-0.875-0.125-1.656 0.219t-1.844 0.906-2.594 1.25-3.969 1.25q-0.625 0.125-1.156 0.281t-0.656 0.719q-0.125 0.688 0.219 0.844t0.469 0.219l0.813 0.063 4.938-0.75v1.563q0.563 0.688 1.469 1.563t1.75 1.906 1.375 2.125 0.344 2.156-1.094 2.219-2.219 2.094-2.844 1.438-2.906 0.313q-1-0.188-2.156-1.063t-2.156-1.906-1.688-1.875-0.75-0.906zM36.875 12.813l-2 1.75-8.688-8.813 1.75-1.813z"></path>
</svg>
