<!-- Generated by IcoMoon.io -->
<svg version="1.1" xmlns="http://www.w3.org/2000/svg" width="32" height="32" viewBox="0 0 32 32">
<title>uniE068</title>
<path d="M30.313 0q0.625 0 1 1.094t0.5 2.344q0.188 1.5 0.188 3.375 0 4.688-0.563 8.594t-2.188 6.719-4.656 4.375-7.969 1.563q-2.313 0-4.406-0.313t-3.969-1.563q-1.188 1.5-2.25 3.875-0.313 0.938-1.063 1.438t-1.688 0.5q-1.25 0-2.25-0.906t-1-2.719q0-1.875 1.219-3.656t2.469-3.219q0-0.063 0.031-0.063t0.031-0.063l-0.125-1.313-0.063-0.438q-0.063-0.313-0.063-0.531v-0.969q-0.125-1.688 0.594-3.719t2.344-3.781 4.156-3 6.031-1.375q2.813-0.063 4.563-0.375t2.875-0.875 1.813-1.313 1.375-1.688q0.875-1.313 1.719-1.656t1.344-0.344zM30.375 9.625q0.188-3.188-0.125-5.344t-0.625-2.281q-0.25-0.063-0.531 0.844t-1.5 2.031-3.719 2.156-7.188 1.219q-3.313 0.125-5.438 1.219t-3.406 2.594-1.813 3.156-0.531 2.906v0.563q0 0.375 0.063 0.563l0.063 0.625 0.688-0.75q1.813-2.25 3.5-3.125t3.281-1.063 3.156-0.063 3.188-0.125 3.313-1.188 3.563-3.313q-1.063 2.875-2.469 4.281t-3.063 1.969-3.438 0.625-3.625 0.313-3.656 1.031-3.438 2.719l-0.5 0.438q-0.438 0.625-1.156 1.438t-1.375 1.719-1.125 1.844-0.469 1.75q0 0.875 0.406 1.25t0.844 0.375q0.688 0 0.938-0.688 0.813-1.813 1.656-3.156t2.094-2.594q1 0.813 2.281 1.313t2.625 0.75 2.688 0.313 2.469 0.063q4 0 6.406-1.563t3.688-3.938 1.719-5.281 0.563-5.594z"></path>
</svg>
