<!-- Generated by IcoMoon.io -->
<svg version="1.1" xmlns="http://www.w3.org/2000/svg" width="32" height="32" viewBox="0 0 32 32">
<title>uniE057</title>
<path d="M32 24v2h-6v6h-2v-6h-6v-2h6v-6h2v6h6zM21.313 18.813l-5.125 3.75-1.938-1.375q-0.188-0.188-0.5 0l-9.563 6.75q-0.25 0.188-0.5 0t-0.125-0.5l3.938-10.625q0.125-0.313-0.188-0.5l-7.125-5.5q-0.25-0.188-0.156-0.5t0.406-0.313h9.063q0.313 0 0.438-0.313l3.688-9.375q0.125-0.313 0.406-0.313t0.406 0.313l3.688 9.375q0.125 0.313 0.375 0.313h9.063q0.313 0 0.438 0.313t-0.125 0.5l-7.188 5.5q-0.25 0.25-0.125 0.5z"></path>
</svg>
