<!-- Generated by IcoMoon.io -->
<svg version="1.1" xmlns="http://www.w3.org/2000/svg" width="28" height="32" viewBox="0 0 28 32">
<title>uniE0D1</title>
<path d="M26 22q0.875 0 1.438 0.594t0.563 1.406v4q0 0.875-0.563 1.438t-1.438 0.563h-8q-0.813 0-1.406-0.563t-0.594-1.438v-4q0-0.813 0.594-1.406t1.406-0.594h4v-2q0-0.875-0.563-1.438t-1.438-0.563h-12q-0.875 0-1.438 0.563t-0.563 1.438v2h4q0.875 0 1.438 0.594t0.563 1.406v4q0 0.875-0.563 1.438t-1.438 0.563h-8q-0.813 0-1.406-0.563t-0.594-1.438v-4q0-0.813 0.594-1.406t1.406-0.594h2v-2q0-1.625 1.188-2.813t2.813-1.188h5v-4h-5q-0.875 0-1.438-0.563t-0.563-1.438v-6q0-0.813 0.563-1.406t1.438-0.594h12q0.875 0 1.438 0.594t0.563 1.406v6q0 0.875-0.563 1.438t-1.438 0.563h-5v4h5q1.625 0 2.813 1.188t1.188 2.813v2h2zM2 24v4h8v-4h-8zM20 10v-6h-12v6h12zM26 24h-8v4h8v-4z"></path>
</svg>
