<!-- Generated by IcoMoon.io -->
<svg version="1.1" xmlns="http://www.w3.org/2000/svg" width="28" height="32" viewBox="0 0 28 32">
<title>uniE1C0</title>
<path d="M12.563 5.438q-0.563-0.563-0.563-1.406t0.563-1.406q0.625-0.625 1.438-0.625t1.438 0.625l12 12q0.563 0.563 0.563 1.406t-0.563 1.406l-11.938 12.063q-0.625 0.625-1.438 0.625t-1.375-0.625q-0.625-0.563-0.625-1.375t0.625-1.438l9.813-9.938q0.688-0.688 0-1.438zM0.5 5.438q-0.563-0.563-0.563-1.406t0.563-1.406q0.625-0.625 1.438-0.625t1.438 0.625l12 12q0.563 0.563 0.563 1.406t-0.563 1.406l-11.938 12.063q-0.625 0.625-1.438 0.625t-1.375-0.625q-0.625-0.563-0.625-1.375t0.625-1.438l9.813-9.938q0.688-0.688 0-1.438z"></path>
</svg>
