<!-- Generated by IcoMoon.io -->
<svg version="1.1" xmlns="http://www.w3.org/2000/svg" width="32" height="32" viewBox="0 0 32 32">
<title>uniE00A</title>
<path d="M15.938 2q-2.375 0-4.531 0.75t-3.906 2.094-3.063 3.188-1.938 3.969h-2.063q0.688-2.563 2.156-4.781t3.5-3.813 4.531-2.5 5.313-0.906q4.563 0 8.281 2.281t5.719 6.031v-3.563q0.063-0.438 0.375-0.719t0.688-0.219q0.438 0 0.688 0.313t0.25 0.688v5.25q-0.125 0.875-0.719 1.406t-1.406 0.531l-5.313-0.5q-0.375 0-0.656-0.313t-0.281-0.688q0.125-0.438 0.406-0.719t0.719-0.219l3.813 0.313q-1.75-3.5-5.094-5.688t-7.469-2.188zM15.938 30q2.625 0 5-0.938t4.219-2.531 3.031-3.781 1.563-4.75h2.063q-0.375 2.938-1.75 5.5t-3.5 4.438-4.844 2.969-5.781 1.094q-4.5 0-8.188-2.25t-5.75-5.938v3.438q-0.063 0.438-0.375 0.719t-0.688 0.219q-0.438 0-0.688-0.313t-0.25-0.688v-5.25q0.125-0.875 0.719-1.406t1.469-0.531l5.25 0.5q0.438 0 0.688 0.313t0.25 0.688q-0.063 0.5-0.375 0.75t-0.688 0.25l-3.875-0.375q1.688 3.5 5.031 5.688t7.469 2.188z"></path>
</svg>
