<!-- Generated by IcoMoon.io -->
<svg version="1.1" xmlns="http://www.w3.org/2000/svg" width="32" height="32" viewBox="0 0 32 32">
<title>uniE1BE</title>
<path d="M16 0q3.313 0 6.25 1.25t5.094 3.438 3.406 5.094 1.25 6.219-1.25 6.25-3.406 5.094-5.094 3.406-6.25 1.25-6.219-1.25-5.094-3.406-3.438-5.094-1.25-6.25 1.25-6.219 3.438-5.094 5.094-3.438 6.219-1.25zM24 23.188q1-1 0-2.063l-6.188-6.438q-0.813-0.688-1.75-0.688-1.125 0-1.75 0.75l-6.313 6.375q-0.5 0.5-0.5 1.063t0.5 1.063 1.063 0.5 1.063-0.5l5.938-6.063 5.813 6q0.313 0.313 0.594 0.406t0.469 0.094q0.625 0 1.063-0.5zM24 16q1.063-1.063 0-2.125l-6.188-6.375q-0.813-0.688-1.75-0.688-1.063 0-1.75 0.688l-6.313 6.375q-0.5 0.5-0.5 1.094t0.5 1.094q0.438 0.438 1.063 0.438t1.063-0.438l5.938-6.125 5.813 6q0.313 0.375 0.594 0.469t0.469 0.094q0.563 0 1.063-0.5z"></path>
</svg>
