<!-- Generated by IcoMoon.io -->
<svg version="1.1" xmlns="http://www.w3.org/2000/svg" width="32" height="32" viewBox="0 0 32 32">
<title>uniE0F1</title>
<path d="M28 8q1.688 0 2.844 1.188t1.156 2.813v14q0 1.625-1.156 2.813t-2.844 1.188h-24q-1.625 0-2.813-1.188t-1.188-2.813v-14q0-1.625 1.188-2.813t2.813-1.188h6v-2q0-1.625 1.188-2.813t2.813-1.188h4q1.688 0 2.844 1.188t1.156 2.813v2h6zM12 8h8v-2q0-0.875-0.563-1.438t-1.438-0.563h-4q-0.813 0-1.406 0.563t-0.594 1.438v2zM30 12q0-0.875-0.563-1.438t-1.438-0.563h-24q-0.813 0-1.406 0.563t-0.594 1.438v14q0 0.875 0.594 1.438t1.406 0.563h24q0.875 0 1.438-0.563t0.563-1.438v-14zM14.625 20.063l3.75 4.438q-0.5 0.313-1.063 0.5t-1.188 0.25q-1.313 0.125-2.469-0.219t-2.094-1.094-1.563-1.844-0.75-2.344q-0.25-2.375 1.094-4.25t3.594-2.438zM16.313 17.813l-0.313-5.938q1.75-0.063 3.25 0.656t2.5 1.969zM22.313 16.5q0.438 0.938 0.563 2.063 0.125 1.688-0.5 3.156t-1.75 2.531l-3.438-4.438z"></path>
</svg>
