<!-- Generated by IcoMoon.io -->
<svg version="1.1" xmlns="http://www.w3.org/2000/svg" width="32" height="32" viewBox="0 0 32 32">
<title>uniE242</title>
<path d="M32 21q0 1.813-1.156 3.188t-2.844 1.688v3.125q0 0.438-0.313 0.719t-0.688 0.281q-1 0-1-1v-3.125q-1.75-0.313-2.875-1.688t-1.125-3.188 1.125-3.188 2.875-1.688v-13.125q0-1 1-1 0.375 0 0.688 0.281t0.313 0.719v13.125q1.688 0.313 2.844 1.688t1.156 3.188zM27 24q1.25 0 2.125-0.875t0.875-2.125-0.875-2.125-2.125-0.875-2.125 0.875-0.875 2.125 0.875 2.125 2.125 0.875zM17 4.125q1.688 0.313 2.844 1.688t1.156 3.188-1.156 3.188-2.844 1.688v15.125q0 0.438-0.313 0.719t-0.688 0.281q-1 0-1-1v-15.125q-1.75-0.313-2.875-1.688t-1.125-3.188 1.125-3.188 2.875-1.688v-1.125q0-1 1-1 0.375 0 0.688 0.281t0.313 0.719v1.125zM16 12q1.25 0 2.125-0.875t0.875-2.125-0.875-2.125-2.125-0.875-2.125 0.875-0.875 2.125 0.875 2.125 2.125 0.875zM6 14.125q1.688 0.313 2.844 1.688t1.156 3.188-1.156 3.188-2.844 1.688v5.125q0 0.438-0.313 0.719t-0.688 0.281q-1 0-1-1v-5.125q-1.75-0.313-2.875-1.688t-1.125-3.188 1.125-3.188 2.875-1.688v-11.125q0-1 1-1 0.375 0 0.688 0.281t0.313 0.719v11.125zM5 22q1.25 0 2.125-0.875t0.875-2.125-0.875-2.125-2.125-0.875-2.125 0.875-0.875 2.125 0.875 2.125 2.125 0.875z"></path>
</svg>
