<!-- Generated by IcoMoon.io -->
<svg version="1.1" xmlns="http://www.w3.org/2000/svg" width="32" height="32" viewBox="0 0 32 32">
<title>uniE1B0</title>
<path d="M13.75 16q-0.625 0-0.938-0.688l-2.813-7.313h18l-2.5 7.313q-0.25 0.688-0.938 0.688h-10.813zM8 28q0.875 0 1.438 0.563t0.563 1.438q0 0.813-0.563 1.406t-1.438 0.594q-0.813 0-1.406-0.594t-0.594-1.406q0-0.875 0.594-1.438t1.406-0.563zM26 28q0.875 0 1.438 0.563t0.563 1.438q0 0.813-0.563 1.406t-1.438 0.594q-0.813 0-1.406-0.594t-0.594-1.406q0-0.875 0.594-1.438t1.406-0.563zM30.313 8q0.875 0 1.406 0.719t0.219 1.594l-3.5 8.688q-0.438 1-1.438 1h-14.188q-1.063 0-1.625 0.875-0.375 0.5-0.688 1.031t-0.438 1 0.031 0.781 0.719 0.313h16.25q0.375 0 0.656 0.281t0.281 0.719q0 0.375-0.281 0.688t-0.656 0.313h-18.688q-1.063 0-1.281-0.531t0.063-1.313 0.875-1.781 1.094-1.938l0.375-0.688q0.25-0.313 0.125-0.875l-4.5-11.063q-0.563-1.375-1.031-2.594t-1.531-1.219h-1.563q-0.375 0-0.688-0.313t-0.313-0.688q0-0.438 0.313-0.719t0.688-0.281h3.063q1.25 0 1.719 0.906t0.969 2.344l4.063 10.875q0.313 0.875 0.719 1.375t1.844 0.5h11.563q1.375 0 1.781-0.469t0.719-1.219z"></path>
</svg>
