<!-- Generated by IcoMoon.io -->
<svg version="1.1" xmlns="http://www.w3.org/2000/svg" width="32" height="32" viewBox="0 0 32 32">
<title>uniE162</title>
<path d="M31.438 14.438q0.625 0.688 0.625 1.531t-0.625 1.469l-13.875 13.875q-0.688 0.688-1.531 0.688t-1.469-0.688l-13.875-13.875q-0.688-0.625-0.688-1.469t0.688-1.531l13.875-13.875q0.625-0.625 1.469-0.625t1.531 0.625zM16.063 25.938q0.813 0 1.406-0.563t0.594-1.438q0-0.813-0.594-1.406t-1.406-0.594q-0.875 0-1.438 0.594t-0.563 1.406q0 0.875 0.563 1.438t1.438 0.563zM19.688 15.313q0.75-0.813 1.563-1.719t0.813-2.344q0-2.063-1.594-3.406t-4.344-1.344q-1.438 0-2.625 0.469t-2.031 1.219-1.281 1.688-0.438 1.813h3q0.313-1.5 1.25-2.375t2.375-0.875 2.344 0.875 0.906 1.813q0 0.563-0.438 1.281t-0.938 1.031l-1.25 1q-1.188 0.938-1.688 1.625t-0.688 1.5v2.375h2.938q-0.125-1.063 0.031-1.719t0.438-1.094 0.719-0.844 0.938-0.969z"></path>
</svg>
