<!-- Generated by IcoMoon.io -->
<svg version="1.1" xmlns="http://www.w3.org/2000/svg" width="31" height="32" viewBox="0 0 31 32">
<title>uniE061</title>
<path d="M10.063 15.063q0-0.188-0.063-0.25l2.188-0.313 0.375 0.563h-2.5zM10.938 11.938q-0.438-0.313-0.719-0.813t-0.281-1.25q0-2.25 3.063-2.938l-0.063-0.688 1.188-0.125 0.063 0.625q1.375 0 2.281 0.625t1.094 1.625l-2 0.375q-0.188-0.375-0.5-0.656t-0.688-0.344l0.25 2.75q2.125 0.313 2.906 1t0.906 1.75v0.313q0 0.5-0.125 0.875h-2.125q0.188-0.375 0.188-0.75-0.125-0.5-0.438-0.781t-1.188-0.469l0.188 2h-1.25l-0.25-2.188q-0.875-0.125-1.5-0.313t-1-0.625zM12.25 9.063q-0.125 0.25-0.125 0.75 0 0.625 1.25 1.125l-0.25-2.5q-0.625 0.313-0.875 0.625zM30.625 14.313q0.5 0.375 0.5 0.875l-3.5 14.813h-25.563l-1.938-18.5h1.125l-0.688-4 5.75-1-0.188-1.813 14.25-1.313 0.125 1.5 7.438 0.875-0.438 7.063h-1.188l0.25-5.938-5.875-0.625 0.813 8.813h-1.313l-0.875-9.875-11.75 1.125 0.813 8.75h-1.25l-0.688-7.125-4.313 0.75 1.688 9.313-0.563 2.375-0.688-2.875q-0.313-1.125-0.563-2.188t-0.375-1.438l0.188 1.938q0.063 0.438 0.094 0.938t0.156 1.125l0.25 2.313q0.125 1.438 0.281 3t0.406 3.313l2.375-10.25h17.438v0.063-0.406t0.094-0.719 0.313-0.688 0.594-0.313h6.188q0.125 0 0.625 0.125zM28.125 18.5h-21l-2.375 9.313h21.063z"></path>
</svg>
