<!-- Generated by IcoMoon.io -->
<svg version="1.1" xmlns="http://www.w3.org/2000/svg" width="30" height="32" viewBox="0 0 30 32">
<title>uniE148</title>
<path d="M6.25 20v-4h8l-4.625 4h-3.375zM28.625 8.25l1.375 7.313-2 0.438v9.188q0 1.438-0.813 2.313t-2.25 0.875-2.188-0.906-0.75-2.344v-1.75q0-0.563-0.438-1t-1-0.438h-3.375q-1.188 0-1.188-0.938 0-1 1.188-1h3.375q1.938 0 2.688 1t0.75 2.438v1.75q0 1.188 0.875 1.188 1.125 0 1.125-1.188v-10.25l-1-0.375-1.063-5.875 2.063-1.688-2-4.25 1.375-0.75zM28 11.75l-0.313-1.813q-0.188-0.688-0.875-0.688-0.875 0-0.875 0.813l0.313 2q0.25 0.813 0.875 0.813 0.063 0 0.156 0.031t0.156-0.031q0.438-0.125 0.5-0.313t0.063-0.5v-0.313zM16 24h2v4q0 0.813-0.563 1.406t-1.438 0.594h-12q-0.875 0-1.438-0.594t-0.563-1.406v-12q-0.875 0-1.438-0.594t-0.563-1.406v-10q0-0.875 0.563-1.438t1.438-0.563h16q0.875 0 1.438 0.563t0.563 1.438v10q0 0.813-0.563 1.406t-1.438 0.594v2h-2v-4h2v-10h-16v10h2v14h12v-4zM16 11q0 0.375-0.281 0.688t-0.719 0.313h-10q-0.438 0-0.719-0.313t-0.281-0.688v-4q0-1 1-1h10q1 0 1 1v4z"></path>
</svg>
