<!-- Generated by IcoMoon.io -->
<svg version="1.1" xmlns="http://www.w3.org/2000/svg" width="28" height="32" viewBox="0 0 28 32">
<title>uniE274</title>
<path d="M6 29.5q0 0.5-0.5 0.5h-5q-0.5 0-0.5-0.5v-3q0-0.5 0.5-0.5h5q0.5 0 0.5 0.5v3zM10 21.5q0 0.5-0.5 0.5h-9q-0.5 0-0.5-0.5v-3q0-0.5 0.5-0.5h9q0.5 0 0.5 0.5v3zM8 13.5q0 0.5-0.5 0.5h-7q-0.5 0-0.5-0.5v-3q0-0.5 0.5-0.5h7q0.5 0 0.5 0.5v3zM14 5.5q0 0.5-0.5 0.5h-13q-0.5 0-0.5-0.5v-3q0-0.5 0.5-0.5h13q0.5 0 0.5 0.5v3zM25.563 2.25l0.625 0.75-6.625 5.813q0.438 0.563 0.438 1.188 0 0.375-0.188 0.75l4.875 3.75q0.5-0.5 1.313-0.5t1.406 0.563 0.594 1.438-0.594 1.438-1.406 0.563q-1 0-1.625-0.875l-6.375 2.813v0.063q0 0.5-0.313 0.938l3.375 3.313q0.5-0.25 0.938-0.25 0.813 0 1.406 0.563t0.594 1.438-0.594 1.438-1.406 0.563q-0.438 0-0.938-0.25l-2.375 2.25-0.688-0.688 2.313-2.313q-0.313-0.438-0.313-1t0.313-1.063l-3.313-3.25q-0.5 0.313-1 0.313-0.875 0-1.438-0.563t-0.563-1.438 0.563-1.438 1.438-0.563q0.5 0 0.938 0.281t0.75 0.719l6.313-2.813v-0.188q0-0.25 0.125-0.625l-4.875-3.875q-0.625 0.5-1.25 0.5-0.875 0-1.438-0.563t-0.563-1.438 0.563-1.438 1.438-0.563q0.25 0 0.75 0.125z"></path>
</svg>
