<!-- Generated by IcoMoon.io -->
<svg version="1.1" xmlns="http://www.w3.org/2000/svg" width="32" height="32" viewBox="0 0 32 32">
<title>uniE152</title>
<path d="M31.875 32h-29.063l-2.625-8.875 2.063-13.438-2.188-9.625h29.063l2.125 9.625-1.938 13.25zM28.875 29.75l-1.813-6.625 1.938-13.438-1.813-7.375h-24.563l1.875 7.375-2 13.25 2 6.813h24.375zM24.813 20.188l-2.25 2.25 2.25 2.25-2.25 2.25-2.188-2.25-2.25 2.25-2.25-2.25 2.25-2.25-2.25-2.25 2.25-2.188 2.25 2.188 2.188-2.188zM20.375 11.25h-4.5v-4.375l2.25-2.25 2.25 2.25v4.375zM6.938 22.438h2.25v2.25h-2.25v-2.25zM6.938 18h2.25v2.188h-2.25v-2.188zM6.938 13.5h2.25v2.25h-2.25v-2.25zM11.375 22.438h2.25v2.25h-2.25v-2.25zM6.938 9.125h2.25v2.125h-2.25v-2.125zM11.375 9.125h2.25v2.125h-2.25v-2.125z"></path>
</svg>
