<!-- Generated by IcoMoon.io -->
<svg version="1.1" xmlns="http://www.w3.org/2000/svg" width="32" height="32" viewBox="0 0 32 32">
<title>uniE03A</title>
<path d="M30 28q0.813 0 1.406 0.594t0.594 1.406q0 0.875-0.594 1.438t-1.406 0.563h-28q-0.875 0-1.438-0.563t-0.563-1.438q0-0.813 0.563-1.406t1.438-0.594h28zM17.5 23.375q-0.625 0.625-1.438 0.625t-1.375-0.625l-6.375-6.313q-0.75-0.75 0-1.438 0.688-0.688 1.375 0l5.313 5.313v-19.938q0-1 1-1t1 1v20.063l5.438-5.438q0.688-0.688 1.438 0 0.688 0.688 0 1.438z"></path>
</svg>
