<!-- Generated by IcoMoon.io -->
<svg version="1.1" xmlns="http://www.w3.org/2000/svg" width="32" height="32" viewBox="0 0 32 32">
<title>uniE17C</title>
<path d="M32 2v28h-2v-4.25l-2.813 0.125q-0.375 0.188-0.75 0.875t-0.844 1.406-1.063 1.281-1.531 0.563q-1.813 0-3.188-1.125t-1.75-2.875h-6.188q-0.313 1.75-1.688 2.875t-3.188 1.125-3.188-1.125-1.75-2.875h-2.063v-6.531t0.125-0.531q0-0.188 0.063-0.313l0.188-0.75q0.063-0.063 0.063-0.125t0.063-0.125q0.188-0.5 0.438-0.813 0.125-0.25 0.313-0.438 0.063-0.125 0.188-0.25 0.375-0.438 0.813-0.781t0.938-0.594q2.875-4.375 5.906-6.063t6.844-1.688h0.063q1 0 1.719 0.125t1.469 0.781 1.688 2.063 2.438 4.031h0.688q0.563 0 0.813-0.219t0.406-0.469 0.375-0.344 0.656 0.156q0.25 0.188 0.344 0.281t0.156 0.188 0.125 0.219 0.313 0.375q0.188 0.188 0.313 0.031t0.281-0.406 0.344-0.375 0.438 0.125q0.438 0.5 0.781 1.719t0.656 2.531v-15.813h2zM15.938 9q-1.375 0-2.625 0.188t-2.469 0.75-2.375 1.531-2.344 2.531h14.875q-1-1.813-1.656-2.844t-1.156-1.5-0.969-0.563-1.031-0.094h-0.25zM10.563 25l-0.125-0.688q-0.313-1.25-1.25-2.031t-2.188-0.781-2.219 0.781-1.219 2.031l-0.125 0.688 0.125 0.688q0.25 1.25 1.219 2.031t2.219 0.781 2.188-0.781 1.25-2.031zM26.438 24.563l-0.125-1.188q-0.125-0.625-0.094-1t-0.031-0.563-0.281-0.25-0.844-0.063-1.531 0.219-1.75 0.594-1.469 0.875-0.75 1.125l-0.125 0.688 0.125 0.688q0.25 1.25 1.219 2.031t2.219 0.781 1.781-0.844 0.781-2.094zM29.25 24l-0.125-2.063q0-0.25-0.094-0.75l-0.188-1t-0.219-0.969-0.188-0.719q-0.125-0.375-0.188-1.313t-0.625-1.188q-0.313-0.125-0.531 0.219t-0.406 0.781-0.375 0.781-0.313 0.219q-0.375-0.375-0.531-0.719t-0.313-0.625-0.375-0.469-0.781-0.188h-18q-1.688 0-2.844 1.188t-1.156 2.813v4h0.063q0.375-1.75 1.75-2.875t3.188-1.125 3.188 1.125 1.688 2.875h6.188q0.188-0.875 0.875-1.563t1.625-1.219 1.969-0.938 1.906-0.719q1.125-0.375 1.781-0.094t1.031 0.969 0.5 1.656 0.125 1.906h1.375zM25.25 10.938l-4.563-6.563 0.813-0.563 4.563 6.563zM27.625 10.313l-1.188-7.938 0.938-0.125 1.25 7.875z"></path>
</svg>
