<!-- Generated by IcoMoon.io -->
<svg version="1.1" xmlns="http://www.w3.org/2000/svg" width="32" height="32" viewBox="0 0 32 32">
<title>uniE1F2</title>
<path d="M28 22q1.625 0 2.813 1.188t1.188 2.813-1.188 2.813-2.813 1.188-2.813-1.188-1.188-2.813 1.188-2.813 2.813-1.188zM28 28q0.875 0 1.438-0.563t0.563-1.438-0.563-1.438-1.438-0.563-1.438 0.563-0.563 1.438 0.563 1.438 1.438 0.563zM16 22q1.625 0 2.813 1.188t1.188 2.813-1.188 2.813-2.813 1.188-2.813-1.188-1.188-2.813 1.188-2.813 2.813-1.188zM16 28q0.875 0 1.438-0.563t0.563-1.438-0.563-1.438-1.438-0.563-1.438 0.563-0.563 1.438 0.563 1.438 1.438 0.563zM4 22q1.625 0 2.813 1.188t1.188 2.813-1.188 2.813-2.813 1.188-2.813-1.188-1.188-2.813 1.188-2.813 2.813-1.188zM4 28q0.875 0 1.438-0.563t0.563-1.438-0.563-1.438-1.438-0.563-1.438 0.563-0.563 1.438 0.563 1.438 1.438 0.563z"></path>
</svg>
