<!-- Generated by IcoMoon.io -->
<svg version="1.1" xmlns="http://www.w3.org/2000/svg" width="28" height="32" viewBox="0 0 28 32">
<title>uniE004</title>
<path d="M22 9.938q-0.813 0-1.406-0.594t-0.594-1.406q0-0.875 0.594-1.438t1.406-0.563q0.875 0 1.438 0.563t0.563 1.438q0 0.813-0.563 1.406t-1.438 0.594zM26 2q0.875 0 1.438 0.531t0.563 1.406v24q0 0.813-0.563 1.438t-1.438 0.625h-24q-0.813 0-1.406-0.625t-0.594-1.438v-24q0-0.875 0.594-1.406t1.406-0.531h24zM26 3.938h-24v24h24v-24zM14 25.938q-1.625 0-3.094-0.625t-2.563-1.719-1.719-2.531-0.625-3.125 0.625-3.125 1.719-2.531 2.563-1.719 3.094-0.625q1.688 0 3.156 0.625t2.531 1.719 1.688 2.531 0.625 3.125-0.625 3.125-1.688 2.531-2.531 1.719-3.156 0.625zM14 11.938q-2.5 0-4.25 1.75t-1.75 4.25 1.75 4.25 4.25 1.75 4.25-1.75 1.75-4.25q0-2.563-1.719-4.281t-4.281-1.719z"></path>
</svg>
