<!-- Generated by IcoMoon.io -->
<svg version="1.1" xmlns="http://www.w3.org/2000/svg" width="32" height="32" viewBox="0 0 32 32">
<title>uniE21A</title>
<path d="M27.938 5.875q1.5-0.375 2.563 0.531t1.281 2.125-0.656 2.313-3.188 1.094v4l-4-4h-8.063q-1.563-2.438-4.5-3.125-0.188-0.313-0.219-1t0.281-1.438 1.156-1.438 2.344-1.063q0-1.875 1.406-2.813t3.094-1.031 3.094 0.625 1.406 2.219q0.75-0.375 1.594-0.219t1.5 0.625 0.969 1.156-0.063 1.438zM19.938 16.938q2.25 0 3.344 1.406t0.906 3.125-1.719 3.125-4.531 1.406h-6.063l-7 6v-6h-1q-1.875 0-2.844-1.281t-1.063-2.875 0.656-3.063 2.25-1.844q-0.063-1.563 0.5-2.75t1.5-2 2.094-1.219 2.406-0.406q1.813 0 3.375 1t2.063 3q0.938-0.5 1.938-0.5 1.438 0 2.25 1t0.938 1.875zM17.938 23.938q2.25 0 3.125-0.781t0.875-1.719-0.625-1.719-1.375-0.781h-2q0-1.813-0.625-2.313t-1.375-0.438q-0.875 0.125-2 0.75 0-1.75-0.969-2.75t-2.313-1.281-2.688 0.031-2.094 1.063q-1.063 1.188-1 2.875l0.063 1.625-1.563 0.375q-0.938 0.375-1.25 1.219t-0.188 1.688 0.656 1.5 1.281 0.656h3v4.063l5-4.063h6.063z"></path>
</svg>
