<!-- Generated by IcoMoon.io -->
<svg version="1.1" xmlns="http://www.w3.org/2000/svg" width="28" height="32" viewBox="0 0 28 32">
<title>uniE263</title>
<path d="M6 16q0.813 0 1.406 0.594t0.594 1.406v10q0 0.875-0.594 1.438t-1.406 0.563h-4q-0.875 0-1.438-0.563t-0.563-1.438v-10q0-0.813 0.563-1.406t1.438-0.594h4zM16 8q0.813 0 1.406 0.594t0.594 1.406v18q0 0.875-0.594 1.438t-1.406 0.563h-4q-0.875 0-1.438-0.563t-0.563-1.438v-18q0-0.813 0.563-1.406t1.438-0.594h4zM16 10h-4v18h4v-18zM26 2q0.813 0 1.406 0.594t0.594 1.406v24q0 0.875-0.594 1.438t-1.406 0.563h-4q-0.875 0-1.438-0.563t-0.563-1.438v-24q0-0.813 0.563-1.406t1.438-0.594h4z"></path>
</svg>
