<!-- Generated by IcoMoon.io -->
<svg version="1.1" xmlns="http://www.w3.org/2000/svg" width="32" height="32" viewBox="0 0 32 32">
<title>uniE22C</title>
<path d="M26 20q1.688 0 2.813 0.625t1.844 1.719 1.031 2.531 0.313 3.125v4h-20v-4q0-1.688 0.313-3.125t1.031-2.531 1.875-1.719 2.781-0.625h8zM30 28q0-1.25-0.156-2.344t-0.594-1.906-1.219-1.281-2.031-0.469h-8q-1.25 0-2.031 0.469t-1.219 1.281-0.594 1.906-0.156 2.344v2h16v-2zM28 14q0 2.5-1.75 4.25t-4.25 1.75-4.25-1.75-1.75-4.25 1.75-4.25 4.25-1.75 4.25 1.75 1.75 4.25zM22 18q1.688 0 2.844-1.188t1.156-2.813-1.156-2.813-2.844-1.188q-1.625 0-2.813 1.188t-1.188 2.813 1.188 2.813 2.813 1.188zM9.813 25l0.563 0.313q-0.313 1.25-0.313 2.313l-1.125 1.125q-0.563 0.563-1.375 0.563-0.875 0-1.438-0.563l-2.813-2.875q-0.625-0.563-0.625-1.406t0.625-1.406l1.25-1.25q-0.438-0.813-0.75-1.813h-1.813q-0.813 0-1.406-0.594t-0.594-1.406v-4q0-0.875 0.594-1.438t1.406-0.563h1.813q0.313-1 0.75-1.813l-1.25-1.25q-0.625-0.625-0.625-1.438t0.625-1.375l2.813-2.875q0.563-0.563 1.438-0.563 0.813 0 1.375 0.563l1.25 1.25q0.5-0.188 0.906-0.406t0.906-0.344v-1.75q0-0.875 0.594-1.438t1.406-0.563h4q0.875 0 1.438 0.563t0.563 1.438v1.75q0.5 0.125 0.938 0.344t0.875 0.406l1.25-1.25q0.625-0.563 1.438-0.563 0.75 0 1.438 0.563l2.813 2.875q0.563 0.563 0.563 1.375t-0.563 1.438l-0.313 0.313q-0.625-0.813-1.438-1.438l0.313-0.313-2.813-2.813-1.438 1.438q-0.625-0.125-1.063-0.125-0.375 0-0.75 0.031t-0.688 0.094q-0.313-0.125-0.594-0.219t-0.594-0.219l-1.375-0.5v-3.188h-4v3.188l-1.375 0.5q-0.375 0.125-0.75 0.281t-0.75 0.344l-1.313 0.625-2.25-2.25-2.875 2.813 2.313 2.313-0.688 1.25q-0.188 0.375-0.344 0.781t-0.281 0.781l-0.438 1.375h-3.25v4h3.25l0.438 1.375q0.125 0.375 0.281 0.75t0.344 0.75l0.688 1.313-2.313 2.313 2.875 2.813 1.25-1.25zM22 26h6v2h-6v-2zM14.188 12.438q-1 0.5-1.594 1.438t-0.594 2.125q0 1.063 0.5 1.875t1.25 1.375q-0.875 0.563-1.5 1.313-1-0.813-1.625-1.969t-0.625-2.594q0-2.25 1.438-3.906t3.625-2.031q-0.125 0.313-0.25 0.563t-0.25 0.563q-0.063 0.125-0.063 0.188t-0.063 0.188q-0.125 0.375-0.25 0.875z"></path>
</svg>
