<!-- Generated by IcoMoon.io -->
<svg version="1.1" xmlns="http://www.w3.org/2000/svg" width="32" height="32" viewBox="0 0 32 32">
<title>uniE0FB</title>
<path d="M26 22q0 0.875-0.563 1.469t-1.438 0.594h-16q-0.813 0-1.406-0.594t-0.594-1.469v-7.938q0-1.688 0.625-3.125t1.719-2.531 2.563-1.719 3.094-0.625h4q1.625 0 3.094 0.625t2.563 1.719 1.719 2.531 0.625 3.125v7.938zM8 22h16v-7.938q0-2.5-1.75-4.25t-4.25-1.75h-4q-2.5 0-4.25 1.75t-1.75 4.25v7.938zM12 17.125q0.875 0 1.438 0.594t0.563 1.406q0 0.875-0.563 1.438t-1.438 0.563-1.438-0.563-0.563-1.438q0-0.813 0.563-1.406t1.438-0.594zM20 17.125q0.875 0 1.438 0.594t0.563 1.406q0 0.875-0.563 1.438t-1.438 0.563-1.438-0.563-0.563-1.438q0-0.813 0.563-1.406t1.438-0.594zM18 10.063q1.625 0 2.813 1.156t1.188 2.844v2h-12v-2q0-1.688 1.188-2.844t2.813-1.156h4zM10.688 26h10.563l1.375 2.063h-13.25zM23.938 30.063l1.375 2h-18.625l1.313-2h15.938zM24 26.063q0.875 0 1.75-0.438l4.25 6.438h-2.313l-3.875-6h0.188zM8.313 26.063l-4 6h-2.313l4.375-6.375q0.75 0.375 1.625 0.375h0.313zM3.625 26.125q-1.688-2.063-2.656-4.625t-0.969-5.438q0-3.313 1.25-6.25t3.438-5.125 5.094-3.438 6.219-1.25 6.219 1.25 5.094 3.438 3.438 5.125 1.25 6.25q0 2.813-0.938 5.375t-2.625 4.625l-1.125-1.75q1.25-1.75 1.969-3.844t0.719-4.406q0-2.875-1.094-5.438t-3-4.469-4.469-3-5.438-1.094-5.438 1.094-4.469 3-3 4.469-1.094 5.438q0 2.375 0.75 4.469t2.063 3.844z"></path>
</svg>
