<!-- Generated by IcoMoon.io -->
<svg version="1.1" xmlns="http://www.w3.org/2000/svg" width="28" height="32" viewBox="0 0 28 32">
<title>uniE096</title>
<path d="M26.813 3.75q0.5 0.125 0.844 0.531t0.344 0.969v21.5q0 0.25-0.063 0.5l-0.125 0.375t-0.25 0.313q-0.063 0.063-0.313 0.063-0.313 0-0.813-0.125-0.25-0.063-0.438-0.188v-20.5q0-0.5-0.313-0.906t-0.813-0.531l-14.875-3.625q-0.125 0-0.156-0.031t-0.156-0.031q-0.188 0-0.563 0.125l-5.5 2.125 17.188 3.813q1.188 0.313 1.188 1.5v20.875q0 0.688-0.438 1.094t-1.063 0.406h-0.25l-19-4.813q-0.5-0.125-0.875-0.531t-0.375-0.969v-21.125q0-1.063 0.938-1.375l8.125-3.063q0.375-0.125 0.563-0.125t0.313 0.063zM3.188 6.25l-1.188-0.25v19.313l18 4.563v-19.875z"></path>
</svg>
