<!-- Generated by IcoMoon.io -->
<svg version="1.1" xmlns="http://www.w3.org/2000/svg" width="27" height="32" viewBox="0 0 27 32">
<title>uniE13C</title>
<path d="M27 3.063v15.875q0 3.063-2.563 6-1 1.188-2.531 2.313t-2.938 2-2.469 1.406-1.125 0.531l-1.813 0.813-1.875-0.813q-0.188-0.125-1.75-0.844t-3.438-2.031q-3.375-2.375-4.906-4.688t-1.531-4.688v-15.875l13.5-3.063zM24.75 4.875l-11.188-2.563-11.25 2.563v14.063q0 2.375 1.938 4.5 0.875 1 2.25 2.031t2.688 1.844 2.313 1.313 1.125 0.5l0.938 0.438 0.875-0.438q0.063 0 1.563-0.75t3.25-1.938q5.5-3.625 5.5-7.5v-14.063zM22.563 18.938q0 1.5-1.313 2.938t-2.938 2.563-3.063 1.844-1.688 0.781v-12.313h9v4.188zM4.5 6.625l9.063-2.063v10.188h-9.063v-8.125z"></path>
</svg>
