<!-- Generated by IcoMoon.io -->
<svg version="1.1" xmlns="http://www.w3.org/2000/svg" width="28" height="32" viewBox="0 0 28 32">
<title>uniE216</title>
<path d="M18 7.938h-8v-1.938h8v1.938zM23.5 6q0.5 0 0.5 0.5v19q0 0.5-0.5 0.5h-3q-0.5 0-0.5-0.5v-19q0-0.5 0.5-0.5h3zM26 4h-8v-2h8v2zM15.5 10q0.5 0 0.5 0.5v15q0 0.5-0.5 0.5h-3q-0.5 0-0.5-0.5v-15q0-0.5 0.5-0.5h3zM0 28.063h28v1.938h-28v-1.938zM10 14h-8v-1.938h8v1.938zM7.5 16.063q0.5 0 0.5 0.5v8.938q0 0.5-0.5 0.5h-3q-0.5 0-0.5-0.5v-8.938q0-0.5 0.5-0.5h3z"></path>
</svg>
