<!-- Generated by IcoMoon.io -->
<svg version="1.1" xmlns="http://www.w3.org/2000/svg" width="32" height="32" viewBox="0 0 32 32">
<title>uniE209</title>
<path d="M18 1q0-0.375 0.281-0.688t0.719-0.313 0.719 0.313 0.281 0.688v30q0 1-1 1t-1-1v-30zM12 1q0-0.375 0.281-0.688t0.719-0.313 0.719 0.313 0.281 0.688v30q0 1-1 1t-1-1v-30zM24.313 9.75q-0.75-0.688 0-1.438 0.313-0.313 0.688-0.313t0.688 0.313l5.75 6.188q0.563 0.625 0.563 1.438t-0.563 1.375l-5.75 6.313q-0.313 0.313-0.719 0.313t-0.719-0.313-0.313-0.719 0.313-0.719l5.438-5.938q0.375-0.313 0-0.688zM2.313 15.563q-0.375 0.375 0 0.688l5.438 5.938q0.313 0.313 0.313 0.719t-0.313 0.719-0.719 0.313-0.719-0.313l-5.75-6.313q-0.563-0.563-0.563-1.375t0.563-1.438l5.75-6.188q0.313-0.313 0.688-0.313t0.688 0.313q0.75 0.75 0 1.438z"></path>
</svg>
