<!-- Generated by IcoMoon.io -->
<svg version="1.1" xmlns="http://www.w3.org/2000/svg" width="30" height="32" viewBox="0 0 30 32">
<title>uniE101</title>
<path d="M23.5 5.688q-1.438 0-2.125-0.844t-0.688-2.031 0.688-2 2.125-0.813q1.125 0 1.969 0.813t0.844 2-0.844 2.031-1.969 0.844zM28.563 13.625q1.188 0 1.188 1.188 0 0.438-0.313 0.813t-0.875 0.375h-4.5q-0.938 0-1.375-0.938l-1-2 1.75-3.063 1.75 3.625h3.375zM10.25 18.375l2.438 2.438-1.938 3.313q-0.438 0.813-1.625 0.938h-7.313q-1.75 0-1.75-1.688t1.75-1.688h6.438zM21.25 22.375q0.5 0.5 0.5 1.375 0 0.563-0.25 1.125l-3.188 6q-0.313 0.563-0.781 0.813t-0.781 0.25q-0.688 0-1.281-0.5t-0.594-1.25q0-0.563 0.25-0.813l2.813-5-7.063-7.063 4.75-7.75-9.125 2.063q-0.063 0.063-0.375 0.063-0.625 0-1.063-0.281t-0.438-1.156q0-0.938 1.125-1.25l13.188-3.188q0.5-0.125 0.75-0.125 1.375 0 2.188 1.125l0.313 0.5 0.625 1.375-5.688 9.625z"></path>
</svg>
