<!-- Generated by IcoMoon.io -->
<svg version="1.1" xmlns="http://www.w3.org/2000/svg" width="32" height="32" viewBox="0 0 32 32">
<title>uniE05A</title>
<path d="M26 19.938h2v8.063q0 0.813-0.563 1.406t-1.438 0.594h-24q-0.813 0-1.406-0.594t-0.594-1.406v-24q0-0.875 0.594-1.438t1.406-0.563h8v2h-8v24h24v-8.063zM31.438 5.625q0.563 0.625 0.563 1.438t-0.563 1.438l-5.75 5.25q-0.313 0.313-0.688 0.313t-0.688-0.313-0.313-0.719 0.313-0.719l4.688-4.313h-3q-2.5 0-4.688 0.938t-3.813 2.594-2.563 3.844-0.938 4.625v1q0 1-1 1t-1-1v-1.156t0.063-0.281q0.063-2.813 1.219-5.281t3.031-4.281 4.375-2.875 5.313-1.063h3l-4.688-4.313q-0.313-0.313-0.313-0.719t0.313-0.719 0.688-0.313 0.688 0.313z"></path>
</svg>
