<!-- Generated by IcoMoon.io -->
<svg version="1.1" xmlns="http://www.w3.org/2000/svg" width="24" height="32" viewBox="0 0 24 32">
<title>uniE1AA</title>
<path d="M22 4q0.875 0 1.438 0.563t0.563 1.438v24q0 0.813-0.563 1.406t-1.438 0.594h-20q-0.875 0-1.438-0.594t-0.563-1.406v-24q0-0.875 0.563-1.438t1.438-0.563h4.188q0.313-0.75 0.906-1.313t1.406-0.688q0.5-0.875 1.438-1.438t2.063-0.563 2.063 0.563 1.438 1.438q0.813 0.125 1.406 0.688t0.906 1.313h4.188zM9 4q-1 0-1 1t1 1h6q1 0 1-1t-1-1h-1q0-0.875-0.563-1.438t-1.438-0.563-1.438 0.563-0.563 1.438h-1zM22 6h-4.188q-0.125 0.313-0.25 0.594t-0.375 0.594q-0.625 0.813-1.625 0.813h-7.125q-1 0-1.625-0.813-0.25-0.313-0.375-0.594t-0.25-0.594h-4.188v24h20v-24zM12 10q1.688 0 3.125 0.625t2.531 1.719 1.719 2.531 0.625 3.125-0.625 3.125-1.719 2.531-2.531 1.719-3.125 0.625-3.125-0.625-2.531-1.719-1.719-2.531-0.625-3.125 0.625-3.125 1.719-2.531 2.531-1.719 3.125-0.625zM12 24q2.5 0 4.25-1.75t1.75-4.25-1.75-4.25-4.25-1.75-4.25 1.75-1.75 4.25 1.75 4.25 4.25 1.75zM12 14q1.625 0 2.813 1.156t1.188 2.844q0 1.625-1.188 2.813t-2.813 1.188-2.813-1.188-1.188-2.813q0-1.688 1.188-2.844t2.813-1.156zM12 20q0.875 0 1.438-0.594t0.563-1.406q0-0.875-0.563-1.438t-1.438-0.563-1.438 0.563-0.563 1.438q0 0.813 0.563 1.406t1.438 0.594z"></path>
</svg>
