<!-- Generated by IcoMoon.io -->
<svg version="1.1" xmlns="http://www.w3.org/2000/svg" width="32" height="32" viewBox="0 0 32 32">
<title>uniE250</title>
<path d="M31.563 14.75q0.438 0.563 0.438 1.281t-0.438 1.219l-6.375 8q-0.688 0.75-1.563 0.75h-22.625q-0.625 0-0.906-0.563t0.094-1.063l5.75-7.125q0.438-0.5 0.438-1.219t-0.438-1.281l-5.75-7.125q-0.375-0.5-0.094-1.063t0.906-0.563h22.625q0.813 0 1.563 0.75zM30 16l-6.375-8h-20.563l4.438 5.5q0.875 1.125 0.875 2.531t-0.875 2.469l-4.438 5.5h20.563z"></path>
</svg>
