<!-- Generated by IcoMoon.io -->
<svg version="1.1" xmlns="http://www.w3.org/2000/svg" width="32" height="32" viewBox="0 0 32 32">
<title>uniE17D</title>
<path d="M22.813 9.875q0.5 0.25 0.844 0.594t0.344 0.844v10.25q0 0.25-0.063 0.5-0.125 0.5-0.375 0.688-0.125 0.063-0.375 0.063-0.313 0-0.813-0.125-0.25-0.063-0.375-0.188v-10q0-0.5-0.125-0.719t-0.625-0.531l-5.5-1.25h-0.313q-0.375 0-0.563 0.063l-3.313 0.875 7.25 2.063q0.5 0.25 0.844 0.594t0.344 0.844v10.188q0 0.688-0.438 1.094t-1.063 0.406h-0.313l-9-3.063q-0.5-0.125-0.844-0.531t-0.344-0.906v-10.438q0-1.063 0.938-1.375l5.625-1.688q0.375-0.125 0.563-0.125t0.313 0.063zM10 12.625v8.563l8 2.813v-9.125zM30 4q0.688 0 1.125 0.313t0.625 0.688q0.25 0.438 0.25 1v22q0 0.75-0.313 1.156t-0.688 0.594q-0.438 0.25-1 0.25h-28q-0.563 0-1-0.25-0.375-0.188-0.688-0.594t-0.313-1.156v-24q0-0.563 0.25-1 0.188-0.375 0.594-0.688t1.156-0.313h11.688l2.313 2h14zM30 8q-0.063-0.563-0.313-1-0.188-0.375-0.594-0.688t-1.094-0.313h-14l-2-2h-8q-0.75 0-1.156 0.313t-0.594 0.688q-0.25 0.438-0.25 1v20q0 0.813 0.313 1.188t0.688 0.563q0.438 0.25 1 0.25h24q0.563 0 1-0.25 0.375-0.188 0.688-0.563t0.313-1.188v-18z"></path>
</svg>
