<!-- Generated by IcoMoon.io -->
<svg version="1.1" xmlns="http://www.w3.org/2000/svg" width="32" height="32" viewBox="0 0 32 32">
<title>uniE1C2</title>
<path d="M16 0q3.313 0 6.25 1.25t5.094 3.406 3.406 5.094 1.25 6.25-1.25 6.219-3.406 5.094-5.094 3.438-6.25 1.25-6.219-1.25-5.094-3.438-3.438-5.094-1.25-6.219 1.25-6.25 3.438-5.094 5.094-3.406 6.219-1.25zM16 30q2.875 0 5.438-1.094t4.469-3 3-4.438 1.094-5.469q0-2.875-1.094-5.438t-3-4.469-4.469-3-5.438-1.094q-2.938 0-5.469 1.094t-4.438 3-3 4.469-1.094 5.438q0 2.938 1.094 5.469t3 4.438 4.438 3 5.469 1.094zM24.125 10.313q0.25 0.188 0.281 0.5t-0.156 0.563l-9.063 12.875q-0.188 0.375-0.656 0.438t-0.844-0.25l-6.438-7.313q-0.313-0.25-0.313-0.594t0.313-0.594l1.375-1.438q0.688-0.688 1.25 0l3.5 3.375q0.313 0.313 0.75 0.281t0.688-0.531l6.438-8.5q0.25-0.438 0.656-0.5t0.781 0.25z"></path>
</svg>
