<!-- Generated by IcoMoon.io -->
<svg version="1.1" xmlns="http://www.w3.org/2000/svg" width="32" height="32" viewBox="0 0 32 32">
<title>uniE207</title>
<path d="M27.688 5.938l4.063 4.063-2 2-3.938-4.063-4.063 4.063-2-2 4.063-4.063-4.063-3.938 2-2 4.063 4 3.938-4 2 2zM16.875 13.375q0.375-1.188 0.375-2.438 0-1.813-0.688-3.438t-1.906-2.844-2.813-1.938-3.469-0.719q-2.938 0-5.188 1.656t-3.188 4.281h7.375q0.875 0 1.719 0.563t0.844 1.438v2q0 0.875-0.844 1.469t-1.719 0.594h-7.375q0.938 2.5 3.188 4.156t5.188 1.656q1.813 0 3.25-0.625l10.188 10.25q0.563 0.563 1.438 0.563 0.75 0 1.313-0.563l2.875-2.875q0.563-0.563 0.563-1.344t-0.563-1.406zM23.25 28l-11.125-11.188-1.188 0.5q-1.5 0.5-2.563 0.5-1.375 0-2.625-0.5t-2.188-1.375h3.813q0.813 0 1.625-0.313t1.469-0.875 1.063-1.281 0.406-1.531v-2q0-0.813-0.406-1.531t-1.063-1.219-1.469-0.813-1.625-0.313h-3.813q1.938-2.063 4.813-2.063 1.438 0 2.688 0.563t2.188 1.5 1.469 2.188 0.531 2.688q0 0.438-0.063 0.875t-0.25 1l-0.313 1.125 0.875 0.813 10.5 10.5z"></path>
</svg>
