<!-- Generated by IcoMoon.io -->
<svg version="1.1" xmlns="http://www.w3.org/2000/svg" width="28" height="32" viewBox="0 0 28 32">
<title>uniE076</title>
<path d="M26 2q1.25 0 1.781 1.063t-0.156 2.063q-0.75 0.75-1.438 1.625-0.688 0.75-1.438 1.688t-1.625 1.875q-2 2.25-4.563 5.125-0.563 0.563-0.563 1.438v7.125l-6.313 5.688q-0.25 0.313-0.688 0.313-0.375 0-0.688-0.25t-0.313-0.75v-12.125q0-0.813-0.625-1.438l-4.5-5.125q-0.875-0.938-1.688-1.875t-1.438-1.656-1-1.188l-0.375-0.469q-0.688-1-0.156-2.063t1.781-1.063h24zM17.125 14.063q2.5-2.813 4.438-5 0.813-0.938 1.594-1.844t1.406-1.625 1.031-1.156l0.406-0.438h-24l0.375 0.469t1 1.156 1.406 1.594 1.656 1.844q1.938 2.188 4.438 5 1.125 1.25 1.125 2.813v9.875l4-3.625v-6.25q0-1.688 1.125-2.813z"></path>
</svg>
