<!-- Generated by IcoMoon.io -->
<svg version="1.1" xmlns="http://www.w3.org/2000/svg" width="24" height="32" viewBox="0 0 24 32">
<title>uniE10B</title>
<path d="M21.813 4.75q0.5 0.688 0.781 1.531t0.438 1.625 0.188 1.406 0.031 0.875q0 1.625-0.875 3.906t-2.156 4.688-2.781 4.781-2.813 4.188l-2.125 3-0.875 1.063-0.938-1.375q-0.188-0.25-5.688-8.375t-4.875-11.813q0-2.5 0.813-4.531t2.313-3.438 3.594-2.156 4.656-0.75q2.063 0 3.406 0.25t2.156 0.594 1.25 0.656l0.688 0.563-1.188 0.75q-0.438 0.313-0.781 0.531t-0.344 0.156q-0.25-0.25-0.844-0.469t-1.344-0.406-1.563-0.313-1.438-0.125q-1.75 0-3.406 0.656t-2.969 1.75-2.094 2.563-0.781 3.031q0 1.5 0.625 3.375t1.625 3.844 2.125 3.844l5.313 7.875 5.188-8.438q3.688-6.5 3.656-9.5t-0.344-3.75l0.813-1.313zM9.813 10.063q0.063-0.125 0.594-0.5t1.344-0.875l8.813-5.813-7.125 10.813q-0.75 0.75-1.813 0.75t-1.813-0.75-0.75-1.813 0.75-1.813zM11.625 10.5q-0.563 0-0.938 0.375t-0.375 0.938q0 0.5 0.375 0.875t0.938 0.375q0.5 0 0.875-0.375t0.375-0.875q0-0.563-0.375-0.938t-0.875-0.375z"></path>
</svg>
