<!-- Generated by IcoMoon.io -->
<svg version="1.1" xmlns="http://www.w3.org/2000/svg" width="28" height="32" viewBox="0 0 28 32">
<title>uniE26D</title>
<path d="M21.688 17.375l3.375 6.625h-2.5l-2.563-5.25-4.375 5.188h-2.813l5.938-6.875-2.563-5.063h-5.75l-7.938 18h-2.5l7.813-18h-1.875l0.625-2h2.063l1.688-3.875q0.5-1.188 1.063-1.938t1.125-1.188q1.313-1 3.063-1h2.438l-0.625 2h-1.688q-0.813 0-1.563 0.625-0.313 0.25-0.625 0.688t-0.563 1l-1.625 3.688h6.375l2.75 5.75 4.75-5.75h2.813z"></path>
</svg>
