<!-- Generated by IcoMoon.io -->
<svg version="1.1" xmlns="http://www.w3.org/2000/svg" width="20" height="32" viewBox="0 0 20 32">
<title>uniE024</title>
<path d="M10 0q2.063 0 3.844 0.75t3.156 2.063 2.156 3.156 0.781 4.031q0 1.5-0.469 2.656t-1.125 2.125-1.344 1.75-1 1.469q-0.063 0.063-0.375 1l-0.688 2.063q-0.438 1.313-0.938 2.938h-8l-1-3q-0.375-1.125-0.688-2.031t-0.313-0.969q-0.313-0.688-1-1.469t-1.344-1.719-1.156-2.125-0.5-2.75q0-2.188 0.781-4.031t2.156-3.156 3.188-2.031 3.875-0.719zM15.625 15q0.875-1.063 1.594-2.219t0.719-2.781q0-1.688-0.594-3.156t-1.688-2.563-2.531-1.688-3.125-0.594-3.156 0.563-2.531 1.625q-2.313 2.25-2.313 5.75 0 1.625 0.688 2.75t1.563 2.188q0.5 0.563 0.875 1.125t0.688 1.188q0 0.063 0.063 0.156t0.188 0.563 0.469 1.406 0.906 2.688h5.063q0.563-1.75 0.906-2.688t0.5-1.406 0.219-0.594 0.063-0.188q0.313-0.563 0.656-1.063t0.781-1.063zM6 30h8l-0.625 0.625q-1.375 1.375-3.375 1.375-2.063 0-3.438-1.375zM13.563 25q0.375 0 0.656 0.281t0.281 0.719v2q0 0.438-0.281 0.719t-0.656 0.281h-7.188q-0.875 0-0.875-1v-2q0-1 0.875-1h7.188zM10.875 28q0.875 0 0.875-1t-0.875-1-0.875 1 0.875 1z"></path>
</svg>
