<!-- Generated by IcoMoon.io -->
<svg version="1.1" xmlns="http://www.w3.org/2000/svg" width="24" height="32" viewBox="0 0 24 32">
<title>uniE00B</title>
<path d="M6.813 10.313l-2.313-2.188 1.125-1.188 1.188 1.063 3.375-3.438 1.125 1.188zM6.813 18.313l-2.313-2.313 1.125-1.125 1.188 1.063 3.375-3.438 1.125 1.188zM4.5 26.125l2.313-2.25-2.313-2.25 1.125-1.125 2.313 2.313 2.25-2.313 1.125 1.125-2.313 2.25 2.313 2.25-1.125 1.125-2.25-2.313-2.313 2.313zM22 0q0.875 0 1.438 0.563t0.563 1.438v28q0 0.813-0.563 1.406t-1.438 0.594h-20q-0.875 0-1.438-0.594t-0.563-1.406v-28q0-0.875 0.563-1.438t1.438-0.563h20zM22 2h-20v28h20v-28zM19 6q1 0 1 1 0 0.375-0.281 0.688t-0.719 0.313h-4q-0.375 0-0.688-0.313t-0.313-0.688q0-0.438 0.313-0.719t0.688-0.281h4zM19 14q1 0 1 1 0 0.375-0.281 0.688t-0.719 0.313h-4q-0.375 0-0.688-0.313t-0.313-0.688q0-0.438 0.313-0.719t0.688-0.281h4zM19 22q1 0 1 1 0 0.375-0.281 0.688t-0.719 0.313h-4q-0.375 0-0.688-0.313t-0.313-0.688q0-0.438 0.313-0.719t0.688-0.281h4z"></path>
</svg>
