<!-- Generated by IcoMoon.io -->
<svg version="1.1" xmlns="http://www.w3.org/2000/svg" width="32" height="32" viewBox="0 0 32 32">
<title>uniE126</title>
<path d="M23 14q1.875 0 3.5 0.219t2.844 0.625 1.938 0.969 0.719 1.188v12q0 0.625-0.719 1.156t-1.938 0.938-2.844 0.656-3.5 0.25-3.531-0.25-2.875-0.656-1.906-0.938-0.688-1.156v-12q0-0.625 0.688-1.188t1.906-0.969 2.875-0.625 3.531-0.219zM23 16q-2.25 0-3.844 0.313t-2.469 0.688q0.875 0.313 2.469 0.656t3.844 0.344 3.844-0.344 2.469-0.656q-0.875-0.375-2.469-0.688t-3.844-0.313zM25.125 21.875q3.063-0.188 4.875-1.063v-1.938q-1.25 0.5-3.063 0.813t-3.938 0.313q-2.188 0-3.969-0.313t-3.031-0.813v1.938q1.813 0.875 4.875 1.063h0.063q0.5 0.063 1 0.094t1.063 0.031q0.5 0 1.031-0.031t1.031-0.094h0.063zM30 22.875q-1.25 0.5-3.063 0.813t-3.938 0.313q-2.188 0-3.969-0.313t-3.031-0.813v1.938q1.813 0.875 4.875 1.063h0.063q0.5 0.063 1 0.094t1.063 0.031q0.5 0 1.031-0.031t1.031-0.094h0.063q3.063-0.188 4.875-1.063v-1.938zM25.125 29.875q3.063-0.188 4.875-1.063v-2q-1.25 0.563-3.063 0.875t-3.938 0.313q-4.438 0-7-1.188v2q1.813 0.875 4.875 1.063h0.063q0.5 0.063 1 0.094t1.063 0.031q0.5 0 1.031-0.031t1.031-0.094h0.063zM23.688 7.938l6.313-7.938 2 2-8.25 9.938-5.188-5.25 2-1.938zM2 30h10v2h-10q-0.875 0-1.438-0.563t-0.563-1.438v-22l8-8h14q0.813 0 1.406 0.563t0.594 1.438h-14v6q0 0.875-0.594 1.438t-1.469 0.563h-5.938v20z"></path>
</svg>
