<!-- Generated by IcoMoon.io -->
<svg version="1.1" xmlns="http://www.w3.org/2000/svg" width="32" height="32" viewBox="0 0 32 32">
<title>uniE098</title>
<path d="M8 24h6v2h-6v6h-2v-6h-6v-2h6v-6h2v6zM30.813 3.75q0.5 0.125 0.844 0.531t0.344 0.969v21.5q0 0.25-0.063 0.5l-0.125 0.375t-0.25 0.313q-0.063 0.063-0.313 0.063-0.313 0-0.813-0.125-0.25-0.063-0.438-0.188v-20.813q0-0.5-0.313-0.906t-0.813-0.531l-12.875-3.313q-0.063 0-0.125-0.031t-0.188-0.031q-0.188 0-0.563 0.125l-5.5 2.125 15.25 3.813q1.125 0.313 1.125 1.5v20.875q0 0.688-0.438 1.094t-1.063 0.406h-0.25l-8.25-2.375v-2.063l8 2.313v-19.875l-16-4v8h-2v-9.438q0-1.063 1-1.375l8.063-3.063q0.375-0.125 0.563-0.125t0.313 0.063z"></path>
</svg>
