<!-- Generated by IcoMoon.io -->
<svg version="1.1" xmlns="http://www.w3.org/2000/svg" width="32" height="32" viewBox="0 0 32 32">
<title>uniE1C7</title>
<path d="M16 0q3.313 0 6.25 1.25t5.094 3.438 3.406 5.094 1.25 6.219-1.25 6.219-3.406 5.094-5.094 3.438-6.25 1.25-6.219-1.25-5.094-3.438-3.438-5.094-1.25-6.219 1.25-6.219 3.438-5.094 5.094-3.438 6.219-1.25zM16 30q2.875 0 5.438-1.094t4.469-3 3-4.438 1.094-5.469q0-2.875-1.094-5.438t-3-4.469-4.469-3-5.438-1.094-5.438 1.094-4.469 3-3 4.469-1.094 5.438q0 2.938 1.094 5.469t3 4.438 4.469 3 5.438 1.094zM24 9.813l-6.125 5.938 6.125 6.188-1.75 1.75-6.313-6.188-6.188 6.188-1.75-1.813 6.063-6.063-5.813-5.875 1.688-1.813 6 5.875 6.25-6z"></path>
</svg>
