<!-- Generated by IcoMoon.io -->
<svg version="1.1" xmlns="http://www.w3.org/2000/svg" width="32" height="32" viewBox="0 0 32 32">
<title>uniE0AF</title>
<path d="M14 15.438q0.25 0 0.469 0.063t0.406 0.125l8.938-9.063 0.25-2.313 3.938-4.25v4h4l-4.063 4.125-2.313 0.25-9.188 9.125q0 0.125 0.031 0.25t0.031 0.25q0 1.063-0.719 1.813t-1.781 0.75-1.813-0.75-0.75-1.813 0.75-1.813 1.813-0.75zM14 12q-2.5 0-4.25 1.75t-1.75 4.25 1.75 4.25 4.25 1.75q1.188 0 2.281-0.469t1.938-1.281 1.313-1.906 0.469-2.344q0-0.313-0.031-0.563t-0.094-0.563l1.563-1.563q0.25 0.625 0.406 1.313t0.156 1.375q0 1.688-0.625 3.125t-1.719 2.531-2.563 1.719-3.094 0.625q-1.688 0-3.125-0.625t-2.531-1.719-1.719-2.531-0.625-3.125 0.625-3.125 1.719-2.531 2.531-1.719 3.125-0.625q1.438 0 3 0.625l-1.563 1.563q-0.313-0.063-0.688-0.125t-0.75-0.063zM26 10.813q0.938 1.625 1.469 3.406t0.531 3.781q0 2.938-1.094 5.469t-3 4.438-4.469 3-5.438 1.094q-2.938 0-5.469-1.094t-4.438-3-3-4.438-1.094-5.469q0-2.875 1.094-5.438t3-4.469 4.438-3 5.469-1.094q2 0 3.906 0.563t3.531 1.625l-1.5 1.438q-1.313-0.75-2.813-1.188t-3.125-0.438q-2.5 0-4.688 0.938t-3.813 2.563-2.563 3.813-0.938 4.688 0.938 4.688 2.563 3.813 3.813 2.563 4.688 0.938q2.438 0 4.625-0.938t3.844-2.563 2.594-3.813 0.938-4.688q0-1.563-0.406-3t-1.094-2.75z"></path>
</svg>
