<!-- Generated by IcoMoon.io -->
<svg version="1.1" xmlns="http://www.w3.org/2000/svg" width="32" height="32" viewBox="0 0 32 32">
<title>uniE0AB</title>
<path d="M28 2q1.688 0 2.844 1.188t1.156 2.813v14q0 1.625-1.156 2.813t-2.844 1.188h-2v4.688q0 0.625-0.406 0.969t-0.906 0.344q-0.438 0-0.75-0.25l-4.938-5.688-15-0.063q-1.625 0-2.813-1.188t-1.188-2.813v-14q0-1.625 1.188-2.813t2.813-1.188h24zM30 6q0-0.813-0.563-1.406t-1.438-0.594h-24q-0.813 0-1.406 0.594t-0.594 1.406v14q0 0.875 0.594 1.438t1.406 0.563h16l4 5v-5h4q0.875 0 1.438-0.563t0.563-1.438v-14z"></path>
</svg>
