<!-- Generated by IcoMoon.io -->
<svg version="1.1" xmlns="http://www.w3.org/2000/svg" width="28" height="32" viewBox="0 0 28 32">
<title>uniE1A1001</title>
<path d="M27.188 16.625q0.313 0.5 0.313 0.875 0 0.438-0.313 0.75l-6.5 6.5q-0.313 0.313-0.813 0.313-0.438 0-0.75-0.313l-6.5-6.5q-0.313-0.313-0.313-0.75 0-0.563 0.313-0.875l6.5-6.375q0.188-0.375 0.75-0.375 0.438 0 0.813 0.375l4.063 3.938-4.813 4.875-1.688-1.563 3.313-3.313-1.625-1.563-4.875 4.875 4.875 4.813 6.438-6.438zM22 28h2v2q0 0.875-0.563 1.438t-1.438 0.563h-20q-0.875 0-1.438-0.563t-0.563-1.438v-22l8-8h14q0.813 0 1.406 0.563t0.594 1.438v4h-2v-4h-12v6q0 0.875-0.594 1.438t-1.469 0.563h-5.938v20h20v-2z"></path>
</svg>
