<!-- Generated by IcoMoon.io -->
<svg version="1.1" xmlns="http://www.w3.org/2000/svg" width="26" height="32" viewBox="0 0 26 32">
<title>uniE0A0</title>
<path d="M25.375 9.688q0.625 0.563 0.625 1.375t-0.625 1.438q-0.563 0.563-1.469 1.063t-2 0.969-2.188 0.875-2.031 0.719q0.75 2.313 0.219 4.781t-2.406 4.281l-5.625-5.625-8.188 8.125q-0.688 0.75-1.438 0-0.313-0.313-0.313-0.688t0.313-0.688l8.188-8.188-5.688-5.625q1.875-1.875 4.313-2.406t4.813 0.219q0.25-0.938 0.656-2.031t0.875-2.188 1-2.031 1.094-1.5q0.625-0.563 1.438-0.563t1.375 0.563zM16.938 4q-0.688 0.688-1.5 2.5t-1.625 4.438l-0.625 1.875-1.938-0.563q-1.375-0.5-2.781-0.375t-2.656 0.813l9.5 9.5q0.688-1.25 0.813-2.656t-0.375-2.844l-0.625-1.875 1.938-0.625q1.938-0.625 3.219-1.125t2.063-0.906 1.156-0.688 0.5-0.406z"></path>
</svg>
