<!-- Generated by IcoMoon.io -->
<svg version="1.1" xmlns="http://www.w3.org/2000/svg" width="28" height="32" viewBox="0 0 28 32">
<title>uniE267</title>
<path d="M18.313 15.875q-0.438 0.438 0 0.625l3.313 3.75q0.688 0.75 0 1.438-0.75 0.625-1.438 0l-3.625-4.063q-0.563-0.563-0.563-1.375t0.563-1.438l3.813-4.063q0.688-0.688 1.375 0 0.813 0.813 0 1.375zM27 4q1 0 1 1t-1 1h-26q-1 0-1-1t1-1h26zM1 12q-1 0-1-1t1-1h10q1 0 1 1t-1 1h-10zM1 18q-1 0-1-1t1-1h10q1 0 1 1t-1 1h-10zM1 24q-1 0-1-1t1-1h10q1 0 1 1t-1 1h-10zM27 28q1 0 1 1t-1 1h-26q-1 0-1-1t1-1h26z"></path>
</svg>
