<!-- Generated by IcoMoon.io -->
<svg version="1.1" xmlns="http://www.w3.org/2000/svg" width="20" height="32" viewBox="0 0 20 32">
<title>uniE0B5</title>
<path d="M16.063 0q1.688 0.188 2.813 1.406t1.125 2.906l-1.188 10.563q0 0.875-0.531 1.375t-1.406 0.5q-0.875-0.125-1.438-0.75t-0.438-1.375l0.625-7.25q-2.313 1.063-4.406 2.25t-3.688 2.688-2.563 3.406-0.969 4.281q0 2.5 0.75 4t2.031 2.344 2.969 1.188 3.5 0.469h-0.125q0.875 0 1.438 0.563t0.563 1.438-0.563 1.438-1.438 0.563l-1.75-0.125q-2.25-0.25-4.313-0.938t-3.625-2.094-2.5-3.563-0.938-5.281 1.25-5.719 3.094-4.563 3.938-3.344 3.719-2.125l0.625-0.25-7.125-0.125q-0.875-0.125-1.438-0.688t-0.438-1.438q0-0.688 0.625-1.281t1.375-0.469h10.438z"></path>
</svg>
