<!-- Generated by IcoMoon.io -->
<svg version="1.1" xmlns="http://www.w3.org/2000/svg" width="32" height="32" viewBox="0 0 32 32">
<title>uniE02F</title>
<path d="M28 26h2v4q0 0.875-0.563 1.438t-1.438 0.563h-24q-0.813 0-1.406-0.563t-0.594-1.438v-12h2v12h24v-4zM4 12h-2v-8q0-0.813 0.594-1.406t1.406-0.594h4v-2h2v2h12v-2h2v2h4q0.875 0 1.438 0.594t0.563 1.406v16h-2v-12h-24v4zM22 6h2v-2h-2v2zM8 6h2v-2h-2v2zM12 16h-12v-2h18q0.438 0 0.719 0.313t0.281 0.688q0 0.25-0.625 1.031t-1.375 1.656q-0.875 1.063-1.938 2.25zM32 22v2h-6l-2.938 4-3.063-4h-4l-2.938 4.063q-1.188-1.25-2.063-2.313-0.75-0.875-1.375-1.688t-0.625-1.063q0-0.375 0.281-0.688t0.719-0.313h22z"></path>
</svg>
