<!-- Generated by IcoMoon.io -->
<svg version="1.1" xmlns="http://www.w3.org/2000/svg" width="32" height="32" viewBox="0 0 32 32">
<title>uniE211</title>
<path d="M15.75 4q1.875 0 3.531 0.719t2.875 1.969 1.938 2.875 0.719 3.5q0 1.813-0.719 3.438t-1.938 2.844-2.875 1.938-3.531 0.719-3.5-0.719-2.844-1.938-1.906-2.844-0.688-3.438q0-1.875 0.688-3.5t1.906-2.875 2.844-1.969 3.5-0.719zM15.75 5.563q-1.25 0.563-1.938 2.031t-0.938 2.719h5.875q-0.375-1.313-0.969-2.688t-2.031-2.063zM12.688 11.563q-0.063 0.375-0.063 0.719v1.469t0.063 0.688h6.25q0-0.313 0.031-0.688t0.031-0.75-0.031-0.719-0.031-0.719h-6.25zM13.875 5.438q-1.813 0.5-3.25 1.781t-2.125 3.094h3.188q0.25-1.25 0.781-2.594t1.406-2.281zM8 13q0 0.875 0.188 1.438h3.313q-0.063-0.313-0.063-0.688v-1.469t0.063-0.719h-3.313q-0.188 0.75-0.188 1.438zM8.5 15.688q0.688 1.813 2.125 3.094t3.25 1.781q-0.875-0.938-1.406-2.25t-0.781-2.625h-3.188zM15.75 20.438q1.375-0.563 2.031-2.031t0.969-2.719h-5.875q0.25 1.25 0.938 2.719t1.938 2.031zM17.75 20.563q1.813-0.5 3.25-1.781t2.125-3.094h-3.188q-0.188 1.313-0.75 2.625t-1.438 2.25zM23.625 13q0-0.688-0.188-1.438h-3.313q0 0.375 0.031 0.719t0.031 0.719-0.031 0.75-0.031 0.688h3.313q0.188-0.563 0.188-1.438zM23.125 10.313q-0.688-1.813-2.125-3.094t-3.25-1.781q0.875 0.938 1.438 2.281t0.75 2.594h3.188zM28 0q1.688 0 2.844 1.188t1.156 2.813v18q0 1.625-1.156 2.813t-2.844 1.188h-2v4.688q0 0.625-0.406 0.969t-0.906 0.344q-0.438 0-0.75-0.25l-4.938-5.688-15-0.063q-1.625 0-2.813-1.188t-1.188-2.813v-18q0-1.625 1.188-2.813t2.813-1.188h24zM30 4q0-0.813-0.563-1.406t-1.438-0.594h-24q-0.813 0-1.406 0.594t-0.594 1.406v18q0 0.875 0.594 1.438t1.406 0.563h16l4 5v-5h4q0.875 0 1.438-0.563t0.563-1.438v-18z"></path>
</svg>
