<!-- Generated by IcoMoon.io -->
<svg version="1.1" xmlns="http://www.w3.org/2000/svg" width="32" height="32" viewBox="0 0 32 32">
<title>uniE01B</title>
<path d="M15 18h-1v-9q0-1 1-1t1 1v7h9q1 0 1 1 0 0.375-0.281 0.688t-0.719 0.313h-10zM19.688 0.438q2.625 0.625 4.906 2.063t3.906 3.469 2.563 4.594 0.938 5.438q0 3.313-1.25 6.219t-3.406 5.094-5.094 3.438-6.25 1.25q-3.063 0-5.781-1.094t-4.844-2.969-3.5-4.438-1.75-5.5h2.063q0.375 2.563 1.594 4.75t3.063 3.781 4.188 2.531 4.969 0.938q2.875 0 5.438-1.094t4.469-3 3-4.469 1.094-5.438q0-2.438-0.781-4.625t-2.156-3.969-3.25-3.063-4.125-1.844v-2.063zM12 2.625q-2.813 0.875-5.031 2.75t-3.469 4.5l3.813-0.313q0.375-0.063 0.688 0.219t0.375 0.719q0 1-0.938 1l-5.25 0.5q-0.875 0-1.469-0.531t-0.719-1.406l0.063-5.25q-0.063-0.375 0.219-0.688t0.656-0.313q0.438-0.063 0.719 0.219t0.344 0.719v3.563q1.625-2.875 4.188-4.906t5.813-2.906v2.125z"></path>
</svg>
