<!-- Generated by IcoMoon.io -->
<svg version="1.1" xmlns="http://www.w3.org/2000/svg" width="28" height="32" viewBox="0 0 28 32">
<title>uniE215</title>
<path d="M4.5 18q-0.5 0-0.5-0.5v-3q0-0.5 0.5-0.5h15q0.5 0 0.5 0.5v3q0 0.5-0.5 0.5h-15zM0 2h1.938v28h-1.938v-28zM17.938 12h-1.938v-8h1.938v8zM4.5 10q-0.5 0-0.5-0.5v-3q0-0.5 0.5-0.5h8.938q0.5 0 0.5 0.5v3q0 0.5-0.5 0.5h-8.938zM26 20h2v8h-2v-8zM22.063 12h1.938v8h-1.938v-8zM23.5 22q0.5 0 0.5 0.5v3q0 0.5-0.5 0.5h-19q-0.5 0-0.5-0.5v-3q0-0.5 0.5-0.5h19z"></path>
</svg>
