<!-- Generated by IcoMoon.io -->
<svg version="1.1" xmlns="http://www.w3.org/2000/svg" width="28" height="32" viewBox="0 0 28 32">
<title>uniE0A8</title>
<path d="M7 16q1.438 0 2.719 0.563t2.219 1.5 1.5 2.219 0.563 2.719-0.563 2.719-1.5 2.219-2.219 1.5-2.719 0.563-2.719-0.563-2.219-1.5-1.5-2.219-0.563-2.719 0.563-2.719 1.5-2.219 2.219-1.5 2.719-0.563zM7 28q2.063 0 3.531-1.469t1.469-3.531q0-2.125-1.469-3.563t-3.531-1.438-3.531 1.438-1.469 3.563q0 2.063 1.469 3.531t3.531 1.469zM2 8q4.125 0 7.75 1.594t6.344 4.313 4.313 6.344 1.594 7.75v2h-2v-2q0-3.75-1.406-7.031t-3.844-5.719-5.719-3.844-7.031-1.406h-2v-2h2zM2.063 2q5.625 0 10.375 1.938t8.219 5.406 5.406 8.219 1.938 10.375v2.063h-2v-2.063q0-5.25-1.781-9.625t-4.969-7.563-7.563-4.969-9.625-1.781h-2.063v-2h2.063z"></path>
</svg>
