<!-- Generated by IcoMoon.io -->
<svg version="1.1" xmlns="http://www.w3.org/2000/svg" width="32" height="32" viewBox="0 0 32 32">
<title>uniE01D</title>
<path d="M27.625 18h0.188q0.188 0.188 0.188 0.25v11.75q0 0.875-0.563 1.438t-1.438 0.563h-24q-0.875 0-1.438-0.563t-0.563-1.438v-20q0-0.875 0.563-1.438t1.438-0.563h12v2h-12v13.25l2.25-2.313q-0.25-0.5-0.25-0.938 0-0.875 0.563-1.438t1.438-0.563 1.438 0.563 0.563 1.438q0 0.438-0.25 0.938l3.313 3.313q0.5-0.25 0.938-0.25l2.875-6.375q-0.875-0.625-0.875-1.625 0-0.875 0.563-1.438t1.438-0.563 1.438 0.563 0.563 1.438q0 0.75-0.563 1.438l2.438 6.563h0.125q0.563 0 1.063 0.313l6.5-6.313h0.063zM26 20.938l-4.25 4.125q0.25 0.625 0.25 0.938 0 0.875-0.563 1.438t-1.438 0.563-1.438-0.563-0.563-1.438q0-1.063 0.938-1.688l-2.438-6.438q-0.25 0.125-0.5 0.125-0.063 0-0.094-0.031t-0.094-0.031l-2.813 6.375q0.438 0.25 0.719 0.688t0.281 1q0 0.875-0.563 1.438t-1.438 0.563-1.438-0.563-0.563-1.438q0-0.563 0.313-1.063l-3.25-3.25q-0.5 0.313-1.063 0.313t-1.063-0.313l-2.938 2.938v5.375h24v-9.063zM20.938 14l1.625-4.938-4.188-3.063h5.188l1.625-4.938 1.625 4.938h5.188l-4.25 3.063 1.625 4.938-4.188-3.063z"></path>
</svg>
