<!-- Generated by IcoMoon.io -->
<svg version="1.1" xmlns="http://www.w3.org/2000/svg" width="32" height="32" viewBox="0 0 32 32">
<title>uniE0DE</title>
<path d="M16 6q0 2.5-1.75 4.25t-4.25 1.75-4.25-1.75-1.75-4.25 1.75-4.25 4.25-1.75 4.25 1.75 1.75 4.25zM10 10q1.625 0 2.813-1.188t1.188-2.813-1.188-2.813-2.813-1.188-2.813 1.188-1.188 2.813 1.188 2.813 2.813 1.188zM8 14q-2.5 0-4.25 1.75t-1.75 4.25v2h12.063q0 0.25-0.031 0.469t-0.031 0.469q0 0.313 0.031 0.531t0.031 0.531h-14.063v-4q0-1.625 0.625-3.094t1.719-2.563 2.531-1.719 3.125-0.625h4q1.625 0 3.094 0.656t2.594 1.719q-0.438 0.313-0.781 0.688t-0.656 0.75q-1.688-1.813-4.25-1.813h-4zM24.438 30.438q2.813 0 5.438-1.938h2.063q-1.188 1.5-3.094 2.5t-4.344 1q-1.813 0-3.313-0.656t-2.563-1.813-1.688-2.781-0.625-3.5q0-2.063 0.625-3.688t1.719-2.813 2.594-1.813 3.313-0.625q3.375 0 5.375 2.031t2 5.406q0 1.313-0.406 2.469t-1.125 2.031-1.688 1.406-2.156 0.531-1.563-1.25q-1.25 1.25-1.938 1.25-1.438 0-2.375-1.156t-0.938-3.281q0-1 0.313-2.063t0.875-1.938 1.313-1.406 1.688-0.531q0.313 0 0.844 0.313t1.219 1.25l0.188-1.25h2l-1.313 7.5q-0.063 0.063-0.063 0.438 0 0.313 0.5 0.313 1.125 0 2.094-1.406t0.969-3.219q0-2.75-1.594-4.344t-4.219-1.594q-2.813 0-4.75 2.031t-1.938 5.406 1.875 5.281 4.688 1.906zM23.375 26.688q0.25 0 0.594-0.469t0.656-1.25 0.531-1.75 0.219-2.031q0-1.688-1.125-1.688-0.563 0-1 0.469t-0.719 1.188-0.438 1.531-0.156 1.5q0 2.5 1.438 2.5z"></path>
</svg>
