<!-- Generated by IcoMoon.io -->
<svg version="1.1" xmlns="http://www.w3.org/2000/svg" width="28" height="32" viewBox="0 0 28 32">
<title>uniE06B</title>
<path d="M12 18h4l5.75 8.375q0.375 0.5 0.125 1.063t-0.875 0.563h-14q-0.688 0-0.938-0.563t0.125-1.063zM11 26q0.375 0 0.688-0.281t0.313-0.719-0.313-0.719-0.688-0.281q-1 0-1 1t1 1zM15 22q-1 0-1 1t1 1q0.375 0 0.688-0.281t0.313-0.719-0.313-0.719-0.688-0.281zM27.563 26.375q0.438 0.625 0.438 1.375v2.125q0 0.875-0.594 1.5t-1.531 0.625h-23.75q-0.875 0-1.5-0.625t-0.625-1.5v-2.125q0-0.688 0.5-1.375l9.5-12.188v-12.188h-1q-1 0-1-1t1-1h1q0.813 0 1.406 0.594t0.594 1.406v12.25q0 0.625-0.438 1.25l-9.188 11.75q-0.375 0.5-0.375 1.188v1.563h24v-1.563q0-0.625-0.438-1.188l-9.188-11.75q-0.375-0.563-0.375-1.25v-12.25q0-0.813 0.563-1.406t1.438-0.594h1q0.375 0 0.688 0.281t0.313 0.719-0.313 0.719-0.688 0.281h-1v12.188z"></path>
</svg>
