<!-- Generated by IcoMoon.io -->
<svg version="1.1" xmlns="http://www.w3.org/2000/svg" width="28" height="32" viewBox="0 0 28 32">
<title>uniE1F9</title>
<path d="M24.625 14.625q0.563-0.563 1.406-0.563t1.406 0.563q0.625 0.625 0.625 1.438t-0.625 1.438l-12 12q-0.563 0.563-1.406 0.563t-1.406-0.563l-12.063-11.938q-0.625-0.625-0.625-1.438t0.625-1.375q0.563-0.625 1.375-0.625t1.438 0.625l9.938 9.813q0.688 0.688 1.438 0zM24.625 2.563q0.563-0.563 1.406-0.563t1.406 0.563q0.625 0.625 0.625 1.438t-0.625 1.438l-12 12q-0.563 0.563-1.406 0.563t-1.406-0.563l-12.063-11.938q-0.625-0.625-0.625-1.438t0.625-1.375q0.563-0.625 1.375-0.625t1.438 0.625l9.938 9.813q0.313 0.313 0.719 0.313t0.719-0.313z"></path>
</svg>
