<!-- Generated by IcoMoon.io -->
<svg version="1.1" xmlns="http://www.w3.org/2000/svg" width="30" height="32" viewBox="0 0 30 32">
<title>uniE105</title>
<path d="M9.063 14q0.25 0 0.719 0.063t0.906 0.219 0.75 0.344 0.313 0.438-0.563 0.25h-0.313q-1.313 0-2.188 0.406t-1.438 1.063-0.844 1.438-0.344 1.469q0 0.313-0.438 0.313-0.25 0-0.375-0.281t-0.188-0.656-0.094-0.719-0.031-0.469q0-1.5 1.063-2.688t3.063-1.188zM13.938 9.188q0-2-0.188-3.875t-0.813-3.875q-0.063-0.063-0.063-0.313 0-0.5 0.469-0.813t0.969-0.313q0.688 0 1.094 1.094t0.594 2.563 0.25 3.031 0.063 2.5q0 0.188-0.375 0.25t-0.813 0.063-0.813-0.063-0.375-0.25zM21.938 9.25q1.5 0 2.938 0.469t2.594 1.406 1.844 2.406 0.688 3.531q0 4.063-1.313 6.906t-3.094 4.625-3.625 2.594-2.906 0.813q-1.125 0-1.813-0.25t-1.938-0.25q-1.438 0-2.313 0.25t-1.813 0.25q-1.938 0-3.906-1.313t-3.594-3.406-2.656-4.75-1.031-5.406q0-1.75 0.719-3.188t1.906-2.469 2.688-1.625 3.063-0.594q2.938 0 5.5 2 0.5 0.438 1.188 0.438 0.625 0 1.25-0.438 1.063-1.063 2.531-1.531t3.094-0.469zM19.063 30q0.688 0 2.188-0.656t3-2.156 2.625-3.969 1.125-6.156q0-1.625-0.563-2.719t-1.438-1.781-1.938-1-2.125-0.313q-0.938 0-2.125 0.281t-2.063 1.156l-0.188 0.188-0.25 0.125q-1.125 0.688-2.25 0.688-1.188 0-2.313-0.75l-0.125-0.125q-1.938-1.563-4.25-1.563-1.125 0-2.281 0.438t-2.063 1.188-1.469 1.844-0.563 2.406q0 2.375 0.906 4.656t2.281 4.125 2.969 2.969 3.031 1.125q0.313 0 0.563-0.031t0.625-0.094q0.5-0.125 1.219-0.25t1.719-0.125q0.875 0 1.438 0.094t1.063 0.219q0.75 0.188 1.25 0.188zM19.25 5.813q-1.813-0.375-1.813-1.625 0-1.375 1.438-2.281t3.75-0.906q2.5 0 5.375-1-0.5 1.063-1.281 2.125t-1.813 1.906-2.25 1.344-2.531 0.5h-0.5z"></path>
</svg>
