<!-- Generated by IcoMoon.io -->
<svg version="1.1" xmlns="http://www.w3.org/2000/svg" width="32" height="32" viewBox="0 0 32 32">
<title>uniE0A2</title>
<path d="M30 0q0.75 0 1.156 0.313t0.594 0.688q0.25 0.438 0.25 1v16q0 0.75-0.313 1.156t-0.688 0.594q-0.438 0.25-1 0.25h-4q-0.75 0-1.563 0.25t-1.531 0.563-1.25 0.656-0.719 0.531q-0.188-0.188-0.5-0.438t-0.719-0.5-0.875-0.469-0.844-0.219v-3.375q0.188 0.063 0.531 0.219t0.656 0.344q0.375 0.25 0.813 0.438v-14q-0.125-0.563-0.563-1-0.375-0.375-1.188-0.656t-2.25-0.344h-4v4h-2v-4q0-0.563 0.25-1 0.188-0.375 0.563-0.688t1.188-0.313h6q1.313 0 2 0.813t1 1.188q0.188-0.375 0.938-1.188t2.063-0.813h6zM30 2h-4q-1.438 0.063-2.25 0.344t-1.188 0.656q-0.438 0.438-0.563 1v14q0.563-0.563 1.25-1 0.563-0.375 1.281-0.656t1.469-0.344h4v-14zM12 20q1.625 0 3.094 0.625t2.563 1.719 1.719 2.531 0.625 3.125v4h-20v-4q0-1.688 0.625-3.125t1.719-2.531 2.531-1.719 3.125-0.625h4zM18 28q0-1.25-0.469-2.344t-1.313-1.906-1.938-1.281-2.281-0.469h-4q-2.5 0-4.25 1.75t-1.75 4.25v2h16v-2zM16 14q0 2.5-1.75 4.25t-4.25 1.75-4.25-1.75-1.75-4.25 1.75-4.25 4.25-1.75 4.25 1.75 1.75 4.25zM10 18q1.625 0 2.813-1.188t1.188-2.813-1.188-2.813-2.813-1.188q-1.688 0-2.844 1.188t-1.156 2.813 1.156 2.813 2.844 1.188z"></path>
</svg>
