<!-- Generated by IcoMoon.io -->
<svg version="1.1" xmlns="http://www.w3.org/2000/svg" width="33" height="32" viewBox="0 0 33 32">
<title>uniE1A5</title>
<path d="M26 24h6v2h-6v6h-2v-6h-6v-2h6v-6h2v6zM30 2q0.813 0 1.406 0.594t0.594 1.406v12h-2v-12h-28v24h12v2h-12q-0.875 0-1.438-0.563t-0.563-1.438v-24q0-0.813 0.563-1.406t1.438-0.594h28zM12.875 9.125l-5.563 6.688-3.313-3.375 1.063-1.125 2.25 2.25 4.438-5.563zM7.313 23.75l4.438-5.5 1.125 1.063-5.563 6.688-3.313-3.313 1.063-1.188zM25 10q1 0 1 1 0 0.375-0.281 0.688t-0.719 0.313h-8q-0.375 0-0.688-0.313t-0.313-0.688q0-0.438 0.313-0.719t0.688-0.281h8z"></path>
</svg>
