<!-- Generated by IcoMoon.io -->
<svg version="1.1" xmlns="http://www.w3.org/2000/svg" width="30" height="32" viewBox="0 0 30 32">
<title>uniE123</title>
<path d="M28.375 0q0.625 0 1.031 0.438t0.406 1v13.313q0 0.625-0.406 1.031t-1.031 0.406h-13.313q-0.625 0-1.031-0.406t-0.406-1.031v-13.313q0-0.563 0.406-1t1.031-0.438h13.313zM17.5 12.75l1.188-1.188-0.813-0.813-1.188 1.188-1.125-1.188-0.75 0.813 1.188 1.188-1.188 1.125 0.75 0.813 1.125-1.188 1.188 1.188 0.813-0.813zM19 7l-0.313-0.813-2.375 1.938-0.75-0.813-0.75 0.813 1.5 1.563zM19 2.688l-0.688-0.813-2 2-0.75-0.813-0.75 0.813 1.5 1.5zM27.875 11.5h-7.688v1.563h7.688v-1.563zM27.875 7.25h-7.688v1.563h7.688v-1.563zM27.875 3.063h-7.688v1.5h7.688v-1.5zM10.813 21.813q1 0 1 0.938v8.25q0 1-1 1h-8.25q-1 0-1-1v-8.25q0-0.938 1-0.938h8.25zM4.938 25.25h-1.625v5.063h1.625v-5.063zM7.5 23.563h-1.625v6.75h1.625v-6.75zM10.125 26.938h-1.75v3.375h1.75v-3.375zM11.688 18.875q0 0.375-0.281 0.688t-0.781 0.313h-9.563q-0.5 0-0.781-0.313t-0.281-0.688v-9.688q0-1.125 1.063-1.125h9.563q1.063 0 1.063 1.125v9.688zM3.813 17.625l-1.188-1.188-0.75 1.938zM10.563 11.125l-1.875-1.875-5.688 6.063 1.875 1.875zM24.313 18.063q0.375 0 0.656 0.313t0.281 0.688v9.688q0 0.5-0.281 0.781t-0.656 0.281h-9.688q-0.438 0-0.75-0.281t-0.313-0.781v-9.688q0-0.375 0.313-0.688t0.75-0.313h9.688zM21.813 27q0.688-0.688 0.688-1.625 0-0.688-0.5-1.281t-2.125-0.906v-2.063q0.625 0.25 0.813 0.813l1.563-0.125q-0.375-1.625-2.375-1.813v-0.75h-0.875v0.75q-1.063 0.125-1.719 0.656t-0.656 1.406q0 0.938 0.594 1.469t1.781 0.906q0 0.813-0.031 1.25t-0.031 0.625v0.25q-0.313-0.188-0.563-0.438t-0.375-0.75l-1.625 0.188q0.375 2 2.625 2.188v0.813h0.875v-0.813q1.375-0.188 1.938-0.75zM18.438 21.5q0.188-0.25 0.563-0.375v1.75q-0.813-0.25-0.813-0.875 0-0.188 0.25-0.5zM19.875 24.625q0.688 0.188 0.906 0.344t0.219 0.594q0 0.875-1.125 1.063v-2z"></path>
</svg>
