<!-- Generated by IcoMoon.io -->
<svg version="1.1" xmlns="http://www.w3.org/2000/svg" width="28" height="32" viewBox="0 0 28 32">
<title>uniE18D</title>
<path d="M28 1.938v28.063h-28v-28.063h2v26.063h24v-26.063h2zM21.875 18q0.063-0.063 0.438-0.063 0.438 0 0.781 0.281t0.344 0.844q0 0.688-0.688 1l-6.75 3.625-5.438-1.125-4.25 3.188q-0.125 0.188-0.5 0.188-0.438 0-0.813-0.281t-0.375-0.781q0-0.75 0.688-1.125l5-3.688 5.438 1.188zM5.813 21.313q-0.375 0-0.781-0.313t-0.406-0.813q0-0.563 0.563-0.938l5-4.875 5.438 1.188 6-5.375q0.438-0.25 0.75-0.25 0.375 0 0.719 0.375t0.344 0.813q0 0.563-0.5 0.938l-6.75 5.938-5.563-1.188-4.188 4.313q-0.313 0.188-0.625 0.188zM5.813 16.75q-0.375 0-0.75-0.281t-0.375-0.781q0-0.563 0.438-0.938l4.875-6h5.313l6.063-6.375q0.375-0.438 0.938-0.438 0.5 0 0.813 0.344t0.313 0.781q0 0.375-0.25 0.688l-6.75 7.313h-5.563l-4.313 5.438q-0.25 0.25-0.75 0.25z"></path>
</svg>
