<!-- Generated by IcoMoon.io -->
<svg version="1.1" xmlns="http://www.w3.org/2000/svg" width="32" height="32" viewBox="0 0 32 32">
<title>uniE1EC</title>
<path d="M16 0q3.313 0 6.219 1.25t5.094 3.438 3.438 5.094 1.25 6.219-1.25 6.25-3.438 5.094-5.094 3.406-6.219 1.25-6.25-1.25-5.094-3.406-3.406-5.094-1.25-6.25 1.25-6.219 3.406-5.094 5.094-3.438 6.25-1.25zM16.125 7.938q-0.813 0-1.469 0.5t-0.656 1.563l0.063 0.313t0.156 1.156 0.188 2.344 0.219 3.813q0 0.688 0.438 1t0.938 0.313q1.375 0 1.563-1.313l0.063-2.313 0.563-5.313q0-1.063-0.656-1.563t-1.406-0.5zM16.125 26.625q1.25 0 1.938-0.75t0.688-2q0-1.188-0.688-1.938t-1.938-0.75-1.969 0.75-0.719 1.938q0 1.25 0.719 2t1.969 0.75z"></path>
</svg>
