<!-- Generated by IcoMoon.io -->
<svg version="1.1" xmlns="http://www.w3.org/2000/svg" width="32" height="32" viewBox="0 0 32 32">
<title>uniE192</title>
<path d="M26.438 10.313q1.25 0 2.281 0.5t1.75 1.344 1.125 1.906 0.406 2.125q0 2.063-1.5 3.688t-4.938 1.625h-11.25l-7.313 8.438v-8.438l-2.25-0.063q-2.25-0.063-3.5-1.75t-1.25-4.063q0-1.125 0.344-2.313t1.094-2.156 1.875-1.688 2.688-1.031q0.063-1.5 0.688-2.719t1.594-2.063 2.188-1.281 2.531-0.438q2.063 0 3.938 1.188t2.688 3.813q0.938-0.375 1.75-0.375 1.75 0 2.938 1.188t1.313 2.625q0.188-0.063 0.813-0.063zM29.125 18.375q0.563-0.5 0.719-1.094t0.156-1.094q0-1.438-0.969-2.656t-2.594-1.219q-0.375 0-0.5 0.063l-2.063 0.25-0.188-2.063q-0.125-0.625-0.719-1.313t-1.594-0.688q-0.438 0-1 0.25l-2 0.813-0.688-2.063q-0.375-1.188-1-1.906t-1.281-1.094-1.313-0.469-1.094-0.094q-1.813 0-3.313 1.156t-1.625 3.344l-0.063 1.625-1.625 0.313q-1.313 0.25-2.156 0.813t-1.344 1.281-0.688 1.531-0.188 1.5q0 0.375 0.094 1t0.375 1.281 0.813 1.125 1.469 0.469l4.375 0.063v5.063l4.438-5.063h12q2.438 0 3.563-1.125z"></path>
</svg>
