<!-- Generated by IcoMoon.io -->
<svg version="1.1" xmlns="http://www.w3.org/2000/svg" width="28" height="32" viewBox="0 0 28 32">
<title>uniE014</title>
<path d="M26.813 26.875q0.438 0 0.781 0.344t0.344 0.844-0.438 1.031-1.031 1-1.219 0.844-1.063 0.563q-0.688 0.313-1.375 0.406t-1.313 0.094q-1.25 0-3.281-0.688t-5.344-2.438q-2.75-1.438-4.375-2.094t-2.5-0.656q-2.188 0-3.938 2.5-0.375 0.5-0.938 0.5-0.438 0-0.781-0.313t-0.344-0.875q0-1.125 0.781-1.875t1.813-1.219 2-0.656 1.344-0.188q1.313 0 3.188 0.656t4.813 2.281q2.875 1.625 4.656 2.188t2.844 0.563q2.75 0 4.563-2.375 0.25-0.438 0.813-0.438zM1.125 22.75q-0.438 0-0.781-0.281t-0.344-0.781q0.25-0.938 0.969-1.625t1.594-1.156 1.781-0.688 1.469-0.219q1.25 0 3.156 0.688t4.969 2.25q2.875 1.625 4.594 2.25t2.844 0.625q2.625 0 4.625-2.5 0.25-0.438 0.813-0.438 0.438 0 0.781 0.344t0.344 0.969q0 0.438-0.469 0.969t-1.063 1.063-1.219 0.906-1 0.438q-0.875 0.375-1.563 0.469t-1.125 0.094q-1.25 0-3.281-0.688t-5.344-2.5q-2.75-1.5-4.375-2.094t-2.563-0.594q-2.375 0-3.875 2.063-0.438 0.438-0.938 0.438zM7 11.313q-0.375 0-0.688-0.281t-0.313-0.719v-0.25q0-2.813 1.688-4.75t4.625-1.938h0.875q0.875-1.438 2.406-2.406t3.344-0.969q1.438 0 2.719 0.5t2.25 1.375 1.531 2.063 0.563 2.563v13.5l-2-0.938v-3.063l-4 3v3q-0.5-0.188-0.906-0.469t-1.094-0.594v-8.875q0-3.188-1.531-4.688t-4.156-1.75q-0.813-0.063-1.594 0.25t-1.375 0.938-0.969 1.469-0.375 1.781v0.25q0 1-1 1zM24 11.063l-4 2.938v2.875l4-3v-2.813zM19.25 2q-1.125 0-2.156 0.281t-1.656 1.531q0.813 0.438 1.625 1.063t1.469 1.406 1.063 1.656 0.406 1.875v2.188l4-2.938v-2.563q0-2-1.375-3.25t-3.375-1.25z"></path>
</svg>
