<!-- Generated by IcoMoon.io -->
<svg version="1.1" xmlns="http://www.w3.org/2000/svg" width="32" height="32" viewBox="0 0 32 32">
<title>uniE1A0</title>
<path d="M32 6.188v19.563h-17.938v-19.563h17.938zM30 8h-13.938v14h13.938v-14zM25.688 13.25q0 0.938-0.688 1.594t-1.625 0.656-1.625-0.656-0.688-1.594q0-1.125 0.719-1.688t1.594-0.563 1.594 0.563 0.719 1.688zM19.688 20v-3.313q0-1.188 1.125-1.188h5.375q1.063 0 1.063 1.188v3.313h-7.563zM22 28h2v2q0 0.875-0.563 1.438t-1.438 0.563h-20q-0.875 0-1.438-0.563t-0.563-1.438v-22l8-8h14q0.813 0 1.406 0.563t0.594 1.438v2h-2v-2h-12v6q0 0.875-0.594 1.438t-1.469 0.563h-5.938v20h20v-2z"></path>
</svg>
