<!-- Generated by IcoMoon.io -->
<svg version="1.1" xmlns="http://www.w3.org/2000/svg" width="33" height="32" viewBox="0 0 33 32">
<title>uniE0CD</title>
<path d="M19.438 14.875q0.938 1.25 0.938 2.813 0 1.813-1.188 3.188-1.25 1.375-3.25 1.625v2.188h-1.438v-2.063q-1.875-0.25-3-1.375-1.25-1.25-1.5-3.25l2.813-0.313q0.063 0.438 0.219 0.781t0.344 0.656q0.625 0.75 1.125 0.875v-4.375q-2.125-0.625-3.063-1.813-0.5-0.563-0.75-1.313t-0.25-1.625q0-1.813 1.063-2.875 1.063-1.188 3-1.375v-1.125h1.438v1.125q1.75 0.188 2.688 1.125 1.063 0.875 1.25 2.563l-2.625 0.375q-0.188-1.25-1.313-1.688v4.125q1.25 0.375 2.125 0.781t1.375 0.969zM14.5 8.938q-0.75 0.25-1.063 0.688-0.188 0.313-0.313 0.563t-0.125 0.563 0.125 0.563l0.25 0.5q0.375 0.5 1.125 0.75v-3.625zM17.25 19.438l0.375-0.688 0.188-0.625q0-0.688-0.5-1.313-0.438-0.563-1.375-0.75v4.125q0.813-0.188 1.313-0.75zM15.125 27.25v2.5q-3.125 0-5.875-1.188t-4.813-3.25-3.25-4.813-1.188-5.875q0-3.188 1.188-5.969t3.25-4.844 4.813-3.25 5.875-1.188q3.188 0 5.938 1.188t4.813 3.25 3.25 4.844 1.188 5.969h-2.5q0-2.625-1-4.938t-2.719-4.031-4.031-2.719-4.938-1-4.906 1-4 2.719-2.719 4.031-1 4.938 1 4.906 2.719 4 4 2.719 4.906 1zM33.25 20.5l-9.438 11.375-5.813-5.688 2-2.313 3.5 3.438 7.563-9.125z"></path>
</svg>
