<!-- Generated by IcoMoon.io -->
<svg version="1.1" xmlns="http://www.w3.org/2000/svg" width="32" height="32" viewBox="0 0 32 32">
<title>uniE277</title>
<path d="M30 4q0.688 0 1.125 0.313t0.625 0.688q0.25 0.438 0.25 1v8h-2v-6q-0.063-0.563-0.313-1-0.188-0.375-0.594-0.688t-1.094-0.313h-14l-2-2h-8q-0.75 0-1.156 0.313t-0.594 0.688q-0.25 0.438-0.25 1v20q0 0.813 0.313 1.188t0.688 0.563q0.438 0.25 1 0.25h10v2h-12q-0.563 0-1-0.25-0.375-0.188-0.688-0.594t-0.313-1.156v-24q0-0.563 0.25-1 0.188-0.375 0.594-0.688t1.156-0.313h11.625l1.875 2h14.5zM32 30.563l-1.375 1.438-5.125-5.125q-1.625 1.125-3.5 1.125-2.5 0-4.25-1.75t-1.75-4.25 1.75-4.25 4.25-1.75 4.25 1.75 1.75 4.25q0 1.813-1.125 3.438zM22 26q1.625 0 2.813-1.188t1.188-2.813q0-1.688-1.188-2.844t-2.813-1.156-2.813 1.156-1.188 2.844q0 1.625 1.188 2.813t2.813 1.188z"></path>
</svg>
