<!-- Generated by IcoMoon.io -->
<svg version="1.1" xmlns="http://www.w3.org/2000/svg" width="28" height="32" viewBox="0 0 28 32">
<title>uniE11F</title>
<path d="M3.5 24q0.5 0 0.5 0.5v5q0 0.5-0.5 0.5h-3q-0.5 0-0.5-0.5v-5q0-0.5 0.5-0.5h3zM11.5 20q0.5 0 0.5 0.5v9q0 0.5-0.5 0.5h-3q-0.5 0-0.5-0.5v-9q0-0.5 0.5-0.5h3zM19.5 22q0.5 0 0.5 0.5v7q0 0.5-0.5 0.5h-3q-0.5 0-0.5-0.5v-7q0-0.5 0.5-0.5h3zM27.5 16q0.5 0 0.5 0.5v13q0 0.5-0.5 0.5h-3q-0.5 0-0.5-0.5v-13q0-0.5 0.5-0.5h3zM21.875 11.25q0.125 0.5 0.125 0.75 0 0.875-0.563 1.438t-1.438 0.563-1.438-0.563-0.563-1.438q0-0.625 0.5-1.25l-3.875-4.875q-0.375 0.125-0.625 0.125h-0.188l-2.813 6.313q0.438 0.313 0.719 0.75t0.281 0.938q0 0.875-0.563 1.438t-1.438 0.563-1.438-0.563-0.563-1.438q0-0.5 0.313-1l-3.25-3.313q-0.5 0.313-1.063 0.313t-1-0.313l-2.313 2.313-0.688-0.688 2.25-2.375q-0.25-0.5-0.25-0.938 0-0.813 0.563-1.406t1.438-0.594 1.438 0.594 0.563 1.406q0 0.438-0.25 0.938l3.313 3.375q0.438-0.313 0.938-0.313h0.063l2.813-6.375q-0.875-0.625-0.875-1.625 0-0.813 0.563-1.406t1.438-0.594 1.438 0.594 0.563 1.406-0.5 1.313l3.75 4.875q0.375-0.188 0.75-0.188 0.625 0 1.188 0.438l5.813-6.625 0.75 0.625z"></path>
</svg>
