<!-- Generated by IcoMoon.io -->
<svg version="1.1" xmlns="http://www.w3.org/2000/svg" width="32" height="32" viewBox="0 0 32 32">
<title>uniE1Cd</title>
<path d="M24 26h2v4q0 0.875-0.531 1.438t-1.406 0.563h-22q-0.875 0-1.469-0.563t-0.594-1.438v-22l8-8h8v2h-6v6q0 0.875-0.563 1.438t-1.438 0.563h-6v20h22v-4zM31.688 6.313q0.688 0.688 0 1.438-0.313 0.313-0.719 0.313t-0.719-0.313l-4.25-4.75v18q0 0.438-0.313 0.719t-0.688 0.281q-1 0-1-1v-18l-4.313 4.75q-0.313 0.313-0.719 0.313t-0.719-0.313-0.313-0.719 0.313-0.719l5.25-5.688q0.563-0.625 1.406-0.625t1.406 0.625z"></path>
</svg>
