<!-- Generated by IcoMoon.io -->
<svg version="1.1" xmlns="http://www.w3.org/2000/svg" width="32" height="32" viewBox="0 0 32 32">
<title>uniE0EB</title>
<path d="M31.813 0v1.188h-3.25v1.063h-1.063v-1.063h-2.375v1.063h-1.063v-1.063h-2.313v1.063h-1.125v-1.063h-2.313v1.063h-1.125v-1.063h-2.313v1.063h-1.125v-1.063h-2.313v1.063h-1.125v-1.063h-2.313v1.063h-1.063v-1.063h-2.375v1.063h-1.063v-1.063h-3.438v-1.188h31.75zM1.188 3.438h1.125v1.125h-1.125v2.313h1.125v1.125h-1.125v2.25h1.125v1.188h-1.125v2.25h1.125v1.188h-1.125v2.25h1.125v1.188h-1.125v2.25h1.125v1.188h-1.125v2.25h1.125v1.125h-1.125v2.313h1.125v1.125h-1.125v3.438h-1.125v-29.75h1.125v1.188zM31.813 6.875l-2.063 2.125h2.063v18.875h-2.063l2.063 2.125h-4.25l-2.063-2.125h-12.625l-2.063 2.125h-4.188l2.063-2.125h-2.063v-18.875h2.063l-2.063-2.125h4.188l2.063 2.125h12.625l2.063-2.125h4.25zM29.75 24.75v-12.625l-6.313 6.313zM16 11.063l3.188 3.188 3.188-3.188h-6.375zM8.688 12.125v12.625l6.313-6.313zM22.375 25.813l-3.188-3.188-3.188 3.188h6.375zM28.688 25.813l-7.375-7.375 7.375-7.375h-4.188l-5.313 5.25-5.25-5.25h-4.188l7.375 7.375-7.375 7.375h4.188l5.25-5.25 5.313 5.25h4.188z"></path>
</svg>
