<!-- Generated by IcoMoon.io -->
<svg version="1.1" xmlns="http://www.w3.org/2000/svg" width="32" height="32" viewBox="0 0 32 32">
<title>uniE0FE</title>
<path d="M26.438 16.688q0.75-0.688 0-1.438l-4.375-5.875q-0.563-0.688-0.594-1.469t0.594-1.344q0.563-0.625 1.406-0.625t1.406 0.625l6.5 8q0.625 0.563 0.625 1.406t-0.625 1.406l-6.438 8q-0.625 0.625-1.438 0.625t-1.375-0.625q-0.625-0.563-0.594-1.375t0.594-1.438zM16.438 16.688q0.75-0.688 0-1.438l-6.063-7.875q-0.5-0.625-0.563-1.438t0.563-1.375q0.563-0.625 1.375-0.625t1.438 0.625l8.188 10q0.625 0.563 0.625 1.406t-0.625 1.406l-8.063 10q-0.563 0.625-1.406 0.625t-1.406-0.625q-0.625-0.563-0.625-1.344t0.625-1.469zM2.063 9.375q-0.625-0.563-0.563-1.438t0.563-1.375q0.625-0.625 1.406-0.625t1.406 0.625l6.5 8q0.625 0.563 0.625 1.406t-0.625 1.406l-6.438 8q-0.563 0.625-1.406 0.625t-1.406-0.625q-0.625-0.563-0.594-1.344t0.594-1.469l4.313-5.875q0.688-0.688 0-1.438z"></path>
</svg>
