<!-- Generated by IcoMoon.io -->
<svg version="1.1" xmlns="http://www.w3.org/2000/svg" width="32" height="32" viewBox="0 0 32 32">
<title>uniE15F</title>
<path d="M16 23q0 1.25-0.875 2.125t-2.125 0.875-2.125-0.875-0.875-2.125 0.875-2.125 2.125-0.875 2.125 0.875 0.875 2.125zM13 26q0.938 0 1.75 0.063t1.5 0.563q-1.063 0.5-1.656 1.75t-0.594 3.625h-6q0-2.188 0.375-3.406t1.031-1.781 1.563-0.688 2.031-0.125zM20 28q1 0 1.781 0.063t1.25 0.438 0.719 1.188 0.25 2.313h-8q0-1.5 0.219-2.313t0.688-1.188 1.219-0.438 1.875-0.063zM30 25q0 1.25-0.875 2.125t-2.125 0.875-2.125-0.875-0.875-2.125 0.875-2.125 2.125-0.875 2.125 0.875 0.875 2.125zM22 26q0 0.875-0.594 1.438t-1.406 0.563q-0.875 0-1.438-0.563t-0.563-1.438 0.563-1.438 1.438-0.563q0.813 0 1.406 0.563t0.594 1.438zM27 28q1 0 1.938 0.063t1.594 0.438 1.063 1.188 0.406 2.313h-6q0-1-0.156-2.031t-0.656-1.906q0.438-0.063 0.875-0.063h0.938zM8 20q3.188-2.25 5.688-4 1.063-0.75 2.125-1.469t1.938-1.281 1.469-0.906 0.719-0.344 0.719 0.344 1.469 0.906 1.938 1.281 2.188 1.469q2.563 1.75 5.75 4h-2l-9.438-5.938q-0.125-0.125-0.594-0.125t-0.594 0.125l-9.375 5.938h-2zM2 30h4v2h-3.938q-0.875 0-1.469-0.563t-0.594-1.438v-22l8-8h14q0.875 0 1.438 0.594t0.563 1.406v8h-2v-8h-12v6q0 0.875-0.594 1.438t-1.406 0.563h-6v20z"></path>
</svg>
