<!-- Generated by IcoMoon.io -->
<svg version="1.1" xmlns="http://www.w3.org/2000/svg" width="32" height="32" viewBox="0 0 32 32">
<title>uniE091</title>
<path d="M16 0q3.313 0 6.25 1.25t5.094 3.406 3.406 5.094 1.25 6.25-1.25 6.219-3.406 5.094-5.094 3.438-6.25 1.25-6.219-1.25-5.094-3.438-3.438-5.094-1.25-6.219 1.25-6.25 3.438-5.094 5.094-3.406 6.219-1.25zM28.625 10q-1.438-3-4.063-5.063t-6-2.688q3.188 2.688 4.625 7.75h5.438zM22 16q0-2.125-0.375-4h-11.188q-0.188 0.938-0.313 1.938t-0.125 2.063 0.125 2.031 0.313 1.969h11.188q0.375-1.938 0.375-4zM16 29.125q1.688-0.938 3-2.813t2.125-4.313h-10.188q0.75 2.438 2.094 4.313t2.969 2.813zM21.125 10q-0.813-2.5-2.125-4.344t-3-2.781q-1.625 0.938-2.969 2.781t-2.094 4.344h10.188zM13.438 2.25q-3.375 0.625-6 2.688t-4.063 5.063h5.5q1.375-5 4.563-7.75zM2.625 12q-0.313 0.938-0.469 1.938t-0.156 2.063 0.156 2.063 0.469 1.938h5.75q-0.375-1.938-0.375-4 0-1.063 0.125-2.063t0.25-1.938h-5.75zM3.375 22q1.438 3 4.063 5.031t6 2.719q-3.188-2.813-4.625-7.75h-5.438zM18.625 29.75q3.375-0.688 5.969-2.719t4.031-5.031h-5.438q-1.438 5-4.563 7.75zM29.438 20q0.563-1.875 0.563-4t-0.563-4h-5.813q0.375 1.875 0.375 4 0 2.063-0.375 4h5.813z"></path>
</svg>
