<!-- Generated by IcoMoon.io -->
<svg version="1.1" xmlns="http://www.w3.org/2000/svg" width="28" height="32" viewBox="0 0 28 32">
<title>uniE0E0</title>
<path d="M13 16q-0.375 0-0.688-0.313t-0.313-0.688q0-0.438 0.313-0.719t0.688-0.281h8q1 0 1 1 0 0.375-0.281 0.688t-0.719 0.313h-8zM5 20q-0.375 0-0.688-0.313t-0.313-0.688q0-0.438 0.313-0.719t0.688-0.281h10q1 0 1 1 0 0.375-0.281 0.688t-0.719 0.313h-10zM6 23q0-0.438 0.313-0.719t0.688-0.281h16q1 0 1 1 0 0.375-0.281 0.688t-0.719 0.313h-16q-0.375 0-0.688-0.313t-0.313-0.688zM26 2q0.875 0 1.438 0.594t0.563 1.406v26q0 0.875-0.563 1.438t-1.438 0.563h-24q-0.875 0-1.438-0.563t-0.563-1.438v-26q0-0.813 0.563-1.406t1.438-0.594h4v-2h2v2h12v-2h2v2h4zM20 6h2v-2h-2v2zM6 6h2v-2h-2v2zM26 8h-24v22h24v-22z"></path>
</svg>
