<!-- Generated by IcoMoon.io -->
<svg version="1.1" xmlns="http://www.w3.org/2000/svg" width="28" height="32" viewBox="0 0 28 32">
<title>uniE1AB</title>
<path d="M22.938 2q2.188 0 3.625 1.5t1.438 3.5v18.063q0 2.063-1.438 3.5t-3.625 1.438h-18q-2.063 0-3.5-1.438t-1.438-3.5v-18.063q0-1 0.375-1.906t1.063-1.594 1.563-1.094 1.938-0.406h18zM24 6.625q0-0.25-0.188-0.469t-0.625-0.219h-18.5q-0.313 0-0.5 0.219t-0.188 0.469v18.688q0 0.688 0.688 0.688h18.5q0.188 0 0.5-0.094t0.313-0.594v-18.688z"></path>
</svg>
