<!-- Generated by IcoMoon.io -->
<svg version="1.1" xmlns="http://www.w3.org/2000/svg" width="24" height="32" viewBox="0 0 24 32">
<title>uniE167</title>
<path d="M22 0q0.875 0 1.438 0.563t0.563 1.438v28q0 0.813-0.563 1.406t-1.438 0.594h-20q-0.813 0-1.406-0.594t-0.594-1.406v-28q0-0.875 0.594-1.438t1.406-0.563h20zM22 2h-20v28h20v-28zM19 6q1 0 1 1 0 0.375-0.281 0.688t-0.719 0.313h-8q-0.375 0-0.688-0.313t-0.313-0.688q0-0.438 0.313-0.719t0.688-0.281h8zM19 12q1 0 1 1 0 0.375-0.281 0.688t-0.719 0.313h-8q-0.375 0-0.688-0.313t-0.313-0.688q0-0.438 0.313-0.719t0.688-0.281h8zM19 18q1 0 1 1 0 0.375-0.281 0.688t-0.719 0.313h-8q-0.375 0-0.688-0.313t-0.313-0.688q0-0.438 0.313-0.719t0.688-0.281h8zM7 6q1 0 1 1 0 0.375-0.281 0.688t-0.719 0.313h-2q-0.375 0-0.688-0.313t-0.313-0.688q0-0.438 0.313-0.719t0.688-0.281h2zM7 12q1 0 1 1 0 0.375-0.281 0.688t-0.719 0.313h-2q-0.375 0-0.688-0.313t-0.313-0.688q0-0.438 0.313-0.719t0.688-0.281h2zM7 18q1 0 1 1 0 0.375-0.281 0.688t-0.719 0.313h-2q-0.375 0-0.688-0.313t-0.313-0.688q0-0.438 0.313-0.719t0.688-0.281h2z"></path>
</svg>
