<!-- Generated by IcoMoon.io -->
<svg version="1.1" xmlns="http://www.w3.org/2000/svg" width="28" height="32" viewBox="0 0 28 32">
<title>uniE022</title>
<path d="M20 5.375q3.563 1.688 5.781 5.063t2.219 7.563q0 2.938-1.094 5.469t-3 4.438-4.469 3-5.438 1.094q-2.938 0-5.469-1.094t-4.438-3-3-4.438-1.094-5.469q0-4.188 2.219-7.563t5.781-5.063v2.25q-2.688 1.563-4.344 4.281t-1.656 6.094q0 2.5 0.938 4.688t2.563 3.813 3.813 2.563 4.688 0.938 4.688-0.938 3.813-2.563 2.563-3.813 0.938-4.688q0-3.375-1.656-6.094t-4.344-4.281v-2.25zM14 18q-0.875 0-1.438-0.563t-0.563-1.438v-14q0-0.813 0.563-1.406t1.438-0.594q0.813 0 1.406 0.594t0.594 1.406v14q0 0.875-0.594 1.438t-1.406 0.563z"></path>
</svg>
