<!-- Generated by IcoMoon.io -->
<svg version="1.1" xmlns="http://www.w3.org/2000/svg" width="32" height="32" viewBox="0 0 32 32">
<title>uniE0B3</title>
<path d="M30 16q0.813 0 1.406 0.563t0.594 1.438v6q0 0.875-0.594 1.438t-1.406 0.563h-2.125q-0.313 1.75-1.688 2.875t-3.188 1.125-3.188-1.125-1.75-2.875h-4.188q-0.313 1.75-1.688 2.875t-3.188 1.125-3.188-1.125-1.75-2.875h-2.063q-0.875 0-1.438-0.563t-0.563-1.438v-6q0-0.5 0.313-1-0.313-0.5-0.313-1v-10q0-0.875 0.563-1.438t1.438-0.563h16q0.813 0 1.406 0.563t0.594 1.438h1.188q1.5 0 2.813 0.5t2.375 1.406 1.781 2.125 0.969 2.656l0.5 3.313h0.375zM20 8v8h7.625l-0.5-3q-0.375-2.188-2.063-3.594t-3.875-1.406h-1.188zM2 16h16v-10h-16v10zM9 28q1.25 0 2.125-0.875t0.875-2.125-0.875-2.125-2.125-0.875-2.125 0.875-0.875 2.125 0.875 2.125 2.125 0.875zM23 28q1.25 0 2.125-0.875t0.875-2.125-0.875-2.125-2.125-0.875-2.125 0.875-0.875 2.125 0.875 2.125 2.125 0.875zM30 18h-28v6h2.063q0.375-1.688 1.75-2.844t3.188-1.156 3.188 1.156 1.688 2.844h4.188q0.375-1.688 1.75-2.844t3.188-1.156 3.188 1.156 1.688 2.844h2.125v-6z"></path>
</svg>
