<!-- Generated by IcoMoon.io -->
<svg version="1.1" xmlns="http://www.w3.org/2000/svg" width="32" height="32" viewBox="0 0 32 32">
<title>uniE26F</title>
<path d="M16 0q3.313 0 6.25 1.25t5.094 3.438 3.406 5.094 1.25 6.219-1.25 6.219-3.406 5.094-5.094 3.438-6.25 1.25-6.219-1.25-5.094-3.438-3.438-5.094-1.25-6.219 1.25-6.219 3.438-5.094 5.094-3.438 6.219-1.25zM24 18q1.125 0 1.906-0.438t0.781-1.563q0-1.063-0.781-1.531t-1.906-0.469h-6v-6q0-1.125-0.438-1.906t-1.563-0.781q-1.063 0-1.531 0.781t-0.469 1.906v8q0 1.125 0.469 1.563t1.531 0.438h8z"></path>
</svg>
