<!-- Generated by IcoMoon.io -->
<svg version="1.1" xmlns="http://www.w3.org/2000/svg" width="32" height="32" viewBox="0 0 32 32">
<title>uniE248</title>
<path d="M27.938 25.938l4.063 4.063-2 2-3.938-4.063-4.063 4.063-2-2 4.063-4.063-4.063-3.938 2-2 4.063 4 3.938-4 2 2zM22 2q1.25 0 1.813 1.063t-0.125 2.063l-7.063 8.125q-0.625 0.625-0.625 1.375v7.375l-6.25 5.688q-0.438 0.313-0.75 0.313-0.375 0-0.688-0.281t-0.313-0.719v-12.375q0-0.813-0.563-1.375-2-2.313-3.563-4.063l-2.406-2.75t-1.094-1.313q-0.688-1-0.125-2.063t1.75-1.063h20zM15.188 11.875l0.281-0.313t0.75-0.875 1.094-1.281 1.25-1.469q1.5-1.75 3.438-3.938h-19.938l0.5 0.594t1.25 1.469 1.656 1.906 1.688 1.906 1.281 1.438l0.5 0.563q1.063 1.188 1.063 2.75v10.125l4-3.688v-6.438q0-1.563 1.188-2.75z"></path>
</svg>
