<!-- Generated by IcoMoon.io -->
<svg version="1.1" xmlns="http://www.w3.org/2000/svg" width="32" height="32" viewBox="0 0 32 32">
<title>uniE0F8</title>
<path d="M25 18q0.375 0 0.688-0.313t0.313-0.688q0-0.438-0.313-0.719t-0.688-0.281h-9v-7q0-0.438-0.313-0.719t-0.688-0.281q-1 0-1 1v9h11zM16 30q-2.938 0-5.469-1.094t-4.438-3-3-4.469-1.094-5.438q0-2.375 0.75-4.531t2.063-3.906 3.156-3.031 4.031-1.969v-2.063q-2.625 0.688-4.813 2.125t-3.781 3.469-2.5 4.563-0.906 5.344q0 3.313 1.25 6.219t3.406 5.094 5.094 3.438 6.25 1.25q2.813 0 5.313-0.906t4.531-2.5 3.469-3.813 2.125-4.781h-2.063q-0.625 2.188-1.906 4t-3.031 3.156-3.906 2.094-4.531 0.75zM31 8q1 0 1 1 0 0.375-0.281 0.688t-0.719 0.313h-8q-0.375 0-0.688-0.313t-0.313-0.688q0-0.438 0.313-0.719t0.688-0.281h8zM31 4q1 0 1 1 0 0.375-0.281 0.688t-0.719 0.313h-8q-0.375 0-0.688-0.313t-0.313-0.688q0-0.438 0.313-0.719t0.688-0.281h8zM31 0q1 0 1 1 0 0.375-0.281 0.688t-0.719 0.313h-8q-0.375 0-0.688-0.313t-0.313-0.688q0-0.438 0.313-0.719t0.688-0.281h8z"></path>
</svg>
