<!-- Generated by IcoMoon.io -->
<svg version="1.1" xmlns="http://www.w3.org/2000/svg" width="24" height="32" viewBox="0 0 24 32">
<title>uniE0CA</title>
<path d="M20 8q0 1.688-0.625 3.125t-1.719 2.531-2.563 1.719-3.094 0.625q-1.688 0-3.125-0.625t-2.531-1.719-1.719-2.531-0.625-3.125q0-1.625 0.625-3.094t1.719-2.563 2.531-1.719 3.125-0.625q1.625 0 3.094 0.625t2.563 1.719 1.719 2.563 0.625 3.094zM12 14q2.5 0 4.25-1.75t1.75-4.25-1.75-4.25-4.25-1.75-4.25 1.75-1.75 4.25 1.75 4.25 4.25 1.75zM16 16q1.625 0 3.094 0.625t2.563 1.719 1.719 2.563 0.625 3.094v8h-24v-8q0-1.625 0.625-3.094t1.719-2.563 2.531-1.719 3.125-0.625h8zM22 24q0-2.5-1.75-4.25t-4.25-1.75h-8q-2.5 0-4.25 1.75t-1.75 4.25v6h20v-6z"></path>
</svg>
