<!-- Generated by IcoMoon.io -->
<svg version="1.1" xmlns="http://www.w3.org/2000/svg" width="32" height="32" viewBox="0 0 32 32">
<title>uniE00C</title>
<path d="M31 22.938q0.438 0.188 0.563 0.594t0 0.781l-0.813 1.75q-0.188 0.438-0.594 0.563t-0.781 0l-1.875-0.813q-0.5 0.625-1.031 1.125t-1.219 1l0.75 1.875q0.125 0.438-0.031 0.844t-0.594 0.531l-1.813 0.688q-0.438 0.188-0.813 0t-0.563-0.563l-0.75-1.938q-0.313 0.063-0.656 0.094t-0.656 0.031q-0.938 0-1.875-0.188l-0.813 1.875q-0.188 0.375-0.594 0.531t-0.781-0.031l-1.688-0.75q-1-0.438-0.563-1.438l0.813-1.875q-0.625-0.5-1.188-1t-1-1.188l-1.875 0.688q-0.438 0.188-0.844 0t-0.531-0.563l-0.688-1.813q-0.188-0.438 0-0.844t0.563-0.531l1.938-0.75q-0.063-0.313-0.094-0.656t-0.031-0.719q0-0.938 0.188-1.813l-1.875-0.813q-0.375-0.188-0.531-0.594t0.031-0.781l0.75-1.75q0.188-0.375 0.594-0.531t0.844 0.031l1.813 0.813q1.063-1.375 2.313-2.25l-0.688-1.875q-0.188-0.375 0-0.781t0.625-0.531l1.75-0.75q0.375-0.125 0.781 0.031t0.531 0.594l0.75 1.938q0.313-0.063 0.656-0.125t0.719-0.063q0.5 0 0.938 0.063l0.875 0.125 0.813-1.813q0.188-0.375 0.594-0.531t0.781-0.031l1.813 0.813q0.375 0.188 0.531 0.594t-0.031 0.781l-0.813 1.875q1.313 1 2.125 2.313l1.938-0.75q0.375-0.125 0.781 0.031t0.594 0.594l0.688 1.75q0.125 0.438-0.031 0.844t-0.594 0.531l-1.938 0.75q0.063 0.313 0.094 0.656t0.031 0.656q0 0.938-0.188 1.875zM20.125 26.313q1.25 0 2.344-0.469t1.938-1.281 1.313-1.938 0.469-2.375-0.469-2.344-1.313-1.906-1.938-1.281-2.344-0.469q-2.563 0-4.281 1.75t-1.719 4.25q0 2.563 1.719 4.313t4.281 1.75zM9.813 11.375q-0.875 0.563-1.813 0.75v2.125h-2v-2.125q-0.938-0.188-1.688-0.75l-1.563 1.5-1.375-1.375 1.5-1.563q-0.563-0.75-0.75-1.75h-2.125v-2h2.125q0.125-0.875 0.75-1.75l-1.5-1.5 1.375-1.438 1.563 1.5q0.75-0.438 1.688-0.75v-2.125h2v2.125q0.938 0.25 1.813 0.75l1.5-1.5 1.438 1.438-1.5 1.5q0.25 0.438 0.438 0.844t0.313 0.906h2.125v2h-2.125q-0.313 1.063-0.75 1.75l1.5 1.563-1.438 1.375zM7.063 10.25q1.25 0 2.125-0.906t0.875-2.156-0.875-2.094-2.125-0.844-2.125 0.844-0.875 2.094 0.875 2.156 2.125 0.906z"></path>
</svg>
