<!-- Generated by IcoMoon.io -->
<svg version="1.1" xmlns="http://www.w3.org/2000/svg" width="28" height="32" viewBox="0 0 28 32">
<title>uniE25B</title>
<path d="M21.75 26.125q0.313 0.688 0.25 1.375t-0.406 1.25-0.938 0.906-1.344 0.344h-10.625q-0.75 0-1.344-0.344t-0.938-0.906-0.406-1.25 0.313-1.375l5.313-10.688q0.375-0.75 1.031-1.094t1.375-0.344 1.344 0.344 1 1.094zM27.75 18.125q0.313 0.688 0.25 1.375t-0.406 1.25-0.938 0.906-1.344 0.344h-3.438l-3.688-7.438q-1-1.875-2.938-2.375l2.375-4.75q0.375-0.75 1.031-1.094t1.375-0.344 1.344 0.344 1 1.094zM8.125 18h-5.438q-0.75 0-1.344-0.344t-0.938-0.906-0.406-1.25 0.313-1.375l5.313-10.688q0.375-0.75 1.031-1.094t1.375-0.344 1.344 0.344 1 1.094l3.5 7-0.813 1.688q-2.188 0.375-3.25 2.438z"></path>
</svg>
