<!-- Generated by IcoMoon.io -->
<svg version="1.1" xmlns="http://www.w3.org/2000/svg" width="32" height="32" viewBox="0 0 32 32">
<title>uniE161</title>
<path d="M16 0q3.313 0 6.219 1.25t5.094 3.406 3.438 5.094 1.25 6.25-1.25 6.219-3.438 5.094-5.094 3.438-6.219 1.25-6.25-1.25-5.094-3.438-3.406-5.094-1.25-6.219 1.25-6.25 3.406-5.094 5.094-3.406 6.25-1.25zM16 30q2.875 0 5.438-1.094t4.469-3 3-4.469 1.094-5.438-1.094-5.438-3-4.469-4.469-3-5.438-1.094q-2.938 0-5.469 1.094t-4.438 3-3 4.469-1.094 5.438 1.094 5.438 3 4.469 4.438 3 5.469 1.094zM16.438 16.75q0.688-0.75 0-1.438l-3.875-3.938q-0.625-0.625-0.625-1.438t0.625-1.375q0.563-0.625 1.375-0.625t1.438 0.625l6 6.063q0.563 0.563 0.563 1.406t-0.563 1.406l-6 6.063q-0.625 0.625-1.438 0.625t-1.438-0.625q-0.563-0.563-0.563-1.406t0.563-1.406z"></path>
</svg>
