<!-- Generated by IcoMoon.io -->
<svg version="1.1" xmlns="http://www.w3.org/2000/svg" width="32" height="32" viewBox="0 0 32 32">
<title>uniE08B</title>
<path d="M24 12q1.625 0 3.094 0.625t2.563 1.719 1.719 2.563 0.625 3.094v4h-4.125q-0.313 1.75-1.688 2.875t-3.188 1.125-3.188-1.125-1.75-2.875h-6.188q-0.313 1.75-1.688 2.875t-3.188 1.125-3.188-1.125-1.75-2.875h-2.063v-6.531t0.063-0.531q0.063-0.125 0.063-0.313l0.25-0.75q0.063-0.063 0.063-0.125t0.063-0.125q0.125-0.313 0.375-0.813 0.125-0.125 0.188-0.219t0.188-0.219q0.063-0.063 0.094-0.125t0.094-0.125q0.375-0.438 0.813-0.781t0.938-0.594q2.813-4.375 5.875-6.063t6.875-1.688h0.063q1 0 1.719 0.125t1.469 0.781 1.688 2.063 2.375 4.031h0.75zM15.938 7q-1.375 0-2.625 0.188t-2.469 0.75-2.406 1.531-2.313 2.531h14.875q-1-1.813-1.656-2.844t-1.156-1.5-0.969-0.563-1.031-0.094h-0.25zM10.438 23l-0.063-0.688q-0.25-1.25-1.188-2.031t-2.188-0.781-2.219 0.781-1.219 2.031l-0.063 0.688 0.063 0.688q0.25 1.25 1.219 2.031t2.219 0.781 2.188-0.781 1.188-2.031zM26.438 23l-0.063-0.688q-0.25-1.25-1.188-2.031t-2.188-0.781-2.219 0.781-1.219 2.031l-0.063 0.688 0.063 0.688q0.25 1.25 1.219 2.031t2.219 0.781 2.188-0.781 1.188-2.031zM30 20q0-2.5-1.75-4.25t-4.25-1.75h-18q-1.688 0-2.844 1.188t-1.156 2.813v4h0.063q0.375-1.688 1.75-2.844t3.188-1.156 3.188 1.156 1.688 2.844h6.188q0.375-1.688 1.75-2.844t3.188-1.156 3.188 1.156 1.688 2.844h2.125v-2z"></path>
</svg>
