<!-- Generated by IcoMoon.io -->
<svg version="1.1" xmlns="http://www.w3.org/2000/svg" width="32" height="32" viewBox="0 0 32 32">
<title>uniE173</title>
<path d="M18 9q0 1.438-0.563 2.719t-1.5 2.219-2.219 1.5-2.719 0.563-2.719-0.563-2.219-1.5-1.5-2.219-0.563-2.719 0.563-2.719 1.5-2.219 2.219-1.5 2.719-0.563 2.719 0.563 2.219 1.5 1.5 2.219 0.563 2.719zM11 14q2.125 0 3.563-1.469t1.438-3.531-1.438-3.531-3.563-1.469q-2.063 0-3.531 1.469t-1.469 3.531 1.469 3.531 3.531 1.469zM14 16q1.688 0 3.125 0.625t2.531 1.719 1.719 2.531 0.625 3.125v8h-22v-8q0-1.688 0.625-3.125t1.719-2.531 2.563-1.719 3.094-0.625h6zM20 24q0-2.5-1.75-4.25t-4.25-1.75h-6q-1.25 0-2.313 0.469t-1.906 1.281-1.313 1.906-0.469 2.344v6h18v-6zM32 4v4h-4v4h-4v-4h-4v-4h4v-4h4v4h4zM16 24h2v2h-2v2h-2v-2h-2v-2h2v-2h2v2z"></path>
</svg>
