<!-- Generated by IcoMoon.io -->
<svg version="1.1" xmlns="http://www.w3.org/2000/svg" width="32" height="32" viewBox="0 0 32 32">
<title>uniE131</title>
<path d="M22.063 0q2.063 0 3.875 0.813t3.156 2.156 2.125 3.156 0.781 3.875q0 2.438-1.063 4.5t-2.875 3.438l-0.063 5.063q0 0.625-0.531 0.906t-1.031-0.031l-4.688-3.875q-0.313 0-0.938-0.125 0.188-0.938 0.188-1.875v-0.063q0.25 0 0.5 0.031t0.5 0.031h0.313l3.688 3.313 0.063-4.438q1.75-1.063 2.844-2.875t1.094-4q0-1.625-0.625-3.094t-1.719-2.563-2.531-1.719-3.125-0.625q-2.813 0-4.906 1.688t-2.781 4.25q-0.5-0.188-0.938-0.344t-0.938-0.281q0.438-1.563 1.375-2.875t2.219-2.313 2.813-1.563 3.219-0.563zM10 8q2 0 3.813 0.813t3.188 2.188 2.188 3.188 0.813 3.813q0 2.063-0.781 3.844t-2.094 3.156-3.094 2.156-3.781 0.844l-4.688 3.875q-0.5 0.313-1.031 0.031t-0.531-0.906v-5.063q-1.813-1.375-2.906-3.438t-1.094-4.5q0-2.063 0.781-3.875t2.125-3.156 3.188-2.156 3.906-0.813zM10 26q1.688 0 3.125-0.625t2.531-1.719 1.719-2.531 0.625-3.125q0-1.625-0.625-3.094t-1.719-2.563-2.531-1.719-3.125-0.625q-1.625 0-3.094 0.625t-2.563 1.719-1.719 2.563-0.625 3.094q0 2.188 1.094 4t2.906 2.875l0.063 4.438 3.625-3.313h0.313zM9.938 12.75q1.5 0 2.406 0.75t0.906 2q0 0.75-0.438 1.281t-0.875 1.031q-0.563 0.688-0.875 1.031t-0.313 1.594h-1.75q0-0.563 0.031-0.969t0.156-0.75 0.406-0.656 0.781-0.75q0.625-0.5 1-1.063t0.375-0.938q0-0.5-0.438-0.875t-1.313-0.375q-1.688 0-2 1.625h-1.75q0-1 1.031-1.969t2.656-0.969zM10.063 21.563q0.5 0 0.813 0.313t0.313 0.813-0.313 0.844-0.813 0.344-0.813-0.344-0.313-0.844 0.313-0.813 0.813-0.313zM22.063 11.063q-0.313 0-0.5-0.188t-0.313-1.063l-0.25-4.563q0-0.625 0.344-0.906t0.781-0.281 0.75 0.313 0.313 0.938l-0.313 4.5q-0.125 0.875-0.281 1.063t-0.531 0.188zM22.063 14.563q-0.438 0-0.781-0.344t-0.344-0.844 0.344-0.813 0.781-0.313q0.5 0 0.844 0.313t0.344 0.813-0.344 0.844-0.844 0.344z"></path>
</svg>
