<!-- Generated by IcoMoon.io -->
<svg version="1.1" xmlns="http://www.w3.org/2000/svg" width="32" height="32" viewBox="0 0 32 32">
<title>uniE0A4</title>
<path d="M26 17q0 1-1 1h-11v-9q0-1 1-1t1 1v7h9q1 0 1 1zM16 0q3.313 0 6.219 1.25t5.094 3.438 3.438 5.094 1.25 6.219q0 3.063-1.094 5.781t-2.969 4.844-4.438 3.5-5.5 1.75v-2q2.5-0.375 4.719-1.594t3.813-3.063 2.531-4.219 0.938-5q0-2.875-1.094-5.438t-3-4.469-4.469-3-5.438-1.094q-2.375 0-4.531 0.75t-3.906 2.094-3.063 3.188-1.938 3.969h-2.063q0.688-2.563 2.156-4.781t3.5-3.813 4.531-2.5 5.313-0.906zM9 30q1 0 1 1 0 0.375-0.281 0.688t-0.719 0.313h-8q-0.375 0-0.688-0.313t-0.313-0.688q0-0.438 0.313-0.719t0.688-0.281h8zM9 26q1 0 1 1 0 0.375-0.281 0.688t-0.719 0.313h-8q-0.375 0-0.688-0.313t-0.313-0.688q0-0.438 0.313-0.719t0.688-0.281h8zM9 22q1 0 1 1 0 0.375-0.281 0.688t-0.719 0.313h-8q-0.375 0-0.688-0.313t-0.313-0.688q0-0.438 0.313-0.719t0.688-0.281h8z"></path>
</svg>
