<!-- Generated by IcoMoon.io -->
<svg version="1.1" xmlns="http://www.w3.org/2000/svg" width="28" height="32" viewBox="0 0 28 32">
<title>uniE17F</title>
<path d="M2 28h26v2h-28v-28h2v26zM6 10h-2v-4h2v4zM8.5 10q-0.5 0-0.5-0.5v-3q0-0.5 0.5-0.5h5q0.5 0 0.5 0.5v3q0 0.5-0.5 0.5h-5zM27.5 6q0.5 0 0.5 0.5v3q0 0.5-0.5 0.5h-11q-0.5 0-0.5-0.5v-3q0-0.5 0.5-0.5h11zM4.5 18q-0.5 0-0.5-0.5v-3q0-0.5 0.5-0.5h5q0.5 0 0.5 0.5v3q0 0.5-0.5 0.5h-5zM27.5 14q0.5 0 0.5 0.5v3q0 0.5-0.5 0.5h-3q-0.5 0-0.5-0.5v-3q0-0.5 0.5-0.5h3zM22 17.5q0 0.5-0.5 0.5h-9q-0.5 0-0.5-0.5v-3q0-0.5 0.5-0.5h9q0.5 0 0.5 0.5v3zM4.5 26q-0.5 0-0.5-0.5v-3q0-0.5 0.5-0.5h3q0.5 0 0.5 0.5v3q0 0.5-0.5 0.5h-3zM27.5 22q0.5 0 0.5 0.5v3q0 0.5-0.5 0.5h-5q-0.5 0-0.5-0.5v-3q0-0.5 0.5-0.5h5zM19.5 22q0.5 0 0.5 0.5v3q0 0.5-0.5 0.5h-9q-0.5 0-0.5-0.5v-3q0-0.5 0.5-0.5h9z"></path>
</svg>
