<!-- Generated by IcoMoon.io -->
<svg version="1.1" xmlns="http://www.w3.org/2000/svg" width="28" height="32" viewBox="0 0 28 32">
<title>uniE1E1</title>
<path d="M3.438 23.75q-0.563 0.563-1.406 0.563t-1.406-0.563q-0.625-0.625-0.625-1.438t0.625-1.438l12.063-12.313q0.25-0.125 0.313-0.188 0.125-0.063 0.156-0.094t0.156-0.094q0.375-0.125 0.688-0.125 0.125 0 0.188 0.031t0.125 0.031q0.25 0 0.375 0.063t0.219 0.125 0.219 0.125q0.063 0.063 0.094 0.063t0.094 0.063 0.125 0.063l12 12.25q0.625 0.625 0.625 1.438t-0.625 1.438q-0.563 0.563-1.406 0.563t-1.406-0.563l-9.625-9.688q-1-0.625-2 0z"></path>
</svg>
