<!-- Generated by IcoMoon.io -->
<svg version="1.1" xmlns="http://www.w3.org/2000/svg" width="28" height="32" viewBox="0 0 28 32">
<title>uniE1E0</title>
<path d="M27.938 19q0.25 2.25-0.469 4.25t-2.063 3.5-3.281 2.375-4.125 0.875h-16q-0.813 0-1.406-0.563t-0.594-1.438q0-0.813 0.594-1.406t1.406-0.594h15.813q2.188 0 3.938-1.313t2.125-3.5q0.25-1.438-0.094-2.75t-1.188-2.281-2.031-1.563-2.563-0.594h-11.25l4.688 4.625q0.563 0.563 0.563 1.406t-0.563 1.406q-0.625 0.625-1.438 0.625t-1.438-0.625l-8-8q-0.563-0.563-0.563-1.406t0.563-1.406l8.063-8q0.625-0.625 1.438-0.625t1.375 0.625q0.625 0.563 0.625 1.375t-0.625 1.438l-4.625 4.563h10.75q1.938 0 3.75 0.688t3.219 1.875 2.313 2.844 1.094 3.594z"></path>
</svg>
