<!-- Generated by IcoMoon.io -->
<svg version="1.1" xmlns="http://www.w3.org/2000/svg" width="32" height="32" viewBox="0 0 32 32">
<title>uniE160</title>
<path d="M25.188 22q1.25 0 2.469 0.469t2.188 1.281 1.563 1.906 0.594 2.344v2h-4.188q-0.313 0.875-1.063 1.438t-1.75 0.563-1.75-0.563-1.063-1.438h-4.375q-0.313 0.875-1.063 1.438t-1.75 0.563-1.75-0.563-1.063-1.438h-2.188v-4q0-1.313 0.75-2.313t1.938-1.438l0.063-0.063q1.313-2.188 3.375-3.594t4.438-1.406h0.688q0.438 0 0.813 0.188t0.781 0.688 0.938 1.469 1.406 2.469zM21.188 18.438q-0.813 0-1.625 0.094t-1.594 0.438-1.594 1.031-1.688 2h8.875q-0.625-1.125-0.969-1.813t-0.563-1.063-0.406-0.531-0.438-0.156zM15 31q0.875 0 1.438-0.563t0.563-1.438-0.563-1.438-1.438-0.563-1.438 0.563-0.563 1.438 0.563 1.438 1.438 0.563zM25 31q0.875 0 1.438-0.563t0.563-1.438-0.563-1.438-1.438-0.563-1.438 0.563-0.563 1.438 0.563 1.438 1.438 0.563zM30.5 28q0-0.938-0.469-1.75t-1.25-1.438-1.719-0.969-1.875-0.344h-11.188q-1.063 0-1.781 0.719t-0.719 1.781v2.5h0.563q0.188-1.063 1-1.781t1.938-0.719 1.969 0.719 0.969 1.781h4.125q0.188-1.063 1-1.781t1.938-0.719 1.969 0.719 0.969 1.781h2.563v-0.5zM10 8q0 0.875-0.594 1.438t-1.406 0.563h-6v20h4v2h-3.938q-0.875 0-1.469-0.563t-0.594-1.438v-22l8-8h14q0.875 0 1.438 0.594t0.563 1.406v10h-2v-10h-12v6z"></path>
</svg>
