<!-- Generated by IcoMoon.io -->
<svg version="1.1" xmlns="http://www.w3.org/2000/svg" width="32" height="32" viewBox="0 0 32 32">
<title>uniE145</title>
<path d="M19.625 2q3.25 0 5.594 1.125t3.844 2.938 2.219 4.094 0.719 4.594q0 2.188-0.969 4.375t-3.031 4.188q-1.313 1.25-2.938 2.438t-3.344 2.125-3.406 1.531-3.188 0.594q-2.063 0-3.375-1.375t-1.313-4.75q0-0.563 0.063-1.25t0.063-1.438q0-1.188-0.563-1.781t-1.313-0.594q-1 0-1.75 0.906t-1.438 2-1.406 2-1.719 0.906q-0.813 0-1.594-1.313t-0.781-4.375q0-3.438 1.625-6.469t4.344-5.344 6.219-3.688 7.25-1.438h0.188zM26.625 21.813q3.375-3.063 3.375-7.063 0-1.875-0.563-3.781t-1.781-3.469-3.188-2.531-4.844-0.969h-0.188q-3.438 0.063-6.594 1.313t-5.563 3.344-3.844 4.75-1.438 5.531q0 1.438 0.188 2.281t0.375 1.219q0.313-0.313 0.656-0.844t0.594-0.969q0.375-0.625 0.844-1.313t1.063-1.25 1.313-0.906 1.656-0.344q1.438 0 2.656 1.094t1.219 3.281q0 0.438-0.031 0.844t-0.031 0.781q-0.063 0.313-0.063 0.563v0.5q0 1.563 0.281 2.406t0.688 1.219 0.875 0.438 0.844 0.063q1.25 0 2.75-0.531t3.031-1.406 3.031-2 2.688-2.25zM10 10q0.813 0 1.406 0.563t0.594 1.438q0 0.813-0.594 1.406t-1.406 0.594q-0.875 0-1.438-0.594t-0.563-1.406q0-0.875 0.563-1.438t1.438-0.563zM26 10q0 0.813-0.594 1.406t-1.406 0.594q-0.875 0-1.438-0.594t-0.563-1.406q0-0.875 0.563-1.438t1.438-0.563q0.813 0 1.406 0.563t0.594 1.438zM26 14q0.813 0 1.406 0.563t0.594 1.438q0 0.813-0.594 1.406t-1.406 0.594q-0.875 0-1.438-0.594t-0.563-1.406q0-0.875 0.563-1.438t1.438-0.563zM17 6q1.25 0 2.125 0.875t0.875 2.125-0.875 2.125-2.125 0.875-2.125-0.875-0.875-2.125 0.875-2.125 2.125-0.875zM18 20q0.813 0 1.406 0.563t0.594 1.438q0 0.813-0.594 1.406t-1.406 0.594q-0.875 0-1.438-0.594t-0.563-1.406q0-0.875 0.563-1.438t1.438-0.563z"></path>
</svg>
