<!-- Generated by IcoMoon.io -->
<svg version="1.1" xmlns="http://www.w3.org/2000/svg" width="24" height="32" viewBox="0 0 24 32">
<title>uniE0D8</title>
<path d="M22 0q0.875 0 1.438 0.563t0.563 1.438v28q0 0.813-0.563 1.406t-1.438 0.594h-20q-0.813 0-1.406-0.594t-0.594-1.406v-28q0-0.875 0.594-1.438t1.406-0.563h20zM22 2h-20v28h20v-28zM9.5 28q-0.688 0-0.688-0.625 0-0.813 0.688-2.344t1.563-2.531q0.563-0.563 1.031-0.656t0.781 0.156 0.438 0.625 0.063 0.75q0 0.188-0.031 0.469t-0.031 0.594q0 0.125-0.031 0.25t-0.031 0.25v0.25l0.188-0.188q0.375-0.5 1.094-1.063t1.531-0.563q0.438 0 1.125 0.156t1.313 0.438 1.063 0.594 0.438 0.563q0 0.75-0.688 0.75-0.313 0-0.719-0.156t-0.875-0.375-0.906-0.375-0.75-0.156q-0.063 0-0.375 0.344t-0.813 0.719-1.094 0.719-1.156 0.344q-0.375-0.125-0.438-0.25l-0.25-0.188q-0.125-0.438-0.156-0.656t-0.031-0.531q0-0.375 0.063-0.781t0.063-0.781l-0.125 0.188q-0.688 0.875-0.969 1.625t-0.406 1.281-0.281 0.844-0.594 0.313zM6.813 10.313l-2.313-2.188 1.125-1.188 1.188 1.063 3.375-3.438 1.125 1.188zM6.813 18.313l-2.313-2.313 1.125-1.125 1.188 1.063 3.375-3.438 1.125 1.188zM19 6q1 0 1 1 0 0.375-0.281 0.688t-0.719 0.313h-4q-0.375 0-0.688-0.313t-0.313-0.688q0-0.438 0.313-0.719t0.688-0.281h4zM19 14q1 0 1 1 0 0.375-0.281 0.688t-0.719 0.313h-4q-0.375 0-0.688-0.313t-0.313-0.688q0-0.438 0.313-0.719t0.688-0.281h4z"></path>
</svg>
