<!-- Generated by IcoMoon.io -->
<svg version="1.1" xmlns="http://www.w3.org/2000/svg" width="32" height="32" viewBox="0 0 32 32">
<title>uniE097</title>
<path d="M2 30h10v2h-9.938q-0.875 0-1.469-0.563t-0.594-1.438v-22l8-8h14q0.875 0 1.438 0.594t0.563 1.406v4h-2v-4h-12v6q0 0.875-0.594 1.438t-1.406 0.563h-6v20zM30.813 13q0.5 0.313 0.844 0.656t0.344 0.844v12.25q0 0.25-0.063 0.5-0.063 0.188-0.156 0.375t-0.281 0.313q-0.063 0.063-0.313 0.063-0.313 0-0.813-0.125-0.25-0.063-0.375-0.188v-12.063q0-0.5-0.344-0.844t-0.844-0.594l-7.063-2.063q-0.125-0.063-0.375-0.063t-0.5 0.125l-3.313 0.813 9.25 3.125q0.5 0.313 0.844 0.656t0.344 0.844v12.188q0 0.625-0.438 1.063t-1.063 0.438h-0.313l-11-4.125q-0.5-0.125-0.844-0.531t-0.344-0.969v-12.438q0-0.938 0.938-1.375l5.625-1.688q0.375-0.125 0.5-0.125t0.188 0.031 0.125 0.031zM16 14.688v10.625l10 3.875v-11.188z"></path>
</svg>
