<!-- Generated by IcoMoon.io -->
<svg version="1.1" xmlns="http://www.w3.org/2000/svg" width="32" height="32" viewBox="0 0 32 32">
<title>uniE043</title>
<path d="M12.813 20q-1.125 0-1.688 0.875-0.313 0.5-0.625 1.031t-0.469 1 0 0.781 0.781 0.313h16.188q0.375 0 0.688 0.281t0.313 0.719q0 0.375-0.313 0.688t-0.688 0.313h-18.688q-1.063 0-1.281-0.531t0.063-1.313 0.875-1.781 1.094-1.938l0.375-0.688q0.313-0.438 0.125-0.875l-4.5-11.063q-0.563-1.375-1.031-2.594t-1.531-1.219h-1.5q-0.438 0-0.719-0.313t-0.281-0.688q0-1 1-1h3q0.625 0 1.219 0.938t1.125 2.063 0.938 2.063 0.719 0.938h22.25q0.938 0 1.438 0.719t0.188 1.594l-3.438 8.688q-0.438 1-1.5 1h-14.125zM10.75 16.125q0.313 0.875 0.75 1.375t1.813 0.5h11.563q1.375 0 1.781-0.469t0.719-1.219l1.5-3.563q0.625-2 0.063-2.375t-1.938-0.375h-15.563q-1.063 0-1.594 0.063t-0.688 0.313-0.063 0.781 0.406 1.469zM8 28q0.813 0 1.406 0.563t0.594 1.438q0 0.813-0.594 1.406t-1.406 0.594q-0.875 0-1.438-0.594t-0.563-1.406q0-0.875 0.563-1.438t1.438-0.563zM26 28q0.813 0 1.406 0.563t0.594 1.438q0 0.813-0.594 1.406t-1.406 0.594q-0.875 0-1.438-0.594t-0.563-1.406q0-0.875 0.563-1.438t1.438-0.563z"></path>
</svg>
