<!-- Generated by IcoMoon.io -->
<svg version="1.1" xmlns="http://www.w3.org/2000/svg" width="28" height="32" viewBox="0 0 28 32">
<title>uniE008</title>
<path d="M14 15.563q1.813 1.188 2.906 3.125t1.094 4.313q0 1.875-0.719 3.531t-1.938 2.875-2.844 1.906-3.5 0.688-3.5-0.688-2.844-1.906-1.938-2.875-0.719-3.531q0-2.375 1.094-4.313t2.906-3.125v-10.563q0-2.063 1.469-3.531t3.531-1.469 3.531 1.469 1.469 3.531v10.563zM9 30q1.438 0 2.719-0.563t2.219-1.5 1.5-2.219 0.563-2.719q0-1.75-0.813-3.281t-2.25-2.531l-0.938-0.563v-11.625q0-1.25-0.875-2.125t-2.125-0.875-2.125 0.875-0.875 2.125v11.625l-0.875 0.563q-1.438 1-2.281 2.531t-0.844 3.281q0 1.438 0.563 2.719t1.5 2.219 2.219 1.5 2.719 0.563zM28 3q0 1-1 1h-7v-2h7q1 0 1 1zM24 7q0 1-1 1h-3v-2h3q1 0 1 1zM27 10q1 0 1 1t-1 1h-7v-2h7zM23 14q1 0 1 1t-1 1h-3v-2h3zM10 19.188q1.313 0.313 2.156 1.344t0.844 2.469q0 1.688-1.156 2.844t-2.844 1.156q-1.625 0-2.813-1.156t-1.188-2.844q0-1.438 0.875-2.469t2.125-1.344v-8.188q0-0.438 0.313-0.719t0.688-0.281q1 0 1 1v8.188z"></path>
</svg>
