<!-- Generated by IcoMoon.io -->
<svg version="1.1" xmlns="http://www.w3.org/2000/svg" width="28" height="32" viewBox="0 0 28 32">
<title>uniE1D5</title>
<path d="M12.063 12h5v2h-5v5.063h-2.063v-5.063h-5v-2h5v-5h2.063v5zM27.375 26.625q0.625 0.563 0.625 1.406t-0.625 1.406q-0.563 0.563-1.375 0.563t-1.438-0.563l-7.313-7.375q-2.813 1.938-6.25 1.938-2.25 0-4.25-0.844t-3.5-2.344-2.375-3.5-0.875-4.313q0-2.25 0.875-4.25t2.375-3.5 3.5-2.375 4.25-0.875 4.25 0.875 3.5 2.375 2.375 3.5 0.875 4.25q0 1.75-0.531 3.313t-1.406 2.938zM11 22q1.875 0 3.5-0.688t2.844-1.906 1.938-2.875 0.719-3.531-0.719-3.5-1.938-2.844-2.844-1.938-3.5-0.719-3.531 0.719-2.875 1.938-1.906 2.844-0.688 3.5 0.688 3.531 1.906 2.875 2.875 1.906 3.531 0.688z"></path>
</svg>
