<!-- Generated by IcoMoon.io -->
<svg version="1.1" xmlns="http://www.w3.org/2000/svg" width="28" height="32" viewBox="0 0 28 32">
<title>uniE252</title>
<path d="M26.813 13.125q1.188 1.188 1.188 2.844t-1.188 2.844l-9.938 10q-1.313 1.188-2.875 1.188-1.5 0-2.813-1.188l-10-10q-1.188-1.188-1.188-2.844t1.188-2.844l10-10q1.188-1.125 2.813-1.125t2.875 1.125zM25.438 17.375q0.563-0.563 0.563-1.375 0-0.875-0.563-1.438l-10-10q-0.563-0.563-1.438-0.563-0.813 0-1.375 0.563l-10 10q-0.625 0.563-0.625 1.406t0.625 1.406l10 10q0.625 0.625 1.375 0.625 0.813 0 1.438-0.625z"></path>
</svg>
