<!-- Generated by IcoMoon.io -->
<svg version="1.1" xmlns="http://www.w3.org/2000/svg" width="32" height="32" viewBox="0 0 32 32">
<title>uniE22B</title>
<path d="M24 20q1.625 0 3.094 0.625t2.563 1.719 1.719 2.531 0.625 3.125v4h-20v-4q0-1.688 0.625-3.125t1.719-2.531 2.563-1.719 3.094-0.625h4zM30 28q0-2.5-1.75-4.25t-4.25-1.75h-4q-2.5 0-4.25 1.75t-1.75 4.25v2h16v-2zM28 14q0 2.5-1.75 4.25t-4.25 1.75-4.25-1.75-1.75-4.25 1.75-4.25 4.25-1.75 4.25 1.75 1.75 4.25zM22 18q1.625 0 2.813-1.188t1.188-2.813-1.188-2.813-2.813-1.188-2.813 1.188-1.188 2.813 1.188 2.813 2.813 1.188zM14.5 19.688q-0.813 0.5-1.688 1.375-1.25-0.813-2.031-2.125t-0.781-2.938q0-2.25 1.438-3.906t3.625-2.031q-0.625 1.125-0.938 2.375-0.938 0.5-1.531 1.438t-0.594 2.125q0 1.25 0.688 2.219t1.813 1.469zM9.813 25l0.563 0.313q-0.313 1.125-0.375 2.313l-1.063 1.125q-0.563 0.563-1.438 0.563-0.813 0-1.375-0.563l-2.875-2.875q-0.563-0.563-0.563-1.406t0.563-1.406l1.25-1.25q-0.188-0.438-0.406-0.875t-0.344-0.938h-1.75q-0.875 0-1.438-0.594t-0.563-1.406v-4q0-0.875 0.563-1.438t1.438-0.563h1.75q0.125-0.5 0.344-0.938t0.406-0.875l-1.25-1.25q-0.563-0.625-0.563-1.438t0.563-1.375l2.875-2.875q0.563-0.563 1.375-0.563 0.875 0 1.438 0.563l1.25 1.25q0.438-0.188 0.875-0.406t0.938-0.344v-1.75q0-0.875 0.563-1.438t1.438-0.563h4q0.875 0 1.438 0.563t0.563 1.438v1.75q0.5 0.125 0.938 0.344t0.875 0.406l1.25-1.25q0.563-0.563 1.438-0.563 0.813 0 1.375 0.563l2.875 2.875q0.563 0.563 0.563 1.375t-0.563 1.438l-0.375 0.313q-0.313-0.438-0.656-0.781t-0.719-0.656l0.313-0.313-2.813-2.813-1.438 1.438q-0.313-0.063-0.531-0.094t-0.531-0.031q-0.375 0-0.75 0.031t-0.75 0.094q-0.313-0.125-0.563-0.219t-0.563-0.219l-1.375-0.5v-3.188h-4v3.188l-1.375 0.5q-0.375 0.125-0.781 0.281t-0.781 0.344l-1.25 0.625-1.063-1-1.25-1.25-2.813 2.813 1.25 1.25 1 1.063-0.625 1.25q-0.188 0.375-0.344 0.781t-0.281 0.781l-0.5 1.375h-3.188v4h3.188l0.5 1.375q0.125 0.375 0.281 0.75t0.344 0.75l0.625 1.313-1 1.063-1.25 1.25 2.813 2.813 1.25-1.25z"></path>
</svg>
