<!-- Generated by IcoMoon.io -->
<svg version="1.1" xmlns="http://www.w3.org/2000/svg" width="32" height="32" viewBox="0 0 32 32">
<title>uniE065</title>
<path d="M23.688 18.625q-0.375 0.25-0.188 0.563l4.5 12.125q0.125 0.313-0.156 0.563t-0.594 0.063l-10.938-7.75q-0.313-0.188-0.563 0l-10.938 7.75q-0.313 0.188-0.594-0.063t-0.156-0.563l4.5-12.125q0.125-0.375-0.188-0.563l-8.125-5.75q-0.313-0.188-0.188-0.531t0.438-0.344h10.375q0.313 0 0.5-0.313l4.188-11.375q0.125-0.313 0.469-0.313t0.469 0.313l4.188 11.375q0.125 0.313 0.5 0.313h10.313q0.375 0 0.5 0.344t-0.188 0.531z"></path>
</svg>
