<!-- Generated by IcoMoon.io -->
<svg version="1.1" xmlns="http://www.w3.org/2000/svg" width="24" height="32" viewBox="0 0 24 32">
<title>uniE0ED</title>
<path d="M16 12q0 1.688-1.188 2.844t-2.813 1.156-2.813-1.156-1.188-2.844q0-1.625 1.188-2.813t2.813-1.188 2.813 1.188 1.188 2.813zM23 30q0.438 0 0.719 0.313t0.281 0.688q0 1-1 1h-22q-1 0-1-1 0-0.375 0.281-0.688t0.719-0.313h1.875q0.375-0.813 0.844-1.813t0.969-1.969 1.063-1.875 1.125-1.469q-3.063-1.438-4.969-4.344t-1.906-6.531q0-2.5 0.938-4.688t2.563-3.813 3.813-2.563 4.688-0.938 4.688 0.938 3.813 2.563 2.563 3.813 0.938 4.688q0 3.625-1.906 6.531t-4.969 4.344q0.5 0.563 1.063 1.469t1.094 1.875 1 1.969 0.844 1.813h1.875zM2 12q0 2.063 0.781 3.906t2.156 3.188 3.188 2.125 3.875 0.781 3.875-0.781 3.188-2.125 2.156-3.188 0.781-3.906-0.781-3.875-2.156-3.188-3.188-2.156-3.875-0.781-3.875 0.781-3.188 2.156-2.156 3.188-0.781 3.875zM18 30q-0.563-1.688-1.25-3-0.563-1.125-1.281-2.063t-1.469-0.938h-4q-0.75 0-1.469 0.938t-1.281 2.063q-0.688 1.313-1.25 3h12z"></path>
</svg>
