<!-- Generated by IcoMoon.io -->
<svg version="1.1" xmlns="http://www.w3.org/2000/svg" width="33" height="32" viewBox="0 0 33 32">
<title>uniE0D0</title>
<path d="M16 0q3.313 0 6.25 1.25t5.094 3.438 3.406 5.094 1.25 6.219-1.25 6.25-3.406 5.125-5.094 3.438-6.25 1.25-6.219-1.25-5.094-3.438-3.438-5.125-1.25-6.25 1.25-6.219 3.438-5.094 5.094-3.438 6.219-1.25zM16 30.063q2.875 0 5.438-1.094t4.469-3.031 3-4.469 1.094-5.469q0-2.875-1.094-5.406t-3-4.438-4.469-3-5.438-1.094-5.438 1.094-4.469 3-3 4.438-1.094 5.406q0 2.938 1.094 5.469t3 4.469 4.469 3.031 5.438 1.094zM16 6.063q2.063 0 3.906 0.781t3.188 2.125 2.125 3.156 0.781 3.875-0.781 3.906-2.125 3.219-3.188 2.156-3.906 0.781-3.875-0.781-3.188-2.156-2.156-3.219-0.781-3.906 0.781-3.875 2.156-3.156 3.188-2.125 3.875-0.781z"></path>
</svg>
