<!-- Generated by IcoMoon.io -->
<svg version="1.1" xmlns="http://www.w3.org/2000/svg" width="32" height="32" viewBox="0 0 32 32">
<title>uniE0DC</title>
<path d="M6 3.938q0-0.688-0.563-1.219t-1-0.656h5.125q0.688 0 1.531 0.656t0.906 1.344v12l-3-3.938-3 3.938v-12.125zM29.875 2.063q1 0 1.563 0.625t0.563 1.625v21.75q0 0.875-0.594 1.438t-1.406 0.563h-9.625q-1.375 0-2.625 0.75t-1.75 1.188q-0.188-0.188-0.719-0.531t-1.219-0.656-1.438-0.531-1.438-0.219h-9.188q-2 0-2-2v-22q0-0.688 0.469-1.344t1.531-0.656h0.688q0.438 0.125 0.813 0.781t0.5 1.219h-2v20h10.125q0.625 0 1.125 0.25t0.875 0.594 0.594 0.656 0.406 0.5v-20q-0.063-0.688-0.594-1.344t-1.281-0.656q0-0.313-0.188-0.688t-0.469-0.656-0.531-0.469-0.313-0.188q1.688 0 2.719 0.563t1.281 1.063q0.313-0.5 1.125-1.063t2.438-0.563h10.563zM30 4.063h-11.125q-1.125 0-1.469 0.781t-0.406 1.281l-0.063 19.938q0.188-0.188 0.375-0.5t0.5-0.656 0.688-0.594 0.938-0.25h10.563v-20z"></path>
</svg>
