<!-- Generated by IcoMoon.io -->
<svg version="1.1" xmlns="http://www.w3.org/2000/svg" width="30" height="32" viewBox="0 0 30 32">
<title>uniE23D</title>
<path d="M26 20h2v8q0 0.875-0.563 1.438t-1.438 0.563h-24q-0.813 0-1.406-0.563t-0.594-1.438v-24q0-0.813 0.594-1.406t1.406-0.594h8v2h-8v24h24v-8zM29.75 3.125q0.313 0.313 0.313 0.719t-0.313 0.719l-16.313 16.25q-0.063 0.063-1.063 0.375t-2.25 0.625q-1.438 0.438-3.188 0.938 0.563-1.688 1.063-3.063 0.438-1.125 0.781-2.094t0.406-1.031l16.313-16.25q0.313-0.313 0.688-0.313t0.688 0.313zM23.625 7.813l-1.375-1.438-11.375 11.313q-0.063 0.125 0.125 0.375t0.438 0.5 0.5 0.406 0.438 0.094zM27.625 3.813l-1.438-1.375-2.563 2.5 1.438 1.438z"></path>
</svg>
