<!-- Generated by IcoMoon.io -->
<svg version="1.1" xmlns="http://www.w3.org/2000/svg" width="32" height="32" viewBox="0 0 32 32">
<title>uniE1Ce</title>
<path d="M24.063 27.938h1.938v2.063q0 0.875-0.531 1.438t-1.406 0.563h-22q-0.875 0-1.469-0.563t-0.594-1.438v-22l8-8h8v2h-6v6q0 0.875-0.563 1.438t-1.438 0.563h-6v20h22.063v-2.063zM31.688 12.25q0.688 0.688 0 1.438-0.313 0.313-0.719 0.313t-0.719-0.313l-4.25-4.75v14q0 0.438-0.313 0.719t-0.688 0.281q-1 0-1-1v-14l-4.313 4.75q-0.313 0.313-0.719 0.313t-0.719-0.313-0.313-0.719 0.313-0.719l5.25-5.688q0.563-0.625 1.406-0.625t1.406 0.625zM31.75 6q0.688 0.75 0 1.438-0.313 0.313-0.719 0.313t-0.719-0.313l-3.938-4.063q-0.563-0.625-1.406-0.625t-1.406 0.625l-3.813 3.938q-0.313 0.313-0.719 0.313t-0.719-0.313-0.313-0.719 0.313-0.719l5.25-5.313q0.563-0.625 1.406-0.625t1.406 0.625z"></path>
</svg>
