<!-- Generated by IcoMoon.io -->
<svg version="1.1" xmlns="http://www.w3.org/2000/svg" width="32" height="32" viewBox="0 0 32 32">
<title>uniE1C1</title>
<path d="M16 0.75q3.313 0 6.25 1.25t5.094 3.406 3.406 5.094 1.25 6.25-1.25 6.219-3.406 5.094-5.094 3.438-6.25 1.25-6.219-1.25-5.094-3.438-3.438-5.094-1.25-6.219 1.25-6.25 3.438-5.094 5.094-3.406 6.219-1.25zM24.813 12.063q0.25-0.438 0.156-0.969t-0.406-0.844l-1.5-1.438q-0.5-0.375-1.063-0.375-0.875 0-1.188 0.688l-6.563 8.625q-0.125 0.188-0.25 0.188-0.063 0-0.094-0.031t-0.094-0.031l-3.438-3.375q-0.5-0.5-1.063-0.5-0.625 0-1.125 0.5l-1.375 1.375q-0.438 0.438-0.438 1 0 0.625 0.375 1l6.563 7.375q0.375 0.438 1.063 0.438 0.875 0 1.313-0.75z"></path>
</svg>
