<!-- Generated by IcoMoon.io -->
<svg version="1.1" xmlns="http://www.w3.org/2000/svg" width="32" height="32" viewBox="0 0 32 32">
<title>uniE0CC</title>
<path d="M30.938 2q0.5 0 0.844 0.469t0.156 0.969l-9.375 26.125q-0.188 0.688-1 0.688-0.438 0-0.688-0.25l-7.25-6.625-4.375 3.875q-0.563 0.5-1.188 0.156t-0.563-1.031l0.688-7.938-7.875-7.125q-0.5-0.438-0.344-1.031t0.844-0.781l29.875-7.438q0.063-0.063 0.25-0.063zM8.5 15.875l20.313-11.188-25.625 6.375zM12.938 22.813l-2.563-2.313-1.813 5.688zM29.188 4.75l-17.813 13.75 9.75 8.875z"></path>
</svg>
