<!-- Generated by IcoMoon.io -->
<svg version="1.1" xmlns="http://www.w3.org/2000/svg" width="32" height="32" viewBox="0 0 32 32">
<title>uniE0FF</title>
<path d="M25.875 6.25q1.125-0.438 1.813-1.063l4.188 20.75q-0.75 1.188-2.375 2.125-1.375 0.813-3.781 1.438t-6.344 0.625-6.375-0.625-3.813-1.438q-1.625-0.938-2.313-2.125l4.125-20.75q0.688 0.625 1.813 1.063 1 0.375 2.594 0.688t3.969 0.313 3.938-0.313 2.563-0.688zM30.25 25.5l-0.25-1.375-0.75-3.313-0.938-4.313-0.938-4.25-0.75-3.313-0.375-1.313q-0.125 0.125-0.25 0.125-2.875 1-6.688 1-2 0-3.938-0.25t-3.188-0.875l-0.188 0.75-0.438 2-0.563 2.875-0.625 3.25-1.813 8.938q0.563 0.688 1.625 1.25t2.531 0.938 3.188 0.594 3.531 0.219q3.938 0 6.75-0.844t4.063-2.094zM23 12.313q1.438 0 2.5 1.063t1.063 2.563-1.063 2.563-2.5 1.063q-0.313 0-0.75-0.031t-0.5-0.031q-0.125 0.5-0.313 0.75l-2.813 2.813-1.438 1.375-0.563 0.5-0.125 0.188q-0.313 0.188-0.563 0.188-0.375 0-0.688-0.313l-2.375-2.313v1.375q0 0.938-0.875 0.938-0.375 0-0.656-0.25t-0.281-0.688v-3.563q0-0.375 0.281-0.656t0.656-0.281 0.688 0.313l2 1.938 3.125-3.125h-1.125q-0.438 0-0.75-0.219t-0.313-0.719v-3.625q0-0.438 0.281-0.688t0.656-0.25q0.938 0 0.938 0.938v2.75h1.875q0-1.813 0.813-3.188t2.813-1.375zM1.563 8.125h2.313v1.25h-2.313v2.063h1.188v1.313h-1.188v2.188h2.313v1.25h-2.313v2.125h1.188v1.25h-1.188v2.188h2.313v1.25h-2.313v2.063h1.188v1.25h-1.188v2.25h2.313v1.375h-2.313v2.063h-1.5v-28.438h1.5v1.125h1.188v1.25h-1.188v2.188zM31.875 0v1.5h-2.25v2.313h-1.25v-2.313h-2.188v1.188h-1.25v-1.188h-2.063v2.313h-1.25v-2.313h-2.188v1.188h-1.25v-1.188h-2.125v2.313h-1.25v-2.313h-2.188v1.188h-1.313v-1.188h-2.063v2.313h-1.25v-2.313h-2.188v1.188h-1.25v-1.188h-4.5v-1.5h31.813z"></path>
</svg>
