<!-- Generated by IcoMoon.io -->
<svg version="1.1" xmlns="http://www.w3.org/2000/svg" width="28" height="32" viewBox="0 0 28 32">
<title>uniE09D</title>
<path d="M13.938 9.063q1.5 0 2.781 0.531t2.25 1.469 1.5 2.219 0.531 2.719q0 1.5-0.531 2.75t-1.5 2.219-2.25 1.5-2.781 0.531q-1.438 0-2.688-0.531t-2.219-1.5-1.5-2.219-0.531-2.75q0-1.438 0.531-2.719t1.5-2.219 2.219-1.469 2.688-0.531zM26 2q0.813 0 1.406 0.594t0.594 1.406v24q0 0.875-0.594 1.438t-1.406 0.563h-24q-0.875 0-1.438-0.563t-0.563-1.438v-24q0-0.813 0.563-1.406t1.438-0.594h24zM26 4h-24v24h24v-24z"></path>
</svg>
