<!-- Generated by IcoMoon.io -->
<svg version="1.1" xmlns="http://www.w3.org/2000/svg" width="32" height="32" viewBox="0 0 32 32">
<title>uniE18B</title>
<path d="M2.438 9.438h-2.375v-4.75h2.375v4.75zM7.063 9.438h-2.25v-9.438h2.25v9.438zM9.438 2.375h2.375v7.063h-2.375v-7.063zM2.438 28.188h-2.375v-4.688h2.375v4.688zM7.063 18.813v9.375h-2.25v-9.375h2.25zM9.438 21.125h2.375v7.063h-2.375v-7.063zM22.563 28.188h-2.375v-4.688h2.375v4.688zM27.188 18.813v9.375h-2.25v-9.375h2.25zM29.563 21.125h2.375v7.063h-2.375v-7.063zM0.063 12h11.75v1.938h-11.75v-1.938zM20.188 30h11.75v2h-11.75v-2zM0.063 30h11.75v2h-11.75v-2zM22.563 9.438h-2.375v-4.75h2.375v4.75zM27.188 9.438h-2.25v-9.438h2.25v9.438zM29.563 2.375h2.375v7.063h-2.375v-7.063zM20.188 12h11.75v1.938h-11.75v-1.938z"></path>
</svg>
