<!-- Generated by IcoMoon.io -->
<svg version="1.1" xmlns="http://www.w3.org/2000/svg" width="28" height="32" viewBox="0 0 28 32">
<title>uniE273</title>
<path d="M16 22v4h-4v-4h4zM26 2q0.875 0 1.438 0.594t0.563 1.406v10h-4v-4h-4v4h-4v-4h-4v4h-4v-4h-4v4h-4v-10q0-0.813 0.563-1.406t1.438-0.594h24zM8 18h-4v-4h4v4zM4 18v4h-4v-4h4zM8 22v4h-4v-4h4zM12 18v4h-4v-4h4zM12 18v-4h4v4h-4zM20 14h4v4h-4v-4zM24 22v-4h4v4h-4zM16 18h4v4h-4v-4zM0 26h4v4h-2q-0.875 0-1.438-0.563t-0.563-1.438v-2zM8 26h4v4h-4v-4zM16 26h4v4h-4v-4zM24 30v-4h4v2q0 0.875-0.563 1.438t-1.438 0.563h-2zM20 22h4v4h-4v-4z"></path>
</svg>
