<!-- Generated by IcoMoon.io -->
<svg version="1.1" xmlns="http://www.w3.org/2000/svg" width="32" height="32" viewBox="0 0 32 32">
<title>uniE195</title>
<path d="M8 28q0.875 0 1.438 0.594t0.563 1.406q0 0.875-0.563 1.438t-1.438 0.563-1.438-0.563-0.563-1.438q0-0.813 0.563-1.406t1.438-0.594zM26 28q0.875 0 1.438 0.594t0.563 1.406q0 0.875-0.563 1.438t-1.438 0.563-1.438-0.563-0.563-1.438q0-0.813 0.563-1.406t1.438-0.594zM30.313 8q0.875 0 1.375 0.75t0.188 1.625l-3.438 8.625q-0.375 1-1.5 1h-14.125q-1 0-1.625 0.875-0.375 0.5-0.688 1.063t-0.469 1.031 0 0.75 0.781 0.281h16.188q0.438 0 0.719 0.313t0.281 0.688q0 1-1 1h-18.688q-1.063 0-1.281-0.5t0.063-1.313 0.875-1.781 1.094-1.906l0.375-0.688q0.313-0.438 0.125-0.875l-4.438-11.063q-0.313-0.688-0.531-1.375t-0.5-1.25-0.656-0.906-0.938-0.344h-1.5q-1 0-1-1 0-0.375 0.281-0.688t0.719-0.313h3.063q1.25 0.063 1.719 0.969t0.969 2.344l4 10.875q0.313 0.875 0.75 1.344t1.813 0.469h11.563q1.438 0 1.813-0.438t0.688-1.188zM20.5 13.375q-0.688 0.563-1.469 0.563t-1.344-0.563l-5.438-5.688q-0.313-0.313-0.313-0.719t0.313-0.656q0.75-0.75 1.438-0.063l4.313 4.75v-10q0-1.063 1-1.063 0.875 0.125 1 1.063v10l4.25-4.688q0.313-0.313 0.719-0.313t0.719 0.313 0.313 0.688-0.313 0.688z"></path>
</svg>
