<!-- Generated by IcoMoon.io -->
<svg version="1.1" xmlns="http://www.w3.org/2000/svg" width="32" height="32" viewBox="0 0 32 32">
<title>uniE0E6</title>
<path d="M22.063 18h1.938v12q0 0.875-0.531 1.438t-1.406 0.563h-20q-0.875 0-1.469-0.563t-0.594-1.438v-22l8-8h12v2h-10v6q0 0.875-0.563 1.438t-1.438 0.563h-6v20h20.063v-12zM28 8.938l1.5 4.688-4-2.875-4 2.875 1.5-4.688-4-2.938h5l1.5-4.688 1.563 4.688h4.938zM17 24q1 0 1 1 0 0.375-0.281 0.688t-0.719 0.313h-10q-0.375 0-0.688-0.313t-0.313-0.688q0-0.438 0.313-0.719t0.688-0.281h10zM17 20q1 0 1 1 0 0.375-0.281 0.688t-0.719 0.313h-10q-0.375 0-0.688-0.313t-0.313-0.688q0-0.438 0.313-0.719t0.688-0.281h10z"></path>
</svg>
