<!-- Generated by IcoMoon.io -->
<svg version="1.1" xmlns="http://www.w3.org/2000/svg" width="32" height="32" viewBox="0 0 32 32">
<title>uniE154</title>
<path d="M30 4q0.875 0 1.438 0.563t0.563 1.438v20q0 0.813-0.563 1.406t-1.438 0.594h-28q-0.813 0-1.406-0.594t-0.594-1.406v-20q0-0.875 0.594-1.438t1.406-0.563h28zM30 6h-28v20h28v-20zM28 11v-2q0-1-1-1h-2q-1 0-1 1v2q0 0.375 0.281 0.688t0.719 0.313h2q0.438 0 0.719-0.313t0.281-0.688zM17 14q1 0 1 1 0 0.375-0.281 0.688t-0.719 0.313h-10q-0.375 0-0.688-0.313t-0.313-0.688q0-0.438 0.313-0.719t0.688-0.281h10zM11 18q1 0 1 1 0 0.375-0.281 0.688t-0.719 0.313h-4q-0.375 0-0.688-0.313t-0.313-0.688q0-0.438 0.313-0.719t0.688-0.281h4z"></path>
</svg>
