<!-- Generated by IcoMoon.io -->
<svg version="1.1" xmlns="http://www.w3.org/2000/svg" width="28" height="32" viewBox="0 0 28 32">
<title>uniE108</title>
<path d="M26 2q0.813 0 1.406 0.594t0.594 1.406v24q0 0.875-0.594 1.438t-1.406 0.563h-24q-0.875 0-1.438-0.563t-0.563-1.438v-24q0-0.813 0.563-1.406t1.438-0.594h24zM26 4h-24v24h24v-24zM17.438 14.688q-0.25-0.563-0.25-1.188 0-1.438 1-2.469t2.438-1.031 2.406 1.031 0.969 2.469q0 0.625-0.25 1.188l-3.188 5.375zM19.188 22.125l1.75 0.875-0.875 1.75-1.813-0.875zM14.688 22.125l0.875-1.813 1.813 0.875-0.875 1.813zM12 18.563l1.813 0.875-0.938 1.813-1.75-0.875zM8.438 16.75l1.75 0.938-0.875 1.75-1.813-0.875zM12 14.063l-0.938 1.813-1.75-0.875 0.875-1.813zM12.875 12.313l-6.875-3.875v-2.438l7.75 4.5zM14.625 8.688l-1.813-0.875 0.938-1.813 1.75 0.875zM6.063 26h-2.063l2.625-5.625 1.813 0.875z"></path>
</svg>
