<!-- Generated by IcoMoon.io -->
<svg version="1.1" xmlns="http://www.w3.org/2000/svg" width="28" height="32" viewBox="0 0 28 32">
<title>uniE246</title>
<path d="M26 12q0.813 0 1.406 0.563t0.594 1.438v16q0 0.813-0.594 1.406t-1.406 0.594h-14q-0.875 0-1.438-0.594t-0.563-1.406v-16q0-0.875 0.563-1.438t1.438-0.563h14zM26 14h-14v16h14v-16zM2.063 6v24h5.938v2h-5.938q-0.875 0-1.469-0.594t-0.594-1.406v-24q0-0.875 0.594-1.438t1.469-0.563h4.063q0.625-1.688 2.375-2 0.5-0.875 1.438-1.438t2.063-0.563q1.063 0 2 0.563t1.438 1.438q1.75 0.313 2.375 2h4.188q0.813 0 1.375 0.563t0.563 1.438v4h-1.938v-4h-4.25q-0.125 0.313-0.25 0.594t-0.375 0.594q-0.625 0.813-1.563 0.813h-7.188q-0.938 0-1.563-0.813-0.25-0.313-0.375-0.594t-0.25-0.594h-4.125zM8.938 4q-0.375 0-0.688 0.281t-0.313 0.719q0 0.375 0.313 0.688t0.688 0.313h6q0.438 0 0.719-0.313t0.281-0.688q0-1-1-1h-0.938q0-0.875-0.594-1.438t-1.406-0.563q-0.875 0-1.438 0.563t-0.563 1.438h-1.063zM23 20q1 0 1 1 0 0.375-0.281 0.688t-0.719 0.313h-8q-0.375 0-0.688-0.313t-0.313-0.688q0-0.438 0.313-0.719t0.688-0.281h8zM23 23.938q1 0 1 1 0 0.375-0.281 0.688t-0.719 0.313h-8q-0.375 0-0.688-0.313t-0.313-0.688q0-0.438 0.313-0.719t0.688-0.281h8z"></path>
</svg>
