<!-- Generated by IcoMoon.io -->
<svg version="1.1" xmlns="http://www.w3.org/2000/svg" width="28" height="32" viewBox="0 0 28 32">
<title>uniE26B</title>
<path d="M27.063 10q0.375 0 0.656 0.281t0.281 0.719-0.281 0.719-0.656 0.281h-10q-1 0-1-1t1-1h10zM27.063 16q0.375 0 0.656 0.281t0.281 0.719-0.281 0.719-0.656 0.281h-10q-1 0-1-1t1-1h10zM27.063 22q0.375 0 0.656 0.281t0.281 0.719-0.281 0.719-0.656 0.281h-10q-1 0-1-1t1-1h10zM27.063 28q0.375 0 0.656 0.281t0.281 0.719-0.281 0.719-0.656 0.281h-10q-1 0-1-1t1-1h10zM13.625 24.25q0.688 0.688 0 1.438-0.313 0.313-0.719 0.313t-0.719-0.313l-4.188-4.688v10q0 0.438-0.313 0.719t-0.688 0.281q-1 0-1-1v-10l-4.25 4.688q-0.313 0.313-0.719 0.313t-0.719-0.313-0.313-0.719 0.313-0.719l5.188-5.625q0.563-0.625 1.406-0.625t1.406 0.625zM12.188 6.313q0.75-0.688 1.438 0 0.688 0.75 0 1.438l-5.313 5.625q-0.563 0.625-1.406 0.625t-1.406-0.625l-5.125-5.563q-0.688-0.688 0-1.438 0.75-0.688 1.438 0l4.188 4.625v-9.938q0-1 1-1 0.375 0 0.688 0.281t0.313 0.719v9.938zM27.063 4q0.375 0 0.656 0.281t0.281 0.719-0.281 0.719-0.656 0.281h-10q-1 0-1-1t1-1h10z"></path>
</svg>
