<!-- Generated by IcoMoon.io -->
<svg version="1.1" xmlns="http://www.w3.org/2000/svg" width="32" height="32" viewBox="0 0 32 32">
<title>uniE08D</title>
<path d="M4.563 8h1.063v12.063h-1.063v-12.063zM4.563 21.938h1.063v4h-1.063v-4zM6.875 21.938h1.063v4h-1.063v-4zM10.25 21.938h1.125v4h-1.125v-4zM12.563 21.938h1.063v4h-1.063v-4zM14.813 21.938h1.063v4h-1.063v-4zM18.188 21.938h1.125v4h-1.125v-4zM20.5 21.938h1.063v4h-1.063v-4zM23.875 21.938h1.063v4h-1.063v-4zM26.188 21.938h1v4h-1v-4zM10.25 8h1.125v12.063h-1.125v-12.063zM12.563 8h1.063v12.063h-1.063v-12.063zM18.188 8h1.125v12.063h-1.125v-12.063zM23.875 13.375h1.063v6.688h-1.063v-6.688zM26.188 13.375h1v6.688h-1v-6.688zM6.875 8h2.125v12.063h-2.125v-12.063zM14.813 8h2.313v12.063h-2.313v-12.063zM20.5 13.375h2.188v6.688h-2.188v-6.688zM32 9.938v15.563q0 0.938-0.375 1.75-0.375 0.688-1 1.438-0.688 0.688-1.5 0.938-0.75 0.375-1.75 0.375h-22.813q-1 0-1.813-0.375-0.688-0.313-1.438-0.938-0.313-0.375-0.531-0.719t-0.406-0.719q-0.375-0.813-0.375-1.75v-18.938q0-0.938 0.375-1.813 0.188-0.375 0.406-0.75t0.531-0.688q0.625-0.5 1.438-0.938 0.813-0.375 1.813-0.375h19.5zM29.625 12h-5.375q-0.938 0-1.594-0.656t-0.656-1.594v-5.438h-17.438q-1 0-1.594 0.625t-0.594 1.625v18.938q0 0.938 0.594 1.563t1.594 0.625h22.813q1 0 1.625-0.625t0.625-1.563v-13.5z"></path>
</svg>
