<!-- Generated by IcoMoon.io -->
<svg version="1.1" xmlns="http://www.w3.org/2000/svg" width="32" height="32" viewBox="0 0 32 32">
<title>uniE223</title>
<path d="M32 20h-4v-18h4v18zM2.688 20q-1.188 0-2-1.156t-0.438-2.844q0.5-2.125 1.281-4.875t1.75-5.219 2.156-4.188 2.563-1.719h10q1.25 0.063 2.344 0.469t1.906 0.969 1.281 1.219 0.469 1.281v16.063q-0.313 0.625-0.875 1.188t-1.156 1.063-1.156 0.938-0.813 0.813q-0.25 0.313-0.594 1.281t-0.656 2.031q-0.375 1.188-0.75 2.688-1.438 2.063-4 2-1.563-0.063-1.781-1.188t-0.219-2.813v-8h-9.313zM8 1.938q-0.875 0-1.594 1.156t-1.344 2.906h2.938v2h-3.563q-0.313 1-0.563 2.031t-0.438 1.969h4.563v2h-4.938q-0.125 0.688-0.188 1.219t-0.063 0.781q0 0.563 0.406 1.281t1.969 0.719h8.813v11.156t0.063 0.844h0.125q1.25 0 1.938-0.875 0.5-1.813 1.125-3.719t1.125-2.594q0.313-0.5 0.813-0.906t1.063-0.844q0.438-0.375 0.938-0.813t0.813-0.813v-15.438q-0.125-0.438-1.188-1.188t-2.813-0.875h-10z"></path>
</svg>
