<!-- Generated by IcoMoon.io -->
<svg version="1.1" xmlns="http://www.w3.org/2000/svg" width="32" height="32" viewBox="0 0 32 32">
<title>uniE0DB</title>
<path d="M32 30.563l-1.375 1.438-5.125-5.125q-1.625 1.125-3.5 1.125-2.5 0-4.25-1.75t-1.75-4.25 1.75-4.25 4.25-1.75 4.25 1.75 1.75 4.25q0 1.813-1.125 3.438zM22 26q1.625 0 2.813-1.188t1.188-2.813q0-1.688-1.188-2.844t-2.813-1.156-2.813 1.156-1.188 2.844q0 1.625 1.188 2.813t2.813 1.188zM16 6q0 2.5-1.75 4.25t-4.25 1.75-4.25-1.75-1.75-4.25 1.75-4.25 4.25-1.75 4.25 1.75 1.75 4.25zM10 10q1.625 0 2.813-1.188t1.188-2.813q0-1.688-1.188-2.844t-2.813-1.156-2.813 1.156-1.188 2.844q0 1.625 1.188 2.813t2.813 1.188zM14 22q0 0.875 0.313 2h-14.313v-4q0-1.688 0.625-3.125t1.719-2.531 2.563-1.719 3.094-0.625h4q1.875 0 3.5 0.813t2.688 2.188q-0.938 0.5-1.625 1.125-0.813-1-1.969-1.563t-2.594-0.563h-4q-2.5 0-4.25 1.75t-1.75 4.25v2h12z"></path>
</svg>
