<!-- Generated by IcoMoon.io -->
<svg version="1.1" xmlns="http://www.w3.org/2000/svg" width="28" height="32" viewBox="0 0 28 32">
<title>uniE124</title>
<path d="M2.875 21l7.25 3.688v1.438l-7.25-3.688v-1.438zM2.875 17.75l7.25 3.688v1.438l-7.25-3.625v-1.5zM23.563 4.75q0.313 0.188 0.625 0.563l3.25 5.563q0.25 0.313 0.25 0.813v12.625q0 0.938-0.875 1.313l-12.313 6.25q-0.688 0.313-1.375 0l-12.313-6.25q-0.813-0.375-0.813-1.313v-16.625q0-0.875 0.813-1.313l12.313-6.188q0.688-0.375 1.375 0zM12.5 19.188l-2.75-1.438q-0.813-0.375-0.813-1.313v-3.688l-7.75-3.938v15.625l11.313 5.813v-11.063zM9.813 11.75q0.438 0.25 0.625 0.625l3.188 5.5q0.188 0.375 0.188 0.75v12.063l5.813-2.938v-12.125l-2.813-1.5q-0.813-0.375-0.813-1.313v-3.625l-9.063-4.5-5.563 2.813zM26.313 12.125l-2.625-1.375q-0.813-0.375-0.813-1.375v-3.625l-9.188-4.5-5.25 2.688 8.375 4.188q0.438 0.25 0.625 0.625l3.313 5.563q0.188 0.375 0.188 0.75v12l5.375-2.688v-12.25z"></path>
</svg>
