<!-- Generated by IcoMoon.io -->
<svg version="1.1" xmlns="http://www.w3.org/2000/svg" width="32" height="32" viewBox="0 0 32 32">
<title>uniE06D</title>
<path d="M8.438 20.438q0.438-0.438 0-0.938l-4.063-5.25q-0.375-0.375-0.375-0.906t0.375-0.969q0.438-0.375 0.969-0.375t0.906 0.375l5.5 6.688q0.375 0.375 0.375 0.938t-0.375 0.938l-5.375 6.688q-0.438 0.375-0.969 0.375t-0.906-0.375q-0.438-0.438-0.438-0.969t0.438-0.906zM22.938 10v-5q0-1 1-1t1 1v3h2.063q1 0 1 1t-1 1h-4.063zM30 16h2v14q0 0.813-0.563 1.406t-1.438 0.594h-28q-0.875 0-1.438-0.594t-0.563-1.406v-20q0-0.875 0.563-1.438t1.438-0.563h12v2h-12v20h28v-14zM24 16q-1.688 0-3.125-0.625t-2.531-1.719-1.719-2.563-0.625-3.094q0-1.688 0.625-3.125t1.719-2.531 2.531-1.719 3.125-0.625 3.125 0.625 2.531 1.719 1.719 2.531 0.625 3.125q0 1.625-0.625 3.094t-1.719 2.563-2.531 1.719-3.125 0.625zM24 2q-2.5 0-4.25 1.75t-1.75 4.25 1.75 4.25 4.25 1.75 4.25-1.75 1.75-4.25-1.75-4.25-4.25-1.75zM24.313 20.438q0.438-0.438 0-0.938l-1.25-1.625q0.625 0.125 0.938 0.125 1.313 0 2.438-0.375l1.188 1.438q0.375 0.375 0.375 0.938t-0.375 0.938l-5.438 6.688q-0.375 0.375-0.906 0.375t-0.969-0.375q-0.375-0.438-0.375-0.969t0.375-0.906zM12.375 12.375q0.438-0.375 0.969-0.375t0.906 0.375l5.5 6.688q0.375 0.375 0.375 0.938t-0.375 0.938l-5.375 6.688q-0.438 0.375-0.969 0.375t-0.906-0.375q-0.438-0.438-0.438-0.969t0.438-0.906l3.938-5.313q0.438-0.438 0-0.938l-4.063-5.25q-0.375-0.375-0.375-0.906t0.375-0.969z"></path>
</svg>
