<!-- Generated by IcoMoon.io -->
<svg version="1.1" xmlns="http://www.w3.org/2000/svg" width="32" height="32" viewBox="0 0 32 32">
<title>uniE078</title>
<path d="M31 16q0.375 0 0.688 0.281t0.313 0.719v13h-6v-7.5q0-0.5-0.5-0.5h-3q-0.5 0-0.5 0.5v7.5h-22v-23q0-1 1-1h6q0.375 0 0.688 0.281t0.313 0.719v9h23zM30 18h-24v-10h-4v20h18v-5.5q0-1.063 0.719-1.781t1.781-0.719h3q1.063 0 1.781 0.719t0.719 1.781v5.5h2v-10zM22.5 14q-0.5 0-0.5-0.5v-4.625q0-0.5 0.5-0.5 0.125 0 0.25 0.063l7.688 4.625q0.313 0.188 0.219 0.563t-0.469 0.375h-7.688zM12.5 14q-0.5 0-0.5-0.5v-4.625q0-0.5 0.5-0.5 0.125 0 0.25 0.063l7.688 4.625q0.313 0.188 0.219 0.563t-0.469 0.375h-7.688zM0.5 4q-0.5 0-0.5-0.25v-1.5q0-0.25 0.5-0.25h7q0.5 0 0.5 0.25v1.5q0 0.25-0.5 0.25h-7zM6 20.5q0-0.5 0.5-0.5h3q0.5 0 0.5 0.5v3q0 0.5-0.5 0.5h-3q-0.5 0-0.5-0.5v-3zM12.5 24q-0.5 0-0.5-0.5v-3q0-0.5 0.5-0.5h3q0.5 0 0.5 0.5v3q0 0.5-0.5 0.5h-3z"></path>
</svg>
