<!-- Generated by IcoMoon.io -->
<svg version="1.1" xmlns="http://www.w3.org/2000/svg" width="24" height="32" viewBox="0 0 24 32">
<title>uniE0A5</title>
<path d="M1 4q1 0 1 1t-1 1-1-1 1-1zM1 10q1 0 1 1t-1 1-1-1 1-1zM1 16q1 0 1 1t-1 1-1-1 1-1zM1 22q1 0 1 1t-1 1-1-1 1-1zM1 28q1 0 1 1t-1 1-1-1 1-1zM7 6h16.063q0.375 0 0.688-0.281t0.313-0.719-0.313-0.719-0.688-0.281h-16.063q-1 0-1 1t1 1zM23.063 10h-16.063q-1 0-1 1t1 1h16.063q0.375 0 0.688-0.281t0.313-0.719-0.313-0.719-0.688-0.281zM23.063 16h-16.063q-1 0-1 1t1 1h16.063q0.375 0 0.688-0.281t0.313-0.719-0.313-0.719-0.688-0.281zM23.063 22h-16.063q-1 0-1 1t1 1h16.063q0.375 0 0.688-0.281t0.313-0.719-0.313-0.719-0.688-0.281zM23.063 28h-16.063q-1 0-1 1t1 1h16.063q0.375 0 0.688-0.281t0.313-0.719-0.313-0.719-0.688-0.281z"></path>
</svg>
