<!-- Generated by IcoMoon.io -->
<svg version="1.1" xmlns="http://www.w3.org/2000/svg" width="32" height="32" viewBox="0 0 32 32">
<title>uniE0BF</title>
<path d="M12 20q1.688 0 3.125 0.625t2.531 1.719 1.719 2.531 0.625 3.125v4h-20v-4q0-1.688 0.625-3.125t1.719-2.531 2.563-1.719 3.094-0.625h4zM18 28q0-2.5-1.75-4.25t-4.25-1.75h-4q-1.25 0-2.313 0.469t-1.906 1.281-1.313 1.906-0.469 2.344v2h16v-2zM16 14q0 2.5-1.75 4.25t-4.25 1.75-4.25-1.75-1.75-4.25 1.75-4.25 4.25-1.75 4.25 1.75 1.75 4.25zM10 18q1.688 0 2.844-1.188t1.156-2.813q0-1.688-1.156-2.844t-2.844-1.156q-1.625 0-2.813 1.156t-1.188 2.844q0 1.625 1.188 2.813t2.813 1.188zM26 4q0.875 0 1.438 0.563t0.563 1.438v20q0 0.813-0.563 1.406t-1.438 0.594h-4v-2h4v-20h-14v-2h14zM30 0q0.875 0 1.438 0.563t0.563 1.438v22h-2v-22h-14v-2h14z"></path>
</svg>
