<!-- Generated by IcoMoon.io -->
<svg version="1.1" xmlns="http://www.w3.org/2000/svg" width="32" height="32" viewBox="0 0 32 32">
<title>uniE11B</title>
<path d="M21.563 16.438q0 2.75 2.75 3.25v-5.188q-1.125-0.375-2.156-0.688t-1.875-0.813-1.344-1.344-0.5-2.344q0-2.625 1.75-3.969t4.125-1.469v-1.875h1.5v1.875q2.188 0.313 3.813 1.531t1.813 3.844h-3.563q0-1.063-0.625-1.75t-1.5-0.688v4.5q2.313 0.375 3.563 1.156t1.844 1.656 0.719 1.75 0.125 1.5q0 0.563-0.281 1.406t-0.969 1.656-1.875 1.438-3.063 0.75v2.25h-1.5v-2.25q-5.75-0.375-6.313-6.188h3.563zM25.813 19.688q0.875-0.125 1.781-0.656t0.906-1.781q0-1-0.625-1.469t-2.063-0.844v4.75zM22.063 8.875q0 0.875 0.5 1.313t1.75 0.75v-4.125q-0.875 0-1.563 0.5t-0.688 1.563zM31 27.938q0.438 0 0.719 0.313t0.281 0.688q0 1-1 1h-21v-8h-4v8h-6v-19.938q0-1.375 1.313-1.875l0.688-0.375v-5.75h6v2.875l4.938-2.375q0.25-0.125 0.563-0.25t0.625-0.188 0.75-0.063q0.75 0 0.938 0.688t0.188 1.313v23.938h15zM14 4l-8 3.938v-3.938h-2v4.938l-2 1v18h2v-6q0-0.813 0.594-1.406t1.406-0.594h4q0.875 0 1.438 0.594t0.563 1.406v6h2v-23.938zM11 16q1 0 1 1 0 0.375-0.281 0.688t-0.719 0.313h-6q-0.375 0-0.688-0.313t-0.313-0.688q0-0.438 0.313-0.719t0.688-0.281h6zM11 12q1 0 1 1 0 0.375-0.281 0.688t-0.719 0.313h-6q-0.375 0-0.688-0.313t-0.313-0.688q0-0.438 0.313-0.719t0.688-0.281h6z"></path>
</svg>
