<!-- Generated by IcoMoon.io -->
<svg version="1.1" xmlns="http://www.w3.org/2000/svg" width="32" height="32" viewBox="0 0 32 32">
<title>uniE1C9</title>
<path d="M29.813 4q0.875 0 1.563 0.625t0.563 1.5l-1.813 22q-0.125 0.813-0.656 1.344t-1.344 0.531h-20.625q-0.688 0-1.219-0.406t-0.719-1.094l-5.563-19.5q0-0.5 0.5-0.875 0.125 0 0.25-0.031t0.25-0.031 0.125-0.063h5.375q0.375 0 0.656 0.281t0.469 0.656 0.281 0.688 0.094 0.375h4.25l1.313-4.563q0.438-1.438 1.938-1.438h14.313zM27.25 28q0.25 0 0.406-0.219t0.031-0.469l-5.5-14.688q-0.188-0.625-0.938-0.625h-18.25l4.875 15.625q0.125 0.375 0.438 0.375h18.938zM28.625 24q0.063-0.188 0.156-1.25t0.219-2.625 0.25-3.438 0.25-3.719 0.219-3.406 0.156-2.5q0.063-0.5-0.219-0.781t-0.781-0.281h-12.938q-0.813 0-0.938 0.75l-0.75 3.25h8.25q1.438 0 1.938 1.375z"></path>
</svg>
