<!-- Generated by IcoMoon.io -->
<svg version="1.1" xmlns="http://www.w3.org/2000/svg" width="28" height="32" viewBox="0 0 28 32">
<title>uniE224</title>
<path d="M3.75 29.5l5-6.063 1.25 1.188-6.25 7.375-3.75-3.688 1.25-1.25zM8.75 11.688l1.25 1.188-6.25 7.313-3.75-3.688 1.25-1.188 2.5 2.375zM8.75 0l1.25 1.188-6.25 7.375-3.75-3.688 1.25-1.313 2.5 2.5zM27 4.063q1 0 1 1 0 0.375-0.281 0.688t-0.719 0.313h-11.938q-0.375 0-0.688-0.313t-0.313-0.688q0-0.438 0.313-0.719t0.688-0.281h11.938zM27 16q1 0 1 1 0 0.375-0.281 0.688t-0.719 0.313h-11.938q-0.375 0-0.688-0.313t-0.313-0.688q0-0.438 0.313-0.719t0.688-0.281h11.938zM27 28q1 0 1 1 0 0.375-0.281 0.688t-0.719 0.313h-11.938q-0.375 0-0.688-0.313t-0.313-0.688q0-0.438 0.313-0.719t0.688-0.281h11.938z"></path>
</svg>
