<!-- Generated by IcoMoon.io -->
<svg version="1.1" xmlns="http://www.w3.org/2000/svg" width="32" height="32" viewBox="0 0 32 32">
<title>uniE12D</title>
<path d="M32 30v2h-32v-2h20l2-2h2l2 2h6zM0.188 21.375q-0.063-0.313-0.063-0.531v-0.844q0.063-0.188 0.063-0.344t0.063-0.344q0.063-0.125 0.063-0.313 0.063-0.313 0.313-0.813 0.125-0.375 0.25-0.5l0.125-0.25q0.625-1 1.5-1.625 1-2.313 2.188-3.969t2.531-2.781 2.938-1.75 3.406-0.938h0.063q1-0.188 1.688-0.188t1.531 0.531 1.969 1.75 2.938 3.531h0.25l5.188-5.25 1.125 1.063-3.813 4q1 0 2.125 0.469t2.094 1.344 1.688 2.094 0.906 2.656l0.5 2.875 0.125 1-3.938 0.625q-0.125 1.688-1.219 3t-2.906 1.625q-1.75 0.25-3.219-0.625t-2.094-2.5l-6 0.938q-0.063 1.75-1.188 3.031t-2.875 1.594q-1.813 0.313-3.281-0.594t-2.094-2.531l-2 0.375zM11.125 24.563l-0.188-0.625q-0.5-1.188-1.531-1.781t-2.219-0.406q-1.25 0.188-2.031 1.094t-0.844 2.156l-0.063 0.688 0.25 0.625q0.438 1.125 1.469 1.75t2.281 0.438 2.031-1.094 0.844-2.156v-0.688zM26.563 22.125l-0.25-0.688q-0.438-1.125-1.469-1.75t-2.281-0.375q-1.188 0.188-1.969 1.063t-0.906 2.125v0.688l0.25 0.688q0.438 1.125 1.469 1.75t2.281 0.375q1.188-0.188 2-1.063t0.875-2.125v-0.688zM13.875 8.313q-1.313 0.188-2.5 0.594t-2.281 1.094-2.063 1.844-1.844 2.844l14.375-2.313q-1.25-1.625-2.063-2.5t-1.375-1.25-1-0.406-1 0.031q-0.063 0-0.094 0.031t-0.156 0.031zM5.375 16.625q-1.625 0.25-2.563 1.531t-0.688 2.906v0.125l0.625 3.75h0.063q0.125-1.75 1.25-3.031t2.875-1.594 3.25 0.563 2.063 2.5l6-0.938q0.125-1.688 1.219-3t2.906-1.625q1.75-0.313 3.219 0.594t2.094 2.531l2-0.313-0.25-1.938q-0.188-1.188-0.844-2.188t-1.563-1.656-2.031-0.938-2.313-0.094z"></path>
</svg>
