<!-- Generated by IcoMoon.io -->
<svg version="1.1" xmlns="http://www.w3.org/2000/svg" width="32" height="32" viewBox="0 0 32 32">
<title>uniE0C6</title>
<path d="M27.25 10.75q-1.063 0-1.656 0.688t-0.594 1.563q0 1 0.594 1.75t1.656 0.75q0.5 0 0.969-0.25t0.875-0.594 0.813-0.594 0.781-0.25q1.125 0 1.125 1.125v8.438q0 0.688-0.5 1.219t-1.313 0.531q-1.938 0-2.906 0.031t-1.406 0.031h-0.563q0 0.063 0.125 0.156t0.25 0.219q1.375 1.188 1.375 2.813 0 1.438-1.094 2.5t-2.531 1.063q-1.625 0-2.688-1.031t-1.063-2.531q0-0.875 0.344-1.531t0.969-1.281q0.063-0.063 0.219-0.188t0.156-0.25h-5.063q-0.438 0-0.719-0.313t-0.344-0.688q-0.313 1-1.125 1h-3.75q-0.563 0-0.563 0.5 0 0.313 0.25 0.625l0.688 0.75 0.688 0.875 0.25 1.063q0 1.5-0.906 2.281t-2.094 0.781q-1.125 0-2.031-0.75t-0.906-2.313q0-0.625 0.281-1.094t0.656-0.844l0.625-0.75 0.313-0.625q0-0.5-0.688-0.5h-5.625q-0.5 0-0.813-0.344t-0.313-0.844v-15.938q0-0.5 0.313-0.844t0.813-0.344h5.688q0.688 0 0.688 0.563 0 0.375-0.313 0.719t-0.625 0.75-0.594 0.875-0.281 1.031q0 1.188 0.813 2.094t2 0.906 2.031-0.906 0.844-2.094q0-0.563-0.25-1.031t-0.625-0.844l-0.625-0.75-0.25-0.75q0-0.563 0.5-0.563h3.75q0.688 0 0.938 0.5t0.25 1v-0.375q0-0.438 0.281-0.781t0.781-0.344h5.125q0-0.063-0.25-0.375l-0.625-0.75-0.563-0.938-0.25-1.188q0-1.438 1.094-2.5t2.594-1.063q1.313 0 2.469 1.063t1.156 2.5q0 1.688-1.375 2.813-0.125 0.125-0.219 0.188t-0.094 0.25h4.813q0.813 0 1.313 0.531t0.5 1.219v2.75q0 1.188-1.125 1.188-0.375 0-0.75-0.25l-0.813-0.625-0.875-0.625zM24.813 15.75q-0.563-0.5-0.813-1.25t-0.25-1.5q0-1.375 1.063-2.469t2.438-1.094q0.938 0 1.563 0.344t1.313 1.094q0.25 0.25 0.375 0.25 0.188 0 0.188-0.625v-1.938q0-0.188-0.219-0.313t-0.469-0.125h-4.938q-0.5 0-0.875-0.281t-0.375-0.906q0-0.375 0.281-0.781t0.625-0.813 0.625-0.844 0.281-0.938q0-1.063-0.75-1.688t-1.625-0.625q-1 0-1.719 0.625t-0.719 1.688q0 0.5 0.281 0.969t0.594 0.844l0.563 0.813 0.313 0.75q0 0.625-0.344 0.906t-0.844 0.281h-4.75q-0.5 0-0.5 0.438v9q0 0.125 0.125 0.125 0.5 0 0.875-0.281t0.75-0.594 0.781-0.594 1.031-0.281q1.625 0 2.281 0.906t0.656 1.906q0 1.063-0.656 2t-2.281 0.938q-0.563 0-0.969-0.281t-0.781-0.594-0.813-0.594-1-0.281v3.438q0 0.438 0.438 0.438h4.75q1.188 0 1.188 1.188 0 0.375-0.281 0.781t-0.594 0.813-0.594 0.844-0.281 0.938q0 1.063 0.75 1.688t1.75 0.625q0.875 0 1.625-0.625t0.75-1.688q0-0.5-0.281-0.938t-0.625-0.844-0.625-0.781-0.281-0.813q0-0.563 0.375-0.875t0.875-0.313h4.938q0.625 0 0.625-0.438v-8.375q-0.125 0-0.469 0.281t-0.781 0.594-1 0.594-1.125 0.281q-1.313 0-2.438-1z"></path>
</svg>
