<!-- Generated by IcoMoon.io -->
<svg version="1.1" xmlns="http://www.w3.org/2000/svg" width="32" height="32" viewBox="0 0 32 32">
<title>uniE041</title>
<path d="M7.938 25.938q0.188-0.188 0.188 0.125v5.938h-6.125q-0.063 0-0.063-0.063v-0.188l1.625-1.625-1.875-1.875q-1.75-1.75-1.75-3.938 0-2.25 1.75-3.875l1.938-1.875 0.313 0.25q-1.313 1.625-1.313 3.563 0 1.75 1.063 2.938l2.5 2.375zM30.375 3.75q1.75 1.688 1.75 3.938 0 2.313-1.75 3.875l-1.938 1.875-0.313-0.25q1.375-1.563 1.375-3.563 0-1.875-1.125-2.938l-2.5-2.375-1.563 1.563q-0.188 0.125-0.188-0.125v-5.75h5.875q0.375 0 0.125 0.25l-1.625 1.625zM22.125 12h-12v-6h12v6zM12.125 14q0.875 0 1.438 0.563t0.563 1.438-0.563 1.438-1.438 0.563-1.438-0.563-0.563-1.438 0.563-1.438 1.438-0.563zM20.125 14q0.875 0 1.438 0.563t0.563 1.438-0.563 1.438-1.438 0.563q-0.813 0-1.406-0.563t-0.594-1.438 0.594-1.438 1.406-0.563zM12.125 20q0.875 0 1.438 0.563t0.563 1.438-0.563 1.438-1.438 0.563-1.438-0.563-0.563-1.438 0.563-1.438 1.438-0.563zM20.125 20q0.875 0 1.438 0.563t0.563 1.438-0.563 1.438-1.438 0.563q-0.813 0-1.406-0.563t-0.594-1.438 0.594-1.438 1.406-0.563zM22.125 4h-14v20h-2v-20q0-0.875 0.594-1.438t1.406-0.563h14v2zM24.125 8h2v20q0 0.875-0.563 1.438t-1.438 0.563h-14v-2h14v-20z"></path>
</svg>
