<!-- Generated by IcoMoon.io -->
<svg version="1.1" xmlns="http://www.w3.org/2000/svg" width="28" height="32" viewBox="0 0 28 32">
<title>uniE106</title>
<path d="M26 2h2v26q0 0.875-0.594 1.438t-1.406 0.563h-24q-0.875 0-1.438-0.563t-0.563-1.438v-24q0-0.813 0.563-1.406t1.375-0.594h20q0.875 0 1.469 0.594t0.594 1.406v18l-6 6h8v-26zM14 22q0-0.813 0.594-1.406t1.406-0.594h6v-16h-20.063l0.063 24h12v-6zM4.5 10q-0.5 0-0.5-0.5v-3q0-0.5 0.5-0.5h3q0.5 0 0.5 0.5v3q0 0.5-0.5 0.5h-3zM19.5 6q0.5 0 0.5 0.5v3q0 0.5-0.5 0.5h-9q-0.5 0-0.5-0.5v-3q0-0.5 0.5-0.5h9zM18.938 15.938q1 0 1 1 0 0.375-0.281 0.688t-0.719 0.313h-14q-0.375 0-0.688-0.313t-0.313-0.688q0-0.438 0.313-0.719t0.688-0.281h14zM11 20.063q1 0 1 1 0 0.375-0.281 0.688t-0.719 0.313h-6q-0.375 0-0.688-0.313t-0.313-0.688q0-0.438 0.313-0.719t0.688-0.281h6zM11 24q1 0 1 1 0 0.375-0.281 0.688t-0.719 0.313h-6q-0.375 0-0.688-0.313t-0.313-0.688q0-0.438 0.313-0.719t0.688-0.281h6zM18.938 12q1 0 1 1 0 0.375-0.281 0.688t-0.719 0.313h-14q-0.375 0-0.688-0.313t-0.313-0.688q0-0.438 0.313-0.719t0.688-0.281h14z"></path>
</svg>
