<!-- Generated by IcoMoon.io -->
<svg version="1.1" xmlns="http://www.w3.org/2000/svg" width="32" height="32" viewBox="0 0 32 32">
<title>uniE0B7</title>
<path d="M16 0q3.313 0 6.219 1.25t5.094 3.406 3.438 5.094 1.25 6.25-1.25 6.219-3.438 5.094-5.094 3.438-6.219 1.25-6.25-1.25-5.094-3.438-3.406-5.094-1.25-6.219 1.25-6.25 3.406-5.094 5.094-3.406 6.25-1.25zM24 27.438q2.688-1.875 4.344-4.875t1.656-6.563q0-2.875-1.094-5.438t-3-4.469-4.469-3-5.438-1.094q-2.938 0-5.469 1.094t-4.438 3-3 4.469-1.094 5.438h6.938q2.5 0 4.25-1.75t1.75-4.25v-3l-2.313 2.75q-0.313 0.313-0.719 0.313t-0.719-0.313-0.313-0.688 0.313-0.688l3.375-3.813q0.625-0.563 1.438-0.563t1.438 0.563l3.188 3.813q0.313 0.313 0.313 0.688t-0.313 0.688-0.719 0.313-0.719-0.313l-2.25-2.75v3q0 1.688-0.625 3.125t-1.719 2.531-2.563 1.719-3.094 0.625h-6.813l0.438 2q0.688 2.313 2.094 4.188t3.344 3.25v-2.938q0-0.5 0.5-0.5h3q0.5 0 0.5 0.5v4.875q0.5 0.125 1 0.219t1 0.219v-9.313q0-0.5 0.5-0.5h3q0.5 0 0.5 0.5v9.313q0.5-0.125 0.969-0.219t0.969-0.219v-14.875q0-0.5 0.563-0.5h3q0.5 0 0.5 0.5v12.938z"></path>
</svg>
