<!-- Generated by IcoMoon.io -->
<svg version="1.1" xmlns="http://www.w3.org/2000/svg" width="28" height="32" viewBox="0 0 28 32">
<title>uniE046</title>
<path d="M18.313 23.625h-5.938v-2.313l5.938-8.063h2.375v8.063h2.375v2.313h-2.375v2.938h-2.375v-2.938zM14.75 21.313h3.563v-4.75zM8 17.125q-1 0.625-2.313 0.625v-2.375q1 0 1.656-0.594t0.656-1.531h2.375v13.5h-2.375v-9.625zM26 2q0.875 0 1.438 0.594t0.563 1.406v26q0 0.875-0.563 1.438t-1.438 0.563h-24q-0.875 0-1.438-0.563t-0.563-1.438v-26q0-0.813 0.563-1.406t1.438-0.594h4v-2h2v2h12v-2h2v2h4zM20 6h2v-2h-2v2zM6 6h2v-2h-2v2zM26 8h-24v22h24v-22z"></path>
</svg>
