<!-- Generated by IcoMoon.io -->
<svg version="1.1" xmlns="http://www.w3.org/2000/svg" width="28" height="32" viewBox="0 0 28 32">
<title>uniE0E4</title>
<path d="M27.5 25.625q0.25 0.438 0.344 0.813t0.156 0.75v0.25q0 1.25-0.969 1.906t-2.094 0.656h-15.938q-1.063 0-2.031-0.688t-0.969-1.938q-0.063-0.5 0.094-0.875t0.406-0.875l8-14q0.938-1.625 2.5-1.625t2.5 1.625zM26 27.25q-0.063-0.125-0.094-0.281t-0.156-0.406l-8-13.938q-0.25-0.5-0.438-0.563t-0.313-0.063-0.313 0.063-0.5 0.563l-7.938 13.938q-0.25 0.5-0.25 0.688v0.125q0 0.375 0.406 0.5t0.594 0.125h15.938q0.25 0 0.5-0.063 0.188-0.063 0.375-0.156t0.188-0.344v-0.188zM17 22.313q-0.313 0-0.5-0.188t-0.313-1.063l-0.313-4.063q0-0.625 0.344-0.906t0.75-0.281 0.75 0.281 0.344 0.906l-0.25 4.063q-0.125 0.875-0.313 1.063t-0.5 0.188zM17 23.938q1.125 0 1.125 1.125 0 0.5-0.313 0.813t-0.813 0.313-0.813-0.313-0.313-0.813 0.313-0.813 0.813-0.313zM9 10q1 0 1 1 0 0.375-0.281 0.688t-0.719 0.313h-8q-0.375 0-0.688-0.313t-0.313-0.688q0-0.438 0.313-0.719t0.688-0.281h8zM9 6q1 0 1 1 0 0.375-0.281 0.688t-0.719 0.313h-8q-0.375 0-0.688-0.313t-0.313-0.688q0-0.438 0.313-0.719t0.688-0.281h8zM9 2q1 0 1 1 0 0.375-0.281 0.688t-0.719 0.313h-8q-0.375 0-0.688-0.313t-0.313-0.688q0-0.438 0.313-0.719t0.688-0.281h8z"></path>
</svg>
