<!-- Generated by IcoMoon.io -->
<svg version="1.1" xmlns="http://www.w3.org/2000/svg" width="32" height="32" viewBox="0 0 32 32">
<title>uniE0F3</title>
<path d="M19.313 15q0.938 1.125 0.938 2.813 0 2-1.219 3.25t-3.156 1.563v1.938h-1.5v-1.875q-2.188-0.313-3.188-1.531t-1.25-3.031l2.75-0.313q0.375 1.75 1.688 2.313v-4.375q-4-1.25-4-4.625 0-1.75 1.094-2.969t2.906-1.406v-1.25h1.5v1.25q1.813 0.313 2.719 1.281t1.219 2.406l-2.688 0.375q-0.188-1.313-1.25-1.688v4.125q2.5 0.625 3.438 1.75zM14.375 9.063q-1.375 0.438-1.375 1.875 0 1.25 1.375 1.813v-3.688zM17.188 19.563q0.5-0.688 0.5-1.375 0-0.625-0.375-1.156t-1.438-0.844v4.125q0.75-0.188 1.313-0.75zM15.188 27.125v2.5q-3.125 0-5.875-1.188t-4.813-3.219-3.25-4.75-1.188-5.844q0-3.188 1.188-5.938t3.25-4.813 4.844-3.25 5.969-1.188q3.063 0 5.813 1.188t4.781 3.25 3.219 4.813 1.188 5.813h-2.5q0-2.625-1-4.938t-2.719-4-4-2.688-4.781-1q-2.625 0-4.938 1t-4.031 2.719-2.719 4.063-1 4.969q0 2.563 1 4.844t2.688 3.969 3.969 2.688 4.906 1zM32 20.938l-2-2-3.938 4-4.063-4-2 2 4.063 3.938-4.063 4.063 2 2 4.063-4.063 3.938 4.063 2-2-4.063-4.063z"></path>
</svg>
