<!-- Generated by IcoMoon.io -->
<svg version="1.1" xmlns="http://www.w3.org/2000/svg" width="32" height="32" viewBox="0 0 32 32">
<title>uniE149</title>
<path d="M8 24q6 0 6 6v2h-14v-2q0-6 6-6h2zM12 30q0-2.188-0.75-3.094t-3.25-0.906h-2q-2.5 0-3.25 0.906t-0.75 3.094h10zM12 19q0 2.063-1.469 3.531t-3.531 1.469-3.531-1.469-1.469-3.531q0-2.125 1.469-3.563t3.531-1.438 3.531 1.438 1.469 3.563zM7 22q1.25 0 2.125-0.875t0.875-2.125-0.875-2.125-2.125-0.875-2.125 0.875-0.875 2.125 0.875 2.125 2.125 0.875zM16 22q0-2.938 0.406-4.563t1.156-2.375 1.875-0.906 2.563-0.156q1.5 0 2.625 0.125t1.875 0.875 1.125 2.375 0.375 4.625h-12zM26 10q0 1.625-1.156 2.813t-2.844 1.188q-1.625 0-2.813-1.188t-1.188-2.813q0-1.688 1.188-2.844t2.813-1.156q1.688 0 2.844 1.156t1.156 2.844zM30 2q0.875 0 1.438 0.563t0.563 1.438v20q0 0.813-0.563 1.406t-1.438 0.594h-14v-2h14v-20h-28v8h-2v-8q0-0.875 0.594-1.438t1.406-0.563h28zM11 10q1 0 1 1 0 0.375-0.281 0.688t-0.719 0.313h-6q-0.375 0-0.688-0.313t-0.313-0.688q0-0.438 0.313-0.719t0.688-0.281h6zM11 6q1 0 1 1 0 0.375-0.281 0.688t-0.719 0.313h-6q-0.375 0-0.688-0.313t-0.313-0.688q0-0.438 0.313-0.719t0.688-0.281h6z"></path>
</svg>
