<!-- Generated by IcoMoon.io -->
<svg version="1.1" xmlns="http://www.w3.org/2000/svg" width="28" height="32" viewBox="0 0 28 32">
<title>uniE090</title>
<path d="M26 2q0.875 0 1.438 0.563t0.563 1.438v24q0 0.813-0.563 1.406t-1.438 0.594h-24q-0.875 0-1.438-0.594t-0.563-1.406v-24q0-0.875 0.563-1.438t1.438-0.563h24zM26 4h-24v24h24v-24zM14 8.438q-1.438 0-2.375 0.906t-1.25 2.344h-3q0-0.875 0.469-1.813t1.313-1.688 2.031-1.219 2.625-0.469q2.688 0 4.281 1.344t1.594 3.469q0 1.375-0.813 2.281t-1.563 1.719q-0.5 0.563-0.938 0.969t-0.719 0.875-0.406 1.094 0 1.75h-3.125q0-1 0.063-1.719t0.281-1.313 0.719-1.156 1.438-1.313l1.25-1.063q0.5-0.313 0.938-1t0.438-1.313q0-0.938-0.906-1.813t-2.344-0.875zM14 22q0.875 0 1.438 0.563t0.563 1.438q0 0.813-0.563 1.406t-1.438 0.594-1.438-0.594-0.563-1.406q0-0.875 0.563-1.438t1.438-0.563z"></path>
</svg>
