<!-- Generated by IcoMoon.io -->
<svg version="1.1" xmlns="http://www.w3.org/2000/svg" width="24" height="32" viewBox="0 0 24 32">
<title>uniE12F</title>
<path d="M20 14q1.625 0 2.813 1.188t1.188 2.813v10q0 1.625-1.188 2.813t-2.813 1.188h-16q-1.688 0-2.844-1.188t-1.156-2.813v-10q0-1.125 0.531-2.031t1.406-1.406v-1.688t0.031-1.75 0.031-1.406v-0.719q0-1.875 0.781-3.5t2.125-2.844 3.188-1.938 3.906-0.719 3.875 0.719 3.188 1.844 2.156 2.563 0.781 2.875h-4q0-0.688-0.469-1.406t-1.281-1.281-1.906-0.938-2.344-0.375q-2.5 0-4.25 1.469t-1.75 3.531q0 0.125-0.031 0.875t-0.031 1.625v1.625t0.063 0.875h14zM22 18q0-0.875-0.594-1.438t-1.406-0.563h-16q-0.875 0-1.438 0.563t-0.563 1.438v10q0 0.813 0.563 1.406t1.438 0.594h16q0.813 0 1.406-0.594t0.594-1.406v-10zM15.063 21.063q0 0.938-0.5 1.719t-1.313 1.094l2.75 4.125h-8l2.688-4.125q-0.813-0.313-1.313-1.094t-0.5-1.719q0-1.25 0.906-2.156t2.219-0.906q1.25 0 2.156 0.906t0.906 2.156z"></path>
</svg>
