<!-- Generated by IcoMoon.io -->
<svg version="1.1" xmlns="http://www.w3.org/2000/svg" width="25" height="32" viewBox="0 0 25 32">
<title>uniE10E</title>
<path d="M24.5 29q0 0.5-0.281 0.875t-0.844 0.438l-19.938 1.625q-0.5 0-0.906-0.281t-0.469-0.844l-1.938-23.25 22.375-1.875zM9.5 17.563h-3.938v5.875h3.938v-5.875zM14.75 15.625h-3.938v7.813h3.938v-7.813zM19.938 13.625h-3.938v9.813h3.938v-9.813zM10.625 1.5q-1.563 0.125-2.406 1.063t-0.906 2.375l-2.25 0.188q0-1.188 0.469-2.25t1.281-1.844 1.875-1.219 2.25-0.438q2.188 0 3.75 1.313t2 3.438l-2.125 0.188q-0.313-1.5-1.375-2.156t-2.563-0.656z"></path>
</svg>
