<!-- Generated by IcoMoon.io -->
<svg version="1.1" xmlns="http://www.w3.org/2000/svg" width="32" height="32" viewBox="0 0 32 32">
<title>uniE107</title>
<path d="M24 18q1.688 0 3.125 0.625t2.531 1.719 1.719 2.563 0.625 3.094v4h-20v-4q0-1.625 0.625-3.094t1.719-2.563 2.563-1.719 3.094-0.625h4zM30 26q0-2.5-1.75-4.25t-4.25-1.75h-4q-2.5 0-4.25 1.75t-1.75 4.25v2h16v-2zM28 12q0 2.5-1.75 4.25t-4.25 1.75-4.25-1.75-1.75-4.25 1.75-4.25 4.25-1.75 4.25 1.75 1.75 4.25zM22 16q1.688 0 2.844-1.188t1.156-2.813-1.156-2.813-2.844-1.188q-1.625 0-2.813 1.188t-1.188 2.813 1.188 2.813 2.813 1.188zM8.188 19.063v-1.375q-1.438-0.188-2.375-1-0.813-0.75-1.125-2.438l2.125-0.25q0.125 0.813 0.438 1.125 0.375 0.375 0.938 0.625v-3.25q-1.813-0.563-2.438-1.375-0.688-0.875-0.688-2.188t0.813-2.188q0.688-0.875 2.313-1.063v-1.625h1.25l-0.063 1.625q1.563 0.313 2.25 0.875 0.688 0.75 1 1.938l-2.063 0.25q-0.188-0.875-1.188-1.313v3.188q2.25 0.563 2.813 1.313 0.75 0.875 0.75 2.063 0 1.375-0.875 2.438-0.813 0.938-2.688 1.25v1.375h-1.188zM9.375 15.875q0.938-0.188 1.25-0.563 0.313-0.438 0.313-1 0-0.313-0.063-0.5t-0.188-0.375q-0.313-0.438-1.313-0.625v3.063zM7.25 9.625q0.125 0.125 0.344 0.281t0.594 0.281v-2.75q-0.688 0.313-0.875 0.563-0.313 0.375-0.281 0.844t0.219 0.781zM10 32h-8q-0.813 0-1.406-0.563t-0.594-1.438v-28q0-0.875 0.594-1.438t1.406-0.563h18q0.875 0 1.438 0.563t0.563 1.438v2h-2v-2h-18v28h8v2zM8.938 22q1 0 1 1 0 0.375-0.281 0.688t-0.719 0.313h-3.938q-0.375 0-0.688-0.313t-0.313-0.688q0-0.438 0.313-0.719t0.688-0.281h3.938zM8.938 26q1 0 1 1 0 0.375-0.281 0.688t-0.719 0.313h-3.938q-0.375 0-0.688-0.313t-0.313-0.688q0-0.438 0.313-0.719t0.688-0.281h3.938z"></path>
</svg>
