<!-- Generated by IcoMoon.io -->
<svg version="1.1" xmlns="http://www.w3.org/2000/svg" width="32" height="32" viewBox="0 0 32 32">
<title>uniE21D</title>
<path d="M28 14q1.813 0.938 2.906 2.688t1.094 3.938q0 1.438-0.531 2.75t-1.719 2.344-3.094 1.656-4.656 0.625h-14q-1.563-0.063-3-0.688t-2.563-1.625-1.781-2.344-0.656-2.781q0-2.438 1.344-4.094t3.594-2.469q-0.5-1.938 0.063-3.719t1.813-3.094 3-2.094 3.563-0.781q1.938 0 3.688 0.938t3 3.125q1.5-0.563 2.688-0.563 1.313 0 2.281 0.563t1.625 1.469 1 2 0.344 2.156zM22 26q3.813 0 5.906-1.406t2.094-3.969q0-1.563-0.781-2.844t-2.156-1.969l-1.063-0.563v-1.25q0-0.625-0.188-1.375t-0.594-1.375-1.031-1.031-1.438-0.406q-1 0-1.938 0.438l-1.625 0.688-0.875-1.563q-1.063-1.875-2.469-2.469t-2.469-0.594q-1.563 0-3.031 0.75t-2.469 2q-0.563 0.688-0.969 1.844t-0.031 2.656l0.438 1.75-1.688 0.625q-1.25 0.438-2.438 1.469t-1.188 3.156q0 1 0.5 1.969t1.344 1.719 1.938 1.25 2.219 0.5h14z"></path>
</svg>
