<!-- Generated by IcoMoon.io -->
<svg version="1.1" xmlns="http://www.w3.org/2000/svg" width="24" height="32" viewBox="0 0 24 32">
<title>uniE0C0</title>
<path d="M22 0q0.875 0 1.438 0.563t0.563 1.438v28q0 0.813-0.563 1.406t-1.438 0.594h-20q-0.875 0-1.438-0.594t-0.563-1.406v-28q0-0.875 0.563-1.438t1.438-0.563h20zM22 2h-20v28h20v-28zM12.813 15.063q2.625 0.563 3.688 1.938t1.063 2.688q0 1.938-1.281 3.344t-3.469 1.531v2.063h-1.563v-2q-1.625-0.063-2.938-1.25t-1.563-3.563l2.563-0.313q0.188 0.875 0.75 1.563t1.188 0.938v-4.563q-2-0.688-3.219-2.031t-1.219-2.781q0-0.75 0.313-1.563t0.906-1.5 1.406-1.156 1.813-0.531v-1.313h1.563v1.313q3.625 0.25 4.375 3.875l-2.25 0.375q-0.125-0.75-0.688-1.25t-1.438-0.563v4.75zM12.813 22.25q0.875-0.25 1.469-0.906t0.594-1.406q0-1.5-2.063-2.188v4.5zM11.25 10.25q-0.688 0.25-1.125 0.813t-0.438 1.188q0 1.25 1.563 2v-4z"></path>
</svg>
