<!-- Generated by IcoMoon.io -->
<svg version="1.1" xmlns="http://www.w3.org/2000/svg" width="32" height="32" viewBox="0 0 32 32">
<title>uniE0EE</title>
<path d="M12 12.438q1.688 0.563 3.125 1.813t2.5 2.813 1.719 3.313 0.656 3.313q0 2.5-0.5 4.125t-1.688 2.563-3.125 1.281-4.75 0.344q-2.563 0-4.438-0.344t-3.094-1.281-1.813-2.531-0.594-4.156q0-1.438 0.469-3.031t1.344-3.094 2.094-2.75 2.656-2q-0.875-1.438-1.563-2.75t-0.688-2.188v-2.031t0.5-0.531q0.375 0 0.625 0.25l0.531 0.531t0.625 0.5 0.781 0.156q0.5-0.063 0.75-0.406t0.75-0.406q0.625-0.063 1.219 0.281t1.031 0.406q0.75-0.188 1.094-0.406t0.531-0.406 0.313-0.344 0.375-0.156q0.5 0 0.5 0.5v2.063q0 0.938-0.531 2.125t-1.406 2.438zM5.438 7.438q0.063 1.25 0.938 2.563t1.625 2.375q0.5-0.188 0.813-0.25t0.875-0.063q0.313 0 0.344-0.063t0.281 0q0.563-0.688 1.313-1.594t1-2.281q-0.313 0.125-0.844 0.344t-0.844 0.281q-0.563 0.063-1-0.281t-0.813-0.656q-0.125-0.125-0.281 0.125t-0.219 0.125q-0.313 0.25-0.594 0.438t-0.781 0.125q-0.75-0.125-1.219-0.594zM16.813 28.563q1.188-1.188 1.188-4.813 0-1.563-0.719-3.281t-1.875-3.125-2.656-2.344-3.063-0.938q-1.625 0-3 0.969t-2.438 2.406-1.656 3.125-0.594 3.125q0 1.875 0.344 3.125t1.219 1.938 2.438 0.969 3.938 0.281q2.813 0 4.469-0.344t2.406-1.094zM9.938 21.563q2.125 0.563 2.625 1.25 0.688 0.75 0.688 2 0 1.438-0.813 2.313-0.875 0.938-2.5 1.125v1.313h-1.125v-1.25q-1.563-0.313-2.25-1-0.875-0.75-1.063-2.313l2-0.188q0.125 0.688 0.375 1.063 0.188 0.188 0.938 0.625v-3.125q-1.75-0.5-2.313-1.313-0.688-0.75-0.688-2.063 0-1.188 0.75-2.063 0.688-0.813 2.25-1v-1.563h1.125v1.563q1.5 0.313 2.063 0.875 0.75 0.688 0.938 1.813l-1.938 0.188q-0.125-0.813-1.063-1.188v2.938zM8.813 18.625q-0.5 0.125-0.875 0.5-0.313 0.375-0.281 0.781t0.219 0.719q0.313 0.313 0.938 0.563v-2.563zM11.063 26.063q0.313-0.313 0.313-1 0-0.5-0.25-0.813-0.25-0.375-1.188-0.563v2.875q0.813-0.063 1.125-0.5zM29.75 2l-8.938 12h-2.938l9-12h2.875zM18.75 8.5q-1.188 0-2.094-0.906t-0.906-3.344q0-1.813 0.563-3.031t2.375-1.219q1.75 0 2.5 1.188t0.75 3.125q0 2.313-0.969 3.25t-2.219 0.938zM17.875 2.5q-0.25 0.438-0.25 1.813 0 0.938 0.25 1.688t0.875 0.75q0.688 0 0.875-0.719t0.188-1.719q0-1.125-0.219-1.813t-0.906-0.688q-0.5 0-0.813 0.688zM31.75 10.5q0.25 0.5 0.25 1.688 0 1.5-0.719 2.906t-2.469 1.406q-0.938 0-1.594-0.438t-1.031-1.063-0.531-1.375-0.156-1.438q0-2.188 1-3.188t2.25-1q0.875 0 1.781 0.563t1.219 1.938zM29.625 14.063q0.25-0.438 0.25-1.875 0-2.438-1.125-2.438-0.625 0-0.875 0.688t-0.25 1.75q0 1.125 0.25 1.813t0.938 0.688q0.563 0 0.813-0.625z"></path>
</svg>
