<!-- Generated by IcoMoon.io -->
<svg version="1.1" xmlns="http://www.w3.org/2000/svg" width="24" height="32" viewBox="0 0 24 32">
<title>uniE232</title>
<path d="M1 6q-1 0-1-1t1-1h22q0.375 0 0.688 0.281t0.313 0.719-0.313 0.719-0.688 0.281h-22zM23 10q0.375 0 0.688 0.281t0.313 0.719-0.313 0.719-0.688 0.281h-22q-1 0-1-1t1-1h22zM23 16q0.375 0 0.688 0.281t0.313 0.719-0.313 0.719-0.688 0.281h-22q-1 0-1-1t1-1h22zM23 22q0.375 0 0.688 0.281t0.313 0.719-0.313 0.719-0.688 0.281h-22q-1 0-1-1t1-1h22zM23 28q0.375 0 0.688 0.281t0.313 0.719-0.313 0.719-0.688 0.281h-22q-1 0-1-1t1-1h22z"></path>
</svg>
