<!-- Generated by IcoMoon.io -->
<svg version="1.1" xmlns="http://www.w3.org/2000/svg" width="28" height="32" viewBox="0 0 28 32">
<title>uniE225</title>
<path d="M0 32v-8h8v8h-8zM2 26v4h4v-4h-4zM0 20v-8h8v8h-8zM2 14v4h4v-4h-4zM0 8.25v-8.188h8v8.188h-8zM2 2.063v4.188h4v-4.188h-4zM27 4.063q1 0 1 1 0 0.375-0.281 0.688t-0.719 0.313h-11.938q-0.375 0-0.688-0.313t-0.313-0.688q0-0.438 0.313-0.719t0.688-0.281h11.938zM27 16q1 0 1 1 0 0.375-0.281 0.688t-0.719 0.313h-11.938q-0.375 0-0.688-0.313t-0.313-0.688q0-0.438 0.313-0.719t0.688-0.281h11.938zM27 28q1 0 1 1 0 0.375-0.281 0.688t-0.719 0.313h-11.938q-0.375 0-0.688-0.313t-0.313-0.688q0-0.438 0.313-0.719t0.688-0.281h11.938z"></path>
</svg>
