<!-- Generated by IcoMoon.io -->
<svg version="1.1" xmlns="http://www.w3.org/2000/svg" width="32" height="32" viewBox="0 0 32 32">
<title>uniE0A3</title>
<path d="M22 22.063h2v7.938q0 0.875-0.563 1.438t-1.438 0.563h-20q-0.875 0-1.438-0.563t-0.563-1.438v-22l8-8h14q0.813 0 1.406 0.563t0.594 1.438h-14v6q0 0.875-0.594 1.438t-1.469 0.563h-5.938v20h20v-7.938zM27 14q1 0 1-1t-1-1h-2.063v-3q0-1-1-1t-1 1v5h4.063zM24 20q1.688 0 3.125-0.625t2.531-1.719 1.719-2.563 0.625-3.094q0-1.688-0.625-3.125t-1.719-2.531-2.531-1.719-3.125-0.625-3.125 0.625-2.531 1.719-1.719 2.531-0.625 3.125q0 1.625 0.625 3.094t1.719 2.563 2.531 1.719 3.125 0.625zM24 6q2.5 0 4.25 1.75t1.75 4.25-1.75 4.25-4.25 1.75-4.25-1.75-1.75-4.25 1.75-4.25 4.25-1.75z"></path>
</svg>
