<!-- Generated by IcoMoon.io -->
<svg version="1.1" xmlns="http://www.w3.org/2000/svg" width="32" height="32" viewBox="0 0 32 32">
<title>uniE13A</title>
<path d="M28 8q1.688 0 2.844 1.188t1.156 2.813v14q0 1.625-1.156 2.813t-2.844 1.188h-24q-1.625 0-2.813-1.188t-1.188-2.813v-14q0-1.625 1.188-2.813t2.813-1.188h6v-2q0-1.625 1.188-2.813t2.813-1.188h4q1.688 0 2.844 1.188t1.156 2.813v2h6zM12 8h8v-2q0-0.875-0.563-1.438t-1.438-0.563h-4q-0.813 0-1.406 0.563t-0.594 1.438v2zM6 28v-18h-2q-0.813 0-1.406 0.563t-0.594 1.438v14q0 0.813 0.594 1.406t1.406 0.594h2zM24 28v-18h-16v18h16zM30 12q0-0.875-0.563-1.438t-1.438-0.563h-2v18h2q0.875 0 1.438-0.594t0.563-1.406v-14z"></path>
</svg>
