<!-- Generated by IcoMoon.io -->
<svg version="1.1" xmlns="http://www.w3.org/2000/svg" width="32" height="32" viewBox="0 0 32 32">
<title>uniE019</title>
<path d="M14 18v-9q0-0.438 0.313-0.719t0.688-0.281q1 0 1 1v7h9q1 0 1 1t-1 1h-11zM20 0.5q4.25 1.063 7.344 4.156t4.156 7.344h-2.063q-1.063-3.375-3.563-5.844t-5.875-3.531v-2.125zM16 30q2.375 0 4.531-0.75t3.906-2.094 3.031-3.156 1.969-4h2.063q-0.688 2.563-2.125 4.781t-3.469 3.813-4.563 2.5-5.344 0.906q-3.313 0-6.219-1.25t-5.094-3.438-3.438-5.094-1.25-6.219q0-2.813 0.906-5.313t2.5-4.531 3.813-3.5 4.781-2.156v2.063q-2.188 0.688-4 1.969t-3.156 3.031-2.094 3.906-0.75 4.531q0 2.938 1.094 5.469t3 4.438 4.469 3 5.438 1.094z"></path>
</svg>
