<!-- Generated by IcoMoon.io -->
<svg version="1.1" xmlns="http://www.w3.org/2000/svg" width="32" height="32" viewBox="0 0 32 32">
<title>uniE070</title>
<path d="M31.75 15.063q0.313 0.313 0.313 0.719t-0.313 0.719-0.719 0.281-0.719-0.344l-14.25-11.938-14.313 11.938q-0.313 0.313-0.688 0.344t-0.688-0.281-0.344-0.719 0.281-0.719l7.5-6.375q1.375-1.188 2.719-2.313t2.406-2.031 1.719-1.469l0.656-0.563q0.313-0.313 0.75-0.313 0.375 0 0.688 0.313l0.656 0.563t1.719 1.469 2.406 2.031 2.781 2.313q3.313 2.813 7.438 6.375zM4.063 17.188q3.25-2.5 5.875-4.563 1.125-0.875 2.188-1.688t1.938-1.469 1.406-1.063 0.594-0.406 0.594 0.406 1.375 1.063 1.906 1.469 2.188 1.688q2.563 2.063 5.938 4.563v10.813q0 0.875-0.594 1.438t-1.406 0.563h-8v-3.938q0-1.5-0.031-2.75t0.031-1.313h-4q-0.063 0.063-0.031 1.281t0.031 2.719v4h-8q-0.875 0-1.438-0.563t-0.563-1.438v-10.813zM26.063 18l-10-7.5-10 7.5v10h6v-6q0-0.563 0.25-1 0.188-0.375 0.594-0.688t1.156-0.313h4q0.75 0 1.156 0.313t0.594 0.688 0.219 0.688l0.031 0.313v6h6v-10z"></path>
</svg>
