<!-- Generated by IcoMoon.io -->
<svg version="1.1" xmlns="http://www.w3.org/2000/svg" width="24" height="32" viewBox="0 0 24 32">
<title>uniE1B8</title>
<path d="M20.625 20.438q0.688-0.563 1.438-0.594t1.375 0.594q0.563 0.563 0.563 1.406t-0.563 1.406l-10 8.063q-0.563 0.625-1.406 0.625t-1.406-0.625l-10-8.188q-0.625-0.563-0.625-1.406t0.625-1.406q0.563-0.625 1.344-0.594t1.469 0.594l7.875 6.063q0.313 0.313 0.719 0.313t0.719-0.313zM19.25 11.313q1.313-1.063 2.375 0 0.5 0.5 0.5 1.156t-0.5 1.156l-8.438 6.813q-0.5 0.5-1.188 0.5t-1.188-0.5l-8.375-6.875q-0.5-0.5-0.5-1.188t0.5-1.188 1.156-0.5 1.219 0.5l6.625 5.125q0.25 0.25 0.594 0.25t0.594-0.25zM18.563 2.563q1.125-0.938 2.063 0 0.438 0.438 0.438 1.031t-0.438 1.031l-7.5 6.063q-0.438 0.5-1.031 0.5t-1.094-0.5l-7.5-6.125q-0.438-0.438-0.438-1.063t0.438-1.063 1.031-0.438 1.094 0.438l5.938 4.563q0.5 0.563 1.063 0z"></path>
</svg>
