<!-- Generated by IcoMoon.io -->
<svg version="1.1" xmlns="http://www.w3.org/2000/svg" width="32" height="32" viewBox="0 0 32 32">
<title>uniE22A</title>
<path d="M22 12q2.063 0 3.875 0.781t3.188 2.156 2.156 3.188 0.781 3.875-0.781 3.875-2.156 3.188-3.188 2.156-3.875 0.781-3.875-0.781-3.188-2.156-2.156-3.188-0.781-3.875 0.781-3.875 2.156-3.188 3.188-2.156 3.875-0.781zM22 30q1.688 0 3.125-0.625t2.531-1.719 1.719-2.531 0.625-3.125-0.625-3.125-1.719-2.531-2.531-1.719-3.125-0.625-3.125 0.625-2.531 1.719-1.719 2.531-0.625 3.125 0.625 3.125 1.719 2.531 2.531 1.719 3.125 0.625zM2 30h8v2h-8q-0.875 0-1.438-0.563t-0.563-1.438v-26q0-0.875 0.563-1.438t1.438-0.563h4v-2h2v2h12v-2h2v2h4q0.875 0 1.438 0.563t0.563 1.438v6h-2v-2h-24v22zM20 6h2v-2h-2v2zM6 6h2v-2h-2v2zM26 22q1 0 1 1 0 0.375-0.281 0.688t-0.719 0.313h-4.063q-0.438 0-0.719-0.313t-0.281-0.688v-4q0-1 1-1t1 1v3h3.063z"></path>
</svg>
