<!-- Generated by IcoMoon.io -->
<svg version="1.1" xmlns="http://www.w3.org/2000/svg" width="32" height="32" viewBox="0 0 32 32">
<title>uniE198</title>
<path d="M31.813 18.125l-7.813 13.875-10.125-5.688h-13.813v-20.375h22.688v7.125zM13.188 14.25l1.688-2.938 2 1.063 1.063-1.938 2.5 1.375v-3.625h-15.813v2.25h-2.25v3.375h2.25v4.563h-2.25v3.375h2.25v2.313h5.75l0.938-1.75-2-1.063 1.625-3 2.063 1.063 2.25-3.938zM24.313 23q0.438-0.625 0.438-1.875 0-1.438-0.969-2.531t-2.781-1.094q-1.375 0-2.531 1.031t-1.156 2.781q0 1.438 1.094 2.531t2.719 1.094q1.125 0 1.844-0.594t1.344-1.344zM22.313 18.938q1.25 0.875 1.25 2.188 0 1.125-0.719 1.844t-1.719 0.719q-1.25 0-1.906-0.75t-0.656-1.813q0-1.188 0.719-1.813t1.719-0.625q0.875 0 1.313 0.25z"></path>
</svg>
