<!-- Generated by IcoMoon.io -->
<svg version="1.1" xmlns="http://www.w3.org/2000/svg" width="32" height="32" viewBox="0 0 32 32">
<title>uniE040</title>
<path d="M32 8.063q0 3.438-0.656 5.656t-1.688 3.531-2.313 1.938-2.5 0.938-2.219 0.531-1.5 0.719q-0.313 0.625-0.625 1.281t-0.625 1.344q0.75 0 1.813 0.938t2 2.063q1.125 1.313 2.25 3h-19.938q1.125-1.688 2.25-3 0.938-1.125 2-2.031t1.938-0.969q-0.313-0.688-0.625-1.344t-0.625-1.281q-0.5-0.5-1.531-0.688t-2.219-0.531-2.469-0.969-2.344-1.938-1.719-3.5-0.656-5.688q0-1 0.563-1.5t1.5-0.5h3.938v-2q0-1 0.563-1.5t1.5-0.5h15.938q2 0 2 2v2h4q2 0 2 2zM25.938 8q-0.063 2.438-0.25 3.969t-0.438 2.5-0.594 1.625-0.719 1.344q1-0.25 2.063-0.563t1.969-1.188 1.469-2.656 0.563-4.969h-1.25q-0.563 0-1.281-0.031t-1.531-0.031zM2 8.063q0 3.188 0.594 4.969t1.469 2.656 1.969 1.188 2.094 0.563q-0.375-0.688-0.719-1.344t-0.625-1.625-0.469-2.5-0.25-3.969q-1.625 0-2.813 0.031t-1.25 0.031zM21.375 28q-0.438-0.563-0.938-1-0.5-0.375-1.094-0.688t-1.344-0.313h-4q-0.688 0-1.313 0.313t-1.125 0.688q-0.563 0.438-1 1h10.813zM17.813 24q0.688-1.813 1.438-3.313t1.375-2.063q0.625-0.625 1.219-1.156t1.063-1.875 0.781-4 0.313-7.531h-16q0 4.875 0.313 7.531t0.813 4 1.094 1.875 1.219 1.156q0.625 0.563 1.375 2.063t1.438 3.313h3.563z"></path>
</svg>
