<!-- Generated by IcoMoon.io -->
<svg version="1.1" xmlns="http://www.w3.org/2000/svg" width="32" height="32" viewBox="0 0 32 32">
<title>uniE01A</title>
<path d="M28.063 17.813q1.375 0 2.625 0.688t1.25 1.625q0 1.438-2.125 1.438-1.125 0-2.594-0.344t-2.469-0.906q-2 0.438-3.594 0.813t-2.656 0.688q-2.063 3.188-3.375 3.188l-0.438-0.063q-1.313-0.438-1.313-1.625 0-1.063 1.875-2.313l1.938-0.75q1.75-2.813 2.625-5.563-0.438-0.438-0.563-1.375t-0.125-1.563q0-1.375 0.438-2.344t1.313-0.969q0.688 0 1.094 0.75t0.406 2.25q0 0.625-0.094 1.375t-0.344 1.625q1.625 3 3.125 3.938l1.938-0.438q0.625-0.125 1.063-0.125zM22.688 18.875q-0.875-0.813-1.5-1.875l-1.313 2.5zM24 27v3q0 0.875-0.563 1.438t-1.438 0.563h-20q-0.875 0-1.438-0.563t-0.563-1.438v-22l8-8h14q0.813 0 1.406 0.563t0.594 1.438v4h-2v-4h-12v6q0 0.875-0.594 1.438t-1.469 0.563h-5.938v20h20v-3h2z"></path>
</svg>
