<!-- Generated by IcoMoon.io -->
<svg version="1.1" xmlns="http://www.w3.org/2000/svg" width="32" height="32" viewBox="0 0 32 32">
<title>uniE150</title>
<path d="M32 0v30q0 0.813-0.594 1.406t-1.406 0.594h-14q-0.875 0-1.438-0.594t-0.563-1.406v-23.063q0.063-1.75-0.313-3.125-0.313-1.188-1.156-2.156t-2.531-0.969q-0.25 0.063 0.156-0.313t2.156-0.375q1.375 0 2.094 0.938t1.063 2.063 0.438 2.063l0.094 0.938v4h6v2h-6v4h6v2h-6v4h6v2h-6v6h14v-30h2zM5.688 4.188q-0.688-0.688-1.375 0-0.313 0.313-0.313 0.719t0.313 0.719l4.688 4.25h-8q-1 0-1 1t1 1h8l-4.688 4.313q-0.313 0.313-0.313 0.719t0.313 0.719 0.688 0.313 0.688-0.313l5.75-5.375q0.563-0.625 0.563-1.438t-0.563-1.438z"></path>
</svg>
