<!-- Generated by IcoMoon.io -->
<svg version="1.1" xmlns="http://www.w3.org/2000/svg" width="32" height="32" viewBox="0 0 32 32">
<title>uniE220</title>
<path d="M14.688 23h2.813l-5.375 5.438q-0.813 0.813-1.844 1.188t-2.094 0.375-2.063-0.375-1.813-1.188l-0.688-0.75q-1.625-1.625-1.625-3.875t1.625-3.875l4.375-4.438v2.875l-2.938 2.938q-1.063 1.063-1.063 2.5t1.063 2.5l0.688 0.688q1 1 2.438 1 1.5 0 2.5-1zM27.625 4.313q0.813 0.813 1.219 1.813t0.406 2.063-0.406 2.094-1.219 1.844l-4.625 4.625q-1.563 1.563-3.875 1.563t-3.875-1.563l-0.75-0.75q-0.125-0.125-0.25-0.313l-0.25-0.375 1.313-1.313 1.313 1.313q1 1 2.5 1t2.5-1l4.625-4.625q1-1.063 1-2.469t-1-2.469l-0.75-0.75q-1-1-2.438-1-1.375 0-2.5 1l-2.563 2.563v-2.813l1.125-1.125q1.75-1.625 3.938-1.625 1.063 0 2.063 0.406t1.813 1.219zM11.5 8h-1v-8h1v8zM8 11.5h-8v-1h8v1zM20.5 24h1v8h-1v-8zM32 20.5v1h-8v-1h8z"></path>
</svg>
