<!-- Generated by IcoMoon.io -->
<svg version="1.1" xmlns="http://www.w3.org/2000/svg" width="32" height="32" viewBox="0 0 32 32">
<title>uniE229</title>
<path d="M15.313 11.125l-1.438-1.5q0.063 0 0.125-0.063l8.75-5.125q0.5-0.438 1.25-0.438t1.375 0.563 0.625 1.438v15.75l-2-2v-13.75l-0.125 0.063-0.125 0.125zM18.5 22.75l5.188 5.188q-0.25-0.063-0.469-0.125t-0.469-0.25l-8.75-5.125q-0.313-0.25-1-0.344t-1-0.094h-4q-0.813 0-1.188-0.313t-0.563-0.688q-0.25-0.438-0.25-1v-8q0-0.188 0.063-0.438 0.063-0.188 0.125-0.406t0.25-0.469l1.563 1.563v7.75h4l1.125 0.125q0.5 0.125 1 0.219t0.938 0.406zM32 30.563l-1.438 1.438-30.563-30.563 1.438-1.438z"></path>
</svg>
