<!-- Generated by IcoMoon.io -->
<svg version="1.1" xmlns="http://www.w3.org/2000/svg" width="32" height="32" viewBox="0 0 32 32">
<title>uniE02A</title>
<path d="M23 18.625q1.063 1 2.063 2l2 2q0.938 0.938 0.906 2.063t-0.906 2.063q-0.375 0.313-0.719 0.656t-0.656 0.719q-0.938 1.063-2.094 1.469t-2.406 0.406h-0.5t-0.563-0.063q-2.25-0.25-4.25-1.156t-3.875-2.156q-3.375-2.313-6-5.219t-4.438-6.594q-0.625-1.25-1-2.531t-0.5-2.656q-0.125-1.5 0.219-2.844t1.594-2.406q0.375-0.313 0.719-0.688t0.719-0.75q0.938-0.938 2.063-0.938 0.938 0 1.875 0.813l2.125 2.125t2.125 2.188q0.875 0.875 0.813 1.938t-0.938 1.938q-0.563 0.625-1.125 1.188l-1.188 1.188q3.063 4.5 7.563 7.563 1.188-1.125 2.313-2.313 1.063-0.938 2.063-0.938 1.125 0 2 0.938zM25.625 25.313q0.625-0.625 0-1.25-1-1.063-2-2.063l-2-2q-0.125-0.125-0.281-0.219t-0.344-0.094q-0.375 0-0.625 0.375l-3.5 3.5-1.375-0.938q-2.375-1.75-4.406-3.75t-3.719-4.375l-0.938-1.375 1.938-1.938q0.438-0.375 0.813-0.781t0.813-0.781q0.563-0.625 0.063-1.125-1.063-1.188-2.094-2.219t-2.094-2.031q-0.375-0.25-0.5-0.25-0.375 0-0.625 0.375-0.125 0.125-0.25 0.219t-0.25 0.219q-0.5 0.563-1.063 1.063-0.688 0.688-0.969 1.531t-0.156 2.094q0.188 2 1.313 4.438 3.188 6.563 9.75 11 2 1.375 3.75 2.094t3.5 0.969h0.813q1.813 0 3-1.188 0.25-0.313 0.469-0.563t0.531-0.5zM22.375 0.313q0.313-0.313 0.688-0.313t0.688 0.313 0.313 0.719-0.313 0.719l-4.688 4.25h11.938q1 0 1 1t-1 1h-11.938l4.688 4.313q0.313 0.313 0.313 0.719t-0.313 0.719-0.688 0.313-0.688-0.313l-5.75-5.375q-0.563-0.625-0.563-1.438t0.563-1.438z"></path>
</svg>
