<!-- Generated by IcoMoon.io -->
<svg version="1.1" xmlns="http://www.w3.org/2000/svg" width="32" height="32" viewBox="0 0 32 32">
<title>uniE08C</title>
<path d="M30 4q0.875 0 1.438 0.563t0.563 1.438v20q0 0.813-0.563 1.406t-1.438 0.594h-28q-0.813 0-1.406-0.594t-0.594-1.406v-20q0-0.875 0.594-1.438t1.406-0.563h28zM30 6h-28v20h28v-20zM10 18q2.938 0 4.469 1.313t1.531 4.688h-12q0-3.375 1.531-4.688t4.469-1.313zM14 14q0 1.625-1.188 2.813t-2.813 1.188-2.813-1.188-1.188-2.813q0-1.688 1.188-2.844t2.813-1.156 2.813 1.156 1.188 2.844zM25 14q1 0 1 1 0 0.375-0.281 0.688t-0.719 0.313h-6q-0.375 0-0.688-0.313t-0.313-0.688q0-0.438 0.313-0.719t0.688-0.281h6zM25 10q1 0 1 1 0 0.375-0.281 0.688t-0.719 0.313h-6q-0.375 0-0.688-0.313t-0.313-0.688q0-0.438 0.313-0.719t0.688-0.281h6z"></path>
</svg>
