<!-- Generated by IcoMoon.io -->
<svg version="1.1" xmlns="http://www.w3.org/2000/svg" width="27" height="32" viewBox="0 0 27 32">
<title>uniE238</title>
<path d="M25.375 26.688q1 0.125 1 1 0 0.313-0.094 0.469t-0.156 0.219-0.094 0.063-0.094 0.063q-2.063 1.625-4.594 2.563t-5.344 0.938q-3.313 0-6.219-1.25t-5.094-3.438-3.438-5.094-1.25-6.219 1.25-6.25 3.438-5.094 5.094-3.406 6.219-1.25q2.875 0 5.438 0.938t4.625 2.625l0.188 0.188q0.188 0.188 0.188 0.563 0 0.938-1 1.063-0.188 0-0.438-0.125-0.125-0.063-0.188-0.125-1.813-1.438-4.031-2.281t-4.781-0.844q-2.938 0-5.469 1.094t-4.438 3-3 4.469-1.094 5.438 1.094 5.438 3 4.469 4.438 3 5.469 1.094q2.563 0 4.781-0.844t4.031-2.344q0.063 0 0.188-0.063t0.375-0.063zM16 6q2.063 0 3.875 0.781t3.188 2.125 2.156 3.188 0.781 3.906-0.781 3.875-2.156 3.188-3.188 2.156-3.875 0.781-3.875-0.781-3.188-2.156-2.156-3.188-0.781-3.875 0.781-3.906 2.156-3.188 3.188-2.125 3.875-0.781zM16 24q1.688 0 3.125-0.625t2.531-1.719 1.719-2.563 0.625-3.094q0-1.688-0.625-3.125t-1.719-2.531-2.531-1.719-3.125-0.625-3.125 0.625-2.531 1.719-1.719 2.531-0.625 3.125q0 1.625 0.625 3.094t1.719 2.563 2.531 1.719 3.125 0.625z"></path>
</svg>
