<!-- Generated by IcoMoon.io -->
<svg version="1.1" xmlns="http://www.w3.org/2000/svg" width="32" height="32" viewBox="0 0 32 32">
<title>uniE210</title>
<path d="M30 0q0.875 0 1.438 0.594t0.563 1.406q0 0.875-0.563 1.438t-1.438 0.563h-28q-0.875 0-1.438-0.563t-0.563-1.438q0-0.813 0.563-1.406t1.438-0.594h28zM23.875 14.938q0.688 0.75 0 1.438-0.75 0.688-1.438 0l-5.438-5.438v20.063q0 1-1 1t-1-1v-19.938l-5.313 5.313q-0.313 0.313-0.688 0.313t-0.688-0.313q-0.75-0.688 0-1.438l6.375-6.313q0.563-0.625 1.375-0.625t1.438 0.625z"></path>
</svg>
