<!-- Generated by IcoMoon.io -->
<svg version="1.1" xmlns="http://www.w3.org/2000/svg" width="32" height="32" viewBox="0 0 32 32">
<title>uniE030</title>
<path d="M26 17q0 0.438-0.313 0.719t-0.688 0.281h-11v-9q0-1 1-1 0.375 0 0.688 0.281t0.313 0.719v7h9q0.375 0 0.688 0.281t0.313 0.719zM2 16q0 2.625 0.906 5t2.531 4.219 3.813 3.063 4.75 1.594v2q-3-0.375-5.563-1.75t-4.438-3.5-2.938-4.844-1.063-5.781q0-3.313 1.25-6.219t3.406-5.094 5.094-3.438 6.25-1.25q2.813 0 5.313 0.906t4.531 2.5 3.469 3.813 2.125 4.781h-2.063q-0.625-2.125-1.906-3.969t-3.031-3.188-3.906-2.094-4.531-0.75q-2.938 0-5.469 1.094t-4.438 3-3 4.469-1.094 5.438zM31.5 19.938q-0.875 3.25-2.906 5.813t-4.906 4.188h3.563q0.438 0.063 0.719 0.344t0.219 0.719q0 0.375-0.313 0.656t-0.688 0.219l-5.25 0.063q-0.875-0.125-1.406-0.719t-0.531-1.469l0.5-5.25q0-0.938 1-0.938 0.438 0.063 0.719 0.375t0.219 0.688l-0.313 3.813q2.625-1.25 4.5-3.469t2.75-5.031h2.125z"></path>
</svg>
