<!-- Generated by IcoMoon.io -->
<svg version="1.1" xmlns="http://www.w3.org/2000/svg" width="32" height="32" viewBox="0 0 32 32">
<title>uniE05F</title>
<path d="M24.313 15.625q1.625 0.313 3.031 1.094t2.438 1.875 1.625 2.469 0.469 1.781-0.969 0.156-2.219-0.25q-1.063 0-2 0.5t-1.531 0.375-2.156-0.438v4.875q0 0.813 0.25 1.469t0.938 0.656q0.813 0.063 1.063-0.719t0.438-1.125 0.688-0.344q0.625 0 0.75 0.563t-0.188 1.438q-0.125 0.938-0.844 1.469t-2.031 0.531q-1.063 0-2.063-0.875t-1-3.063v-4.813q-1.563 0.313-2.094 0.406t-1.531-0.375-2.063-0.469q-1.313 0-2.219 0.219t-1-0.219 0.563-1.875 1.781-2.563 2.656-1.875 3.344-1q0.125-0.438 0.531-1.031t1.344-0.594q1.25-0.063 1.594 0.656t0.406 1.094zM28.438 21.188q0.625 0 0.875 0.063-0.875-1.688-2.844-2.781t-4.406-1.094-4.406 1.063-2.906 2.813q0.188-0.063 0.406-0.063h0.406q1.75 0 3.25 0.688 1.5-0.688 3.25-0.688 1.688 0 3.188 0.688 1.5-0.688 3.188-0.688zM6.25 10q-3.25 0-4.75-0.594t-1.5-2.844q0-2.563 1.406-3.469t2.531-0.875 1.313 0.063 1.281-1.125 3.656-1.156q1.688 0 2.844 1.219t1.969 2.906q0.063-0.063 0.188-0.031t0.375-0.031q2.25-0.375 3.344 0.656t1.094 2.656q0 1.563-1.25 2.094t-2.938 0.531h-9.563zM7.813 12h1.438l4.125 4.188q-0.25 0.188-0.75 0.688zM5.125 12l6.313 6.375q-0.125 0.25-0.25 0.469t-0.25 0.469l-7.25-7.313h1.438zM1.5 12l8.813 8.813q-0.125 0.313-0.156 0.563t-0.094 0.563l-10-9.938h1.438z"></path>
</svg>
