<!-- Generated by IcoMoon.io -->
<svg version="1.1" xmlns="http://www.w3.org/2000/svg" width="32" height="32" viewBox="0 0 32 32">
<title>uniE194</title>
<path d="M26 20h2v8q0 0.813-0.563 1.406t-1.438 0.594h-24q-0.813 0-1.406-0.594t-0.594-1.406v-24q0-0.875 0.594-1.438t1.406-0.563h8v2h-8v24h24v-8zM31 0q1 0 1 1t-1 1h-1q-2.5 0-4.688 0.938t-3.813 2.563-2.563 3.813-0.938 4.688v3l4.313-4.75q0.313-0.313 0.719-0.313t0.719 0.313 0.313 0.688-0.313 0.688l-5.25 5.813q-0.625 0.563-1.438 0.563t-1.438-0.563l-5.313-5.813q-0.313-0.313-0.313-0.688t0.313-0.688q0.75-0.688 1.438 0l4.25 4.75v-3q0-2.813 1.063-5.344t2.906-4.406 4.313-3 5.281-1.25h1.438z"></path>
</svg>
