<!-- Generated by IcoMoon.io -->
<svg version="1.1" xmlns="http://www.w3.org/2000/svg" width="32" height="32" viewBox="0 0 32 32">
<title>uniE0E7</title>
<path d="M25.125 9.25l-0.188-0.5 0.313-0.438 0.313 0.5zM27.625 12.688l-0.438-0.5h0.5zM24.313 6.375l0.125 0.5-0.438 0.375-0.688 0.125 0.313-1h0.688zM24.438 11.688l0.688-1.063h1.5v-0.75l0.313-0.25q0.125 0.313 0.25 0.594t0.25 0.656l-0.563 0.5-0.938-0.188-0.313 1zM25.813 9.313l0.563-0.625-0.375-0.125-0.375-0.563 0.188-0.563 1.25 1.313-0.625 0.563h-0.625zM22.5 13.625q0.5-0.125 1.094-0.219t1.531-0.531q0.125 0.125 0.375 0.125 0.125 0 0.344-0.031t0.469-0.031q0.313 0 0.656 0.063t0.656 0.125q0.75 0.313 0.875 1.344t0.125 1.719q0 2.313-0.906 4.281t-1.844 3.781q-0.188 0-0.188-0.438 0-0.563 0.188-1.625t0.188-2.125v-0.5l-0.125-0.563-0.875-1.438-1.375-0.313q-0.25-0.563-0.75-1.188l-0.063-0.063-0.688-0.625zM9.5 5.375q0.5 0 1.156 0.406t1.156 0.406q-0.063 0.063-0.063 0.188 0 0.25 0.188 0.313l-1 2.25 1.25 0.25 1-1 1.75 0.125 0.375 0.938-0.938 1q-0.875 0.188-1.5 0.813-0.5 0.5-0.719 1.219t-0.094 1.406l-0.125-0.063-0.75 0.875 0.625 0.75v0.125q-2.813-0.875-4.938-2.875l0.063-0.688-0.375-1.25-1.125-0.688-0.25-0.688q0-0.375 0.531-1.031t1.25-1.281 1.438-1.063 1.094-0.438zM16.375 9.813v0.5l0.063 0.188q-0.375-0.25-0.688-0.25zM18.188 7.25q-0.5 0-0.75 0.188-0.188-0.188-0.625-0.188-0.125 0-0.156 0.031t-0.156 0.031q0.313-0.563 0.938-1.188 0.75-0.688 1.469-1.188t1.594-1q0.938 0.813 1.5 1.063-0.313 0.125-0.656 0.344t-0.719 0.781l-0.563 1-0.563 0.813-0.563 0.375q-0.313 0-0.531-0.563t-0.219-0.5zM16 0q3.313 0 6.219 1.25t5.094 3.406 3.438 5.094 1.25 6.25-1.25 6.219-3.438 5.094-5.094 3.438-6.219 1.25-6.219-1.25-5.094-3.438-3.438-5.094-1.25-6.219v-0.188q1.125 1.625 2.25 2.813 0.438 2.438 1.688 4.5t3.094 3.594 4.125 2.406 4.844 0.875q2.875 0 5.438-1.094t4.469-3 3-4.469 1.094-5.438-1.094-5.438-3-4.469-4.469-3-5.438-1.094q-4.188 0-7.531 2.156t-5.031 5.719q-0.313-0.5-0.594-1.031t-0.594-1.031q2.125-3.563 5.75-5.688t8-2.125zM18.688 22.188q-3.125 0-5.656-0.281t-4.719-1.25-4.156-2.906-3.906-5.25q0.188-0.688 0.375-1.344t0.5-1.281q1.625 3 3.344 5t3.781 3.188 4.594 1.656 5.844 0.469v-0.188l-4.375-3.875q-0.313-0.375-0.313-0.875t0.313-0.813 0.781-0.313 0.781 0.313l5.563 5q0.688 0.688 0.688 1.625t-0.688 1.625l-5.688 5.313q-0.313 0.313-0.781 0.313t-0.781-0.313q-0.313-0.375-0.313-0.875t0.313-0.813l4.5-4.063v-0.063z"></path>
</svg>
