<!-- Generated by IcoMoon.io -->
<svg version="1.1" xmlns="http://www.w3.org/2000/svg" width="28" height="32" viewBox="0 0 28 32">
<title>uniE1D8</title>
<path d="M27.688 30.313q0.75 0.688 0 1.438-0.313 0.313-0.688 0.313t-0.688-0.313l-5.125-5.125q-1.875 1.375-4.188 1.375-1.438 0-2.719-0.563t-2.219-1.5-1.5-2.219-0.563-2.719 0.563-2.719 1.5-2.219 2.219-1.5 2.719-0.563 2.719 0.563 2.219 1.5 1.5 2.219 0.563 2.719q0 1.188-0.375 2.25t-1.063 1.938zM17 26q2.063 0 3.531-1.469t1.469-3.531-1.469-3.531-3.531-1.469-3.531 1.469-1.469 3.531 1.469 3.531 3.531 1.469zM20 9q0 1-1 1h-14q-1 0-1-1t1-1h14q1 0 1 1zM4 15q0-1 1-1h6.375q-1 0.813-1.875 2h-4.5q-1 0-1-1zM20 30v2h-18q-0.813 0-1.406-0.563t-0.594-1.438v-28q0-0.813 0.594-1.406t1.406-0.594h20q0.875 0 1.438 0.594t0.563 1.406v10h-2v-10h-20v28h18z"></path>
</svg>
