<!-- Generated by IcoMoon.io -->
<svg version="1.1" xmlns="http://www.w3.org/2000/svg" width="32" height="32" viewBox="0 0 32 32">
<title>uniE047</title>
<path d="M31.375 14.625q0.625 0.625 0.625 1.438t-0.625 1.375l-14 12q-0.563 0.625-1.375 0.625t-1.438-0.625q-0.563-0.563-0.563-1.375t0.563-1.438l11.875-9.875q0.688-0.688 0-1.438l-11.813-9.938q-0.563-0.563-0.563-1.406t0.563-1.406q0.625-0.625 1.438-0.625t1.438 0.625zM3.125 29.625h-0.063l-0.5 0.25t-0.563 0.125q-0.875 0-1.438-0.594t-0.563-1.406v-24q0-0.875 0.594-1.438t1.406-0.563q0.563 0 1.063 0.25l16.188 11.938q1 0.625 1 1.75t-1 1.688zM15.25 15.938l-11.25-7.938v16z"></path>
</svg>
