<!-- Generated by IcoMoon.io -->
<svg version="1.1" xmlns="http://www.w3.org/2000/svg" width="30" height="32" viewBox="0 0 30 32">
<title>uniE1d1</title>
<path d="M28 2q0.875 0 1.438 0.594t0.563 1.406v24q0 0.875-0.563 1.438t-1.438 0.563h-16v-2h16v-18h-24v2h-2v-8q0-0.813 0.594-1.406t1.406-0.594h24zM8.063 16q0.875 0.125 1.406 0.719t0.531 1.469l-0.563 5.25q0 0.938-1 0.938-0.438-0.063-0.719-0.375t-0.219-0.688l0.313-3.625q-1.125 0.5-2.188 1.125t-1.875 1.375-1.281 1.688-0.469 2.125q0 1.25 0.375 2t1.031 1.188 1.469 0.594 1.75 0.219h-0.063q1 0 1 1t-1 1l-0.875-0.063q-1.063 0-2.063-0.313t-1.813-1.063-1.313-1.875-0.5-2.688 0.625-2.844 1.563-2.281 1.969-1.688 1.844-1.063q0.125-0.063 0.156-0.063t0.156-0.063l-3.563-0.063q-0.438-0.063-0.719-0.344t-0.219-0.719q0-0.375 0.313-0.656t0.688-0.219h5.25z"></path>
</svg>
