<!-- Generated by IcoMoon.io -->
<svg version="1.1" xmlns="http://www.w3.org/2000/svg" width="28" height="32" viewBox="0 0 28 32">
<title>uniE256</title>
<path d="M27.5 23.188q0.563 1.188 0.5 2.406t-0.688 2.188-1.656 1.594-2.344 0.625h-18.563q-1.313 0-2.344-0.625t-1.656-1.594-0.719-2.188 0.469-2.406l9.313-18.625q0.688-1.25 1.813-1.906t2.375-0.656 2.406 0.656 1.844 1.906zM25.625 26.75q0.813-1.313 0.125-2.625l-9.313-18.625q-0.688-1.5-2.438-1.5-0.75 0-1.406 0.406t-0.969 1.094l-9.313 18.625q-0.688 1.313 0.125 2.625 0.75 1.25 2.313 1.25h18.563q1.563 0 2.313-1.25z"></path>
</svg>
