<!-- Generated by IcoMoon.io -->
<svg version="1.1" xmlns="http://www.w3.org/2000/svg" width="32" height="32" viewBox="0 0 32 32">
<title>uniE12C</title>
<path d="M28 14q1.625 0 2.813 1.188t1.188 2.813v2q0 1.625-1.188 2.813t-2.813 1.188v4q0 0.875-0.594 1.438t-1.406 0.563h-24q-0.875 0-1.438-0.563t-0.563-1.438v-18q0-0.813 0.563-1.406t1.438-0.594h2v-4q0-0.813 0.563-1.406t1.438-0.594h8q0.813 0 1.406 0.594t0.594 1.406h6q0.813 0 1.406 0.594t0.594 1.406v2h2q0.813 0 1.406 0.594t0.594 1.406v4zM16 8h6v-2h-6v2zM6 8h8v-4h-8v4zM26 24h-4q-1.688 0-2.844-1.188t-1.156-2.813v-2q0-1.625 1.156-2.813t2.844-1.188h4v-4h-24v18h24v-4zM30 18q0-0.813-0.594-1.406t-1.406-0.594h-6q-0.875 0-1.438 0.594t-0.563 1.406v2q0 0.875 0.563 1.438t1.438 0.563h6q0.813 0 1.406-0.563t0.594-1.438v-2zM23 18q0.375 0 0.688 0.281t0.313 0.719-0.313 0.719-0.688 0.281q-1 0-1-1t1-1z"></path>
</svg>
