<!-- Generated by IcoMoon.io -->
<svg version="1.1" xmlns="http://www.w3.org/2000/svg" width="32" height="32" viewBox="0 0 32 32">
<title>uniE187</title>
<path d="M6.813 0.063l6.688 3.875v6.875l-6.688 3.938-6.75-4v-6.813zM12.063 4.75l-5.25-3.125-5.313 3.125v5.25l5.313 3.188 5.25-3.188v-5.25zM5.125 5l1.375-2.313 3.375 3.5-1 0.563zM3.25 8.313l0.438 0.563-1.188 0.625zM2.5 5l6.25 3-1.375 4.063zM6.813 17.188l6.688 3.938v6.938l-6.688 3.875-6.75-4v-6.813zM12.063 21.938l-5.25-3.125-5.313 3.125v5.25l5.313 3.125 5.25-3.125v-5.25zM3.875 23l-0.625-0.375 0.875-0.063zM8.625 25.688l-0.625-3.125h2.438l-0.563 3.625zM3.813 26.938l3-6.875 0.625 7.563zM31.813 21.188v6.438l-6.688 4.375-6.688-3.938v-6.875l6.688-3.938zM30.438 22l-5.313-3.125-5.313 3.125v5.313l5.313 3.063 5.313-3.063v-5.313zM24.438 22.125l1.188-1.75 3.438 2.5-1.438 0.875zM22.375 25l0.5 0.875-1.5 0.625zM21.313 21.875l6.375 3-1.375 4.063zM25.125-0.063l6.688 3.938v6.938l-6.688 3.875-6.75-4v-6.813zM30.375 4.688l-5.25-3.125-5.313 3.125v5.25l5.313 3.125 5.25-3.125v-5.25zM22.063 5.75l-0.625-0.375 0.875-0.063zM26.25 7.625v-2.313h2.313l-0.75 3.125zM21.813 8.188l3.188-4.188v5.75z"></path>
</svg>
