<!-- Generated by IcoMoon.io -->
<svg version="1.1" xmlns="http://www.w3.org/2000/svg" width="28" height="32" viewBox="0 0 28 32">
<title>uniE050</title>
<path d="M26 2q0.875 0 1.438 0.563t0.563 1.438v26q0 0.875-0.563 1.438t-1.438 0.563h-24q-0.813 0-1.406-0.563t-0.594-1.438v-26q0-0.875 0.594-1.438t1.406-0.563h4v-2h2v2h12v-2h2v2h4zM20 6h2v-2h-2v2zM6 6h2v-2h-2v2zM26 8h-24v22h24v-22zM6 16q-0.813 0-1.406-0.563t-0.594-1.438 0.594-1.438 1.406-0.563q0.875 0 1.438 0.563t0.563 1.438-0.563 1.438-1.438 0.563zM14 26q-1.625 0-2.813-1.188t-1.188-2.813 1.188-2.813 2.813-1.188q1.688 0 2.844 1.188t1.156 2.813-1.156 2.813-2.844 1.188zM14 20q-0.813 0-1.406 0.563t-0.594 1.438 0.594 1.438 1.406 0.563q0.875 0 1.438-0.563t0.563-1.438-0.563-1.438-1.438-0.563zM14 16q-0.813 0-1.406-0.563t-0.594-1.438 0.594-1.438 1.406-0.563q0.875 0 1.438 0.563t0.563 1.438-0.563 1.438-1.438 0.563zM22 24q-0.813 0-1.406-0.563t-0.594-1.438 0.594-1.438 1.406-0.563q0.875 0 1.438 0.563t0.563 1.438-0.563 1.438-1.438 0.563zM22 16q-0.813 0-1.406-0.563t-0.594-1.438 0.594-1.438 1.406-0.563q0.875 0 1.438 0.563t0.563 1.438-0.563 1.438-1.438 0.563zM6 24q-0.813 0-1.406-0.563t-0.594-1.438 0.594-1.438 1.406-0.563q0.875 0 1.438 0.563t0.563 1.438-0.563 1.438-1.438 0.563z"></path>
</svg>
