<!-- Generated by IcoMoon.io -->
<svg version="1.1" xmlns="http://www.w3.org/2000/svg" width="24" height="32" viewBox="0 0 24 32">
<title>uniE170</title>
<path d="M16.063 22.188q0.688-0.75 1.438 0 0.688 0.688 0 1.375l-4.063 3.813q-0.625 0.563-1.438 0.563t-1.375-0.563l-4.063-3.625q-0.75-0.688 0-1.438 0.688-0.688 1.438 0l3.688 3.313q0.313 0.375 0.688 0zM23 10q0.375 0 0.688 0.281t0.313 0.719-0.313 0.719-0.688 0.281h-22q-1 0-1-1t1-1h22zM23 16q0.375 0 0.688 0.281t0.313 0.719-0.313 0.719-0.688 0.281h-22q-1 0-1-1t1-1h22zM23 4q0.375 0 0.688 0.281t0.313 0.719-0.313 0.719-0.688 0.281h-22q-1 0-1-1t1-1h22z"></path>
</svg>
