<!-- Generated by IcoMoon.io -->
<svg version="1.1" xmlns="http://www.w3.org/2000/svg" width="24" height="32" viewBox="0 0 24 32">
<title>uniE118</title>
<path d="M22 4q0.875 0 1.438 0.563t0.563 1.438v24q0 0.813-0.563 1.406t-1.438 0.594h-20q-0.813 0-1.406-0.594t-0.594-1.406v-24q0-0.875 0.594-1.438t1.406-0.563h4.188q0.313-0.75 0.906-1.313t1.469-0.688q0.5-0.875 1.438-1.438t2-0.563q1.125 0 2.063 0.563t1.438 1.438q0.875 0.125 1.469 0.688t0.844 1.313h4.188zM9 4q-0.375 0-0.688 0.281t-0.313 0.719 0.313 0.719 0.688 0.281h6q1 0 1-1t-1-1h-1q0-0.875-0.563-1.438t-1.438-0.563q-0.813 0-1.406 0.563t-0.594 1.438h-1zM22 6h-4.188q-0.125 0.313-0.25 0.594t-0.375 0.594q-0.625 0.813-1.563 0.813h-7.188q-0.938 0-1.563-0.813-0.25-0.313-0.375-0.594t-0.25-0.594h-4.25v24h20v-24zM9.5 18q0.5 0 0.5 0.5v5q0 0.5-0.5 0.5h-5q-0.5 0-0.5-0.5v-5q0-0.5 0.5-0.5h5zM8.75 19.313h-3.438v3.375h3.438v-3.375zM9.5 10q0.5 0 0.5 0.5v5q0 0.5-0.5 0.5h-5q-0.5 0-0.5-0.5v-5q0-0.5 0.5-0.5h5zM8.75 11.313h-3.438v3.375h3.438v-3.375zM19 20q1 0 1 1 0 0.375-0.281 0.688t-0.719 0.313h-6q-0.375 0-0.688-0.313t-0.313-0.688q0-0.438 0.313-0.719t0.688-0.281h6zM19 12q1 0 1 1 0 0.375-0.281 0.688t-0.719 0.313h-6q-0.375 0-0.688-0.313t-0.313-0.688q0-0.438 0.313-0.719t0.688-0.281h6z"></path>
</svg>
