<!-- Generated by IcoMoon.io -->
<svg version="1.1" xmlns="http://www.w3.org/2000/svg" width="28" height="32" viewBox="0 0 28 32">
<title>uniE089</title>
<path d="M27.438 16.313q0.563 0.625 0.563 1.438t-0.563 1.375l-12 12.313-0.125 0.063q-0.063 0.063-0.094 0.063t-0.094 0.063q-0.125 0.063-0.219 0.125t-0.219 0.125-0.375 0.063q-0.125 0-0.156 0.031t-0.156 0.031q-0.313 0-0.688-0.125-0.125-0.063-0.156-0.094t-0.156-0.094-0.156-0.094-0.156-0.094l-0.063-0.063h-0.063l-11.938-12.313q-0.625-0.563-0.625-1.375t0.625-1.438q0.563-0.563 1.375-0.563t1.438 0.563l8.688 8.813q0-0.125-0.031-0.469t-0.063-1.594-0.031-3.844v-7.219h4l-0.063 13.125 8.688-8.813q0.563-0.563 1.375-0.563t1.438 0.563zM16 2h-4v-2h4v2zM16 6h-4v-2h4v2zM16 10h-4v-2h4v2z"></path>
</svg>
