<!-- Generated by IcoMoon.io -->
<svg version="1.1" xmlns="http://www.w3.org/2000/svg" width="32" height="32" viewBox="0 0 32 32">
<title>uniE1C8</title>
<path d="M16 0q3.313 0 6.219 1.25t5.094 3.438 3.438 5.094 1.25 6.219-1.25 6.219-3.438 5.094-5.094 3.438-6.219 1.25-6.25-1.25-5.094-3.438-3.406-5.094-1.25-6.219 1.25-6.219 3.406-5.094 5.094-3.438 6.25-1.25zM25.313 22.375l-6.125-6.125 5.813-5.813-3.063-3-5.938 5.813-6-5.938-3.063 3.063 5.938 5.875-5.938 5.875 3 3.063 6.063-5.938 6.25 6.125z"></path>
</svg>
