<!-- Generated by IcoMoon.io -->
<svg version="1.1" xmlns="http://www.w3.org/2000/svg" width="32" height="32" viewBox="0 0 32 32">
<title>uniE034</title>
<path d="M32 10v14h-20v-14h20zM30 12h-4v3.938h4v-3.938zM24 15.938v-3.938h-3.938v3.938h3.938zM20.063 17.938v4.063h3.938v-4.063h-3.938zM14 12v3.938h4.063v-3.938h-4.063zM14 22h4.063v-4.063h-4.063v4.063zM30 22v-4.063h-4v4.063h4zM24 26v4q0 0.875-0.563 1.438t-1.438 0.563h-20q-0.875 0-1.438-0.563t-0.563-1.438v-22l8-8h14q0.813 0 1.406 0.563t0.594 1.438v6h-2v-6h-12v6q0 0.875-0.594 1.438t-1.469 0.563h-5.938v20h20v-4h2z"></path>
</svg>
