<!-- Generated by IcoMoon.io -->
<svg version="1.1" xmlns="http://www.w3.org/2000/svg" width="32" height="32" viewBox="0 0 32 32">
<title>uniE247</title>
<path d="M24 26.875l8-6.875v3.25l-8 6.875-8.25-7-5.75 4.438-6.063-3.063-3.938 1.438v-2.563l4.125-1.5 5.875 2.938 6.063-4.625zM23 20q-1.875 0-3.531-0.719t-2.875-1.938-1.906-2.844-0.688-3.5 0.688-3.5 1.906-2.844 2.875-1.938 3.531-0.719 3.5 0.719 2.844 1.938 1.938 2.844 0.719 3.5-0.719 3.5-1.938 2.844-2.844 1.938-3.5 0.719zM23 4q-1.438 0-2.719 0.563t-2.219 1.5-1.5 2.219-0.563 2.719 0.563 2.719 1.5 2.219 2.219 1.5 2.719 0.563 2.719-0.563 2.219-1.5 1.5-2.219 0.563-2.719-0.563-2.719-1.5-2.219-2.219-1.5-2.719-0.563zM26.125 10.75q1 0 1 1 0 0.375-0.281 0.688t-0.719 0.313h-3.188q-0.438 0-0.719-0.313t-0.281-0.688v-4q0-1 1-1t1 1v3h2.188z"></path>
</svg>
