<!-- Generated by IcoMoon.io -->
<svg version="1.1" xmlns="http://www.w3.org/2000/svg" width="28" height="32" viewBox="0 0 28 32">
<title>uniE1B6</title>
<path d="M12 20q1.625 0 3.094 0.625t2.563 1.719 1.719 2.563 0.625 3.094v4h-20v-4q0-1.625 0.625-3.094t1.719-2.563 2.563-1.719 3.094-0.625h4zM18 28q0-2.5-1.75-4.25t-4.25-1.75h-4q-2.5 0-4.25 1.75t-1.75 4.25v2h16v-2zM16 14q0 2.5-1.75 4.25t-4.25 1.75-4.25-1.75-1.75-4.25 1.75-4.25 4.25-1.75 4.25 1.75 1.75 4.25zM10 18q1.625 0 2.813-1.188t1.188-2.813-1.188-2.813-2.813-1.188-2.813 1.188-1.188 2.813 1.188 2.813 2.813 1.188zM26 2q0.875 0 1.438 0.563t0.563 1.438v22q0 0.875-0.563 1.438t-1.438 0.563h-4v-2h4v-22h-20v2h-2v-2q0-0.875 0.563-1.438t1.438-0.563h20z"></path>
</svg>
