<!-- Generated by IcoMoon.io -->
<svg version="1.1" xmlns="http://www.w3.org/2000/svg" width="28" height="32" viewBox="0 0 28 32">
<title>uniE214</title>
<path d="M27.563 2q0.438 0 0.438 0.5v3q0 0.5-0.438 0.5h-7q-0.563 0-0.563-0.5v-3q0-0.5 0.563-0.5h7zM27.563 8q0.438 0 0.438 0.5v3q0 0.5-0.438 0.5h-7q-0.563 0-0.563-0.5v-3q0-0.5 0.563-0.5h7zM27.563 14q0.438 0 0.438 0.5v3q0 0.5-0.438 0.5h-7q-0.563 0-0.563-0.5v-3q0-0.5 0.563-0.5h7zM27.563 20q0.438 0 0.438 0.5v3q0 0.5-0.438 0.5h-7q-0.563 0-0.563-0.5v-3q0-0.5 0.563-0.5h7zM27.563 26q0.438 0 0.438 0.5v3q0 0.5-0.438 0.5h-7q-0.563 0-0.563-0.5v-3q0-0.5 0.563-0.5h7zM17.5 2q0.5 0 0.5 0.5v3q0 0.5-0.5 0.5h-7q-0.5 0-0.5-0.5v-3q0-0.5 0.5-0.5h7zM17.5 8q0.5 0 0.5 0.5v3q0 0.5-0.5 0.5h-7q-0.5 0-0.5-0.5v-3q0-0.5 0.5-0.5h7zM17.5 14q0.5 0 0.5 0.5v3q0 0.5-0.5 0.5h-7q-0.5 0-0.5-0.5v-3q0-0.5 0.5-0.5h7zM17.5 20q0.5 0 0.5 0.5v3q0 0.5-0.5 0.5h-7q-0.5 0-0.5-0.5v-3q0-0.5 0.5-0.5h7zM17.5 26q0.5 0 0.5 0.5v3q0 0.5-0.5 0.5h-7q-0.5 0-0.5-0.5v-3q0-0.5 0.5-0.5h7zM7.5 2q0.5 0 0.5 0.5v3q0 0.5-0.5 0.5h-6.938q-0.563 0-0.563-0.5v-3q0-0.5 0.563-0.5h6.938zM7.5 8q0.5 0 0.5 0.5v3q0 0.5-0.5 0.5h-6.938q-0.563 0-0.563-0.5v-3q0-0.5 0.563-0.5h6.938zM7.5 14q0.5 0 0.5 0.5v3q0 0.5-0.5 0.5h-6.938q-0.563 0-0.563-0.5v-3q0-0.5 0.563-0.5h6.938zM7.5 20q0.5 0 0.5 0.5v3q0 0.5-0.5 0.5h-6.938q-0.563 0-0.563-0.5v-3q0-0.5 0.563-0.5h6.938zM7.5 26q0.5 0 0.5 0.5v3q0 0.5-0.5 0.5h-6.938q-0.563 0-0.563-0.5v-3q0-0.5 0.563-0.5h6.938z"></path>
</svg>
