<!-- Generated by IcoMoon.io -->
<svg version="1.1" xmlns="http://www.w3.org/2000/svg" width="32" height="32" viewBox="0 0 32 32">
<title>uniE222</title>
<path d="M0 12h4v18h-4v-18zM29.313 12q1.188 0 2 1.125t0.438 2.875q-0.5 2.063-1.25 4.844t-1.75 5.25-2.188 4.188-2.563 1.719h-10q-1.25-0.063-2.344-0.469t-1.906-0.969-1.281-1.219-0.469-1.344v-16q0.313-0.625 0.875-1.188t1.156-1.063 1.125-0.938 0.844-0.813q0.25-0.313 0.594-1.281t0.656-2.031q0.375-1.188 0.75-2.688 0.75-1.125 1.688-1.594t2.313-0.406q1.563 0.063 1.781 1.188t0.219 2.813v8h9.313zM24 30q0.875 0 1.594-1.156t1.344-2.844h-2.938v-2h3.563q0.313-1.063 0.563-2.063t0.438-1.938h-4.563v-2h4.938q0.125-0.75 0.188-1.281t0.063-0.719q0-0.563-0.406-1.281t-1.969-0.719h-8.813v-11.156t-0.063-0.844h-0.125q-0.688 0-1.125 0.188t-0.813 0.688q-0.5 1.813-1.125 3.719t-1.125 2.594q-0.313 0.5-0.813 0.875t-1.063 0.875q-0.438 0.375-0.938 0.781t-0.813 0.844v15.438q0.125 0.375 1.188 1.125t2.813 0.875h10z"></path>
</svg>
