<!-- Generated by IcoMoon.io -->
<svg version="1.1" xmlns="http://www.w3.org/2000/svg" width="30" height="32" viewBox="0 0 30 32">
<title>uniE25D</title>
<path d="M2.875 15.938q-0.375 0.063-0.688-0.219t-0.375-0.656q-0.063-0.438 0.219-0.719t0.719-0.344h3.563q-0.063-0.063-0.125-0.094t-0.125-0.094q-0.813-0.375-1.875-1.063t-2-1.656-1.563-2.25-0.625-2.844 0.5-2.719 1.344-1.875 1.844-1.063 2.063-0.344h0.875q0.375 0 0.688 0.281t0.313 0.719q0 1-1 1h0.063q-0.938 0.063-1.781 0.219t-1.5 0.594-1.031 1.188-0.375 2q0 1.188 0.469 2.125t1.281 1.688 1.875 1.344 2.25 1.156l-0.313-3.625q-0.063-0.375 0.219-0.688t0.719-0.375q1 0 1 0.938l0.5 5.25q0 0.875-0.5 1.469t-1.375 0.719zM16 2q2.875 0 5.438 1.094t4.469 3 3 4.469 1.094 5.438-1.094 5.438-3 4.469-4.469 3-5.438 1.094q-2.5 0-4.75-0.844t-4.063-2.344-3.094-3.531-1.781-4.406q0.188 0.063 0.438 0.063l5.5 0.063 0.188-0.063q1.938-0.188 3.281-1.688t1.281-3.5v-0.125l-0.5-5.313q-0.125-1.563-1.25-2.625t-2.75-1.063h-0.625q1.75-1.25 3.813-1.938t4.313-0.688z"></path>
</svg>
