<!-- Generated by IcoMoon.io -->
<svg version="1.1" xmlns="http://www.w3.org/2000/svg" width="32" height="32" viewBox="0 0 32 32">
<title>uniE134</title>
<path d="M5.938 22.125q2.375 0.625 3.281 1.563t0.906 2.375q0 1.813-1.188 2.875t-3 1.375v1.688h-1.5v-1.563q-1.875-0.375-2.875-1.313t-1.313-2.813l2.688-0.25q0.188 1.375 1.5 2.125v-3.813q-2.063-0.688-2.906-1.688t-0.844-2.5q0-3.063 3.75-3.75v-0.875h1.5v0.875q3.375 0.688 3.75 3.25l-2.563 0.375q-0.125-0.625-0.406-0.938t-0.781-0.625v3.625zM4.438 18.5q-0.563 0.25-0.938 0.688t-0.375 0.938q0 1 1.313 1.625v-3.25zM7.125 27.688q0.5-0.5 0.5-1.25 0-0.688-0.406-1.063t-1.281-0.688v3.625q0.938-0.188 1.188-0.625zM26 17q0 1-1 1h-11v-9q0-1 1-1t1 1v7h9q1 0 1 1zM16 0q3.313 0 6.219 1.25t5.094 3.438 3.438 5.094 1.25 6.219q0 3.063-1.094 5.781t-2.969 4.844-4.438 3.5-5.5 1.75v-2q2.5-0.375 4.719-1.594t3.813-3.063 2.531-4.219 0.938-5q0-2.875-1.094-5.438t-3-4.469-4.469-3-5.438-1.094q-2.375 0-4.531 0.75t-3.906 2.094-3.063 3.188-1.938 3.969h-2.063q0.688-2.563 2.156-4.781t3.5-3.813 4.531-2.5 5.313-0.906z"></path>
</svg>
