<!-- Generated by IcoMoon.io -->
<svg version="1.1" xmlns="http://www.w3.org/2000/svg" width="32" height="32" viewBox="0 0 32 32">
<title>uniE064</title>
<path d="M8 11.875q-1.25 0-2.344 0.156t-1.906 0.594-1.281 1.219-0.469 2.031v6.063h6v2h-8v-8.063q0-1.625 0.625-2.781t1.719-1.875 2.531-1.031 3.125-0.313q2.188 0 3.563 0.344t2.438 1.719q-0.438 0.188-1.063 0.438t-0.938 0.563q-0.875-0.625-1.75-0.844t-2.25-0.219zM26 11.938q1.813 0 2.969 0.625t1.844 1.719 0.938 2.531 0.25 3.125v6h-6v-2h4v-4q0-1.25-0.156-2.344t-0.594-1.906-1.219-1.281-2.031-0.469q-1.125 0-1.531 0.188t-0.531 0.5l-1.5-1.5q0.563-0.5 1.5-0.844t2.063-0.344zM7 9.938q-2.125 0-3.563-1.469t-1.438-3.531 1.438-3.531 3.563-1.469q2.063 0 3.531 1.469t1.469 3.531-1.469 3.531-3.531 1.469zM7 1.938q-1.25 0-2.125 0.875t-0.875 2.125 0.875 2.125 2.125 0.875 2.125-0.875 0.875-2.125-0.875-2.125-2.125-0.875zM25 11.938q-2.125 0-3.563-1.469t-1.438-3.531 1.438-3.531 3.563-1.469q2.063 0 3.531 1.469t1.469 3.531-1.469 3.531-3.531 1.469zM25 3.938q-1.25 0-2.125 0.875t-0.875 2.125 0.875 2.125 2.125 0.875 2.125-0.875 0.875-2.125-0.875-2.125-2.125-0.875zM18 23.938q3.313 0 4.656 1.313t1.344 4.688v2h-14v-2q0-3.375 1.313-4.688t4.688-1.313h2zM22 29.938q0-1.25-0.156-2.031t-0.594-1.219-1.219-0.594-2.031-0.156h-2q-1.25 0-2.031 0.156t-1.219 0.594-0.594 1.219-0.156 2.031h10zM22 18.938q0 2.063-1.469 3.531t-3.531 1.469-3.531-1.469-1.469-3.531 1.469-3.531 3.531-1.469 3.531 1.469 1.469 3.531zM17 21.938q1.25 0 2.125-0.875t0.875-2.125-0.875-2.125-2.125-0.875-2.125 0.875-0.875 2.125 0.875 2.125 2.125 0.875z"></path>
</svg>
