<!-- Generated by IcoMoon.io -->
<svg version="1.1" xmlns="http://www.w3.org/2000/svg" width="28" height="32" viewBox="0 0 28 32">
<title>uniE14E</title>
<path d="M0 4q0-0.875 0.594-1.438t1.406-0.563q0.875 0 1.438 0.563t0.563 1.438v24.063q0 0.813-0.563 1.406t-1.438 0.594q-0.813 0-1.406-0.594t-0.594-1.406v-24.063zM17.5 24.625q0.563 0.563 0.563 1.406t-0.563 1.406q-0.625 0.625-1.438 0.625t-1.375-0.625l-8.125-10q-0.563-0.563-0.563-1.406t0.563-1.406l8.25-10q0.563-0.625 1.406-0.625t1.406 0.625q0.625 0.563 0.625 1.406t-0.625 1.406l-6.125 7.875q-0.313 0.313-0.313 0.719t0.313 0.719zM27.313 24.625q0.563 0.563 0.563 1.406t-0.563 1.406q-0.625 0.625-1.438 0.625t-1.438-0.625l-8.063-10q-0.625-0.563-0.625-1.406t0.625-1.406l8.188-10q0.625-0.625 1.438-0.625t1.438 0.625q0.563 0.563 0.563 1.406t-0.563 1.406l-6.125 7.875q-0.313 0.313-0.313 0.719t0.313 0.719z"></path>
</svg>
