<!-- Generated by IcoMoon.io -->
<svg version="1.1" xmlns="http://www.w3.org/2000/svg" width="32" height="32" viewBox="0 0 32 32">
<title>uniE10C</title>
<path d="M23.375 5.375q0-0.063 0.063-0.125t0.25-0.063q0.063 0.063 0.063 0.188v0.188l-1.063 3.5-1.625 4.625-1.5 4.25-0.875 2.313q-1 1.563-2.438 1.563t-2.125-0.969-0.688-2.031q0-0.438 0.313-1.188 0.125-0.25 0.469-0.719t1.031-1.344l2.813-3.625 3.063-3.875zM16 0q3.313 0 6.25 1.25t5.094 3.438 3.406 5.094 1.25 6.219-1.25 6.219-3.406 5.094-5.094 3.438-6.25 1.25-6.219-1.25-5.094-3.438-3.438-5.094-1.25-6.219 1.25-6.219 3.438-5.094 5.094-3.438 6.219-1.25zM28.625 22q1.375-2.875 1.375-6 0-2.875-1.094-5.438t-3-4.469-4.469-3-5.438-1.094-5.438 1.094-4.469 3-3 4.469-1.094 5.438q0 3.125 1.375 6h6.875q0.938 1.438 2.438 2.25t3.313 0.813 3.313-0.813 2.438-2.25h6.875z"></path>
</svg>
