<!-- Generated by IcoMoon.io -->
<svg version="1.1" xmlns="http://www.w3.org/2000/svg" width="32" height="32" viewBox="0 0 32 32">
<title>uniE221</title>
<path d="M32 15.063q0.063 2.188-0.594 3.219t-1.406 1.719q-0.125 0.75-0.313 1.438-0.125 0.625-0.313 1.344t-0.375 1.219q-0.25 0.75-0.75 1.5t-1.094 1.406-1.188 1.188-0.969 0.906q-0.375 0.313-1.063 0.563t-1.188 0.25q-0.875-0.063-1.688 0-0.313 0-0.313 0.25-0.125 0.25-0.313 0.5t-0.438 0.438q-0.125 0.125-0.25 0.188t-0.25 0.188q-0.938 0.625-2 0.625-0.813 0-1.531-0.344t-1.188-0.969-0.656-1.375 0-1.625q0.25-1 0.969-1.688t1.656-0.875q1.625-0.313 2.813 0.563t1.438 2.313q0 0.063 0.063 0.063 0.5 0 0.969 0.031t0.969-0.031q0.25 0 0.375-0.125 0.438-0.25 1.219-0.813t1.531-1.5 1.313-2.344 0.563-3.281h-0.438q-0.188 0-0.313 0.031t-0.25-0.031q-0.25 0-0.5-0.125-0.5-0.25-0.5-0.875v-8q0-0.25 0.125-0.5 0.188-0.438 0.875-0.5-0.375-1.5-1.406-2.938t-2.531-2.563-3.344-1.813-3.719-0.688q-0.25 0-0.469 0.031t-0.531 0.031q-1.75 0-3.406 0.719t-3 1.844-2.281 2.563-1.313 2.813q0.625 0 0.875 0.5 0.125 0.25 0.125 0.5v8q0 0.625-0.5 0.875-0.25 0.125-0.5 0.125h-1q-0.75 0-1.469-0.219t-1.281-0.781-0.906-1.5-0.344-2.438q0-1.313 0.469-2.25t1.031-1.563q0.688-0.688 1.5-1.25 0.063-0.688 0.344-1.469t0.719-1.594q0.688-1.313 1.844-2.563t2.594-2.219 3.094-1.531 3.406-0.563h0.063q0.25 0 0.469-0.031t0.469-0.031q1.875 0 3.688 0.563t3.406 1.5 2.844 2.219 2 2.656q0.5 0.813 0.781 1.594t0.281 1.469q0.813 0.563 1.5 1.25 0.563 0.625 1.031 1.563t0.469 2.25z"></path>
</svg>
