<!-- Generated by IcoMoon.io -->
<svg version="1.1" xmlns="http://www.w3.org/2000/svg" width="32" height="32" viewBox="0 0 32 32">
<title>uniE18A</title>
<path d="M2 11.938h11.813v2h-13.75v-13.938h1.938v11.938zM31.938 12v2h-13.938v-14h2.063v12h11.875zM20 30h11.938v2h-13.938v-14h2v12zM2 30h11.813v2h-13.75v-14h1.938v12zM13.125 21.125q0.188 0.188 0.188 0.563 0 0.25-0.125 0.5l-1 1.25-1.188-0.875 1.063-1.313q0.188-0.25 0.563-0.25zM8.125 26.125l1.563-1.875 1.125 0.875-2.875 3.5-2.5-4.438 1.25-0.625zM4.375 22.375l-1.5-2.563-0.125-0.375q0-0.75 0.688-0.75 0.313 0 0.688 0.375l1.5 2.625zM2.875 24.313q-0.063-0.063-0.063-0.25 0-0.5 0.375-0.688l4.938-2.5 5 3.688q0.25 0.313 0.25 0.625 0 0.688-0.75 0.688-0.063 0-0.438-0.125l-4.188-3.25-4.188 2.125q-0.375 0.125-0.313 0.125-0.438 0-0.625-0.438zM27.313 7.813l0.5-0.813 1.375 0.438-1.813 3-1.5-2.125 1.125-0.938zM30.313 5.563l-1.375-0.5 1.25-2q0.25-0.375 0.625-0.375 0.688 0 0.688 0.688 0 0.25-0.125 0.375zM21.063 1.563q-0.125-0.375-0.125-0.438 0-0.688 0.688-0.688 0.313 0 0.625 0.25l3.5 4.875-1.125 1zM21.625 11q-0.688 0-0.688-0.688 0-0.375 0.25-0.625l6-4.813 3.813 1.313q0.25 0.063 0.344 0.25t0.094 0.375q0 0.75-0.625 0.75-0.188 0-0.25-0.063l-3.063-1-5.375 4.313q-0.313 0.188-0.5 0.188zM20.938 24.938q0.125-0.188 0.313-0.375t0.5-0.188l1.25 0.313-0.875 1.25-0.625-0.125q-0.563-0.063-0.563-0.875zM31.188 21.125q0.313 0.188 0.313 0.625l-0.125 0.375-0.75 1-0.938-1.188 0.5-0.688q0.25-0.25 0.563-0.25 0.063 0 0.438 0.125zM27.188 25.5l1.25-1.75 0.938 1.188-1.563 2.188-3.375-0.688 0.938-1.25zM27.313 19.375l4.063 5.313q0.125 0.375 0.125 0.438 0 0.25-0.156 0.5t-0.531 0.25q-0.313 0-0.625-0.313l-2.813-3.813-5.125 7.063q-0.188 0.25-0.563 0.25-0.75 0-0.75-0.688 0-0.063 0.125-0.438zM13.688 1.625q0.813 0 0.813 0.688 0 0.188-0.156 0.406t-0.406 0.281l-5.438 1.063-1.438 2-0.938-1.188 1.563-2.063zM2.875 10.625q-0.313-0.188-0.313-0.563 0-0.063 0.125-0.438l2.125-2.938 0.938 1.125-1.875 2.625q-0.188 0.313-0.625 0.313-0.25 0-0.375-0.125zM14.188 4q0.313 0.188 0.313 0.563 0 0.063-0.125 0.438l-5.188 6.438-6.25-7.563q-0.188-0.188-0.188-0.438 0-0.313 0.188-0.531t0.563-0.219 0.563 0.313l5.125 6.125 4.063-5q0.188-0.25 0.563-0.25 0.25 0 0.375 0.125z"></path>
</svg>
