<!-- Generated by IcoMoon.io -->
<svg version="1.1" xmlns="http://www.w3.org/2000/svg" width="32" height="32" viewBox="0 0 32 32">
<title>uniE1FE</title>
<path d="M16 0q3.313 0 6.25 1.25t5.094 3.406 3.406 5.094 1.25 6.25-1.25 6.219-3.406 5.094-5.094 3.438-6.25 1.25-6.219-1.25-5.094-3.438-3.438-5.094-1.25-6.219 1.25-6.25 3.438-5.094 5.094-3.406 6.219-1.25zM16 30q2.875 0 5.438-1.094t4.469-3 3-4.469 1.094-5.438-1.094-5.438-3-4.469-4.469-3-5.438-1.094-5.438 1.094-4.469 3-3 4.469-1.094 5.438 1.094 5.438 3 4.469 4.469 3 5.438 1.094zM22.188 14.313q0.688-0.75 1.438 0 0.313 0.313 0.313 0.688t-0.313 0.688l-6.188 5.75q-0.625 0.563-1.438 0.563t-1.375-0.563l-6.313-5.75q-0.313-0.313-0.313-0.719t0.313-0.719 0.719-0.313 0.719 0.313l5.938 5.438q0.313 0.375 0.688 0z"></path>
</svg>
