<!-- Generated by IcoMoon.io -->
<svg version="1.1" xmlns="http://www.w3.org/2000/svg" width="28" height="32" viewBox="0 0 28 32">
<title>uniE20B</title>
<path d="M28 28.75l-1.125 1.25-7.938-7.875 0.125-0.125-1.188 1.125q-1.688 1.563-3.563 1.563-2 0-3.5-1.563l-1.625-1.625-2.875-2.75q-1.625-1.625-1.625-3.719t1.625-3.656l0.75-0.813-7.063-7.188 1.313-1.375 7.063 7.188 0.813-0.813q0.688-0.813 1.625-1.188t1.938-0.375q2.063 0 3.75 1.563l2.813 3v0.063l1.625 1.625q1.563 1.438 1.563 3.531t-1.563 3.531l-0.75 0.75zM6.688 15q0 1.313 1 2.313l1.438 1.438 7.375-7.375-1.5-1.625q-0.938-0.938-2.25-0.938t-2.063 0.875l-2.938 3.125q-1.063 0.875-1.063 2.188zM19.563 18.688q0.938-0.813 0.938-2.063t-0.875-2.125l-1.75-1.688-7.25 7.313 1.563 1.563h0.063l0.063 0.063q0.813 0.938 2 0.938 1.125 0 2.125-1z"></path>
</svg>
