<!-- Generated by IcoMoon.io -->
<svg version="1.1" xmlns="http://www.w3.org/2000/svg" width="32" height="32" viewBox="0 0 32 32">
<title>uniE012</title>
<path d="M15 30q2.313 0 4.375-0.75t3.719-2.094 2.844-3.156 1.688-4h2.063q-0.5 2.563-1.844 4.781t-3.281 3.813-4.406 2.5-5.156 0.906q-3.125 0-5.844-1.188t-4.75-3.219-3.219-4.75-1.188-5.844q0-2.688 0.906-5.125t2.531-4.375 3.813-3.281 4.75-1.844v2q-2.125 0.5-3.969 1.688t-3.188 2.844-2.094 3.719-0.75 4.375q0 2.688 1.031 5.063t2.813 4.125 4.125 2.781 5.031 1.031zM14 18v-9q0-0.438 0.313-0.719t0.688-0.281q1 0 1 1v7h9q1 0 1 1t-1 1h-11zM20.938 14l1.625-4.938-4.188-3.063h5.188l1.625-4.938 1.625 4.938h5.188l-4.25 3.063 1.625 4.938-4.188-3.063z"></path>
</svg>
