<!-- Generated by IcoMoon.io -->
<svg version="1.1" xmlns="http://www.w3.org/2000/svg" width="32" height="32" viewBox="0 0 32 32">
<title>uniE0FA</title>
<path d="M12 16v2h-2v-2h2zM12 18h2v2h-2v-2zM16 16v2h-2v-2h2zM16 18h2v2h-2v-2zM18 16h2v2h-2v-2zM24 12q1.063 0 2.438 0.625t2.625 1.719 2.094 2.563 0.844 3.094v4h-4.125q-0.313 1.75-1.688 2.875t-3.188 1.125-3.188-1.125-1.75-2.875h-6.188q-0.313 1.75-1.688 2.875t-3.188 1.125-3.188-1.125-1.75-2.875h-2.063v-6.531t0.063-0.531q0.063-0.063 0.063-0.313l0.125-0.375t0.125-0.313 0.063-0.188 0.063-0.125q0.125-0.188 0.188-0.406t0.188-0.344q0.25-0.375 0.375-0.5 0.063-0.063 0.094-0.125t0.094-0.125q0.75-0.813 1.75-1.375 0.813-1.25 1.719-2.469t1.813-2.156 1.75-1.531 1.531-0.594h4v-1q0-1 1-1h2q0.375 0 0.688 0.281t0.313 0.719v1h0.063q1 0 1.625 0.281t1.125 1 1.031 1.875 1.406 2.844h0.75zM10 8q-0.375 0-0.844 0.375t-1 0.969-1.063 1.313-0.969 1.344h14.875q-0.563-1.188-0.844-1.969t-0.531-1.25-0.531-0.625-0.844-0.156h-8.25zM10.438 23l-0.063-0.688q-0.25-1.25-1.188-2.031t-2.188-0.781-2.219 0.781-1.219 2.031q-0.063 0.125-0.063 0.25v0.875q0 0.125 0.063 0.25 0.25 1.25 1.219 2.031t2.219 0.781 2.188-0.781 1.188-2.031zM26.438 23l-0.063-0.688q-0.25-1.25-1.188-2.031t-2.188-0.781-2.219 0.781-1.219 2.031l-0.063 0.688 0.063 0.688q0.25 1.25 1.219 2.031t2.219 0.781 2.188-0.781 1.188-2.031zM30 20q0-1.25-0.656-2.344t-1.719-1.906-2.375-1.281-2.625-0.469h-16.625q-1.688 0-2.844 1.188t-1.156 2.813v4h0.063q0.375-1.688 1.75-2.844t3.188-1.156 3.188 1.156 1.688 2.844h6.188q0.375-1.688 1.75-2.844t3.188-1.156 3.188 1.156 1.688 2.844h2.125v-2z"></path>
</svg>
