<!-- Generated by IcoMoon.io -->
<svg version="1.1" xmlns="http://www.w3.org/2000/svg" width="30" height="32" viewBox="0 0 30 32">
<title>uniE25C</title>
<path d="M16 2q2.875 0 5.438 1.094t4.469 3 3 4.469 1.094 5.438-1.094 5.438-3 4.469-4.469 3-5.438 1.094q-2.5 0-4.75-0.844t-4.063-2.344-3.094-3.531-1.781-4.406q0.188 0.063 0.438 0.063h1.688q0.5 1.938 1.594 3.594t2.594 2.875 3.406 1.906 3.969 0.688q2.5 0 4.688-0.938t3.813-2.563 2.563-3.813 0.938-4.688-0.938-4.688-2.563-3.813-3.813-2.563-4.688-0.938q-2.813 0-5.313 1.25-0.25-0.125-0.438-0.438t-0.313-0.625q-0.188-0.313-0.25-0.688 1.438-0.688 3.031-1.094t3.281-0.406zM2.813 15.938q-0.313 0.063-0.656-0.219t-0.344-0.656q-0.063-0.438 0.219-0.719t0.719-0.344h3.563q-0.063-0.063-0.125-0.094t-0.125-0.094q-0.875-0.375-1.906-1.063t-1.969-1.656-1.563-2.25-0.625-2.844 0.5-2.688 1.344-1.875 1.844-1.094 2.063-0.344h0.875q0.375 0 0.688 0.281t0.313 0.719q0 1-1 1-0.875 0.063-1.719 0.219t-1.5 0.594-1.031 1.188-0.375 2q0 1.188 0.469 2.125t1.281 1.688 1.875 1.344 2.25 1.156l-0.313-3.625q-0.063-0.375 0.219-0.688t0.719-0.375q1 0 1 0.938l0.5 5.25q0 0.875-0.531 1.469t-1.344 0.719z"></path>
</svg>
