<!-- Generated by IcoMoon.io -->
<svg version="1.1" xmlns="http://www.w3.org/2000/svg" width="32" height="32" viewBox="0 0 32 32">
<title>uniE07B</title>
<path d="M32 2l-8.25 9.938-5.188-5.188 2-2 3.125 3.188 6.313-7.938zM12 20q1.688 0 3.125 0.625t2.531 1.719 1.719 2.531 0.625 3.125v4h-20v-4q0-1.688 0.625-3.125t1.719-2.531 2.563-1.719 3.094-0.625h4zM18 28q0-2.5-1.75-4.25t-4.25-1.75h-4q-2.5 0-4.25 1.75t-1.75 4.25v2h16v-2zM16 14q0 2.5-1.75 4.25t-4.25 1.75-4.25-1.75-1.75-4.25 1.75-4.25 4.25-1.75 4.25 1.75 1.75 4.25zM10 18q1.625 0 2.813-1.188t1.188-2.813q0-1.688-1.188-2.844t-2.813-1.156-2.813 1.156-1.188 2.844q0 1.625 1.188 2.813t2.813 1.188z"></path>
</svg>
