<!-- Generated by IcoMoon.io -->
<svg version="1.1" xmlns="http://www.w3.org/2000/svg" width="32" height="32" viewBox="0 0 32 32">
<title>uniE201</title>
<path d="M16.063 9q0.813 0 1.469 0.5t0.656 1.563l-0.563 5.25-0.125 2.313q-0.125 1.313-1.5 1.313-0.5 0-0.969-0.313t-0.469-1q-0.125-2.375-0.219-3.844t-0.188-2.281-0.156-1.125l-0.063-0.313q0-1.063 0.656-1.563t1.469-0.5zM16.063 21.875q0.875 0 1.438 0.563t0.563 1.438-0.563 1.438-1.438 0.563-1.438-0.563-0.563-1.438 0.563-1.438 1.438-0.563zM31.375 23.313q0.563 1.188 0.688 2.313v0.375q0 1.938-1.438 2.969t-3.125 1.031h-22.875q-0.813 0-1.625-0.281t-1.469-0.781-1.063-1.281-0.406-1.719q-0.063-0.688 0.188-1.313t0.563-1.313l11.563-20.938q1.438-2.438 3.813-2.438 2.313 0 3.688 2.438zM27.313 28q2.688 0 2.688-2 0-0.625-0.5-1.75l-11.25-20.875q-0.375-0.75-0.969-1.094t-1.156-0.344-1.125 0.344-0.938 1.094l-11.375 20.875q-0.438 0.813-0.438 1.75 0 2 2.625 2h22.438z"></path>
</svg>
