<!-- Generated by IcoMoon.io -->
<svg version="1.1" xmlns="http://www.w3.org/2000/svg" width="32" height="32" viewBox="0 0 32 32">
<title>uniE146</title>
<path d="M14 24h2v2h-2v2h-2v-2h-2v-2h2v-2h2v2zM32 4v4h-4v4h-4v-4h-4v-4h4v-4h4v4h4zM12 18q1.625 0 3.094 0.625t2.563 1.719 1.719 2.563 0.625 3.094v6h-20v-6q0-1.625 0.625-3.094t1.719-2.563 2.531-1.719 3.125-0.625h4zM18 26q0-2.5-1.75-4.25t-4.25-1.75h-4q-2.5 0-4.25 1.75t-1.75 4.25v4h16v-4zM16 12q0 2.5-1.75 4.25t-4.25 1.75-4.25-1.75-1.75-4.25q0-1.313 0.531-2.406t1.406-1.969q-0.188-0.125-0.313-0.313l-1.188-1.625-0.125-0.125-0.063-0.125q-0.563-1.063 0.063-2.188 0.813-1.25 2.5-1.25h6.313q1.75 0 2.563 1.25 0.625 1.125 0.063 2.188l-0.063 0.125-0.125 0.125-1.188 1.625q-0.125 0.125-0.156 0.188t-0.156 0.125q0.875 0.875 1.406 1.969t0.531 2.406zM6.813 4q-0.375 0-0.656 0.156t-0.156 0.344l1.313 1.688q0.125 0.313 0.813 0.313h3.75q0.688 0 0.813-0.313l1.25-1.688q0.125-0.188-0.125-0.344t-0.688-0.156h-6.313zM10 16q1.625 0 2.813-1.188t1.188-2.813q0-1.125-0.594-2.063t-1.531-1.438h-3.813q-0.875 0.5-1.469 1.438t-0.594 2.063q0 1.625 1.188 2.813t2.813 1.188z"></path>
</svg>
