<!-- Generated by IcoMoon.io -->
<svg version="1.1" xmlns="http://www.w3.org/2000/svg" width="32" height="32" viewBox="0 0 32 32">
<title>uniE077</title>
<path d="M21.25 18.813l-5.063 3.688-1.938-1.375q-0.25-0.125-0.5 0l-9.563 6.813q-0.313 0.125-0.531-0.063t-0.094-0.5l3.875-10.563q0.25-0.375-0.125-0.5l-7.125-5.563q-0.313-0.188-0.188-0.469t0.438-0.281h9.063q0.25 0 0.375-0.313l3.688-9.438q0.125-0.313 0.406-0.313t0.406 0.313l3.688 9.438q0.125 0.313 0.438 0.313h9.063q0.313 0 0.438 0.281t-0.188 0.469l-7.125 5.563q-0.313 0.125-0.188 0.5zM31 30q1 0 1 1 0 0.375-0.281 0.688t-0.719 0.313h-8q-0.375 0-0.688-0.313t-0.313-0.688q0-0.438 0.313-0.719t0.688-0.281h8zM31 26q1 0 1 1 0 0.375-0.281 0.688t-0.719 0.313h-8q-0.375 0-0.688-0.313t-0.313-0.688q0-0.438 0.313-0.719t0.688-0.281h8zM31 22q1 0 1 1 0 0.375-0.281 0.688t-0.719 0.313h-8q-0.375 0-0.688-0.313t-0.313-0.688q0-0.438 0.313-0.719t0.688-0.281h8z"></path>
</svg>
