<!-- Generated by IcoMoon.io -->
<svg version="1.1" xmlns="http://www.w3.org/2000/svg" width="28" height="32" viewBox="0 0 28 32">
<title>uniE254</title>
<path d="M14 2q2.875 0 5.438 1.094t4.469 3 3 4.469 1.094 5.438-1.094 5.438-3 4.469-4.469 3-5.438 1.094q-2.938 0-5.469-1.094t-4.438-3-3-4.469-1.094-5.438 1.094-5.438 3-4.469 4.438-3 5.469-1.094zM14 28q2.5 0 4.688-0.938t3.813-2.594 2.563-3.844 0.938-4.625q0-2.5-0.938-4.688t-2.563-3.813-3.813-2.563-4.688-0.938-4.688 0.938-3.813 2.563-2.563 3.813-0.938 4.688q0 2.438 0.938 4.625t2.563 3.844 3.813 2.594 4.688 0.938z"></path>
</svg>
