<!-- Generated by IcoMoon.io -->
<svg version="1.1" xmlns="http://www.w3.org/2000/svg" width="28" height="32" viewBox="0 0 28 32">
<title>uniE138</title>
<path d="M27.625 10.813q0.688 0.75 0 1.438-0.313 0.313-0.719 0.313t-0.719-0.313l-2.125-2.125-2.813 2.813 2.125 2.125q0.313 0.313 0.313 0.719t-0.313 0.719-0.719 0.313-0.719-0.313l-0.688-0.688-9.438 9.438q-0.563 0.563-1.375 0.563-0.125 0-0.25-0.063l-3.938-0.625-4.5 4.5q-0.313 0.313-0.719 0.313t-0.719-0.313-0.313-0.719 0.313-0.719l4.5-4.438-0.625-4q-0.188-0.938 0.563-1.563l3.063-3.125 6.375-6.375-0.75-0.688q-0.688-0.688 0-1.438 0.75-0.688 1.438 0l2.125 2.125 2.813-2.813-2.125-2.125q-0.313-0.313-0.313-0.688t0.313-0.688q0.75-0.75 1.438 0l2.125 2.125 4.25 4.188zM19.813 14.375l-4.25-4.25-2.813 2.813 2.125 2.125q0.313 0.313 0.313 0.719t-0.313 0.719-0.719 0.313-0.719-0.313l-2.125-2.125-1.375 1.438 2.125 2.125q0.688 0.688 0 1.375-0.313 0.313-0.719 0.313t-0.719-0.313l-2.125-2.125-2.313 2.375 0.563 3.625 3.688 0.625zM22.625 8.688l-1.375-1.375-2.813 2.813 1.375 1.438z"></path>
</svg>
