<!-- Generated by IcoMoon.io -->
<svg version="1.1" xmlns="http://www.w3.org/2000/svg" width="32" height="32" viewBox="0 0 32 32">
<title>uniE197</title>
<path d="M24 4q1.625 0 3.094 0.625t2.563 1.719 1.719 2.531 0.625 3.125v10q0 0.813-0.594 1.406t-1.406 0.594h-2.125q-0.313 1.688-1.688 2.844t-3.188 1.156-3.188-1.156-1.75-2.844h-4.188q-0.313 1.688-1.688 2.844t-3.188 1.156-3.188-1.156-1.75-2.844h-4.063l1.625-16.438q0.125-1.563 1.281-2.563t2.656-1h18.438zM16 14h6v-8h-6v8zM8 14h6v-8h-6v8zM3.125 14h2.875v-8h-0.438q-0.75 0-1.313 0.594t-0.625 1.406zM9 26q1.25 0 2.125-0.875t0.875-2.125-0.875-2.125-2.125-0.875-2.125 0.875-0.875 2.125 0.875 2.125 2.125 0.875zM23 26q1.25 0 2.125-0.875t0.875-2.125-0.875-2.125-2.125-0.875-2.125 0.875-0.875 2.125 0.875 2.125 2.125 0.875zM30 16h-27.063l-0.688 6h1.813q0.375-1.75 1.75-2.875t3.188-1.125 3.188 1.125 1.688 2.875h4.188q0.375-1.75 1.75-2.875t3.188-1.125 3.188 1.125 1.688 2.875h2.125v-6zM30 12q0-2.5-1.75-4.25t-4.25-1.75v8h6v-2z"></path>
</svg>
