<!-- Generated by IcoMoon.io -->
<svg version="1.1" xmlns="http://www.w3.org/2000/svg" width="27" height="32" viewBox="0 0 27 32">
<title>uniE1A2</title>
<path d="M18.063 6.063v1.938h-2.125v-1.938h2.125zM20 6.063h-1.938v-2.063h1.938v2.063zM18.063 2.063v1.938h-2.125v-1.938h2.125zM20 10h-1.938v-2h1.938v2zM13.438 19.875q0-0.5 0.188-1.313t0.438-1.563l2.063-5.063v-1.938h1.938v1.938h1.875l2.25 6.188 0.375 1.75q0 1.875-1.375 3.25t-3.25 1.375-3.188-1.375-1.313-3.25zM19.563 18.25q-0.688-0.75-1.5-0.75-0.938 0-1.719 0.781t-0.781 1.719q0 0.813 0.719 1.531t1.531 0.719q0.938 0 1.719-0.781t0.781-1.719q0-0.813-0.75-1.5zM20 2.063h-1.938v-2.063h1.938v2.063zM25 0h-2v1.938h2v28.063h-23v-20.063h5.938q0.875 0 1.469-0.563t0.594-1.375v-6.063h4v-1.938h-6l-8 8v22q0 0.813 0.594 1.406t1.406 0.594h23q0.875 0 1.438-0.594t0.563-1.406v-28q0-0.875-0.563-1.438t-1.438-0.563z"></path>
</svg>
