<!-- Generated by IcoMoon.io -->
<svg version="1.1" xmlns="http://www.w3.org/2000/svg" width="24" height="32" viewBox="0 0 24 32">
<title>uniE13B</title>
<path d="M22 0q0.875 0 1.438 0.594t0.563 1.406v28q0 0.875-0.563 1.438t-1.438 0.563h-20q-0.875 0-1.438-0.563t-0.563-1.438v-28q0-0.813 0.563-1.406t1.438-0.594h20zM22 2h-20v28h20v-28zM20 10h-16v-6h16v6zM6 16q-0.875 0-1.438-0.563t-0.563-1.438q0-0.813 0.563-1.406t1.438-0.594 1.438 0.594 0.563 1.406q0 0.875-0.563 1.438t-1.438 0.563zM12 12q0.875 0 1.438 0.594t0.563 1.406q0 0.875-0.563 1.438t-1.438 0.563-1.438-0.563-0.563-1.438q0-0.813 0.563-1.406t1.438-0.594zM18 12q0.875 0 1.438 0.594t0.563 1.406q0 0.875-0.563 1.438t-1.438 0.563-1.438-0.563-0.563-1.438q0-0.813 0.563-1.406t1.438-0.594zM6 22q-0.875 0-1.438-0.563t-0.563-1.438q0-0.813 0.563-1.406t1.438-0.594 1.438 0.594 0.563 1.406q0 0.875-0.563 1.438t-1.438 0.563zM12 18q0.875 0 1.438 0.594t0.563 1.406q0 0.875-0.563 1.438t-1.438 0.563-1.438-0.563-0.563-1.438q0-0.813 0.563-1.406t1.438-0.594zM18 18q0.875 0 1.438 0.594t0.563 1.406q0 0.875-0.563 1.438t-1.438 0.563-1.438-0.563-0.563-1.438q0-0.813 0.563-1.406t1.438-0.594zM6 28q-0.875 0-1.438-0.563t-0.563-1.438q0-0.813 0.563-1.406t1.438-0.594 1.438 0.594 0.563 1.406q0 0.875-0.563 1.438t-1.438 0.563zM12 24q0.875 0 1.438 0.594t0.563 1.406q0 0.875-0.563 1.438t-1.438 0.563-1.438-0.563-0.563-1.438q0-0.813 0.563-1.406t1.438-0.594zM18 24q0.875 0 1.438 0.594t0.563 1.406q0 0.875-0.563 1.438t-1.438 0.563-1.438-0.563-0.563-1.438q0-0.813 0.563-1.406t1.438-0.594z"></path>
</svg>
