<!-- Generated by IcoMoon.io -->
<svg version="1.1" xmlns="http://www.w3.org/2000/svg" width="32" height="32" viewBox="0 0 32 32">
<title>uniE204</title>
<path d="M12.938 22q-0.375 0-0.656-0.25t-0.281-0.688v-10.063q0-0.438 0.281-0.719t0.656-0.281q0.25 0 0.5 0.125l10.063 5.188q0.5 0.313 0.5 0.844t-0.5 0.844l-10.063 4.875q-0.25 0.125-0.5 0.125zM32 16q0 3.125-1.125 5.906t-3.094 4.938-4.656 3.5-5.75 1.594v0.063h-1.375q-6.688-0.313-10.313-3.75t-3.688-10.25h-2l3.125-6 2.875 6h-2q0.063 3.563 1.156 5.813t2.844 3.594 3.969 1.906 4.531 0.688q2.813-0.063 5.281-1.219t4.281-3.031 2.875-4.406 1.063-5.344q0-2.875-1.094-5.438t-3-4.469-4.469-3-5.438-1.094v-2q3.313 0 6.219 1.25t5.094 3.438 3.438 5.094 1.25 6.219z"></path>
</svg>
