<!-- Generated by IcoMoon.io -->
<svg version="1.1" xmlns="http://www.w3.org/2000/svg" width="28" height="32" viewBox="0 0 28 32">
<title>uniE200</title>
<path d="M14.75 7.5q-0.75-0.688-1.438 0l-9.938 9.813q-0.625 0.625-1.438 0.625t-1.375-0.625q-0.625-0.563-0.625-1.375t0.625-1.438l12.063-11.938q0.563-0.563 1.406-0.563t1.406 0.563l12 12q0.625 0.625 0.625 1.438t-0.625 1.438q-0.563 0.563-1.406 0.563t-1.406-0.563zM14.75 19.563q-0.75-0.688-1.438 0l-9.938 9.813q-0.625 0.625-1.438 0.625t-1.375-0.625q-0.625-0.563-0.625-1.375t0.625-1.438l12.063-11.938q0.563-0.563 1.406-0.563t1.406 0.563l12 12q0.625 0.625 0.625 1.438t-0.625 1.438q-0.563 0.563-1.406 0.563t-1.406-0.563z"></path>
</svg>
