<!-- Generated by IcoMoon.io -->
<svg version="1.1" xmlns="http://www.w3.org/2000/svg" width="28" height="32" viewBox="0 0 28 32">
<title>uniE20C</title>
<path d="M26.188 26.938l1.875 1.813-1.188 1.25-2.938-2.688-1.25 1.188q-1.625 1.625-3.563 1.625-2 0-3.438-1.625l-3.125-2.938 10.125-10.125 3.125 3q1.563 1.438 1.563 3.563t-1.563 3.563l-0.5 0.438zM24.375 24.125q0.938-0.813 0.938-2.125t-0.875-2.063l-1.75-1.688-7.25 7.25 1.625 1.563v0.063h0.063q0.875 1 2 1t2.125-1zM12.375 17.5q0.313 0.188 0.313 0.563t-0.313 0.563q-0.313 0.313-0.625 0.313t-0.5-0.313l-2.438-2.438-2.438 2.438-2.875-2.813q-1.625-1.625-1.625-3.688t1.625-3.625l0.938-1-4.438-4.313 1.438-1.188 4.188 4.313 0.75-0.875q1.5-1.563 3.563-1.563 2.188 0 3.75 1.563l2.813 3.063-2.375 2.375 0.75 0.688 1.625 1.688q0.313 0.25 0.313 0.656t-0.313 0.594q-0.25 0.25-0.5 0.25t-0.5-0.25l-2.563-2.438-3.063 3.125 0.688 0.625zM13.75 8.438l-1.5-1.625q-0.938-0.938-2.313-0.938-1.125 0-2.063 0.938l-2.938 3.063q-0.938 0.938-1.063 2.25 0 1.25 1.063 2.313l1.438 1.375z"></path>
</svg>
