<!-- Generated by IcoMoon.io -->
<svg version="1.1" xmlns="http://www.w3.org/2000/svg" width="32" height="32" viewBox="0 0 32 32">
<title>uniE140</title>
<path d="M24 0q0.875 0 1.438 0.563t0.563 1.438v8h-8v2h-2v-2h-6v6h2v2h-2v8h-8q-0.813 0-1.406-0.594t-0.594-1.406v-22q0-0.875 0.594-1.438t1.406-0.563h22zM8 18h-6v6h6v-6zM8 10h-6v6h6v-6zM8 2h-6v6h6v-6zM16 2h-6v6h6v-6zM24 2h-6v6h6v-6zM28.938 23.313q-0.375 1.5-1.063 2.5l2.125 2.25-2.063 2-2.125-2.188q-1.25 0.875-2.625 1.125v3h-2.813v-3q-1.438-0.25-2.438-1.125l-2.25 2.188-1.938-2 2.125-2.25q-0.813-1.125-1.063-2.5h-3.063v-2.813h3.063q0.125-1.25 1.063-2.5l-2.125-2.188 1.938-2.063 2.25 2.188q1.125-0.688 2.438-1.063v-3.063h2.813v3.063q1.313 0.375 2.625 1.063l2.125-2.188 2.063 2.063-2.125 2.188 0.594 1.188t0.469 1.313h3.063v2.813h-3.063zM21.875 27q2.125 0 3.563-1.5t1.438-3.625-1.438-3.5-3.563-1.375-3.563 1.375-1.438 3.5 1.438 3.625 3.563 1.5z"></path>
</svg>
