<!-- Generated by IcoMoon.io -->
<svg version="1.1" xmlns="http://www.w3.org/2000/svg" width="32" height="32" viewBox="0 0 32 32">
<title>uniE19E</title>
<path d="M2 32q-0.875 0-1.438-0.563t-0.563-1.438v-22l8-8h14q0.813 0 1.406 0.563t0.594 1.438v6h-2v-6h-12v6q0 0.875-0.594 1.438t-1.469 0.563h-5.938v20h20v-2h2v2q0 0.875-0.563 1.438t-1.438 0.563h-20zM30 12q0.813 0 1.406 0.563t0.594 1.438v10.875q0 0.875-0.594 1.438t-1.406 0.563q-0.625 0-1-0.313l-5.063-4.25q-0.125 1.563-1.25 2.625t-2.688 1.063h-8q-1.625 0-2.813-1.188t-1.188-2.813v-6q0-1.688 1.188-2.844t2.813-1.156h8q1.625 0 2.813 1.156t1.188 2.844v0.313l5-4.063q0.438-0.25 1-0.25zM22 16q0-0.875-0.563-1.438t-1.438-0.563h-8q-0.875 0-1.438 0.563t-0.563 1.438v6q0 0.813 0.563 1.406t1.438 0.594h8q0.875 0 1.438-0.594t0.563-1.406v-6zM30 14l-6 4.875v0.875l6 5.125v-10.875z"></path>
</svg>
