<!-- Generated by IcoMoon.io -->
<svg version="1.1" xmlns="http://www.w3.org/2000/svg" width="28" height="32" viewBox="0 0 28 32">
<title>uniE1DF</title>
<path d="M16.625 21.438q-0.563-0.563-0.563-1.406t0.563-1.406l4.688-4.625h-11.25q-1.438 0-2.625 0.594t-2.031 1.563-1.219 2.281-0.063 2.75q0.438 2.188 2.188 3.5t3.938 1.313h15.813q0.813 0 1.406 0.594t0.594 1.406q0 0.875-0.594 1.438t-1.406 0.563h-16q-2.188 0-4.125-0.875t-3.313-2.375-2.063-3.5-0.5-4.25q0.188-1.938 1.125-3.594t2.344-2.844 3.219-1.875 3.75-0.688h10.75l-4.625-4.563q-0.625-0.625-0.625-1.438t0.625-1.375q0.563-0.625 1.375-0.625t1.438 0.625l8.063 8q0.5 0.563 0.5 1.406t-0.5 1.406l-8 8q-0.625 0.625-1.438 0.625t-1.438-0.625z"></path>
</svg>
