<!-- Generated by IcoMoon.io -->
<svg version="1.1" xmlns="http://www.w3.org/2000/svg" width="32" height="32" viewBox="0 0 32 32">
<title>uniE218</title>
<path d="M30.875 13.188q1.125 1.438 1.125 3.5 0 1.125-0.438 1.938-0.188 0.5-0.5 0.938l-0.625 0.875q-0.375 0.438-0.656 0.625t-0.781 0.375q-1.188 0.5-2.125 0.5h-0.875v-2h0.875q0.438 0 1.375-0.313 0.313-0.125 0.406-0.188t0.281-0.25q0.25-0.313 0.438-0.625t0.313-0.625l0.125-0.25q0.188-0.375 0.188-1 0-1.5-0.688-2.25-0.563-0.75-1.875-1.125l-2.563-0.688 1.375-2.25q0.25-0.438 0.25-1.125 0-1.563-1.063-2.563-1-1-2.625-1-1.313 0-2.25 0.75l-2.063 1.813-1.063-2.5q-0.813-1.75-2.313-2.75-1.438-1.063-3.625-1.063-0.813 0-2 0.5-1.063 0.5-2.125 1.438-0.688 0.625-1.313 1.938-0.438 0.875-0.438 2.188 0 1.188 0.563 2.125l1.375 2.313-2.625 0.625q-1.375 0.375-2.063 1.25l-0.063 0.063v0.063q-0.813 0.938-0.813 2.25 0 0.563 0.313 1.188 0.063 0.125 0.313 0.5t1.063 1.063q0.125 0.125 0.813 0.313t2.5 0.188v2q-1.438 0-2.688-0.188t-1.938-0.813q-1.5-1.313-1.938-2.25t-0.438-2q0-2.188 1.313-3.625 1.188-1.438 3.125-1.938-0.813-1.375-0.813-3.125 0-1.813 0.625-3.063 0.688-1.5 1.75-2.563 1.125-1.063 2.625-1.75t2.875-0.688q2.813 0 4.75 1.375 2 1.375 3 3.625 1.438-1.25 3.563-1.25 2.438 0 4 1.563 1.688 1.625 1.688 4 0 1.188-0.563 2.125 1.75 0.438 2.938 1.813zM17.5 31.375q-0.625 0.625-1.438 0.625t-1.375-0.625l-6.375-6.313q-0.75-0.75 0-1.438 0.313-0.313 0.688-0.313t0.688 0.313l5.313 5.313v-16.938q0-1 1-1t1 1v17.063l5.438-5.438q0.688-0.688 1.438 0 0.688 0.688 0 1.438z"></path>
</svg>
