<!-- Generated by IcoMoon.io -->
<svg version="1.1" xmlns="http://www.w3.org/2000/svg" width="32" height="32" viewBox="0 0 32 32">
<title>uniE10F</title>
<path d="M12.688 8.438q1.375 0 2.281 0.781t1.031 2.094l1.813 16.063q0.063 0.313-0.125 0.469t-0.438 0.156q-0.188 0-0.438-0.125-0.625-0.563-1.313-1.25t-1.344-1.375-1.219-1.313-0.875-1.063q-0.5-0.625-1-1.344t-0.781-1.688-0.281-2.188 0.563-2.781q0.313-0.938 0.063-1.625t-0.844-1.188-1.406-0.813-1.688-0.563-1.844-0.5-1.844-0.469l-1.5-0.375t-0.75-0.156q-0.875-0.25-0.719-0.719t0.656-0.344q0.375 0.125 0.563 0.125 0.188 0.063 1.125 0.25t2.063 0.406 2.219 0.375 1.719 0.156q0.125 0 0.188-0.063 0.938-0.125 1.688-0.469t2.188-0.469h0.25zM18.563 12.313q-0.5 0.25-0.75-0.219t0.063-0.781q0.125-0.125 1.031-0.969t1.906-1.781q1.125-1.125 2.563-2.375 0.25-0.313 0.656-0.188t0.281 0.5l-0.313 2.25q-0.063 0.625-0.625 1-1.188 0.625-2.188 1.125-0.875 0.5-1.625 0.906t-1 0.531zM31.25 7.313q0.375 0 0.625 0.375t0.125 1.375q-0.25 2.25-1.844 4.531t-3.563 4.188-3.906 3.219-2.875 1.563q-0.5 0.125-0.75 0.125-0.5 0-0.5-0.438l-0.688-7.063q-0.125-0.688 0.938-1.313 0.125-0.063 0.719-0.375t1.469-0.781 1.938-1.031l2.125-1.125q2.5-1.375 5.688-3.063 0.188-0.188 0.5-0.188z"></path>
</svg>
