<!-- Generated by IcoMoon.io -->
<svg version="1.1" xmlns="http://www.w3.org/2000/svg" width="30" height="32" viewBox="0 0 30 32">
<title>uniE116</title>
<path d="M29.688 30.313q0.75 0.688 0 1.438-0.313 0.313-0.688 0.313t-0.688-0.313l-5.688-5.75q-1.188 0.938-2.594 1.469t-3.031 0.531q-1.875 0-3.5-0.688t-2.844-1.906-1.938-2.875-0.719-3.531 0.719-3.5 1.938-2.844 2.844-1.938 3.5-0.719 3.5 0.719 2.844 1.938 1.938 2.844 0.719 3.5q0 1.625-0.531 3.031t-1.469 2.594zM17 26q1.438 0 2.719-0.563t2.219-1.5 1.5-2.219 0.563-2.719-0.563-2.719-1.5-2.219-2.219-1.5-2.719-0.563-2.719 0.563-2.219 1.5-1.5 2.219-0.563 2.719 0.563 2.719 1.5 2.219 2.219 1.5 2.719 0.563zM9 28h0.813t0.813-0.063q1.375 1.063 3.188 1.625-1.063 0.188-2.25 0.313t-2.563 0.125q-1.875 0-3.5-0.219t-2.844-0.625-1.938-0.969-0.719-1.188v-16q0-0.625 0.719-1.156t1.938-0.938 2.844-0.656 3.5-0.25q2.625 0 4.813 0.5-0.875 0.313-1.688 0.688t-1.5 0.875q-0.375 0-0.781-0.031t-0.844-0.031q-2.25 0-3.844 0.344t-2.469 0.656q0.813 0.313 2.313 0.625t3.563 0.375q-0.813 1-1.313 1.938-3.188-0.188-5.25-1.063v2q0.875 0.375 2 0.625t2.5 0.375q-0.125 0.5-0.25 0.969t-0.188 0.969q-2.5-0.313-4.063-0.938v2q1.563 0.625 4.063 0.938 0.063 0.563 0.125 1.063t0.188 1q-1.313-0.125-2.406-0.375t-1.969-0.625v2q2 0.813 4.875 1.063h0.313q0.563 1.125 1.313 2.063-2-0.063-3.656-0.344t-2.844-0.781v2q2 0.813 4.875 1.063h0.063q0.5 0.063 1.031 0.063h1.031zM18.125 8q-1.438-1-3.656-1.438t-4.469-0.5v-1.063q0-0.625 0.719-1.156t1.938-0.938 2.844-0.656 3.5-0.25 3.5 0.25 2.844 0.656 1.938 0.938 0.719 1.156v11q-0.313-0.438-0.563-1-0.313-0.5-0.625-1.063t-0.813-1.25v-1.813q-0.313 0.125-0.594 0.219t-0.594 0.219q-0.438-0.5-0.938-0.875l-1-0.75q0.875-0.125 1.688-0.313t1.438-0.5v-2q-1.25 0.5-3.031 0.813t-3.969 0.313h-0.875zM19 4q-2.25 0-3.844 0.344t-2.469 0.656q0.875 0.375 2.469 0.688t3.844 0.313 3.844-0.313 2.469-0.688q-0.875-0.313-2.469-0.656t-3.844-0.344zM19.875 15.188l-4.188 7.688h-1.063l4.25-7.688h1zM15.813 18.938q-0.438 0.438-1.188 0.438t-1.219-0.438-0.469-1.563q0-1.875 1.625-1.875 1.688 0 1.688 1.875 0 1.125-0.438 1.563zM14.063 17.375q0 0.813 0.156 1.031t0.344 0.219q0.25 0 0.375-0.188 0.125-0.125 0.125-1.063 0-1.125-0.5-1.125t-0.5 1.125zM20 18.75q1.625 0 1.625 1.875 0 1.125-0.469 1.563t-1.156 0.438q-1.625 0-1.625-2 0-1.875 1.625-1.875zM20.313 21.688q0.125-0.375 0.125-1.063 0-1.125-0.438-1.125-0.563 0-0.563 1.125 0 0.625 0.094 0.906t0.469 0.281q0.188 0 0.313-0.125z"></path>
</svg>
