<!-- Generated by IcoMoon.io -->
<svg version="1.1" xmlns="http://www.w3.org/2000/svg" width="33" height="32" viewBox="0 0 33 32">
<title>uniE079</title>
<path d="M22.5 18.313q-0.563 0-0.844 0.375t-0.281 0.813q0 0.5 0.281 0.844t0.844 0.344q0.625 0 0.906-0.344t0.281-0.844q0-0.438-0.281-0.813t-0.906-0.375zM22.5 21.313q0.625 0 0.625 0.5v2.438q0 0.625-0.625 0.625-0.563 0-0.563-0.625v-2.438q0-0.5 0.563-0.5zM26.438 22.688q0.188 0.188 0.188 0.438 0 0.5-0.563 0.5 0.063 0-0.438-0.125l-1.563-1.688q-0.188-0.188-0.188-0.438 0-0.125 0.156-0.344t0.406-0.219q0.188 0 0.375 0.188zM20.25 21q0.125-0.125 0.375-0.125 0.625 0 0.625 0.5 0 0.25-0.188 0.438l-1.563 1.688-0.5 0.125q-0.438 0-0.531-0.219t-0.094-0.344q0-0.188 0.188-0.375zM16.625-0.625q3.375 0 6.406 1.313t5.281 3.563 3.563 5.281 1.313 6.406q0 3.438-1.313 6.438t-3.563 5.25-5.281 3.563-6.406 1.313q-3.438 0-6.469-1.313t-5.281-3.563-3.563-5.25-1.313-6.438q0-3.375 1.313-6.406t3.563-5.281 5.281-3.563 6.469-1.313zM26.563 25.938q2-1.75 3.125-4.531t1.125-5.469q0-2.625-1.031-5.156t-2.906-4.531-4.5-3.25-5.75-1.25q-2 0-3.813 0.531t-3.438 1.406q0.063 0.125 0.063 0.438v14.188q0 0.125 0.094 0.531t0.344 0.813 0.75 0.719 1.25 0.313 1.219-0.281 0.719-0.656 0.344-0.781 0.094-0.656v-3.5q0-0.25 0.125-1.031t0.594-1.594 1.438-1.469 2.594-0.656q1.313 0 2.219 0.531t1.469 1.281 0.781 1.563 0.219 1.375v2.313q0 0.625-0.375 0.906t-0.813 0.281q-0.5 0-0.844-0.281t-0.344-0.906v-2.313q0-0.188-0.094-0.563t-0.313-0.813-0.688-0.75-1.219-0.313q-0.875 0-1.375 0.344t-0.75 0.781-0.281 0.844-0.031 0.469v3.688q0 0.5-0.219 1.281t-0.75 1.531-1.438 1.281-2.281 0.531q-2.813 0-4.188-2.5-0.438-0.75-0.469-1.469t-0.094-0.844v-13q-0.063 0.188-0.25 0.375l-0.25 0.25q-2 1.813-3.094 4.5t-1.094 5.5q0 2.938 1.094 5.5t3.031 4.5 4.5 3.063 5.563 1.125q2.688 0 5.406-1.063t4.531-3.125z"></path>
</svg>
