<!-- Generated by IcoMoon.io -->
<svg version="1.1" xmlns="http://www.w3.org/2000/svg" width="32" height="32" viewBox="0 0 32 32">
<title>uniE020</title>
<path d="M16.438 11q1.375 0.5 1.75 0.938 0.438 0.438 0.438 1.375 0 2-2.188 2.375v0.938h-0.875v-0.938q-1.813-0.313-2.188-2.25l1.375-0.125q0.063 0.188 0.313 0.688 0.125 0.063 0.156 0.125t0.094 0.125q0.125 0.063 0.25 0.188v-2.313q-1-0.188-1.438-0.813-0.563-0.625-0.563-1.438 0-0.688 0.563-1.25 0.438-0.625 1.438-0.75v-0.563h0.875v0.563q0.875 0.063 1.375 0.563t0.563 1.188l-1.313 0.188q0-0.5-0.625-0.813v2zM15.563 9q-0.625 0.188-0.625 0.75 0 0.688 0.625 1v-1.75zM17.188 14.188q0.188-0.25 0.188-0.625 0-0.688-0.938-1.188v2.125q0.5-0.063 0.75-0.313zM30 2q0.875 0 1.438 0.563t0.563 1.438v16q0 0.813-0.563 1.406t-1.438 0.594h-28q-0.813 0-1.406-0.594t-0.594-1.406v-16q0-0.875 0.594-1.438t1.406-0.563h28zM30 6.25q-1 0-1.688-0.688t-0.688-1.563h-23.313q0 0.938-0.688 1.563-0.688 0.688-1.625 0.688v11.438q1 0 1.625 0.688 0.688 0.625 0.688 1.625h23.438q0-0.938 0.688-1.625 0.625-0.688 1.563-0.688v-11.438zM16 5q1.438 0 2.719 0.563t2.219 1.5 1.5 2.219 0.563 2.719-0.563 2.719-1.5 2.219-2.219 1.5-2.719 0.563-2.719-0.563-2.219-1.5-1.5-2.219-0.563-2.719 0.563-2.719 1.5-2.219 2.219-1.5 2.719-0.563zM16 18q2.5 0 4.25-1.75t1.75-4.25-1.75-4.25-4.25-1.75-4.25 1.75-1.75 4.25 1.75 4.25 4.25 1.75zM31 24q1 0 1 1 0 0.375-0.281 0.688t-0.719 0.313h-30q-0.438 0-0.719-0.313t-0.281-0.688q0-1 1-1h30zM31 28q1 0 1 1 0 0.375-0.281 0.688t-0.719 0.313h-30q-0.438 0-0.719-0.313t-0.281-0.688q0-1 1-1h30zM6 10q0.875 0 1.438 0.563t0.563 1.438q0 0.813-0.563 1.406t-1.438 0.594q-0.813 0-1.406-0.594t-0.594-1.406q0-0.875 0.594-1.438t1.406-0.563zM26 10q0.875 0 1.438 0.563t0.563 1.438q0 0.813-0.563 1.406t-1.438 0.594q-0.813 0-1.406-0.594t-0.594-1.406q0-0.875 0.594-1.438t1.406-0.563z"></path>
</svg>
