<!-- Generated by IcoMoon.io -->
<svg version="1.1" xmlns="http://www.w3.org/2000/svg" width="32" height="32" viewBox="0 0 32 32">
<title>uniE0DF</title>
<path d="M22 12q0 2.5-1.75 4.25t-4.25 1.75-4.25-1.75-1.75-4.25 1.75-4.25 4.25-1.75 4.25 1.75 1.75 4.25zM16 16q1.625 0 2.813-1.156t1.188-2.844q0-1.625-1.188-2.813t-2.813-1.188-2.813 1.188-1.188 2.813q0 1.688 1.188 2.844t2.813 1.156zM30 2q0.875 0 1.438 0.594t0.563 1.406v20q0 0.875-0.563 1.438t-1.438 0.563h-28q-0.875 0-1.438-0.563t-0.563-1.438v-20q0-0.813 0.563-1.406t1.438-0.594h28zM22 24q0-1.5-0.344-2.313t-0.906-1.188-1.281-0.438-1.469-0.063h-4q-0.688 0-1.406 0.063t-1.281 0.438-0.938 1.188-0.375 2.313h12zM30 4h-28v20h6q0-3.313 1.563-4.625t4.438-1.375h4q3 0 4.5 1.344t1.5 4.656h6v-20zM23 28q1 0 1 1 0 0.375-0.281 0.688t-0.719 0.313h-14q-0.375 0-0.688-0.313t-0.313-0.688q0-0.438 0.313-0.719t0.688-0.281h14z"></path>
</svg>
