<!-- Generated by IcoMoon.io -->
<svg version="1.1" xmlns="http://www.w3.org/2000/svg" width="32" height="32" viewBox="0 0 32 32">
<title>uniE1EA</title>
<path d="M19.125 14.938q0.875-0.5 0.875-1.375 0-0.688-0.438-1.125t-1.063-0.438q-0.938 0-1.375 0.875l-2.625-2.625q0.375-0.125 0.75-0.188t0.75-0.063q2.5 0 4.25 1.75t1.75 4.25q0 0.813-0.188 1.563zM17.563 21.813q-0.75 0.188-1.563 0.188-2.5 0-4.25-1.75t-1.75-4.25q0-0.375 0.063-0.75t0.188-0.75zM1.438 0l30.563 30.625-1.375 1.375-30.625-30.563zM16 8q-0.875 0-1.688 0.125t-1.625 0.313l-1.625-1.625q1.25-0.375 2.469-0.594t2.469-0.219q2.25 0 4.531 0.625t4.375 1.875 3.938 3.094 3.156 4.344q-1.063 2-2.438 3.563t-3 2.813l-1.438-1.438q1.313-1 2.5-2.219t2.063-2.719q-2.313-3.75-5.938-5.844t-7.75-2.094zM15.938 24q0.875 0 1.719-0.125t1.656-0.313l1.625 1.625q-1.25 0.375-2.469 0.594t-2.469 0.219h-0.063q-2.25 0-4.5-0.625t-4.344-1.875-3.906-3.125-3.188-4.375q2.125-3.875 5.438-6.313l1.438 1.438q-2.625 1.875-4.563 4.875 2.375 3.75 5.938 5.875t7.688 2.125z"></path>
</svg>
