<!-- Generated by IcoMoon.io -->
<svg version="1.1" xmlns="http://www.w3.org/2000/svg" width="32" height="32" viewBox="0 0 32 32">
<title>uniE0B4</title>
<path d="M14 18q1.625 0 2.781 0.625t1.875 1.719 1.031 2.531 0.313 3.125v6h-20v-6q0-1.688 0.313-3.125t1.031-2.531 1.875-1.719 2.781-0.625h8zM18 26q0-1.25-0.156-2.344t-0.594-1.906-1.219-1.281-2.031-0.469h-8q-1.25 0-2.031 0.469t-1.219 1.281-0.594 1.906-0.156 2.344v4h16v-4zM16 12q0 2.5-1.75 4.25t-4.25 1.75-4.25-1.75-1.75-4.25 1.75-4.25 4.25-1.75 4.25 1.75 1.75 4.25zM10 16q1.625 0 2.813-1.188t1.188-2.813q0-1.688-1.188-2.844t-2.813-1.156-2.813 1.156-1.188 2.844q0 1.625 1.188 2.813t2.813 1.188zM28 5q0 2.063-1.469 3.531t-3.531 1.469-3.531-1.469-1.469-3.531 1.469-3.531 3.531-1.469 3.531 1.469 1.469 3.531zM23 8q1.25 0 2.125-0.875t0.875-2.125-0.875-2.125-2.125-0.875-2.125 0.875-0.875 2.125 0.875 2.125 2.125 0.875zM28 10q1.5 0 2.313 0.656t1.188 1.719 0.438 2.5 0.063 3.125v4h-9.938v-2h7.938v-2q0-1.25 0.031-2.344t-0.125-1.906-0.563-1.281-1.344-0.469h-10v-2h10zM10 24h6v2h-6v-2zM28 18h-6v-2h6v2z"></path>
</svg>
