<!-- Generated by IcoMoon.io -->
<svg version="1.1" xmlns="http://www.w3.org/2000/svg" width="32" height="32" viewBox="0 0 32 32">
<title>uniE006</title>
<path d="M30 4q0.813 0 1.406 0.563t0.594 1.438v20q0 0.875-0.594 1.438t-1.406 0.563q-0.563 0-1-0.25l-7-7.5v1.75q0 1.688-1.188 2.844t-2.813 1.156h-14q-1.625 0-2.813-1.156t-1.188-2.844v-12q0-1.625 1.188-2.813t2.813-1.188h14q1.625 0 2.813 1.188t1.188 2.813v1.813l7-7.5q0.5-0.313 1-0.313zM20 10q0-0.813-0.563-1.406t-1.438-0.594h-14q-0.875 0-1.438 0.594t-0.563 1.406v12q0 0.875 0.563 1.438t1.438 0.563h14q0.875 0 1.438-0.563t0.563-1.438v-12zM30 6l-8 8.375v3.313l8 8.313v-20z"></path>
</svg>
