<!-- Generated by IcoMoon.io -->
<svg version="1.1" xmlns="http://www.w3.org/2000/svg" width="28" height="32" viewBox="0 0 28 32">
<title>uniE0B9</title>
<path d="M20 6q0 2.5-1.75 4.25t-4.25 1.75-4.25-1.75-1.75-4.25 1.75-4.25 4.25-1.75 4.25 1.75 1.75 4.25zM14 10q1.688 0 2.844-1.188t1.156-2.813-1.156-2.813-2.844-1.188q-1.625 0-2.813 1.188t-1.188 2.813 1.188 2.813 2.813 1.188zM6 22h16v10h-16v-10zM0 25q0-1.25 0.875-2.125t2.125-0.875h1v6h-1q-1.25 0-2.125-0.875t-0.875-2.125zM25 22q1.25 0 2.125 0.875t0.875 2.125-0.875 2.125-2.125 0.875h-1v-6h1zM22 20v-2q0-0.688-0.469-1.406t-1.281-1.281-1.906-0.938-2.344-0.375h-4q-1.25 0-2.344 0.375t-1.906 0.938-1.281 1.281-0.469 1.406v2h-2q0.063-2.188 0.719-3.719t1.719-2.469 2.5-1.375 3.063-0.438h4q1.688 0 3.125 0.406t2.531 1.344 1.719 2.469 0.625 3.781h-2zM20 18v2h-6v-2h6z"></path>
</svg>
