<!-- Generated by IcoMoon.io -->
<svg version="1.1" xmlns="http://www.w3.org/2000/svg" width="28" height="32" viewBox="0 0 28 32">
<title>uniE0F4</title>
<path d="M26 22q0.813 0 1.406 0.594t0.594 1.406v4q0 0.875-0.594 1.438t-1.406 0.563h-4q-0.875 0-1.438-0.563t-0.563-1.438v-4q0-0.813 0.563-1.406t1.438-0.594h2v-2q0-0.813-0.563-1.406t-1.438-0.594h-7v4h1q0.813 0 1.406 0.594t0.594 1.406v4q0 0.875-0.594 1.438t-1.406 0.563h-4q-0.875 0-1.438-0.563t-0.563-1.438v-4q0-0.813 0.563-1.406t1.438-0.594h1v-4h-7q-0.875 0-1.438 0.594t-0.563 1.406v2h2q0.813 0 1.406 0.594t0.594 1.406v4q0 0.875-0.594 1.438t-1.406 0.563h-4q-0.875 0-1.438-0.563t-0.563-1.438v-4q0-0.813 0.563-1.406t1.438-0.594v-2q0-1.625 1.188-2.813t2.813-1.188h7v-4h-5q-0.875 0-1.438-0.563t-0.563-1.438v-6q0-0.813 0.563-1.406t1.438-0.594h12q0.813 0 1.406 0.594t0.594 1.406v6q0 0.875-0.594 1.438t-1.406 0.563h-5v4h7q1.625 0 2.813 1.188t1.188 2.813v2zM2 24v4h4v-4h-4zM12 24v4h4v-4h-4zM20 10v-6h-12v6h12zM26 24h-4v4h4v-4z"></path>
</svg>
