<!-- Generated by IcoMoon.io -->
<svg version="1.1" xmlns="http://www.w3.org/2000/svg" width="28" height="32" viewBox="0 0 28 32">
<title>uniE08A</title>
<path d="M14 10q1.25 0 2.125 0.875t0.875 2.125-0.875 2.125-2.125 0.875-2.125-0.875-0.875-2.125 0.875-2.125 2.125-0.875zM14 14.5q0.625 0 1.063-0.438t0.438-1.063q0-0.688-0.438-1.094t-1.063-0.406-1.063 0.406-0.438 1.094q0 0.625 0.438 1.063t1.063 0.438zM4.5 21.5q-0.5-0.313-0.5-0.813v-10.688q0-1.125 0.563-2.031t1.438-1.406v-2.563q0-1.625 1.188-2.813t2.813-1.188h8q1.625 0 2.813 1.188t1.188 2.813v2.563q0.875 0.5 1.438 1.406t0.563 2.031v10.688q0 0.438-0.5 0.813-0.063 0.063-0.125 0.063l-0.625 0.25-2.25 0.938-0.375 0.125-2.938 1.188-0.688 0.25-2.063 0.875h-0.063q-0.125 0.063-0.375 0.063t-0.375-0.063l-2.125-0.875-0.688-0.25-3.313-1.313-2.875-1.188q-0.125 0-0.125-0.063zM10.5 19h-2v2l2 0.813v-2.813zM13.5 19h-2v3.188l2 0.813v-4zM16.5 19h-2v4l2-0.813v-3.188zM19.5 19h-2v2.813l2-0.813v-2zM22 19h-1.5v1.563l1.5-0.563v-1zM14.5 6h5.5v-2q0-0.875-0.594-1.438t-1.406-0.563h-3.5v4zM8 6h5.5v-4h-3.5q-0.875 0-1.438 0.563t-0.563 1.438v2zM6 18h16v-8q0-0.875-0.594-1.438t-1.406-0.563h-12q-0.875 0-1.438 0.563t-0.563 1.438v8zM6 20l1.5 0.563v-1.563h-1.5v1zM19.25 26l1.313 2h-13.25l1.313-2h10.625zM21.938 30l1.313 2h-18.563l1.313-2h15.938zM28 32h-2.313l-4.75-7.313 1.75-0.688zM7.125 24.75l-4.813 7.25h-2.313l5.375-7.938z"></path>
</svg>
