<!-- Generated by IcoMoon.io -->
<svg version="1.1" xmlns="http://www.w3.org/2000/svg" width="32" height="32" viewBox="0 0 32 32">
<title>uniE0A9</title>
<path d="M12 20q1.688 0 3.125 0.625t2.531 1.719 1.719 2.563 0.625 3.094v4h-20v-4q0-1.625 0.625-3.094t1.719-2.563 2.563-1.719 3.094-0.625h4zM18 28q0-2.5-1.75-4.25t-4.25-1.75h-4q-2.5 0-4.25 1.75t-1.75 4.25v2h16v-2zM16 14q0 2.5-1.75 4.25t-4.25 1.75-4.25-1.75-1.75-4.25 1.75-4.25 4.25-1.75 4.25 1.75 1.75 4.25zM10 18q1.625 0 2.813-1.156t1.188-2.844q0-1.625-1.188-2.813t-2.813-1.188-2.813 1.188-1.188 2.813q0 1.688 1.188 2.844t2.813 1.156zM30 8q0.563 0.063 1 0.313 0.375 0.188 0.688 0.594t0.313 1.094v6q0 0.688-0.656 1.344t-1.344 0.656h-10q-0.563 0-1-0.25-0.375-0.188-0.688-0.594t-0.313-1.156v-6q0-0.688 0.313-1.125t0.688-0.625q0.438-0.25 1-0.25v-4q0-0.375 0.219-1.031t0.781-1.313 1.563-1.156 2.5-0.5 2.438 0.375 1.5 0.938 0.781 1.281 0.219 1.406v0.375l-2 0.063v-0.438q0-0.125-0.031-0.438t-0.313-0.656-0.875-0.625-1.719-0.281-1.75 0.313-0.938 0.688q-0.313 0.438-0.375 1v4h8zM27.313 16l-1.313-2.313q0.438-0.25 0.719-0.688t0.281-1q0-0.813-0.563-1.406t-1.438-0.594-1.438 0.594-0.563 1.406q0 0.563 0.281 1t0.719 0.688l-1.188 2.313h4.5z"></path>
</svg>
