<!-- Generated by IcoMoon.io -->
<svg version="1.1" xmlns="http://www.w3.org/2000/svg" width="24" height="32" viewBox="0 0 24 32">
<title>uniE021</title>
<path d="M13.25 0.063q2.25 0.188 4.219 1.219t3.438 2.625 2.281 3.688 0.813 4.406q0 0.875-0.5 2.219t-1.344 2.906-1.906 3.25-2.188 3.375q-2.625 3.875-5.938 8.25-3.438-4.313-6.063-8.188-1.125-1.625-2.219-3.344t-1.938-3.313-1.375-2.938-0.531-2.219q0-2.5 0.938-4.688t2.563-3.813 3.813-2.563 4.688-0.938h0.688t0.563 0.063zM12.125 28.688q1.875-2.563 3.656-5.156t3.156-4.875 2.219-4.031 0.844-2.625q0-1.938-0.688-3.656t-1.875-3.063-2.813-2.219-3.563-1.063h-1.125q-2.063 0-3.844 0.781t-3.156 2.156-2.156 3.188-0.781 3.875q0 0.938 0.938 2.813t2.406 4.188 3.25 4.875 3.531 4.813zM12 6q2.5 0 4.25 1.75t1.75 4.25-1.75 4.25-4.25 1.75-4.25-1.75-1.75-4.25 1.75-4.25 4.25-1.75zM12 16q1.688 0 2.844-1.188t1.156-2.813q0-1.688-1.156-2.844t-2.844-1.156q-1.625 0-2.813 1.156t-1.188 2.844q0 1.625 1.188 2.813t2.813 1.188z"></path>
</svg>
