<!-- Generated by IcoMoon.io -->
<svg version="1.1" xmlns="http://www.w3.org/2000/svg" width="32" height="32" viewBox="0 0 32 32">
<title>uniE174</title>
<path d="M28 4q1.625 0 2.813 1.188t1.188 2.813v10q0 1.688-1.188 2.844t-2.813 1.156h-2v8.75q0 0.563-0.406 0.906t-0.906 0.344-0.813-0.25l-5.875-9.75h-5l-4.875 5.75q-0.313 0.25-0.813 0.25t-0.906-0.344-0.406-0.906v-4.75h-2q-1.625 0-2.813-1.156t-1.188-2.844v-10q0-1.625 1.188-2.813t2.813-1.188h24zM30 8q0-0.813-0.563-1.406t-1.438-0.594h-24q-0.875 0-1.438 0.594t-0.563 1.406v10q0 0.875 0.563 1.438t1.438 0.563h4v5l4-4.938h7l5 7.938v-8h4q0.875 0 1.438-0.563t0.563-1.438v-10zM13 8q0.438 0 0.719 0.313t0.281 0.688q0 1-1 1h-6q-1 0-1-1 0-0.375 0.281-0.688t0.719-0.313h6zM13 12q0.438 0 0.719 0.313t0.281 0.688q0 1-1 1h-6q-1 0-1-1 0-0.375 0.281-0.688t0.719-0.313h6zM25 10q0.438 0 0.719 0.313t0.281 0.688q0 1-1 1h-6q-1 0-1-1 0-0.375 0.281-0.688t0.719-0.313h6zM25 14q0.438 0 0.719 0.313t0.281 0.688q0 1-1 1h-6q-1 0-1-1 0-0.375 0.281-0.688t0.719-0.313h6z"></path>
</svg>
