<!-- Generated by IcoMoon.io -->
<svg version="1.1" xmlns="http://www.w3.org/2000/svg" width="32" height="32" viewBox="0 0 32 32">
<title>uniE1B2</title>
<path d="M30 28q0.875 0 1.438 0.563t0.563 1.438q0 0.813-0.563 1.406t-1.438 0.594h-28q-0.813 0-1.406-0.594t-0.594-1.406q0-0.875 0.594-1.438t1.406-0.563h28zM30 14q0.875 0 1.438 0.563t0.563 1.438q0 0.813-0.563 1.406t-1.438 0.594h-28q-0.813 0-1.406-0.594t-0.594-1.406q0-0.875 0.594-1.438t1.406-0.563h28zM2 4q-0.813 0-1.406-0.594t-0.594-1.406q0-0.875 0.594-1.438t1.406-0.563h28q0.875 0 1.438 0.563t0.563 1.438q0 0.813-0.563 1.406t-1.438 0.594h-28z"></path>
</svg>
