<!-- Generated by IcoMoon.io -->
<svg version="1.1" xmlns="http://www.w3.org/2000/svg" width="31" height="32" viewBox="0 0 31 32">
<title>uniE063</title>
<path d="M26.938 3.813q4.188 3.438 4.188 9.313 0 2.125-0.719 4.125t-1.906 3.531-2.75 2.469-3.313 0.938q-1.813 0-2.781-1.063t-0.969-2.188v-0.25q0.063-0.125 0.063-0.438-2.063 3.938-5.5 3.938-2.25 0-3.875-1.75t-1.625-4.938q0-1.688 0.625-3.469t1.75-3.25 2.625-2.375 3.25-0.906q1.688 0 2.781 0.938t1.406 2.375l0.75-2.625 3.188 1.688-2.25 7.625-0.188 1.063q-0.063 0.25-0.125 0.469t-0.063 0.344q0 0.688 0.438 1.188t1.188 0.5q0.875 0 1.781-0.594t1.625-1.688 1.188-2.625 0.469-3.344q0-2.188-0.813-3.938t-2.281-2.969-3.469-1.875-4.438-0.656q-3.125 0-5.688 1.031t-4.438 2.813-2.906 4.219-1.031 5.188 1 5 2.781 3.875 4.219 2.531 5.25 0.906q2.313 0 4.188-0.563t3.938-1.438l2.813 1.438q-2.625 1.625-5.375 2.531t-5.75 0.906q-3.688 0-6.625-1.156t-5.063-3.219-3.25-4.844-1.125-6.094q0-3.375 1.281-6.313t3.531-5.094 5.313-3.375 6.625-1.219q6.188 0 10.063 3.313zM17.875 17.938q0.625-1.625 0.969-2.906t0.344-2.219q0-1-0.625-1.75t-1.688-0.75q-1 0-1.875 0.75t-1.531 1.875-1.063 2.438-0.406 2.5q0 1.5 0.656 2.406t1.781 0.906q2.063 0 3.438-3.25z"></path>
</svg>
