<!-- Generated by IcoMoon.io -->
<svg version="1.1" xmlns="http://www.w3.org/2000/svg" width="32" height="32" viewBox="0 0 32 32">
<title>uniE111</title>
<path d="M32.063 22.063l-8.313 9.938-5.125-5.25 1.938-1.938 3.125 3.125 6.313-7.938zM30 15q0 1.25-0.844 2.125t-2.094 0.875h-24.063q-1.25 0-2.125-0.875t-0.875-2.125q0-1.125 0.313-1.719t0.75-0.906 1.063-0.375q0.313-3.813 2.594-6.813t5.719-4.313q0.125 0.688 0.375 1.188 0.188 0.438 0.438 0.75t0.563 0.188q0.313-0.063 0.375-0.469t0-0.906q-0.063-0.563-0.188-1.25l1.5-0.25t1.5-0.125q0.813 0 1.563 0.125l1.5 0.25q-0.125 0.688-0.188 1.25-0.063 0.5 0 0.906t0.375 0.469q0.313 0.125 0.563-0.188t0.438-0.75q0.25-0.5 0.375-1.188 3.438 1.313 5.719 4.313t2.594 6.813q0.563 0.063 1 0.375 0.375 0.313 0.719 0.938t0.344 1.688zM2 15q0 0.438 0.313 0.719t0.688 0.281h24.063q0.375 0 0.656-0.281t0.281-0.719-0.281-0.719-0.656-0.281h-1.063l-0.063-2q-0.25-2.625-1.688-4.875t-3.75-3.625q-0.375 0.813-0.875 1.375-0.438 0.5-1 0.813t-1.25 0.125-0.969-0.781-0.406-1.281q-0.125-0.75 0-1.688-0.25 0-0.469-0.031t-0.531-0.031q-0.25 0-0.469 0.031t-0.531 0.031q0.125 0.938 0 1.688-0.125 0.688-0.375 1.281t-0.938 0.781-1.25-0.125-1-0.813q-0.5-0.563-0.875-1.375-2.313 1.375-3.75 3.625t-1.688 4.875l-0.125 2h-1q-0.375 0-0.688 0.281t-0.313 0.719z"></path>
</svg>
