<!-- Generated by IcoMoon.io -->
<svg version="1.1" xmlns="http://www.w3.org/2000/svg" width="28" height="32" viewBox="0 0 28 32">
<title>uniE261</title>
<path d="M25.75 8q0.938 0 1.594 0.719t0.656 1.656v4.625q0 1.125-0.75 1.75l-6.438 6.938q-0.75 0.688-1.438 0l-1.313-1.625q-0.063 0.063-0.031-0.844t0.031-1.969v-2.875q0-1.813-1.25-3.094t-3.063-1.281h-1.75v-1.625q0-0.938 0.75-1.656t1.688-0.719h11.313zM13.75 14q0.938 0 1.594 0.719t0.656 1.656v4.625q0 1.125-0.75 1.75l-6.438 6.938q-0.75 0.688-1.438 0l-6.438-6.938q-0.375-0.313-0.656-0.781t-0.281-0.969v-4.625q0-0.938 0.75-1.656t1.688-0.719h11.313zM2.438 12q-0.063 0-0.25-0.188t-0.5-0.438l-0.75-0.625q-0.375-0.313-0.656-0.781t-0.281-0.969v-4.625q0-0.938 0.75-1.656t1.688-0.719h11.313q0.938 0 1.594 0.719t0.656 1.656v1.625h-1.563q-1.813 0-3.125 1.281t-1.313 3.094v1.625h-7.563z"></path>
</svg>
