<!-- Generated by IcoMoon.io -->
<svg version="1.1" xmlns="http://www.w3.org/2000/svg" width="30" height="32" viewBox="0 0 30 32">
<title>uniE03F</title>
<path d="M26 20h2v8q0 0.875-0.594 1.438t-1.406 0.563h-24q-0.875 0-1.438-0.563t-0.563-1.438v-24q0-0.813 0.563-1.406t1.438-0.594h8v2h-8v24h24v-8zM29.75 1.563q0.438 0.438 0.125 1l-11.563 17q-0.188 0.375-0.625 0.438t-0.75-0.25l-7.813-8.688q-0.563-0.563 0-1.125l1.313-1.313q0.625-0.625 1.188 0l5 5q0.313 0.313 0.719 0.25t0.594-0.5l9.125-12.938q0.188-0.375 0.594-0.438t0.719 0.25z"></path>
</svg>
