<!-- Generated by IcoMoon.io -->
<svg version="1.1" xmlns="http://www.w3.org/2000/svg" width="28" height="32" viewBox="0 0 28 32">
<title>uniE1F1</title>
<path d="M27.5 10.625q0.563 0.625 0.563 1.438t-0.563 1.375l-8 8q-0.625 0.625-1.438 0.625t-1.438-0.625q-0.563-0.563-0.563-1.406t0.563-1.406l4.625-4.563h-5.25q-2.5 0-4.688 0.938t-3.813 2.563-2.563 3.813-0.938 4.688v2q0 0.813-0.563 1.406t-1.438 0.594q-0.813 0-1.406-0.594t-0.594-1.406v-2q0-3.313 1.281-6.219t3.438-5.094 5.063-3.438 6.219-1.25h5.25l-4.625-4.625q-0.625-0.625-0.625-1.438t0.625-1.375q0.563-0.625 1.375-0.625t1.438 0.625z"></path>
</svg>
