<!-- Generated by IcoMoon.io -->
<svg version="1.1" xmlns="http://www.w3.org/2000/svg" width="28" height="32" viewBox="0 0 28 32">
<title>uniE1Bf</title>
<path d="M5.438 15.313q-0.688 0.75 0 1.438l9.813 9.938q0.625 0.625 0.625 1.438t-0.625 1.375q-0.563 0.625-1.375 0.625t-1.438-0.625l-11.938-12.063q-0.563-0.563-0.563-1.406t0.563-1.406l12-12q0.625-0.625 1.438-0.625t1.438 0.625q0.563 0.563 0.563 1.406t-0.563 1.406zM17.5 15.313q-0.313 0.313-0.313 0.719t0.313 0.719l9.813 9.938q0.625 0.625 0.625 1.438t-0.625 1.375q-0.563 0.625-1.375 0.625t-1.438-0.625l-11.938-12.063q-0.563-0.563-0.563-1.406t0.563-1.406l12-12q0.625-0.625 1.438-0.625t1.438 0.625q0.563 0.563 0.563 1.406t-0.563 1.406z"></path>
</svg>
