<!-- Generated by IcoMoon.io -->
<svg version="1.1" xmlns="http://www.w3.org/2000/svg" width="32" height="32" viewBox="0 0 32 32">
<title>uniE104</title>
<path d="M4 6h4v4h-4v-4zM10 6h4v4h-4v-4zM10 12h4v4h-4v-4zM4 12h4v4h-4v-4zM4 18h4v4h-4v-4zM4 24h4v4h-4v-4zM10 18h4v4h-4v-4zM16.75 2q1.25 0.5 1.25 1.875v28.125h-18v-28.125q0-1.375 1.25-1.875l6.75-2h2zM16 3.875l-6-2h-2l-6 1.938v26.188h8v-6h4v6h2v-26.125zM25.688 12.313q-0.313-0.313-0.688-0.313t-0.688 0.313-0.313 0.719 0.313 0.719l4.688 4.25h-8q-1 0-1 1t1 1h8l-4.688 4.313q-0.313 0.313-0.313 0.719t0.313 0.719 0.688 0.313 0.688-0.313l5.75-5.375q0.563-0.625 0.563-1.438t-0.563-1.438z"></path>
</svg>
