<!-- Generated by IcoMoon.io -->
<svg version="1.1" xmlns="http://www.w3.org/2000/svg" width="32" height="32" viewBox="0 0 32 32">
<title>uniE055</title>
<path d="M32 7.938q0 0.875-0.594 1.438t-1.406 0.563v2q0.813 0 1.406 0.594t0.594 1.406v4q0 0.875-0.594 1.438t-1.406 0.563v2q0.813 0 1.406 0.594t0.594 1.406v4q0 0.875-0.594 1.438t-1.406 0.563q0 0.875-0.594 1.438t-1.406 0.563h-24q-0.875 0-1.438-0.563t-0.563-1.438v-4h-2v-2h2v-2h-2v-2h2v-8h-2v-2h2v-2h-2v-2h2v-4q0-0.813 0.563-1.406t1.438-0.594h24q0.813 0 1.406 0.594t0.594 1.406q0.813 0 1.406 0.594t0.594 1.406v4zM28 1.938h-24v4h2v2h-2v2h2v2h-2v8h2v2h-2v2h2v2h-2v4h24v-28zM16.188 23.938q-1.813 0-3.313-0.656t-2.594-1.813-1.688-2.75-0.594-3.531q0-2.063 0.625-3.688t1.719-2.813 2.594-1.813 3.313-0.625q3.375 0 5.344 2.031t1.969 5.406q0 1.313-0.406 2.469t-1.094 2.031-1.656 1.406-2.156 0.531q-1.313 0-1.563-1.25-1.25 1.25-1.938 1.25-1.438 0-2.406-1.156t-0.969-3.281q0-1 0.313-2.063t0.875-1.938 1.344-1.406 1.719-0.531q0.313 0 0.844 0.313t1.219 1.25l0.188-1.25h2l-1.313 7.5q-0.063 0.063-0.063 0.438 0 0.313 0.5 0.313 1.125 0 2.094-1.406t0.969-3.219q0-2.75-1.594-4.344t-4.219-1.594q-1.438 0-2.656 0.531t-2.094 1.531-1.406 2.344-0.531 3.031q0 3.375 1.875 5.281t4.688 1.906q2.875 0 5.375-1.938h2.063q-1.125 1.5-3.031 2.5t-4.344 1zM15.063 18.625q0.25 0 0.594-0.469t0.656-1.25 0.531-1.75 0.219-2.031q0-1.688-1.125-1.688-0.563 0-1 0.469t-0.719 1.188-0.438 1.531-0.156 1.5q0 2.5 1.438 2.5z"></path>
</svg>
