<!-- Generated by IcoMoon.io -->
<svg version="1.1" xmlns="http://www.w3.org/2000/svg" width="30" height="32" viewBox="0 0 30 32">
<title>uniE17E</title>
<path d="M29.5 25.5q0.563 0.625 0.563 1.438t-0.563 1.438l-3.813 3.313q-0.313 0.313-0.688 0.313t-0.688-0.313-0.313-0.719 0.313-0.719l2.75-2.25h-21q-0.875 0-1.438-0.594t-0.563-1.406v-21l-2.313 2.688q-0.313 0.313-0.719 0.313t-0.719-0.313-0.313-0.688 0.313-0.688l3.25-3.75q0.625-0.563 1.438-0.563t1.438 0.563l3.313 3.75q0.313 0.313 0.313 0.688t-0.313 0.688-0.719 0.313-0.719-0.313l-2.25-2.688v19.563l14.063-14.063-3.563 0.313q-1-0.125-1-1 0-0.438 0.281-0.719t0.656-0.281l5-0.375q0.813 0.063 1.406 0.625t0.594 1.375l-0.313 5.063q0 0.375-0.281 0.656t-0.656 0.281q-1.063 0-1.063-1l0.313-3.5-14 14.063h19.563l-2.75-2.313q-0.313-0.313-0.313-0.719t0.313-0.719 0.688-0.313 0.688 0.313z"></path>
</svg>
