<!-- Generated by IcoMoon.io -->
<svg version="1.1" xmlns="http://www.w3.org/2000/svg" width="32" height="32" viewBox="0 0 32 32">
<title>uniE26A</title>
<path d="M15 4q1 0 1 1v20q0 1-1 1h-0.5q-1 0-1-1v-9h-11v9q0 1-1 1h-0.5q-1 0-1-1v-20q0-1 1-1h0.5q1 0 1 1v9h11v-9q0-1 1-1h0.5zM30.563 22.563q0.688 0.5 1.063 1.313 0.375 0.75 0.375 1.688 0 1.438-0.625 2.313-0.5 1-1.813 1.563-1.313 0.5-2.875 0.5-2 0-3.188-0.75-1.188-0.688-2.125-2.063l1.688-1.188q0.313 0.375 0.531 0.688t0.469 0.5q0.375 0.375 1 0.688 0.563 0.25 1.625 0.25 1.625 0 2.375-0.688 0.875-0.625 0.875-1.875 0-1-0.563-1.563-0.25-0.313-0.594-0.531t-0.719-0.344q-0.75-0.25-1.688-0.25h-1.313v-1.938h1.313q0.688 0 1.5-0.313 0.688-0.188 1.188-0.875 0.5-0.625 0.5-1.5 0-1.125-0.75-1.688-0.688-0.625-2.063-0.625-0.813 0-1.438 0.188-0.625 0.313-1 0.688-0.438 0.313-0.938 1.063l-1.688-1.063q0.75-1.375 2.063-2 1.313-0.75 3-0.75 1.625 0 2.688 0.563 1 0.438 1.625 1.438 0.5 0.875 0.5 2 0 1.313-0.688 2.375-0.688 1-2 1.375v0.063q0.938 0.188 1.688 0.75z"></path>
</svg>
