<!-- Generated by IcoMoon.io -->
<svg version="1.1" xmlns="http://www.w3.org/2000/svg" width="32" height="32" viewBox="0 0 32 32">
<title>uniE0B6</title>
<path d="M13.875 12.25q0-0.5 0.313-0.969t1-0.656v3.313q-0.563-0.25-0.938-0.656t-0.375-1.031zM16.813 17.063q1.25 0.5 1.25 1.813 0 0.813-0.469 1.281t-0.781 0.594v-3.688zM16 4q2.5 0 4.688 0.938t3.813 2.563 2.563 3.813 0.938 4.688-0.938 4.688-2.563 3.813-3.813 2.563-4.688 0.938-4.688-0.938-3.813-2.563-2.563-3.813-0.938-4.688 0.938-4.688 2.563-3.813 3.813-2.563 4.688-0.938zM19.25 21.438q1-1.188 1-2.938 0-1.625-0.813-2.531t-2.625-1.594v-3.75q1 0.313 1.125 1.438l2.125-0.25q-0.688-2.875-3.25-3.25v-1.313h-1.563v1.313q-1.813 0.188-2.75 1.188t-0.938 2.625q0 3.188 3.688 4.313v3.938q-1.313-0.563-1.688-2.125l-2.438 0.313q0.313 2 1.313 2.906t2.813 1.219v1.75h1.563v-1.813q0.75-0.125 1.375-0.469t1.063-0.969zM16 0q3.313 0 6.25 1.25t5.094 3.406 3.406 5.094 1.25 6.25-1.25 6.219-3.406 5.094-5.094 3.438-6.25 1.25-6.219-1.25-5.094-3.438-3.438-5.094-1.25-6.219 1.25-6.25 3.438-5.094 5.094-3.406 6.219-1.25zM16 30q2.875 0 5.438-1.094t4.469-3 3-4.469 1.094-5.438-1.094-5.438-3-4.469-4.469-3-5.438-1.094-5.438 1.094-4.469 3-3 4.469-1.094 5.438 1.094 5.438 3 4.469 4.469 3 5.438 1.094z"></path>
</svg>
