<!-- Generated by IcoMoon.io -->
<svg version="1.1" xmlns="http://www.w3.org/2000/svg" width="33" height="32" viewBox="0 0 33 32">
<title>uniE16D</title>
<path d="M5.938 10q1.25 0 2.344 0.469t1.906 1.25 1.281 1.875 0.469 2.281q0 2.625-1.75 4.281t-4.25 1.656q-1.188 0-2.25-0.438t-1.875-1.25-1.281-1.906-0.469-2.344q0-1.188 0.469-2.281t1.281-1.875 1.875-1.25 2.25-0.469zM27.313 10q1.188 0 2.25 0.469t1.875 1.25 1.281 1.875 0.469 2.281q0 1.25-0.469 2.344t-1.281 1.906-1.875 1.25-2.25 0.438q-2.5 0-4.25-1.656t-1.75-4.281q0-1.188 0.469-2.281t1.281-1.875 1.906-1.25 2.344-0.469zM16.688 20.625q1.188 0 2.25 0.469t1.875 1.281 1.25 1.906 0.438 2.344q0 1.188-0.438 2.25t-1.25 1.875-1.875 1.281-2.25 0.469q-1.25 0-2.344-0.469t-1.906-1.281-1.25-1.875-0.438-2.25q0-2.5 1.656-4.25t4.281-1.75zM16.688 11.25q-2.625 0-4.281-1.75t-1.656-4.25q0-1.188 0.438-2.25t1.25-1.875 1.906-1.281 2.344-0.469q1.188 0 2.25 0.469t1.875 1.281 1.25 1.875 0.438 2.25q0 1.25-0.438 2.344t-1.25 1.906-1.875 1.281-2.25 0.469zM16.688 1.813q-1.563 0-2.594 1t-1.031 2.438q0 1.5 1.031 2.531t2.594 1.031q1.438 0 2.469-1.031t1.031-2.531q0-1.438-1.031-2.438t-2.469-1z"></path>
</svg>
