<!-- Generated by IcoMoon.io -->
<svg version="1.1" xmlns="http://www.w3.org/2000/svg" width="32" height="32" viewBox="0 0 32 32">
<title>uniE0A7</title>
<path d="M6 24q0 2.5 1.75 4.25t4.25 1.75h16v2h-16q-1.688 0-3.125-0.625t-2.531-1.719-1.719-2.563-0.625-3.094l0.063-7-2.313 2.688q-0.313 0.313-0.719 0.313t-0.719-0.313-0.313-0.688 0.313-0.688l3.25-3.75q0.625-0.563 1.438-0.563t1.438 0.563l3.313 3.75q0.688 0.688 0 1.375-0.75 0.688-1.438 0l-2.25-2.688zM31.75 12.25q0.688 0.688 0 1.375l-3.313 3.813q-0.625 0.563-1.438 0.563t-1.438-0.563l-3.25-3.813q-0.313-0.313-0.313-0.688t0.313-0.688q0.688-0.688 1.438 0l2.313 2.75-0.063-7q0-2.5-1.75-4.25t-4.25-1.75h-16v-2h16q1.625 0 3.094 0.625t2.563 1.719 1.719 2.563 0.625 3.094l0.063 7 2.25-2.75q0.688-0.688 1.438 0z"></path>
</svg>
