<!-- Generated by IcoMoon.io -->
<svg version="1.1" xmlns="http://www.w3.org/2000/svg" width="28" height="32" viewBox="0 0 28 32">
<title>uniE202</title>
<path d="M26 2q0.813 0 1.406 0.563t0.594 1.375v24q0 0.875-0.594 1.469t-1.406 0.594h-24q-0.875 0-1.438-0.594t-0.563-1.469v-24q0-0.813 0.563-1.375t1.438-0.563h24zM26 3.938h-24v24h24v-24zM18 26h-8v-2.063h2.063v-8h-2v-1.938h5.938v9.938h2v2.063zM14 11.938q-0.875 0-1.438-0.563t-0.563-1.375q0-0.875 0.563-1.469t1.438-0.594q0.813 0 1.406 0.594t0.594 1.469q0 0.813-0.594 1.375t-1.406 0.563z"></path>
</svg>
