<!-- Generated by IcoMoon.io -->
<svg version="1.1" xmlns="http://www.w3.org/2000/svg" width="32" height="32" viewBox="0 0 32 32">
<title>uniE1CA</title>
<path d="M26 24h6v2h-6v6h-2v-6h-6v-2h6v-6h2v6zM18.063 22.063q0-0.313-0.031-0.531t-0.031-0.469q0-0.063-0.031-0.344t-0.219-0.531-0.594-0.469-1.156-0.219-1.156 0.219-0.594 0.469-0.219 0.531-0.031 0.344q0 1.438-0.563 2.719t-1.531 2.219-2.25 1.5-2.719 0.563-2.688-0.563-2.188-1.5-1.5-2.219-0.563-2.719q0-1.188 0.375-2.25h-0.063q0.063-0.063 0.063-0.094t0.063-0.094q0.188-0.625 0.563-1.188 0.625-1.313 1.438-2.906t1.594-3.219 1.531-3.063 1.25-2.5q0.938-1.75 2.938-1.75 0.375 0 0.781 0.063t0.781 0.188q1.375 0.5 1.969 1.344t0.75 1.813 0.063 1.938-0.094 1.656q-0.063 0.313-0.031 0.531t0.031 0.344v0.188h4v-2.063q-0.063-0.875-0.094-1.75t0.188-1.688 0.813-1.406 1.719-0.906q0.625-0.188 1.313-0.188 1.125 0 2.094 0.531t1.531 1.781q0.438 0.938 1.094 2.281t1.375 2.844 1.438 2.969 1.344 2.719q0.25 0.313 0.406 0.688t0.281 0.75q0.188 0.188 0.125 0.188h-0.063q0.438 1.188 0.438 2.25 0 0.25-0.063 0.469t-0.063 0.531h-2q0.063-0.313 0.094-0.531t0.031-0.469q0-2.125-1.469-3.563t-3.594-1.438q-2.063 0-3.5 1.438t-1.438 3.563v0.469t0.063 0.531h-2zM6.938 26.063q2.125 0 3.594-1.469t1.469-3.531q0-2.125-1.469-3.563t-3.594-1.438q-0.875 0-1.875 0.375-1.375 0.563-2.219 1.781t-0.844 2.844q0 2.063 1.438 3.531t3.5 1.469z"></path>
</svg>
