<!-- Generated by IcoMoon.io -->
<svg version="1.1" xmlns="http://www.w3.org/2000/svg" width="32" height="32" viewBox="0 0 32 32">
<title>uniE23B</title>
<path d="M12 12l-4.063 3.938 4.063 4.063-2 2-3.938-4.063-4.063 4.063-2-2 4.063-4.063-4.063-3.938 2-2 4.063 4 3.938-4zM26 20q2.5 0 4.25 1.75t1.75 4.25-1.75 4.25-4.25 1.75-4.25-1.75-1.75-4.25q0-0.313 0.031-0.594t0.094-0.594l-5.875-3.188q0.563-0.875 0.938-1.75l5.688 3.063q0.813-1.313 2.156-2.125t2.969-0.813zM26 30q1.625 0 2.813-1.156t1.188-2.844q0-1.625-1.188-2.813t-2.813-1.188-2.813 1.188-1.188 2.813q0 1.688 1.188 2.844t2.813 1.156zM15.563 13.25q-0.313-1-0.75-1.875l5.625-3.188q-0.188-0.5-0.313-1.031t-0.125-1.156q0-2.5 1.75-4.25t4.25-1.75 4.25 1.75 1.75 4.25-1.75 4.25-4.25 1.75q-1.375 0-2.531-0.563t-1.969-1.5zM26 2q-1.625 0-2.813 1.188t-1.188 2.813q0 1.688 1.188 2.844t2.813 1.156 2.813-1.156 1.188-2.844q0-1.625-1.188-2.813t-2.813-1.188z"></path>
</svg>
