<!-- Generated by IcoMoon.io -->
<svg version="1.1" xmlns="http://www.w3.org/2000/svg" width="32" height="32" viewBox="0 0 32 32">
<title>uniE1BD</title>
<path d="M16 0q3.313 0 6.25 1.25t5.094 3.438 3.406 5.094 1.25 6.219-1.25 6.25-3.406 5.094-5.094 3.406-6.25 1.25-6.219-1.25-5.094-3.406-3.438-5.094-1.25-6.25 1.25-6.219 3.438-5.094 5.094-3.438 6.219-1.25zM16 30q2.875 0 5.438-1.094t4.469-3 3-4.438 1.094-5.469q0-2.875-1.094-5.438t-3-4.469-4.469-3-5.438-1.094-5.438 1.094-4.469 3-3 4.469-1.094 5.438q0 2.938 1.094 5.469t3 4.438 4.469 3 5.438 1.094zM23.688 14.25q0.688 0.688 0 1.375-0.75 0.75-1.438 0l-5.813-6q-0.375-0.375-0.688 0l-5.938 6.063q-0.75 0.75-1.438 0-0.75-0.688 0-1.438l6.313-6.375q0.563-0.563 1.375-0.563t1.438 0.563zM23.688 20.938q0.688 0.688 0 1.375-0.75 0.75-1.438 0l-5.813-6q-0.375-0.375-0.688 0l-5.938 6.063q-0.75 0.75-1.438 0-0.75-0.688 0-1.438l6.313-6.375q0.563-0.563 1.375-0.563t1.438 0.563z"></path>
</svg>
