<!-- Generated by IcoMoon.io -->
<svg version="1.1" xmlns="http://www.w3.org/2000/svg" width="32" height="32" viewBox="0 0 32 32">
<title>uniE05E</title>
<path d="M2 30h12v2h-12q-0.875 0-1.438-0.563t-0.563-1.438v-26q0-0.813 0.563-1.406t1.438-0.594h4v-2h2v2h12v-2h2v2h4q0.875 0 1.438 0.594t0.563 1.406v8h-2v-4h-24v22zM20 6h2v-2h-2v2zM6 6h2v-2h-2v2zM31.688 30.313q0.75 0.688 0 1.438-0.313 0.313-0.688 0.313t-0.688-0.313l-5.125-5.125q-1.875 1.375-4.188 1.375-1.438 0-2.719-0.563t-2.219-1.5-1.5-2.219-0.563-2.719 0.563-2.719 1.5-2.219 2.219-1.5 2.719-0.563 2.719 0.563 2.219 1.5 1.5 2.219 0.563 2.719q0 1.188-0.375 2.25t-1.063 1.938zM21 26q2.063 0 3.531-1.469t1.469-3.531-1.469-3.531-3.531-1.469-3.531 1.469-1.469 3.531 1.469 3.531 3.531 1.469z"></path>
</svg>
