<!-- Generated by IcoMoon.io -->
<svg version="1.1" xmlns="http://www.w3.org/2000/svg" width="32" height="32" viewBox="0 0 32 32">
<title>uniE178</title>
<path d="M31.938 4.563v2.25h-4.625v20.563h-20.438v4.625h-2.188v-4.625h-4.625v-2.25h4.625v-20.563h20.438v-4.563h2.188v4.563h4.625zM25.125 6.813h-18.25v18.313h18.25v-18.313zM20.625 22.875h-11.438l5.75-11.438 3 6 1.563-2.563 3.438 5.688h-3.438zM21.188 12.563q-0.688 0-1.188-0.5t-0.5-1.188q0-0.75 0.5-1.25t1.188-0.5q0.75 0 1.25 0.5t0.5 1.25q0 0.688-0.5 1.188t-1.25 0.5z"></path>
</svg>
