<!-- Generated by IcoMoon.io -->
<svg version="1.1" xmlns="http://www.w3.org/2000/svg" width="19" height="32" viewBox="0 0 19 32">
<title>uniE22F</title>
<path d="M15.375 15.938q0.438 0.375 1.063 0.75t1.188 1.031 0.969 1.719 0.406 2.813q0 2-0.906 3.438t-2.25 2.406-2.875 1.438-2.781 0.469h-9q-0.5 0-0.844-0.344t-0.344-0.844v-25.75q0-0.5 0.313-0.781t0.813-0.281h8.875q1.313 0 2.781 0.406t2.688 1.281 2 2.344 0.844 3.531q0 1.125-0.281 2.031t-0.719 1.594-0.938 1.188-0.938 0.875q-0.375 0.375-0.063 0.688zM4 13.813q0 0.188 0.188 0.188h4.438q0.938 0 1.875-0.188t1.656-0.656 1.125-1.25 0.406-1.906q0-1.25-0.438-2.031t-1.094-1.219-1.469-0.594-1.625-0.156h-3.938q-0.5 0-0.813 0.281t-0.313 0.781v6.75zM9.563 26q0.75 0 1.531-0.219t1.438-0.688 1.063-1.219 0.406-1.875q0-1.188-0.406-1.969t-1.063-1.219-1.5-0.625-1.656-0.188h-5.188q-0.188 0-0.188 0.125v7.688q0 0.188 0.188 0.188h5.375z"></path>
</svg>
