<!-- Generated by IcoMoon.io -->
<svg version="1.1" xmlns="http://www.w3.org/2000/svg" width="32" height="32" viewBox="0 0 32 32">
<title>uniE1E9</title>
<path d="M16 6q2.25 0 4.531 0.625t4.375 1.875 3.906 3.094 3.188 4.344q-1.375 2.5-3.188 4.375t-3.906 3.156-4.375 1.906-4.531 0.625h-0.063q-2.25 0-4.531-0.625t-4.375-1.875-3.906-3.125-3.125-4.375q1.375-2.5 3.188-4.375t3.938-3.125 4.375-1.875 4.5-0.625zM15.938 24q4.125 0 7.75-2.156t6-5.906q-2.313-3.75-5.938-5.844t-7.75-2.094-7.75 2.125-5.938 5.875q2.313 3.75 5.906 5.875t7.719 2.125zM16 10q2.5 0 4.25 1.75t1.75 4.25-1.75 4.25-4.25 1.75-4.25-1.75-1.75-4.25 1.75-4.25 4.25-1.75zM18.438 15.063q0.688 0 1.125-0.438t0.438-1.063q0-0.688-0.438-1.125t-1.125-0.438q-0.625 0-1.063 0.438t-0.438 1.125q0 0.625 0.438 1.063t1.063 0.438z"></path>
</svg>
