<!-- Generated by IcoMoon.io -->
<svg version="1.1" xmlns="http://www.w3.org/2000/svg" width="16" height="32" viewBox="0 0 16 32">
<title>uniE159</title>
<path d="M14 0q0.875 0 1.438 0.563t0.563 1.438v28q0 0.875-0.563 1.438t-1.438 0.563h-12q-0.813 0-1.406-0.563t-0.594-1.438v-28q0-0.875 0.594-1.438t1.406-0.563h12zM14 2h-12v28h12v-28zM5 26q-1 0-1-1t1-1h6q1 0 1 1t-1 1h-6zM10 8q-0.875 0-1.438-0.563t-0.563-1.438 0.563-1.438 1.438-0.563 1.438 0.563 0.563 1.438-0.563 1.438-1.438 0.563z"></path>
</svg>
