<!-- Generated by IcoMoon.io -->
<svg version="1.1" xmlns="http://www.w3.org/2000/svg" width="32" height="32" viewBox="0 0 32 32">
<title>uniE0FC</title>
<path d="M15.938 16.25l-15.875-5.313 15.875-5.25 15.875 5.25-2.688 0.938v7.563h-1.313v-7.188zM25.75 14.25q0.75 0.938 0.75 2t-0.844 2.031-2.281 1.688-3.344 1.125-4.094 0.406-4.125-0.406-3.375-1.125-2.25-1.656-0.813-2.063q0-1.188 0.375-2.125l10.188 3.438zM28.438 20.75q0.875 0 1.438 0.594t0.563 1.406-0.563 1.406-1.438 0.594q-0.813 0-1.375-0.594t-0.563-1.406 0.563-1.406 1.375-0.594zM29.125 26.063l1.313 3.938h-3.938l1.313-3.938h1.313z"></path>
</svg>
