<!-- Generated by IcoMoon.io -->
<svg version="1.1" xmlns="http://www.w3.org/2000/svg" width="32" height="32" viewBox="0 0 32 32">
<title>uniE039</title>
<path d="M2 24h6v2h-6q-0.875 0-1.438-0.563t-0.563-1.438v-22q0-0.813 0.563-1.406t1.438-0.594h16q0.813 0 1.406 0.594t0.594 1.406v2h-2v-2h-16v22zM30 6q0.813 0 1.406 0.594t0.594 1.406v22q0 0.875-0.594 1.438t-1.406 0.563h-16q-0.875 0-1.438-0.563t-0.563-1.438v-4h2v4h16v-22h-16v4.063h-2v-4.063q0-0.813 0.563-1.406t1.438-0.594h16zM23.438 17.5q0.563 0.625 0.563 1.438t-0.563 1.438l-5.75 5.375q-0.313 0.313-0.688 0.313t-0.688-0.313-0.313-0.719 0.313-0.719l4.688-4.313h-11.938q-1 0-1-1t1-1h11.938l-4.688-4.25q-0.313-0.313-0.313-0.719t0.313-0.719 0.688-0.313 0.688 0.313z"></path>
</svg>
