<!-- Generated by IcoMoon.io -->
<svg version="1.1" xmlns="http://www.w3.org/2000/svg" width="24" height="32" viewBox="0 0 24 32">
<title>uniE1A9</title>
<path d="M22 4q0.875 0 1.438 0.563t0.563 1.438v24q0 0.813-0.563 1.406t-1.438 0.594h-20q-0.813 0-1.406-0.594t-0.594-1.406v-24q0-0.875 0.594-1.438t1.406-0.563h4.188q0.625-1.688 2.375-2 0.5-0.875 1.406-1.438t2.031-0.563 2.063 0.563 1.438 1.438q0.813 0.125 1.438 0.656t0.875 1.344h4.188zM9 4q-1 0-1 1 0 0.375 0.281 0.688t0.719 0.313h6q0.438 0 0.719-0.313t0.281-0.688q0-1-1-1h-1q0-0.875-0.563-1.438t-1.438-0.563q-0.813 0-1.406 0.563t-0.594 1.438h-1zM22 6h-4.188q-0.125 0.313-0.25 0.594t-0.375 0.594q-0.625 0.813-1.625 0.813h-7.125q-0.938 0-1.563-0.813-0.313-0.313-0.438-0.594t-0.25-0.594h-4.188v24h20v-24zM7 12q1 0 1 1 0 0.375-0.281 0.688t-0.719 0.313-0.719-0.313-0.281-0.688q0-1 1-1zM7 16q1 0 1 1 0 0.375-0.281 0.688t-0.719 0.313-0.719-0.313-0.281-0.688q0-1 1-1zM7 20q1 0 1 1 0 0.375-0.281 0.688t-0.719 0.313-0.719-0.313-0.281-0.688q0-1 1-1zM17 20q1 0 1 1 0 0.375-0.281 0.688t-0.719 0.313h-6q-0.375 0-0.688-0.313t-0.313-0.688q0-0.438 0.313-0.719t0.688-0.281h6zM17 16q1 0 1 1 0 0.375-0.281 0.688t-0.719 0.313h-6q-0.375 0-0.688-0.313t-0.313-0.688q0-0.438 0.313-0.719t0.688-0.281h6zM17 12q1 0 1 1 0 0.375-0.281 0.688t-0.719 0.313h-6q-0.375 0-0.688-0.313t-0.313-0.688q0-0.438 0.313-0.719t0.688-0.281h6z"></path>
</svg>
