<!-- Generated by IcoMoon.io -->
<svg version="1.1" xmlns="http://www.w3.org/2000/svg" width="30" height="32" viewBox="0 0 30 32">
<title>uniE208</title>
<path d="M20.063 12.75q0.75 0.688 0 1.438l-15.5 15.5q-0.313 0.313-0.75 0.313t-0.688-0.313l-2.813-2.813q-0.313-0.313-0.313-0.688t0.313-0.688l12-12.063 3.563-3.5q0.313-0.313 0.688-0.313t0.688 0.313zM15.125 16.313l-1.375-1.438-11.313 11.313 1.375 1.438zM26.313 4h3.688l-2.938 2.438 1.25 4-3.313-2.5-3.375 2.5 1.313-4-2.938-2.438h3.688l1.313-3.625zM30 18l-2.938 2.438 1.25 4-3.313-2.5-3.375 2.5 1.313-4-2.938-2.438h3.688l1.313-3.625 1.313 3.625h3.688zM6.938 6.438l-2.938-2.438h3.75l1.313-3.625 1.313 3.625h3.688l-2.938 2.438 1.25 4-3.313-2.5-3.438 2.5z"></path>
</svg>
