<!-- Generated by IcoMoon.io -->
<svg version="1.1" xmlns="http://www.w3.org/2000/svg" width="31" height="32" viewBox="0 0 31 32">
<title>uniE06E</title>
<path d="M14 32h-11.938q-0.875 0-1.469-0.563t-0.594-1.438v-22l8-8h14q0.875 0 1.438 0.594t0.563 1.406v9.063h-2v-9.063h-12v6q0 0.875-0.594 1.438t-1.406 0.563h-6v20h12v2zM31.688 30.313q0.75 0.688 0 1.438-0.313 0.313-0.688 0.313t-0.688-0.313l-5.125-5.125q-1.875 1.375-4.188 1.375-1.438 0-2.719-0.563t-2.219-1.5-1.5-2.219-0.563-2.719 0.563-2.719 1.5-2.219 2.219-1.5 2.719-0.563 2.719 0.563 2.219 1.5 1.5 2.219 0.563 2.719q0 1.188-0.375 2.25t-1.063 1.938zM21 26q2.063 0 3.531-1.469t1.469-3.531-1.469-3.531-3.531-1.469-3.531 1.469-1.469 3.531 1.469 3.531 3.531 1.469z"></path>
</svg>
