<!-- Generated by IcoMoon.io -->
<svg version="1.1" xmlns="http://www.w3.org/2000/svg" width="28" height="32" viewBox="0 0 28 32">
<title>uniE075</title>
<path d="M27.375 2.688q0.563 0.563 0.625 1.531t-0.188 2-0.781 2-1.094 1.531l-2.813 2.813 4.25 12.75-4.25 4.25-5.688-11.313-5.438 4.125v5.625l-2 2-3.875-6.125-6.125-3.875 2-2h5.688l4.125-5.438-11.313-5.625 4.25-4.25 12.688 4.25 2.813-2.813q0.875-0.875 2.313-1.5t2.813-0.625q1.313 0 2 0.688zM24.5 8.313q0.438-0.438 0.781-1.063t0.531-1.281 0.219-1.188-0.094-0.719h-0.125q-0.125 0-0.219-0.031t-0.219-0.031q-0.938 0-2.063 0.5t-1.625 1l-3.688 3.688-1.188-0.375-11.563-3.813-1.375 1.375 10.938 5.5-1.438 1.938-4.125 5.375-0.563 0.813h-4.938l3.438 2.188 0.375 0.25 0.25 0.375 2.188 3.438v-4.875l0.813-0.625 5.438-4.125 1.938-1.438 5.5 11 1.375-1.438-3.875-11.563-0.375-1.125 0.875-0.875z"></path>
</svg>
