<!-- Generated by IcoMoon.io -->
<svg version="1.1" xmlns="http://www.w3.org/2000/svg" width="32" height="32" viewBox="0 0 32 32">
<title>uniE1C4</title>
<path d="M16 0q3.313 0 6.25 1.25t5.094 3.406 3.406 5.094 1.25 6.25-1.25 6.219-3.406 5.094-5.094 3.438-6.25 1.25-6.219-1.25-5.094-3.438-3.438-5.094-1.25-6.219 1.25-6.25 3.438-5.094 5.094-3.406 6.219-1.25zM16 30q2.875 0 5.438-1.094t4.469-3 3-4.469 1.094-5.438-1.094-5.438-3-4.469-4.469-3-5.438-1.094-5.438 1.094-4.469 3-3 4.469-1.094 5.438 1.094 5.438 3 4.469 4.469 3 5.438 1.094zM15.813 6.5q2.688 0 4.281 1.344t1.594 3.469q0 1.375-0.813 2.281t-1.563 1.781q-0.5 0.563-0.938 0.938t-0.719 0.844-0.406 1.125 0 1.719h-3.063q0-1 0.031-1.719t0.281-1.313 0.75-1.156 1.375-1.313l1.313-1.063q0.438-0.313 0.875-1t0.438-1.313q0-0.938-0.906-1.813t-2.344-0.875-2.375 0.906-1.188 2.344h-3.063q0-0.875 0.469-1.813t1.313-1.688 2.031-1.219 2.625-0.469zM16 22q0.875 0 1.438 0.563t0.563 1.438q0 0.813-0.563 1.406t-1.438 0.594q-0.813 0-1.406-0.594t-0.594-1.406q0-0.875 0.594-1.438t1.406-0.563z"></path>
</svg>
