<!-- Generated by IcoMoon.io -->
<svg version="1.1" xmlns="http://www.w3.org/2000/svg" width="28" height="32" viewBox="0 0 28 32">
<title>uniE010</title>
<path d="M27.75 20q-0.375 2.563-1.594 4.75t-3.031 3.781-4.156 2.531-5.031 0.938q-2.875 0-5.406-1.094t-4.438-3-3-4.438-1.094-5.469q0-2.813 1.031-5.313t2.844-4.375 4.25-3 5.25-1.25h3.813q1.625 0 3.75-0.063l-2.563-2.25q-0.313-0.313-0.313-0.719t0.313-0.719 0.688-0.313 0.688 0.313l3.625 3.188q0.563 0.625 0.563 1.438t-0.563 1.438l-3.563 3.375q-0.313 0.313-0.688 0.313t-0.688-0.313-0.313-0.719 0.313-0.719l2.5-2.313h-7q-2.5 0-4.656 0.938t-3.781 2.563-2.563 3.813-0.938 4.688 0.938 4.688 2.563 3.813 3.781 2.563 4.656 0.938q2.25 0 4.25-0.75t3.531-2.094 2.594-3.156 1.438-4h2z"></path>
</svg>
