<!-- Generated by IcoMoon.io -->
<svg version="1.1" xmlns="http://www.w3.org/2000/svg" width="32" height="32" viewBox="0 0 32 32">
<title>uniE0A6</title>
<path d="M30 12q0.875 0 1.438 0.563t0.563 1.438v4q0 0.813-0.563 1.406t-1.438 0.594h-1.75q-0.188 0.5-0.375 0.938l-0.375 0.875 1.25 1.25q0.563 0.563 0.563 1.406t-0.563 1.406l-2.875 2.875q-0.563 0.563-1.375 0.563-0.875 0-1.438-0.563l-1.25-1.313q-0.438 0.25-0.875 0.438t-0.938 0.375v1.75q0 0.813-0.563 1.406t-1.438 0.594h-4q-0.875 0-1.438-0.594t-0.563-1.406v-1.75q-0.5-0.188-0.938-0.375t-0.875-0.438l-1.25 1.313q-0.563 0.563-1.438 0.563-0.813 0-1.375-0.563l-2.875-2.875q-0.563-0.563-0.563-1.406t0.563-1.406l1.25-1.25q-0.188-0.438-0.406-0.875t-0.344-0.938h-1.75q-0.875 0-1.438-0.594t-0.563-1.406v-4q0-0.875 0.563-1.438t1.438-0.563h1.75q0.125-0.5 0.344-0.938t0.406-0.875l-1.25-1.25q-0.563-0.625-0.563-1.438t0.563-1.375l2.875-2.875q0.563-0.563 1.375-0.563 0.875 0 1.438 0.563l1.25 1.25q0.438-0.188 0.875-0.406t0.938-0.344v-1.75q0-0.875 0.563-1.438t1.438-0.563h4q0.875 0 1.438 0.563t0.563 1.438v1.75q0.5 0.125 0.938 0.344t0.875 0.406l1.25-1.25q0.563-0.563 1.438-0.563 0.813 0 1.375 0.563l2.875 2.875q0.563 0.563 0.563 1.375t-0.563 1.438l-1.25 1.25 0.375 0.875t0.375 0.938h1.75zM30 14h-3.25l-0.438-1.375q-0.125-0.375-0.281-0.781t-0.344-0.781l-0.688-1.25 2.313-2.313-2.813-2.813-1.25 1.25-1.063 1-1.313-0.625q-0.375-0.188-0.75-0.344t-0.75-0.281l-1.375-0.5v-3.188h-4v3.188l-1.375 0.5q-0.375 0.125-0.781 0.281t-0.781 0.344l-1.25 0.625-1.063-1-1.25-1.25-2.813 2.813 1.25 1.25 1 1.063-0.625 1.25q-0.188 0.375-0.344 0.781t-0.281 0.781l-0.5 1.375h-3.188v4h3.188l0.5 1.375q0.125 0.375 0.281 0.75t0.344 0.75l0.625 1.313-1 1.063-1.25 1.25 2.813 2.813 2.313-2.313 1.25 0.688q0.375 0.188 0.781 0.344t0.781 0.281l1.375 0.438v3.25h4v-3.25l1.375-0.438q0.375-0.125 0.75-0.281t0.75-0.344l1.313-0.688 2.313 2.313 2.813-2.813-2.313-2.313 0.688-1.313q0.188-0.375 0.344-0.75t0.281-0.75l0.438-1.375h3.25v-4zM16 10q2.5 0 4.25 1.75t1.75 4.25-1.75 4.25-4.25 1.75-4.25-1.75-1.75-4.25 1.75-4.25 4.25-1.75zM16 20q1.625 0 2.813-1.188t1.188-2.813-1.188-2.813-2.813-1.188-2.813 1.188-1.188 2.813 1.188 2.813 2.813 1.188z"></path>
</svg>
