<!-- Generated by IcoMoon.io -->
<svg version="1.1" xmlns="http://www.w3.org/2000/svg" width="24" height="32" viewBox="0 0 24 32">
<title>uniE165</title>
<path d="M23.438 20.313v2.375h-23.313v-2.375h11.625l-6.5-11.438q-0.313-0.625-0.406-1.25t-0.094-1.25q0-1.438 0.563-2.719t1.5-2.219 2.219-1.5 2.781-0.563q1.438 0 2.719 0.563t2.219 1.5 1.5 2.219 0.563 2.719q0 1.188-0.5 2.563l-6.5 11.375h11.625zM7.125 6.375q0 0.875 0.25 1.625l4.438 7.688 4.313-7.688q0.313-0.688 0.313-1.625 0-1.938-1.344-3.281t-3.281-1.344q-2 0-3.344 1.344t-1.344 3.281zM0.125 25h23.313v7h-23.313v-7zM7.125 29.625h9.313v-2.25h-9.313v2.25zM2.875 18.063h-2.75l2.875-4.625h2.125l2 2.25h-2.875zM18.438 13.438h2.125l2.875 4.625h-2.813l-1.313-2.375h-2.188zM14.063 6.375q0 0.938-0.656 1.625t-1.594 0.688q-1.063 0-1.719-0.688t-0.656-1.625q0-1 0.656-1.688t1.719-0.688q0.938 0 1.594 0.688t0.656 1.688z"></path>
</svg>
