<!-- Generated by IcoMoon.io -->
<svg version="1.1" xmlns="http://www.w3.org/2000/svg" width="30" height="32" viewBox="0 0 30 32">
<title>uniE24E</title>
<path d="M30 24v2h-6v6h-2v-6h-6v-2h6v-6h2v6h6zM2 30h14v2h-14q-0.813 0-1.406-0.594t-0.594-1.406v-28q0-0.875 0.594-1.438t1.406-0.563h20q0.875 0 1.438 0.563t0.563 1.438v12h-2v-12h-20v28zM19 6q1 0 1 1 0 0.375-0.281 0.688t-0.719 0.313h-8q-0.375 0-0.688-0.313t-0.313-0.688q0-0.438 0.313-0.719t0.688-0.281h8zM19 12q1 0 1 1 0 0.375-0.281 0.688t-0.719 0.313h-8q-0.375 0-0.688-0.313t-0.313-0.688q0-0.438 0.313-0.719t0.688-0.281h8zM19 18q1 0 1 1 0 0.375-0.281 0.688t-0.719 0.313h-8q-0.375 0-0.688-0.313t-0.313-0.688q0-0.438 0.313-0.719t0.688-0.281h8zM7 6q1 0 1 1 0 0.375-0.281 0.688t-0.719 0.313h-2q-0.375 0-0.688-0.313t-0.313-0.688q0-0.438 0.313-0.719t0.688-0.281h2zM7 12q1 0 1 1 0 0.375-0.281 0.688t-0.719 0.313h-2q-0.375 0-0.688-0.313t-0.313-0.688q0-0.438 0.313-0.719t0.688-0.281h2zM7 18q1 0 1 1 0 0.375-0.281 0.688t-0.719 0.313h-2q-0.375 0-0.688-0.313t-0.313-0.688q0-0.438 0.313-0.719t0.688-0.281h2z"></path>
</svg>
