<!-- Generated by IcoMoon.io -->
<svg version="1.1" xmlns="http://www.w3.org/2000/svg" width="28" height="32" viewBox="0 0 28 32">
<title>uniE237</title>
<path d="M6.063 20.25h-5.813v-0.75q0-0.063 0.031-0.094t0.031-0.094 0.125-0.188l0.125-0.125 2.375-2.438 0.313-0.313q0.063-0.125 0.25-0.313 0.063-0.063 0.094-0.125t0.094-0.125q0.063-0.125 0.188-0.25 0-0.063 0.125-0.313 0.063-0.063 0.063-0.25 0.063-0.125 0.063-0.313 0.063-0.063 0.063-0.313 0-0.125-0.031-0.219t-0.031-0.219q-0.063-0.125-0.094-0.156t-0.094-0.156q-0.188-0.188-0.313-0.188-0.125-0.063-0.438-0.063h-0.375l-0.125 0.125q-0.063 0-0.125 0.063l-0.125 0.125q-0.125 0-0.125 0.125-0.063 0-0.063 0.125-0.063 0.063-0.063 0.094t-0.063 0.094q0 0.063-0.031 0.094t-0.031 0.094l-0.125 0.125q-0.063 0.063-0.094 0.063t-0.094 0.063h-0.438l-0.938-0.188q0-0.188 0.125-0.563t0.25-0.5q0.063-0.25 0.25-0.438 0.25-0.25 0.313-0.375 0.125-0.063 0.219-0.125t0.219-0.125 0.25-0.094 0.25-0.094q0.25-0.125 0.5-0.125 0.125 0 0.281-0.031t0.281-0.031 0.281 0.031 0.281 0.031l0.563 0.188q0.125 0 0.219 0.063t0.219 0.125 0.188 0.125 0.188 0.125q0.25 0.25 0.313 0.375 0.125 0.188 0.25 0.438 0.063 0.125 0.063 0.219t0.063 0.219v1q0 0.125-0.125 0.375 0 0.188-0.125 0.438-0.063 0.063-0.188 0.313t-0.25 0.375q-0.063 0.125-0.25 0.313l-2.125 2.125h2.625q0.188 0 0.25 0.063 0.063 0 0.188 0.125 0.063 0.063 0.063 0.094t0.063 0.094v1.25zM4.813 27.438q0.75 0.25 1.063 0.688 0.313 0.5 0.313 1.188 0 0.438-0.063 0.625 0 0.313-0.188 0.563-0.125 0.313-0.25 0.438l-0.375 0.375q-0.063 0.063-0.438 0.313-0.125 0.063-0.5 0.188t-0.5 0.125-0.313 0.031-0.313 0.031-0.281-0.031-0.281-0.031-0.219-0.031-0.219-0.031q-0.125-0.063-0.25-0.094t-0.25-0.094-0.188-0.125-0.188-0.125q-0.188-0.125-0.313-0.313-0.125-0.125-0.156-0.188t-0.156-0.188q-0.063-0.125-0.094-0.25t-0.156-0.25q-0.063-0.125-0.094-0.25t-0.156-0.25l0.813-0.375h0.25q0-0.063 0.063-0.063h0.25q0.063 0.063 0.188 0.063l0.125 0.125 0.063 0.125q0.125 0.125 0.156 0.188t0.156 0.188q0.063 0.125 0.125 0.156t0.125 0.156q0.25 0.125 0.313 0.125 0.125 0.063 0.375 0.063h0.25q0.125-0.063 0.25-0.063l0.25-0.125 0.125-0.125t0.125-0.188q0.063-0.063 0.063-0.188 0.063-0.063 0.063-0.25 0.063-0.063 0.063-0.188v-0.25q0-0.063-0.031-0.094t-0.031-0.156-0.063-0.188l-0.313-0.313q-0.125 0-0.188-0.031t-0.188-0.031q-0.063-0.063-0.375-0.063-0.188-0.063-0.563-0.063v-1.188q0.313 0 0.5-0.063 0.25 0 0.313-0.063 0.125 0 0.188-0.031t0.125-0.031q0.063-0.063 0.125-0.094t0.125-0.094l0.125-0.125q0.063-0.063 0.063-0.188 0.063-0.063 0.063-0.188v-0.25q0-0.313-0.063-0.438 0-0.188-0.188-0.313-0.125-0.188-0.25-0.188-0.125-0.063-0.438-0.063h-0.375q-0.063 0.063-0.094 0.063t-0.094 0.063q-0.063 0-0.125 0.063l-0.25 0.25-0.063 0.125q0 0.063-0.063 0.125l-0.125 0.25q0 0.063-0.063 0.125t-0.094 0.063-0.094 0.063h-0.5l-0.938-0.188q0.063-0.125 0.063-0.281t0.063-0.281q0.125-0.375 0.25-0.563 0.063-0.125 0.313-0.375 0.063-0.125 0.313-0.375 0.125-0.063 0.219-0.125t0.219-0.125 0.219-0.094 0.219-0.094q0.375-0.125 0.5-0.125 0.188-0.063 0.625-0.063 0.375 0 0.563 0.063 0.125 0.063 0.25 0.063t0.25 0.063 0.219 0.094 0.219 0.156q0.25 0.125 0.375 0.25 0.188 0.125 0.313 0.313l0.188 0.375q0.125 0.25 0.125 0.375t0.031 0.219 0.031 0.219q0 0.25-0.063 0.375 0 0.25-0.063 0.375 0 0.063-0.031 0.094t-0.031 0.156q-0.063 0.063-0.063 0.125t-0.063 0.063q-0.063 0.125-0.188 0.25l-0.188 0.188q-0.25 0.125-0.313 0.125-0.125 0.125-0.25 0.125zM0.625 2.938l-0.063-0.063-0.563-0.75 2.625-2.125h1.688v8.125h-2v-5.938l-0.938 0.75q0 0.063-0.063 0.063-0.063 0.063-0.125 0.063l-0.063 0.063h-0.25q-0.063-0.063-0.125-0.063zM27 4.063q1 0 1 1 0 0.375-0.281 0.688t-0.719 0.313h-11.938q-0.375 0-0.688-0.313t-0.313-0.688q0-0.438 0.313-0.719t0.688-0.281h11.938zM27 16q1 0 1 1 0 0.375-0.281 0.688t-0.719 0.313h-11.938q-0.375 0-0.688-0.313t-0.313-0.688q0-0.438 0.313-0.719t0.688-0.281h11.938zM27 28q1 0 1 1 0 0.375-0.281 0.688t-0.719 0.313h-11.938q-0.375 0-0.688-0.313t-0.313-0.688q0-0.438 0.313-0.719t0.688-0.281h11.938z"></path>
</svg>
