<!-- Generated by IcoMoon.io -->
<svg version="1.1" xmlns="http://www.w3.org/2000/svg" width="28" height="32" viewBox="0 0 28 32">
<title>uniE1E8</title>
<path d="M27.5 14.5q0.563 0.625 0.563 1.438t-0.563 1.438l-3.75 3.313q-0.313 0.313-0.688 0.313t-0.688-0.313-0.313-0.719 0.313-0.719l2.688-2.25h-10v10l2.313-2.75q0.313-0.313 0.719-0.313t0.719 0.313q0.688 0.688 0 1.375l-3.25 3.813q-0.625 0.563-1.438 0.563t-1.438-0.563l-3.313-3.813q-0.313-0.313-0.313-0.688t0.313-0.688 0.719-0.313 0.719 0.313l2.25 2.75v-10h-10l2.75 2.25q0.313 0.313 0.313 0.719t-0.313 0.719-0.688 0.313-0.688-0.313l-3.813-3.313q-0.563-0.625-0.563-1.438t0.563-1.438l3.813-3.25q0.688-0.688 1.375 0 0.313 0.313 0.313 0.719t-0.313 0.719l-2.75 2.313h10v-10l-2.25 2.688q-0.313 0.313-0.719 0.313t-0.719-0.313-0.313-0.688 0.313-0.688l3.313-3.75q0.625-0.563 1.438-0.563t1.438 0.563l3.25 3.75q0.313 0.313 0.313 0.688t-0.313 0.688-0.719 0.313-0.719-0.313l-2.313-2.688v10h10l-2.688-2.313q-0.313-0.313-0.313-0.719t0.313-0.719 0.688-0.313 0.688 0.313l3.75 3.25z"></path>
</svg>
