<!-- Generated by IcoMoon.io -->
<svg version="1.1" xmlns="http://www.w3.org/2000/svg" width="32" height="32" viewBox="0 0 32 32">
<title>uniE10D</title>
<path d="M19.938 14.75q0.313 0.438 0.688 0.563v-2.875q-1.438-0.375-2.031-1.156t-0.594-1.844q0-2.438 2.625-2.813v-0.625h1v0.625q2.188 0.375 2.563 2.375l-1.75 0.25q-0.188-0.875-0.813-1.125v2.688q1.5 0.5 2.188 1.125t0.688 1.875q0 1.188-0.813 2.094t-2.063 1.031v1.313h-1v-1.313q-2.375-0.188-2.938-2.938l1.875-0.188q0.063 0.688 0.375 0.938zM21.625 15.438q1.125-0.313 1.125-1.375 0-0.938-1.125-1.313v2.688zM20.625 8.125q-0.5 0.125-0.719 0.5t-0.219 0.688q0 0.938 0.938 1.188v-2.375zM26 0q0.875 0 1.438 0.594t0.563 1.406v28q0 0.875-0.563 1.438t-1.375 0.563h-24q-0.875 0-1.469-0.563t-0.594-1.438v-22l8-8h18zM26.063 30l-0.063-28h-16v6q0 0.875-0.594 1.438t-1.406 0.563h-6v20h24.063zM22.938 22q1 0 1 1 0 0.375-0.281 0.688t-0.719 0.313h-4q-0.375 0-0.688-0.313t-0.313-0.688q0-0.438 0.313-0.719t0.688-0.281h4zM22.938 26q1 0 1 1 0 0.375-0.281 0.688t-0.719 0.313h-4q-0.375 0-0.688-0.313t-0.313-0.688q0-0.438 0.313-0.719t0.688-0.281h4zM10 22q2.938 0 4.469 1.313t1.531 4.688h-12q0-3.375 1.531-4.688t4.469-1.313zM14 18q0 1.625-1.188 2.813t-2.813 1.188-2.813-1.188-1.188-2.813q0-1.688 1.188-2.844t2.813-1.156 2.813 1.156 1.188 2.844z"></path>
</svg>
