<!-- Generated by IcoMoon.io -->
<svg version="1.1" xmlns="http://www.w3.org/2000/svg" width="28" height="32" viewBox="0 0 28 32">
<title>uniE129</title>
<path d="M11.5 2q0.5 0 0.5 0.5v27q0 0.5-0.5 0.5h-11q-0.5 0-0.5-0.5v-27q0-0.5 0.5-0.5h11zM27.5 2q0.5 0 0.5 0.5v11q0 0.5-0.5 0.5h-13q-0.5 0-0.5-0.5v-11q0-0.5 0.5-0.5h13zM27.5 16q0.5 0 0.5 0.5v5q0 0.5-0.5 0.5h-5q-0.5 0-0.5-0.5v-5q0-0.5 0.5-0.5h5zM27.5 24q0.5 0 0.5 0.5v5q0 0.5-0.5 0.5h-5q-0.5 0-0.5-0.5v-5q0-0.5 0.5-0.5h5zM19.5 16q0.5 0 0.5 0.5v13q0 0.5-0.5 0.5h-5q-0.5 0-0.5-0.5v-13q0-0.5 0.5-0.5h5z"></path>
</svg>
