<!-- Generated by IcoMoon.io -->
<svg version="1.1" xmlns="http://www.w3.org/2000/svg" width="28" height="32" viewBox="0 0 28 32">
<title>uniE249</title>
<path d="M8 22l4.063-4.063-4.063-3.938 2-2 4.063 4 3.938-4 2 2-4.063 3.938 4.063 4.063-2 2-3.938-4.063-4.063 4.063zM2 20q0.375 2.188 1.438 4t2.594 3.156 3.531 2.094 4.25 0.75q2.5 0 4.656-0.938t3.781-2.563 2.563-3.813 0.938-4.688-0.938-4.688-2.563-3.813-3.781-2.563-4.656-0.938h-8.875l2.5 2.313q0.313 0.313 0.313 0.719t-0.313 0.719-0.688 0.313-0.688-0.313l-3.563-3.375q-0.563-0.625-0.563-1.438t0.563-1.438l3.625-3.188q0.688-0.688 1.375 0 0.313 0.313 0.313 0.719t-0.313 0.719l-2.563 2.25q2.625 0.063 4.688 0.063h4.75q2.813 0.125 5.25 1.25t4.25 3 2.844 4.375 1.031 5.313q0 2.938-1.094 5.469t-3 4.438-4.438 3-5.406 1.094q-2.688 0-5.031-0.938t-4.188-2.531-3.031-3.781-1.563-4.75h2z"></path>
</svg>
