<!-- Generated by IcoMoon.io -->
<svg version="1.1" xmlns="http://www.w3.org/2000/svg" width="33" height="32" viewBox="0 0 33 32">
<title>uniE062</title>
<path d="M31.875 14.063v15.938h-1.875v-3.875h-28v3.875h-1.938v-20h1.938v14.125h28v-10.063h1.875zM7.063 21.125q-1.125 0-1.844-0.781t-0.719-1.781q0-1.125 0.719-1.844t1.844-0.719q1.063 0 1.75 0.719t0.688 1.844q0 1-0.688 1.781t-1.75 0.781zM23.375 17.75q0.938 0 1.75 0.188t1.5 0.75 1.031 1.375 0.281 1.875h-17.625l0.344-0.438t0.563-1.031 0.344-1.188 0.125-1.531h11.688z"></path>
</svg>
