<!-- Generated by IcoMoon.io -->
<svg version="1.1" xmlns="http://www.w3.org/2000/svg" width="24" height="32" viewBox="0 0 24 32">
<title>uniE1B4</title>
<path d="M22 0q0.875 0 1.438 0.594t0.563 1.406v28q0 0.875-0.563 1.438t-1.375 0.563h-20q-0.875 0-1.469-0.563t-0.594-1.438v-22l8-8h14zM22.063 30l-0.063-28h-12v6q0 0.875-0.594 1.438t-1.406 0.563h-6v20h20.063zM17 24q1 0 1 1 0 0.375-0.281 0.688t-0.719 0.313h-10q-0.375 0-0.688-0.313t-0.313-0.688q0-0.438 0.313-0.719t0.688-0.281h10zM17 20q1 0 1 1 0 0.375-0.281 0.688t-0.719 0.313h-10q-0.375 0-0.688-0.313t-0.313-0.688q0-0.438 0.313-0.719t0.688-0.281h10z"></path>
</svg>
