<!-- Generated by IcoMoon.io -->
<svg version="1.1" xmlns="http://www.w3.org/2000/svg" width="32" height="32" viewBox="0 0 32 32">
<title>uniE139</title>
<path d="M3.438 2.313q0.25-0.125 0.531-0.188t0.594-0.125h1.438v2h-2q0 1.313-0.25 2.094t-0.563 1.219-0.656 0.563-0.531 0.125q0.188 0 0.531 0.156t0.656 0.563 0.563 1.188 0.25 2.094h2v2h-1.438q-0.313-0.063-0.594-0.125t-0.531-0.188q-0.438-0.25-0.781-0.656t-0.344-1.281q0-1.688-0.719-1.969t-1.594-0.281v-2.938q0.438 0 0.844-0.031t0.75-0.25 0.531-0.688 0.188-1.344 0.344-1.281 0.781-0.656zM29.625 20.25q0 0.875 0.219 1.344t0.531 0.688 0.75 0.25 0.875 0.031v2.938q-0.875 0-1.625 0.281t-0.75 1.969q0 0.875-0.344 1.281t-0.781 0.656q-0.25 0.125-0.531 0.188t-0.594 0.125h-1.375v-2h2q0-1.313 0.25-2.094t0.563-1.188 0.656-0.563 0.531-0.156q-0.188 0-0.531-0.125t-0.656-0.563-0.563-1.219-0.25-2.094h-2v-2h1.375q0.313 0.063 0.594 0.125t0.531 0.188q0.438 0.25 0.781 0.656t0.344 1.281zM22.938 8q1 0 1 1 0 0.375-0.281 0.688t-0.719 0.313h-14q-0.375 0-0.688-0.313t-0.313-0.688q0-0.438 0.313-0.719t0.688-0.281h14zM22.938 14q1 0 1 1 0 0.375-0.281 0.688t-0.719 0.313h-14q-0.375 0-0.688-0.313t-0.313-0.688q0-0.438 0.313-0.719t0.688-0.281h14zM22.938 20q1 0 1 1 0 0.375-0.281 0.688t-0.719 0.313h-14q-0.375 0-0.688-0.313t-0.313-0.688q0-0.438 0.313-0.719t0.688-0.281h14z"></path>
</svg>
