<!-- Generated by IcoMoon.io -->
<svg version="1.1" xmlns="http://www.w3.org/2000/svg" width="32" height="32" viewBox="0 0 32 32">
<title>uniE048</title>
<path d="M10.875 5.313q-0.125-0.375 0.031-0.75t0.531-0.5q0.438-0.188 0.813 0t0.5 0.563l4.125 11.25q0.125 0.438-0.063 0.813t-0.563 0.5-0.781-0.031-0.531-0.594zM30 14q1.063 0 1.656 0.844t0.219 1.844l-4.875 10.688q-0.438 1.188-1.469 1.906t-2.281 0.719h-14.438q-1.25 0-2.281-0.719t-1.469-1.906l-4.938-10.688q-0.313-1 0.25-1.844t1.625-0.844h8.375q0.438 0.438 0.813 0.75 0.313 0.313 0.563 0.625t0.25 0.625q0 1.625 1.188 2.813t2.813 1.188q1.688 0 2.844-1.188t1.156-2.813q0-0.313 0.25-0.625t0.563-0.625l0.875-0.75h8.313zM29.125 18h-7.438q-0.688 1.75-2.188 2.875t-3.5 1.125q-1.938 0-3.469-1.125t-2.156-2.875h-7.438l3.938 8.563v0.063l0.063 0.063q0.188 0.563 0.719 0.938t1.156 0.375h14.438q0.625 0 1.125-0.375t0.75-0.938v-0.063l0.063-0.063z"></path>
</svg>
