<!-- Generated by IcoMoon.io -->
<svg version="1.1" xmlns="http://www.w3.org/2000/svg" width="32" height="32" viewBox="0 0 32 32">
<title>uniE1E7</title>
<path d="M30 0q0.875 0 1.438 0.594t0.563 1.469v8.938q0 1-1 1.125-0.375-0.063-0.688-0.344t-0.313-0.719v-7.5l-26.563 26.438h7.563q0.875 0 1 0.875 0 1-1 1.125h-9q-0.875 0-1.438-0.594t-0.563-1.469v-8.813q0-1 1-1.125 0.375 0.063 0.688 0.344t0.313 0.719v7.5q0.063-0.125 0.25-0.313l26.438-26.25h-7.688q-0.875 0-1-0.875 0-1 1-1.125h9zM28 18h2v10q0 0.813-0.563 1.406t-1.438 0.594h-10v-2h10v-10zM4 14h-2v-10q0-0.875 0.594-1.438t1.406-0.563h10v2h-10v10z"></path>
</svg>
