<!-- Generated by IcoMoon.io -->
<svg version="1.1" xmlns="http://www.w3.org/2000/svg" width="32" height="32" viewBox="0 0 32 32">
<title>uniE196</title>
<path d="M8 28q0.875 0 1.438 0.594t0.563 1.406q0 0.875-0.563 1.438t-1.438 0.563q-0.813 0-1.406-0.563t-0.594-1.438q0-0.813 0.594-1.406t1.406-0.594zM26 28q0.875 0 1.438 0.594t0.563 1.406q0 0.875-0.563 1.438t-1.438 0.563q-0.813 0-1.406-0.563t-0.594-1.438q0-0.813 0.594-1.406t1.406-0.594zM30.313 8q0.875 0 1.406 0.75t0.156 1.625l-3.438 8.625q-0.375 1-1.438 1h-14.188q-1 0-1.625 0.875-0.375 0.5-0.688 1.063t-0.438 1.031 0.031 0.75 0.719 0.281h16.188q0.438 0 0.719 0.313t0.281 0.688q0 1-1 1h-18.625q-1.063 0-1.281-0.5t0.063-1.313 0.875-1.781 1.094-1.906l0.375-0.688q0.25-0.313 0.125-0.875l-4.5-11.063q-0.563-1.375-1.031-2.625t-1.531-1.25h-1.563q-0.375 0-0.688-0.281t-0.313-0.719q0-0.375 0.313-0.688t0.688-0.313h3.063q1.25 0.063 1.719 0.969t0.969 2.344l4.063 10.875q0.313 0.875 0.719 1.344t1.844 0.469h11.563q1.438 0 1.813-0.438t0.688-1.188zM25.688 6.313q0.313 0.313 0.313 0.688t-0.313 0.688-0.719 0.313-0.719-0.313l-4.25-4.688v10q-0.125 0.938-1 1.063-1 0-1-1.063v-10l-4.313 4.75q-0.313 0.313-0.719 0.281t-0.719-0.344q-0.313-0.25-0.313-0.656t0.313-0.719l5.438-5.688q0.563-0.563 1.344-0.563t1.469 0.563z"></path>
</svg>
