<!-- Generated by IcoMoon.io -->
<svg version="1.1" xmlns="http://www.w3.org/2000/svg" width="32" height="32" viewBox="0 0 32 32">
<title>uniE177</title>
<path d="M22 12q0 2.5-1.75 4.25t-4.25 1.75-4.25-1.75-1.75-4.25 1.75-4.25 4.25-1.75 4.25 1.75 1.75 4.25zM16 16q1.625 0 2.813-1.188t1.188-2.813-1.188-2.813-2.813-1.188q-1.688 0-2.844 1.188t-1.156 2.813 1.156 2.813 2.844 1.188zM10 24h12v8h-12v-8zM4 27q0-1.25 0.875-2.125t2.125-0.875h1v6h-1q-1.25 0-2.125-0.875t-0.875-2.125zM25 24q1.25 0 2.125 0.875t0.875 2.125-0.875 2.125-2.125 0.875h-1v-6h1zM18 18q2.688 0 4.031 1.031t1.719 2.969h-2.125q-0.375-0.875-1.188-1.438t-2.438-0.563h-4q-1.625 0-2.469 0.563t-1.219 1.438h-2.125q0.5-1.813 1.844-2.906t3.969-1.094h4zM16 0q3.313 0 6.219 1.25t5.094 3.406 3.438 5.094 1.25 6.25q0 2.375-0.688 4.594t-1.938 4.094q-0.5-1-1.313-1.625 0.875-1.563 1.406-3.344t0.531-3.719q0-2.875-1.094-5.438t-3-4.469-4.469-3-5.438-1.094q-2.938 0-5.469 1.094t-4.438 3-3 4.469-1.094 5.438q0 3.875 1.938 7.063-0.938 0.688-1.375 1.625-1.25-1.875-1.906-4.094t-0.656-4.594q0-3.313 1.25-6.25t3.406-5.094 5.094-3.406 6.25-1.25z"></path>
</svg>
