<!-- Generated by IcoMoon.io -->
<svg version="1.1" xmlns="http://www.w3.org/2000/svg" width="28" height="32" viewBox="0 0 28 32">
<title>uniE25E</title>
<path d="M24 2q1.688 0 2.844 1.188t1.156 2.813v8.188q0 1.813-1.375 3l-11.313 12.313q-0.5 0.5-1.313 0.5-0.75 0-1.25-0.5l-11.313-12.313q-1.438-1.25-1.438-3v-8.188q0-1.625 1.188-2.813t2.813-1.188h20zM26 6q0-0.813-0.563-1.406t-1.438-0.594h-20q-0.813 0-1.406 0.594t-0.594 1.406v8.188q0 0.875 0.75 1.5l0.063 0.063 0.063 0.125 11.125 12.125 11.188-12.125 0.063-0.125 0.063-0.063q0.688-0.563 0.688-1.5v-8.188z"></path>
</svg>
