<!-- Generated by IcoMoon.io -->
<svg version="1.1" xmlns="http://www.w3.org/2000/svg" width="32" height="32" viewBox="0 0 32 32">
<title>uniE20D</title>
<path d="M27.688 6.5q0.313 0.313 0.313 0.719t-0.313 0.719l-20.313 20.375q-0.25 0.25-0.5 0.25l-6.875 1.438 1.375-6.875q0-0.188 0.063-0.313t0.188-0.25l20.375-20.313q0.313-0.25 0.688-0.25 0.438 0 0.688 0.25zM20.125 12.688l-2.875-2.813-13.938 13.938h-0.063l2.875 2.875zM25.563 7.188l-2.875-2.75-4 4 2.813 2.813zM31.438 21.438q0.563 0.625 0.563 1.438t-0.563 1.438l-5.75 5.375q-0.313 0.313-0.688 0.313t-0.688-0.313-0.313-0.719 0.313-0.719l4.688-4.25h-5q-2.5 0-4.25 1.75t-1.75 4.25v1q0 1-1 1t-1-1v-1q0-1.688 0.625-3.125t1.719-2.531 2.563-1.719 3.094-0.625h5l-4.688-4.313q-0.313-0.313-0.313-0.719t0.313-0.719 0.688-0.313 0.688 0.313z"></path>
</svg>
