<!-- Generated by IcoMoon.io -->
<svg version="1.1" xmlns="http://www.w3.org/2000/svg" width="32" height="32" viewBox="0 0 32 32">
<title>uniE07D</title>
<path d="M31.688 7.125q-0.313 2.25-2.25 5.156t-5.313 5.719l-1.5 1.25-1.438-1.25q-3.375-2.938-5.406-5.719t-2.156-5.156v-1.25q0.125-2.5 1.719-4t3.656-1.5q0.875 0 1.969 0.5t1.656 1.313q0.875-0.813 1.688-1.313t1.938-0.5q2.313 0 3.781 1.563t1.656 3.938v1.25zM29.438 6.063q-0.188-1.375-0.938-2.313t-1.625-1.063q-1.125 0-1.906 0.656t-1.313 1.469-0.781 1.563-0.25 0.938q-0.25-0.75-0.563-1.563t-0.719-1.5-1-1.125-1.344-0.438q-0.938 0-2.031 0.781t-1.094 2.594v0.875q0 1.563 1.75 4t5 5.313q3.375-2.875 5.031-5.313t1.781-4v-0.875zM30.563 27.75q0.563 0 0.844 0.344t0.281 0.781-0.281 0.781-0.844 0.344h-9q-0.5 0-0.813-0.313l-1.188-1.438-1.5 3.188q-0.438 0.625-1.063 0.625-0.938 0-1.125-0.875l-1.438-6.125-3.188 6.313q-0.313 0.688-1 0.688-0.375 0-0.75-0.281t-0.375-0.781l-1.188-15.25-1.063 12.938q0 1.125-1.188 1.125-0.688 0-1-0.688l-0.938-2.063-1.5 4.188q-0.25 0.813-1.063 0.813-1.125 0-1.125-1.125 0-0.313 0.063-0.375l2.313-6.75q0.188-0.75 1-0.813 0.813 0 1 0.625l0.5 0.875 1.938-20.625q0.125-1.063 1.125-1.063t1.125 1.063l1.938 22.875 2.688-5.375q0.25-0.625 1-0.625 0.375 0 0.719 0.25t0.406 0.625l1.5 6.063 0.938-1.813q0.188-0.625 0.938-0.625 0.313 0 0.813 0.313l1.938 2.188h8.563z"></path>
</svg>
