<!-- Generated by IcoMoon.io -->
<svg version="1.1" xmlns="http://www.w3.org/2000/svg" width="32" height="32" viewBox="0 0 32 32">
<title>uniE179</title>
<path d="M4 24q0-3.375 1.5-4.688t4.5-1.313 4.5 1.313 1.5 4.688h-12zM14 14q0 1.625-1.188 2.813t-2.813 1.188-2.813-1.188-1.188-2.813q0-1.688 1.188-2.844t2.813-1.156 2.813 1.156 1.188 2.844zM19 12q-0.375 0-0.688-0.313t-0.313-0.688q0-0.438 0.313-0.719t0.688-0.281h6q1 0 1 1 0 0.375-0.281 0.688t-0.719 0.313h-6zM26 24h6v2h-6v6h-2v-6h-6v-2h6v-6h2v6zM30 4q0.875 0 1.438 0.563t0.563 1.438v10h-2v-10h-28v20h14v2h-14q-0.813 0-1.406-0.594t-0.594-1.406v-20q0-0.875 0.594-1.438t1.406-0.563h28zM19 16q-0.375 0-0.688-0.313t-0.313-0.688q0-0.438 0.313-0.719t0.688-0.281h6q1 0 1 1 0 0.375-0.281 0.688t-0.719 0.313h-6z"></path>
</svg>
