<!-- Generated by IcoMoon.io -->
<svg version="1.1" xmlns="http://www.w3.org/2000/svg" width="32" height="32" viewBox="0 0 32 32">
<title>uniE175</title>
<path d="M28 12q1.625 0 2.813 1.188t1.188 2.813v6q0 1.688-1.188 2.844t-2.813 1.156v4.75q0 0.563-0.406 0.906t-0.906 0.344-0.813-0.25l-4.875-5.688-3-0.063q-1.625 0-2.813-1.156t-1.188-2.844v-6q0-1.625 1.188-2.813t2.813-1.188h10zM30 16q0-0.813-0.594-1.406t-1.406-0.594h-10q-0.875 0-1.438 0.594t-0.563 1.406v6q0 0.875 0.563 1.438t1.438 0.563l4 0.063 4 4.938v-5h2q0.813 0 1.406-0.563t0.594-1.438v-6zM10 12.063l3.563-0.063q-0.813 0.875-1.188 2.063h-1.375l-4.875 5.688q-0.313 0.25-0.813 0.25t-0.906-0.344-0.406-0.906v-4.75q-1.625 0-2.813-1.156t-1.188-2.844v-6q0-1.625 1.188-2.813t2.813-1.188h10q1.625 0 2.813 1.188t1.188 2.813v6q-0.563 0-1.094 0.125t-1.031 0.313q0.125-0.25 0.125-0.438v-6q0-0.813-0.594-1.406t-1.406-0.594h-10q-0.875 0-1.438 0.594t-0.563 1.406v6q0 0.875 0.563 1.438t1.438 0.563h2v5z"></path>
</svg>
