<!-- Generated by IcoMoon.io -->
<svg version="1.1" xmlns="http://www.w3.org/2000/svg" width="32" height="32" viewBox="0 0 32 32">
<title>uniE269</title>
<path d="M15 4q0.375 0 0.688 0.281t0.313 0.719v20q0 0.438-0.313 0.719t-0.688 0.281h-0.5q-1 0-1-1v-9h-11v9q0 1-1 1h-0.5q-1 0-1-1v-20q0-1 1-1h0.5q1 0 1 1v9h11v-9q0-1 1-1h0.5zM30.75 21.813q-0.313 0.313-0.719 0.813t-1.031 1.063l-3.938 4.313 6.938 0.063v1.938h-10v-2l5.625-5.625q0.875-0.875 1.25-1.438 0.5-0.5 0.688-1.125 0.25-0.5 0.25-1.25t-0.375-1.313-1-0.938q-0.563-0.313-1.563-0.313-1.25 0-2.125 0.5-0.813 0.563-1.688 1.813l-1.75-1.188q0.563-0.875 1.188-1.563 0.813-0.688 1.75-1.125 0.563-0.188 1.188-0.313t1.375-0.125q1.625 0 2.75 0.563 1.125 0.5 1.813 1.625 0.625 1.063 0.625 2.375 0 0.875-0.313 1.688-0.313 0.75-0.938 1.563z"></path>
</svg>
