<!-- Generated by IcoMoon.io -->
<svg version="1.1" xmlns="http://www.w3.org/2000/svg" width="32" height="32" viewBox="0 0 32 32">
<title>uniE007</title>
<path d="M18.938 8.625l3.5 10.438-3.5 3.5-4.625-9.25-4.438 3.313v4.688l-1.688 1.625-3.188-5-5-3.188 1.625-1.625h4.688l3.375-4.5-9.313-4.625 3.5-3.438 10.438 3.438 2.313-2.313q0.688-0.688 1.875-1.188t2.313-0.5q1.063 0 1.625 0.563 0.438 0.5 0.5 1.281t-0.156 1.625-0.656 1.625-0.875 1.219zM17.375 9.188l-0.313-1 0.688-0.688 2.375-2.313q0.375-0.375 0.625-0.906t0.406-1.031 0.188-0.938-0.094-0.625h-0.125q-0.063 0-0.125-0.031t-0.188-0.031q-0.813 0-1.688 0.375t-1.375 0.875l-3 3-0.938-0.313-9.5-3.125-1.188 1.125 7.25 3.625 1.813 0.875-4.563 6-0.5 0.688h-4.063l2.875 1.813 0.25 0.188 0.25 0.313 1.75 2.813v-4.063l0.688-0.438 6-4.563 4.5 9 1.188-1.188zM31.188 23.938q0.813 0.875 0.813 2.375 0 1.688-1 2.75-0.938 1.063-3 1.375v1.563h-1.375v-1.5q-1.813-0.25-2.688-1.188-0.938-0.875-1.25-2.75l2.375-0.25q0.063 0.75 0.5 1.25 0.25 0.375 1.063 0.75v-3.75q-2.063-0.563-2.75-1.563-0.813-1-0.813-2.438t0.938-2.5q0.813-1 2.625-1.188l0.063-1.875h1.375l-0.063 1.875q1.688 0.313 2.5 1 0.875 0.875 1.125 2.188l-2.313 0.25q-0.188-1-1.313-1.438v3.563q2.5 0.688 3.188 1.5zM26.625 18.875q-0.75 0.25-1 0.625-0.313 0.438-0.313 0.938t0.25 0.875q0.375 0.375 1.063 0.688v-3.125zM29.375 27.813q0.375-0.438 0.375-1.188 0-0.5-0.313-1-0.313-0.375-1.438-0.688v3.5q1-0.188 1.375-0.625z"></path>
</svg>
