<!-- Generated by IcoMoon.io -->
<svg version="1.1" xmlns="http://www.w3.org/2000/svg" width="32" height="32" viewBox="0 0 32 32">
<title>uniE02D</title>
<path d="M16 0q3.313 0 6.219 1.25t5.094 3.438 3.438 5.094 1.25 6.219-1.25 6.219-3.438 5.094-5.094 3.438-6.219 1.25-6.25-1.25-5.094-3.438-3.406-5.094-1.25-6.219 1.25-6.219 3.406-5.094 5.094-3.438 6.25-1.25zM16 30q2.875 0 5.438-1.094t4.469-3 3-4.438 1.094-5.469q0-2.875-1.094-5.438t-3-4.469-4.469-3-5.438-1.094q-2.938 0-5.469 1.094t-4.438 3-3 4.469-1.094 5.438q0 2.938 1.094 5.469t3 4.438 4.438 3 5.469 1.094zM25 16q0.375 0 0.688 0.281t0.313 0.719-0.313 0.719-0.688 0.281h-11v-9q0-1 1-1 0.375 0 0.688 0.281t0.313 0.719v7h9z"></path>
</svg>
