<!-- Generated by IcoMoon.io -->
<svg version="1.1" xmlns="http://www.w3.org/2000/svg" width="24" height="32" viewBox="0 0 24 32">
<title>uniE0C2</title>
<path d="M14.75 17.313q0.25 0.313 0.375 0.406t0.438 0.219v-3.438q-1.688-0.5-2.375-1.344t-0.688-2.219q0-1.313 0.906-2.188t2.156-1v-0.938h1.125v0.938q2.625 0.313 3 2.813l-1.875 0.25q-0.125-0.688-0.438-0.969t-0.688-0.406v3.188q1.938 0.5 2.625 1.313t0.688 2.188q0 1.563-0.938 2.438t-2.375 1.188v1.5h-1.125v-1.438q-1.438-0.188-2.25-1t-1.125-2.5l2.063-0.188q0.125 0.688 0.5 1.188zM16.688 17.938q0.625 0 1-0.5t0.375-1.063q0-0.438-0.281-0.875t-1.094-0.625v3.063zM14.75 11.688q0.125 0.125 0.313 0.281t0.5 0.281v-2.813q-1.063 0.563-1.063 1.438 0 0.375 0.25 0.813zM22 0q0.875 0 1.438 0.594t0.563 1.406v28q0 0.875-0.563 1.438t-1.375 0.563h-20q-0.875 0-1.469-0.563t-0.594-1.438v-22l8-8h14zM22.063 30l-0.063-28h-12v6q0 0.875-0.594 1.438t-1.406 0.563h-6v20h20.063zM9 14q1 0 1 1 0 0.375-0.281 0.688t-0.719 0.313h-4.063q-0.375 0-0.688-0.313t-0.313-0.688q0-0.438 0.313-0.719t0.688-0.281h4.063zM9 18.063q1 0 1 1 0 0.375-0.281 0.688t-0.719 0.313h-4.063q-0.375 0-0.688-0.313t-0.313-0.688q0-0.438 0.313-0.719t0.688-0.281h4.063z"></path>
</svg>
