<!-- Generated by IcoMoon.io -->
<svg version="1.1" xmlns="http://www.w3.org/2000/svg" width="32" height="32" viewBox="0 0 32 32">
<title>uniE0AD</title>
<path d="M30 0q0.875 0 1.438 0.594t0.563 1.406v20q0 0.875-0.563 1.438t-1.438 0.563h-20q-0.813 0-1.406-0.563t-0.594-1.438v-20q0-0.813 0.594-1.406t1.406-0.594h20zM30 2h-20v20h20v-20zM22 28h2v2q0 0.875-0.563 1.438t-1.438 0.563h-20q-0.813 0-1.406-0.563t-0.594-1.438v-20q0-0.813 0.594-1.406t1.406-0.594h2v2h-2v20h20v-2zM14 16l4.063-4.063-4.063-3.938 2-2 4.063 4 3.938-4 2 2-4.063 3.938 4.063 4.063-2 2-3.938-4.063-4.063 4.063z"></path>
</svg>
