<!-- Generated by IcoMoon.io -->
<svg version="1.1" xmlns="http://www.w3.org/2000/svg" width="32" height="32" viewBox="0 0 32 32">
<title>uniE059</title>
<path d="M30 2q0.813 0 1.406 0.563t0.594 1.438v24q0 0.813-0.594 1.406t-1.406 0.594h-28q-0.875 0-1.438-0.594t-0.563-1.406v-24q0-0.875 0.563-1.438t1.438-0.563h28zM30 4h-28v24h28v-24zM7.313 15.75l-3.313-3.313 1.063-1.188 2.25 2.25 4.438-5.5 1.125 1.063zM7.313 26l-3.313-3.375 1.063-1.125 2.25 2.25 4.438-5.563 1.125 1.125zM25 20q1 0 1 1 0 0.375-0.281 0.688t-0.719 0.313h-8q-0.375 0-0.688-0.313t-0.313-0.688q0-0.438 0.313-0.719t0.688-0.281h8zM25 10q1 0 1 1 0 0.375-0.281 0.688t-0.719 0.313h-8q-0.375 0-0.688-0.313t-0.313-0.688q0-0.438 0.313-0.719t0.688-0.281h8z"></path>
</svg>
