<!-- Generated by IcoMoon.io -->
<svg version="1.1" xmlns="http://www.w3.org/2000/svg" width="32" height="32" viewBox="0 0 32 32">
<title>uniE099</title>
<path d="M23 11.938q-1 0-1-1 0-0.375 0.281-0.688t0.719-0.313h4q0.438 0 0.719 0.313t0.281 0.688q0 1-1 1h-4zM30 5.938q0.813 0 1.406 0.594t0.594 1.406v10q0 0.875-0.594 1.438t-1.406 0.563h-4v10q0 0.875-0.594 1.438t-1.406 0.563h-16q-0.875 0-1.438-0.563t-0.563-1.438v-10h-4q-0.875 0-1.438-0.563t-0.563-1.438v-10q0-0.813 0.563-1.406t1.438-0.594h4v-4q0-0.813 0.563-1.406t1.438-0.594h16q0.813 0 1.406 0.594t0.594 1.406v4h4zM8 5.938h16v-4h-16v4zM24 19.938v-4h-16v14h16v-10zM30 7.938h-28v10h4v-2q0-0.813 0.563-1.406t1.438-0.594h16q0.813 0 1.406 0.594t0.594 1.406v2h4v-10zM12 23.938h8v2h-8v-2zM12 19.938h8v2h-8v-2z"></path>
</svg>
