<!-- Generated by IcoMoon.io -->
<svg version="1.1" xmlns="http://www.w3.org/2000/svg" width="28" height="32" viewBox="0 0 28 32">
<title>uniE0BA</title>
<path d="M26 2q0.875 0 1.438 0.563t0.563 1.438v24q0 0.875-0.563 1.438t-1.438 0.563h-24q-0.813 0-1.406-0.563t-0.594-1.438v-24q0-0.875 0.594-1.438t1.406-0.563h24zM8.5 21.5h-6.5v6.5h6.5v-6.5zM8.5 12.688h-6.5v6.813h6.5v-6.813zM8.5 4h-6.5v6.688h6.5v-6.688zM17.5 21.5h-7v6.5h7v-6.5zM17.5 12.688h-7v6.813h7v-6.813zM17.5 4h-7v6.688h7v-6.688zM26 21.5h-6.5v6.5h6.5v-6.5zM26 12.688h-6.5v6.813h6.5v-6.813zM26 4h-6.5v6.688h6.5v-6.688z"></path>
</svg>
