<!-- Generated by IcoMoon.io -->
<svg version="1.1" xmlns="http://www.w3.org/2000/svg" width="29" height="32" viewBox="0 0 29 32">
<title>uniE11E</title>
<path d="M16 12.25h-3.75l1.938-3.375zM16.875 4.938q2.375 0.5 4.406 1.75t3.5 3.031 2.313 4.063 0.844 4.781q0 2.938-1.094 5.469t-2.969 4.406-4.375 2.969-5.375 1.094q-2.938 0-5.5-1.094t-4.438-2.969-2.969-4.406-1.094-5.469q0-2.563 0.875-4.844t2.375-4.094 3.563-3.031 4.5-1.719q-0.438-0.313-0.719-0.844t-0.281-1.219q0-1.188 0.813-2t1.938-0.813h1.875q1.188 0 2 0.813t0.813 2q0 1.313-1 2.125zM13.188 1.813q-0.375 0-0.656 0.281t-0.281 0.719q0 0.375 0.281 0.656t0.656 0.281h1.875q0.438 0 0.688-0.281t0.25-0.656q0-1-0.938-1h-1.875zM9.813 28.625q1.938 0.875 4.25 0.875t4.344-0.844 3.563-2.219 2.438-3.406 0.906-4.344q0-2.25-0.844-4.313t-2.344-3.594-3.531-2.438-4.344-0.906q-2.25 0-4.281 0.844t-3.563 2.344-2.438 3.5-0.906 4.313q0 1.688 0.469 3.313t1.375 3 2.156 2.344 2.75 1.531zM21.75 13.313q0.125-0.063 0.438-0.063 0.563 0 0.563 0.375 0 0.313-0.375 0.688l-6.813 6.688-9.125 2.875q-0.125 0.063-0.438 0.063-0.5 0-0.5-0.375 0-0.25 0.375-0.625l6.813-6.688zM14.188 20.063q0.563 0 1-0.406t0.438-1.094q0-0.563-0.438-1t-1-0.438q-0.688 0-1.094 0.438t-0.406 1q0 1.5 1.5 1.5z"></path>
</svg>
