<!-- Generated by IcoMoon.io -->
<svg version="1.1" xmlns="http://www.w3.org/2000/svg" width="32" height="32" viewBox="0 0 32 32">
<title>uniE243</title>
<path d="M16 6q0 2.5-1.75 4.25t-4.25 1.75-4.25-1.75-1.75-4.25 1.75-4.25 4.25-1.75 4.25 1.75 1.75 4.25zM10 10q1.625 0 2.813-1.188t1.188-2.813-1.188-2.813-2.813-1.188q-1.688 0-2.844 1.188t-1.156 2.813 1.156 2.813 2.844 1.188zM9.438 24h-9.438v-4q0-1.625 0.625-3.094t1.719-2.563 2.531-1.719 3.125-0.625h4q1.938 0 3.563 0.875t2.75 2.313l-1.438 1.375q-0.813-1.188-2.094-1.875t-2.781-0.688h-4q-2.5 0-4.25 1.75t-1.75 4.25v2h9.438zM31.625 12.375q0.313 0.313 0.313 0.688t-0.313 0.688l-16.25 16.313q-0.063 0.063-1.063 0.375t-2.25 0.625q-1.438 0.438-3.188 0.938 0.563-1.688 1.063-3.063 0.438-1.125 0.781-2.094t0.406-1.031l16.313-16.25q0.313-0.313 0.688-0.313t0.688 0.313zM25.563 17l-1.375-1.375-11.375 11.313 1.438 1.375zM29.5 13.063l-1.375-1.375-2.563 2.5 1.438 1.438z"></path>
</svg>
