<!-- Generated by IcoMoon.io -->
<svg version="1.1" xmlns="http://www.w3.org/2000/svg" width="32" height="32" viewBox="0 0 32 32">
<title>uniE16C</title>
<path d="M2 28q-0.875 0-1.438-0.563t-0.563-1.438v-20q0-0.875 0.563-1.438t1.438-0.563h4q0.875 0 1.438 0.563t0.563 1.438v20q0 0.875-0.563 1.438t-1.438 0.563h-4zM30 12q0.875 0 1.438 0.563t0.563 1.438v16q0 0.875-0.563 1.438t-1.438 0.563h-28q-0.875 0-1.438-0.563t-0.563-1.438h30v-16h-20v-2h20zM14 20q-0.875 0-1.438-0.563t-0.563-1.438 0.563-1.438 1.438-0.563 1.438 0.563 0.563 1.438-0.563 1.438-1.438 0.563zM20 20q-0.875 0-1.438-0.563t-0.563-1.438 0.563-1.438 1.438-0.563 1.438 0.563 0.563 1.438-0.563 1.438-1.438 0.563zM26 20q-0.875 0-1.438-0.563t-0.563-1.438 0.563-1.438 1.438-0.563 1.438 0.563 0.563 1.438-0.563 1.438-1.438 0.563zM26 26q-0.875 0-1.438-0.563t-0.563-1.438 0.563-1.438 1.438-0.563 1.438 0.563 0.563 1.438-0.563 1.438-1.438 0.563zM20 26q-0.875 0-1.438-0.563t-0.563-1.438 0.563-1.438 1.438-0.563 1.438 0.563 0.563 1.438-0.563 1.438-1.438 0.563zM14 26q-0.875 0-1.438-0.563t-0.563-1.438 0.563-1.438 1.438-0.563 1.438 0.563 0.563 1.438-0.563 1.438-1.438 0.563zM14 10h-2v-8q0-0.875 0.563-1.438t1.438-0.563h10l6 6v4h-2v-2h-3.938q-0.875 0-1.469-0.563t-0.594-1.438v-4h-8v8z"></path>
</svg>
