<!-- Generated by IcoMoon.io -->
<svg version="1.1" xmlns="http://www.w3.org/2000/svg" width="24" height="32" viewBox="0 0 24 32">
<title>uniE1A7</title>
<path d="M16.625 10.375l1.375 1.313-6.813 8.188-4.063-4.063 1.313-1.438 2.75 2.75zM22 4.063q0.813 0 1.406 0.594t0.594 1.406v24q0 0.875-0.594 1.438t-1.406 0.563h-20q-0.875 0-1.438-0.563t-0.563-1.438v-24q0-0.813 0.563-1.406t1.438-0.594h4.188q0.625-1.625 2.313-1.938 0.5-0.875 1.438-1.469t2.063-0.594 2.063 0.594 1.438 1.469q1.688 0.313 2.313 1.938h4.188zM9 4.063q-0.438 0-0.719 0.313t-0.281 0.688q0 1 1 1h6q1 0 1-1 0-0.375-0.281-0.688t-0.719-0.313h-1q0-0.813-0.563-1.406t-1.438-0.594-1.438 0.594-0.563 1.406h-1zM22 6.063h-4.188q-0.188 0.625-0.625 1.25-0.563 0.75-1.625 0.75h-7.125q-1.063 0-1.625-0.75-0.438-0.625-0.625-1.25h-4.188v24h20v-24zM17 26.063q1 0 1 1 0 0.375-0.281 0.688t-0.719 0.313h-10q-0.375 0-0.688-0.313t-0.313-0.688q0-0.438 0.313-0.719t0.688-0.281h10zM17 22.063q1 0 1 1 0 0.375-0.281 0.688t-0.719 0.313h-10q-0.375 0-0.688-0.313t-0.313-0.688q0-0.438 0.313-0.719t0.688-0.281h10z"></path>
</svg>
