<!-- Generated by IcoMoon.io -->
<svg version="1.1" xmlns="http://www.w3.org/2000/svg" width="28" height="32" viewBox="0 0 28 32">
<title>uniE260</title>
<path d="M14 14q1 0 1.5 0.688t0.5 1.625v4.625q0 0.938-0.875 1.688l-6.438 7q-0.25 0.25-0.75 0.25-0.438 0-0.688-0.25l-6.438-7q-0.813-0.688-0.813-1.688v-4.625q0-0.938 0.531-1.625t1.469-0.688h12zM14 16.313q0-0.313-0.375-0.313h-11.313q-0.313 0-0.313 0.313v4.625q0 0.063 0.906 1.063t2.031 2.25l3 3.25 3-3.25q1.125-1.25 2.094-2.25t0.969-1.063v-4.625zM0.813 10.625q-0.813-0.688-0.813-1.688v-4.625q0-0.938 0.531-1.625t1.469-0.688h12q1 0 1.5 0.688t0.5 1.625v1.688h-2v-1.688q0-0.313-0.375-0.313h-11.313q-0.313 0-0.313 0.313v4.625q0 0.063 0.438 0.531t0.938 1.031q0.625 0.688 1.438 1.5h-2.688zM26 8q1 0 1.5 0.688t0.5 1.625v4.625q0 0.938-0.875 1.688l-6.438 7q-0.25 0.25-0.75 0.25-0.438 0-0.688-0.25l-1.25-1.313v-3.063l1.938 2.188 3-3.25q1.125-1.25 2.094-2.219t0.969-1.031v-4.625q0-0.313-0.375-0.313h-11.313q-0.313 0-0.313 0.313v1.688h-2v-1.688q0-0.938 0.531-1.625t1.469-0.688h12z"></path>
</svg>
