<!-- Generated by IcoMoon.io -->
<svg version="1.1" xmlns="http://www.w3.org/2000/svg" width="32" height="32" viewBox="0 0 32 32">
<title>uniE081</title>
<path d="M24 22q2.25 0 3.781 0.625t2.469 1.719 1.344 2.563 0.406 3.094v2h-20v-2q0-1.625 0.438-3.094t1.375-2.563 2.469-1.719 3.719-0.625h4zM30 30q0-2.5-1.75-4.25t-4.25-1.75h-4q-2.5 0-4.25 1.75t-1.75 4.25h16zM28 16q0 2.5-1.75 4.25t-4.25 1.75-4.25-1.75-1.75-4.25 1.75-4.25 4.25-1.75 4.25 1.75 1.75 4.25zM22 20q1.625 0 2.813-1.188t1.188-2.813-1.188-2.813-2.813-1.188-2.813 1.188-1.188 2.813 1.188 2.813 2.813 1.188zM2 13q0 1.875 0.594 3.594t1.656 3.094 2.531 2.375 3.219 1.5v2.063q-2.188-0.5-4-1.656t-3.156-2.844-2.094-3.75-0.75-4.375q0-2.688 1.031-5.063t2.781-4.125 4.125-2.781 5.063-1.031q3.5 0 6.344 1.625t4.594 4.375h-2.438q-1.563-1.813-3.719-2.906t-4.781-1.094q-2.25 0-4.25 0.875t-3.5 2.375-2.375 3.5-0.875 4.25zM6.063 13q0-0.438 0.313-0.719t0.688-0.281h4.938v-7q0-0.438 0.313-0.719t0.688-0.281q1 0 1 1v9h-6.938q-0.375 0-0.688-0.281t-0.313-0.719z"></path>
</svg>
