<!-- Generated by IcoMoon.io -->
<svg version="1.1" xmlns="http://www.w3.org/2000/svg" width="32" height="32" viewBox="0 0 32 32">
<title>uniE271</title>
<path d="M16 0q3.313 0 6.25 1.25t5.094 3.406 3.406 5.094 1.25 6.25-1.25 6.219-3.406 5.094-5.094 3.438-6.25 1.25-6.219-1.25-5.094-3.438-3.438-5.094-1.25-6.219 1.25-6.25 3.438-5.094 5.094-3.406 6.219-1.25zM16 26.625q2.25 0 4.188-0.844t3.375-2.281 2.281-3.375 0.844-4.125q0-2.25-0.844-4.188t-2.281-3.375-3.375-2.281-4.188-0.844q-2.188 0-4.125 0.844t-3.375 2.281-2.281 3.375-0.844 4.188q0 2.188 0.844 4.125t2.281 3.375 3.375 2.281 4.125 0.844z"></path>
</svg>
