<!-- Generated by IcoMoon.io -->
<svg version="1.1" xmlns="http://www.w3.org/2000/svg" width="32" height="32" viewBox="0 0 32 32">
<title>uniE164</title>
<path d="M16 0q3.313 0 6.219 1.25t5.094 3.438 3.438 5.094 1.25 6.219-1.25 6.219-3.438 5.094-5.094 3.438-6.219 1.25-6.219-1.25-5.094-3.438-3.438-5.094-1.25-6.219 1.25-6.219 3.438-5.094 5.094-3.438 6.219-1.25zM16 30q2.875 0 5.438-1.094t4.469-3 3-4.438 1.094-5.469q0-2.875-1.094-5.438t-3-4.469-4.469-3-5.438-1.094q-2.938 0-5.469 1.094t-4.438 3-3 4.469-1.094 5.438q0 2.938 1.094 5.469t3 4.438 4.438 3 5.469 1.094zM16 12q1.625 0 2.813 1.188t1.188 2.813q0 1.688-1.188 2.844t-2.813 1.156-2.813-1.156-1.188-2.844q0-1.625 1.188-2.813t2.813-1.188zM16 18q0.875 0 1.438-0.563t0.563-1.438q0-0.813-0.563-1.406t-1.438-0.594-1.438 0.594-0.563 1.406q0 0.875 0.563 1.438t1.438 0.563zM16 6q2.063 0 3.875 0.781t3.188 2.156 2.156 3.188 0.781 3.875-0.781 3.875-2.156 3.188-3.188 2.156-3.875 0.781-3.875-0.781-3.188-2.156-2.156-3.188-0.781-3.875 0.781-3.875 2.156-3.188 3.188-2.156 3.875-0.781zM16 24q1.625 0 3.094-0.625t2.563-1.719 1.719-2.531 0.625-3.125q0-1.625-0.625-3.094t-1.719-2.563-2.563-1.719-3.094-0.625q-1.688 0-3.125 0.625t-2.531 1.719-1.719 2.563-0.625 3.094q0 1.688 0.625 3.125t1.719 2.531 2.531 1.719 3.125 0.625z"></path>
</svg>
