<!-- Generated by IcoMoon.io -->
<svg version="1.1" xmlns="http://www.w3.org/2000/svg" width="28" height="32" viewBox="0 0 28 32">
<title>uniE086</title>
<path d="M18.25 18l2.938-12h-3.75q-0.563 0.938-1.438 1.438v22.563h7q0.375 0 0.688 0.281t0.313 0.719-0.313 0.719-0.688 0.281h-18q-1 0-1-1t1-1h7v-22.563q-0.938-0.438-1.5-1.438h-3.875l3 12h0.25q-0.375 1.75-1.719 2.875t-3.156 1.125-3.188-1.125-1.75-2.875h0.313l2.938-12h-0.313q-1 0-1-1t1-1h7q0-1.625 1.156-2.813t2.844-1.188q1.625 0 2.813 1.188t1.188 2.813h7q0.375 0 0.688 0.281t0.313 0.719-0.313 0.719-0.688 0.281h-0.438l2.938 12h0.25q-0.313 1.75-1.688 2.875t-3.188 1.125-3.188-1.125-1.688-2.875h0.25zM5.625 6h-1.313l-2.938 12h7.188zM14 6q0.813 0 1.406-0.563t0.594-1.438-0.594-1.438-1.406-0.563q-0.875 0-1.438 0.563t-0.563 1.438 0.563 1.438 1.438 0.563zM19.313 18h7.125l-2.938-12h-1.25z"></path>
</svg>
