<!-- Generated by IcoMoon.io -->
<svg version="1.1" xmlns="http://www.w3.org/2000/svg" width="32" height="32" viewBox="0 0 32 32">
<title>uniE166</title>
<path d="M30 0q0.875 0 1.438 0.594t0.563 1.469v8.938q0 1-1 1.125-0.375-0.063-0.688-0.344t-0.313-0.719v-7.5l-8.125 8.25q-0.75 0.625-1.5 0.063-0.625-0.875 0-1.5l7.875-8.375h-7.25q-0.875 0-1-0.875 0-1 1-1.125h9zM11 30q0.875 0 1 0.875 0 1-1 1.125h-9q-0.875 0-1.438-0.594t-0.563-1.469v-8.813q0-1 1-1.125 0.375 0.063 0.688 0.344t0.313 0.719v7.375l8.125-8.25q0.75-0.625 1.5-0.063 0.625 0.875 0 1.5l-8.313 8.375h7.688zM28 16h2v12q0 0.813-0.563 1.406t-1.438 0.594h-12v-2h12v-12zM4 16h-2v-12q0-0.875 0.594-1.438t1.406-0.563h12v2h-12v12z"></path>
</svg>
