<!-- Generated by IcoMoon.io -->
<svg version="1.1" xmlns="http://www.w3.org/2000/svg" width="30" height="32" viewBox="0 0 30 32">
<title>uniE18C</title>
<path d="M5.75 26.063q-0.438 0-0.813-0.281t-0.375-0.781q0-0.75 0.688-1.125l7.188-2.125 6.875 1.063 6.875-3.25q0.063-0.063 0.438-0.063 1.063 0 1.063 1.125 0 0.813-0.688 1l-7.5 3.563-6.75-1.125-6.5 1.813q-0.125 0.188-0.5 0.188zM5.75 22.875q-0.375 0-0.781-0.313t-0.406-0.813q0-0.563 0.563-0.938l7.25-4.875 6.813 1.188 6.813-5.5q0.375-0.125 0.563-0.125 1.125 0 1.125 1.063 0 0.688-0.563 1.063l-7.5 5.875-6.813-1.125-6.438 4.313q-0.313 0.188-0.625 0.188zM5.75 18.313q-0.375 0-0.75-0.281t-0.375-0.781q0-0.563 0.438-0.938l7.063-6h6.75l6.875-7.938q0.375-0.375 0.813-0.375 0.5 0 0.813 0.375t0.313 0.813-0.25 0.688l-7.5 8.75h-6.938l-6.5 5.438q-0.25 0.25-0.75 0.25zM30 28v2h-29.938v-28h1.938v26h28z"></path>
</svg>
