<!-- Generated by IcoMoon.io -->
<svg version="1.1" xmlns="http://www.w3.org/2000/svg" width="32" height="32" viewBox="0 0 32 32">
<title>uniE06F</title>
<path d="M23 11q-1.25 0-2.125-0.875t-0.875-2.125 0.875-2.125 2.125-0.875 2.125 0.875 0.875 2.125-0.875 2.125-2.125 0.875zM22.25 21l-3.625-5.313 1.375-2.688 6 8h-3.75zM14 11.563l7.75 11.438h-15.938zM2 9h-2v-4q0-1.625 1.156-2.813t2.844-1.188h4v2h-4q-0.875 0-1.438 0.563t-0.563 1.438v4zM4 27q-1.688 0-2.844-1.188t-1.156-2.813v-4h2v4q0 0.875 0.563 1.438t1.438 0.563h4v2h-4zM28 1q1.625 0 2.813 1.188t1.188 2.813v4h-2v-4q0-0.875-0.594-1.438t-1.406-0.563h-4v-2h4zM30 19h2v4q0 1.625-1.188 2.813t-2.813 1.188h-4v-2h4q0.813 0 1.406-0.563t0.594-1.438v-4zM5 29q0.375 0 0.688 0.281t0.313 0.719-0.313 0.719-0.688 0.281q-1 0-1-1t1-1zM9 29q0.375 0 0.688 0.281t0.313 0.719-0.313 0.719-0.688 0.281q-1 0-1-1t1-1zM19 29q0.375 0 0.688 0.281t0.313 0.719-0.313 0.719-0.688 0.281q-1 0-1-1t1-1zM23 29q0.375 0 0.688 0.281t0.313 0.719-0.313 0.719-0.688 0.281q-1 0-1-1t1-1zM27 29q0.375 0 0.688 0.281t0.313 0.719-0.313 0.719-0.688 0.281q-1 0-1-1t1-1zM14 28q0.813 0 1.406 0.563t0.594 1.438-0.594 1.438-1.406 0.563q-0.875 0-1.438-0.563t-0.563-1.438 0.563-1.438 1.438-0.563z"></path>
</svg>
