<!-- Generated by IcoMoon.io -->
<svg version="1.1" xmlns="http://www.w3.org/2000/svg" width="32" height="32" viewBox="0 0 32 32">
<title>uniE0BE</title>
<path d="M24 18h-18v-2q0-1.938 0.375-3.094t1.125-1.813 1.875-0.875 2.625-0.219h6q1.5 0 2.625 0.25t1.875 0.906 1.125 1.844 0.375 3v2zM22 14q0-0.688-0.625-1.125t-1.375-0.625q-0.875-0.25-2-0.25h-6q-1.125 0-2 0.25-0.75 0.188-1.406 0.625t-0.594 1.125v2h14v-2zM29.063 26.563q2.938 1.313 2.938 5.438h-32q0-4 3-5.375-0.438-0.5-0.719-1.188t-0.281-1.438q0-1.625 1.188-2.813t2.813-1.188q1.688 0 2.844 1.188t1.156 2.813q0 1.563-0.938 2.563 1.25 0.563 2 1.625 0.625-0.938 1.938-1.563-0.438-0.5-0.719-1.188t-0.281-1.438q0-1.625 1.188-2.813t2.813-1.188q1.688 0 2.844 1.188t1.156 2.813q0 1.563-0.938 2.563 1.25 0.563 2 1.625 0.625-0.938 1.938-1.563-0.438-0.5-0.719-1.188t-0.281-1.438q0-1.625 1.188-2.813t2.813-1.188q1.688 0 2.844 1.188t1.156 2.813q0 1.563-0.938 2.563zM4 24q0 0.875 0.594 1.438t1.406 0.563q0.875 0 1.438-0.563t0.563-1.438q0-0.813-0.563-1.406t-1.438-0.594q-0.813 0-1.406 0.594t-0.594 1.406zM10 30q0-1.5-1.219-1.75t-2.781-0.25q-1.5 0-2.75 0.281t-1.25 1.719h8zM14 24q0 0.875 0.594 1.438t1.406 0.563q0.875 0 1.438-0.563t0.563-1.438q0-0.813-0.563-1.406t-1.438-0.594q-0.813 0-1.406 0.594t-0.594 1.406zM20 30q0-1.5-1.219-1.75t-2.781-0.25q-1.5 0-2.75 0.281t-1.25 1.719h8zM24 24q0 0.875 0.594 1.438t1.406 0.563q0.875 0 1.438-0.563t0.563-1.438q0-0.813-0.563-1.406t-1.438-0.594q-0.813 0-1.406 0.594t-0.594 1.406zM30 30q0-1.5-1.219-1.75t-2.781-0.25q-1.5 0-2.75 0.281t-1.25 1.719h8zM20 5q0 2.063-1.438 3.531t-3.563 1.469q-2.063 0-3.531-1.469t-1.469-3.531 1.469-3.531 3.531-1.469q2.125 0 3.563 1.469t1.438 3.531zM15 8q1.25 0 2.125-0.875t0.875-2.125-0.875-2.125-2.125-0.875-2.125 0.875-0.875 2.125 0.875 2.125 2.125 0.875z"></path>
</svg>
