<!-- Generated by IcoMoon.io -->
<svg version="1.1" xmlns="http://www.w3.org/2000/svg" width="32" height="32" viewBox="0 0 32 32">
<title>uniE1d0</title>
<path d="M2 30h12v2h-11.938q-0.875 0-1.469-0.563t-0.594-1.438v-22l8-8h16q0.875 0 1.438 0.594t0.563 1.406v2h-2v-2h-14v6q0 0.875-0.594 1.438t-1.406 0.563h-6v20zM26.313 25.375q-0.563 0.625-1.406 0.625t-1.406-0.625l-5.25-5.688q-0.313-0.313-0.313-0.719t0.313-0.719 0.719-0.313 0.719 0.313l4.313 4.75v-14q0-1 1-1 0.375 0 0.688 0.281t0.313 0.719v14l4.25-4.75q0.313-0.313 0.719-0.313t0.719 0.313q0.688 0.75 0 1.438zM26.375 31.375q-0.563 0.625-1.406 0.625t-1.406-0.625l-5.25-5.313q-0.313-0.313-0.313-0.719t0.313-0.719 0.719-0.313 0.719 0.313l3.813 3.938q0.563 0.625 1.406 0.625t1.406-0.625l3.938-4.063q0.313-0.313 0.719-0.313t0.719 0.313q0.688 0.688 0 1.438z"></path>
</svg>
