<!-- Generated by IcoMoon.io -->
<svg version="1.1" xmlns="http://www.w3.org/2000/svg" width="32" height="32" viewBox="0 0 32 32">
<title>uniE157</title>
<path d="M31.438 14.5q0.563 0.625 0.563 1.438t-0.563 1.438l-5.75 5.375q-0.313 0.313-0.688 0.313t-0.688-0.313-0.313-0.719 0.313-0.719l4.688-4.313h-16q-1 0-1-1t1-1h16l-4.688-4.25q-0.313-0.313-0.313-0.719t0.313-0.719 0.688-0.313 0.688 0.313zM12 26q3.313 0 5.938-1.938h2.938q-1.625 1.813-3.938 2.875t-4.938 1.063q-2.5 0-4.688-0.938t-3.813-2.563-2.563-3.813-0.938-4.688 0.938-4.688 2.563-3.813 3.813-2.563 4.688-0.938q2.625 0 4.938 1.094t3.938 2.906h-3q-1.25-0.875-2.75-1.438t-3.125-0.563q-2.063 0-3.906 0.781t-3.188 2.156-2.125 3.188-0.781 3.875 0.781 3.875 2.125 3.188 3.188 2.156 3.906 0.781z"></path>
</svg>
