<!-- Generated by IcoMoon.io -->
<svg version="1.1" xmlns="http://www.w3.org/2000/svg" width="28" height="32" viewBox="0 0 28 32">
<title>uniE25A</title>
<path d="M21.813 26.125q0.375 0.688 0.313 1.375t-0.406 1.25-0.938 0.906-1.344 0.344h-10.625q-0.75 0-1.344-0.344t-0.938-0.906-0.406-1.25 0.25-1.375l5.313-10.625q0.375-0.75 1.063-1.125t1.375-0.375 1.344 0.375 1.031 1.125zM20 27.688q0.063-0.125 0.125-0.281t-0.063-0.406l-5.313-10.625q-0.125-0.25-0.313-0.313t-0.313-0.063q-0.375 0-0.625 0.375l-5.313 10.625q-0.188 0.438 0.063 0.688 0.125 0.313 0.563 0.313h10.625q0.375 0 0.563-0.313zM27.813 18.125q0.375 0.688 0.313 1.375t-0.406 1.25-0.938 0.906-1.344 0.344h-3.438l-1-2h4.438q0.375 0 0.563-0.313 0.063-0.125 0.125-0.281t-0.063-0.406l-5.313-10.625q-0.125-0.25-0.313-0.313t-0.313-0.063q-0.375 0-0.625 0.375l-2.375 4.75q-0.688-0.625-1.75-0.938l2.313-4.688q0.375-0.75 1.063-1.125t1.375-0.375 1.344 0.375 1.031 1.125zM8.25 18h-5.438q-0.75 0-1.344-0.344t-0.938-0.906-0.406-1.25 0.25-1.375l5.313-10.625q0.375-0.75 1.063-1.125t1.375-0.375 1.344 0.375 1.031 1.125l3.5 6.938-0.813 1.688q-0.125 0.063-0.25 0.063t-0.25 0.063l-3.938-7.875q-0.125-0.25-0.313-0.313t-0.313-0.063q-0.375 0-0.625 0.375l-5.313 10.625q-0.188 0.438 0.063 0.688 0.125 0.313 0.563 0.313h6.438z"></path>
</svg>
