<!-- Generated by IcoMoon.io -->
<svg version="1.1" xmlns="http://www.w3.org/2000/svg" width="32" height="32" viewBox="0 0 32 32">
<title>uniE1DD</title>
<path d="M30.625 20.875q0.625 0.875 1 1.906t0.375 2.219q0 1.438-0.563 2.719t-1.5 2.219-2.219 1.5-2.719 0.563-2.719-0.563-2.219-1.5-1.5-2.219-0.563-2.719q0-0.375 0.063-0.563-0.5-0.188-1-0.313t-1.063-0.125q-1 0-2.063 0.438 0 0.125 0.031 0.281t0.031 0.281q0 1.438-0.563 2.719t-1.5 2.219-2.219 1.5-2.719 0.563-2.719-0.563-2.219-1.5-1.5-2.219-0.563-2.719q0-2.375 1.375-4.125l4.625-10.063q0.125-0.25 0.406-0.719t0.656-0.906 0.844-0.781 1.031-0.406q1.375-0.125 2.094 0.344t1.031 1.031q0.375 0.688 0.438 1.563 0.125 0.375-0.094 0.688t-0.531 0.438q-0.5 0.25-0.875-0.125-0.188-0.188-0.313-0.375l-0.063-0.125q-0.125-0.125-0.125-0.375-0.063-0.25-0.125-0.438-0.188-0.625-0.875-0.625-0.813 0-1.188 0.656t-0.5 0.969l-3.125 6.813q0.563-0.188 1.125-0.313t1.188-0.125q2.188 0 3.938 1.25t2.563 3.188q0.563-0.188 1.188-0.313t1.313-0.125 1.281 0.125 1.219 0.313q0.75-1.938 2.5-3.188t4-1.25q1.063 0 2.25 0.438l-3.125-6.813q-0.125-0.313-0.5-0.969t-1.125-0.656q-0.625 0-0.938 0.625-0.063 0.188-0.125 0.438l-0.125 0.5q-0.125 0.188-0.313 0.375-0.375 0.375-0.875 0.125-0.813-0.313-0.688-1.125 0.063-0.875 0.438-1.563 0.313-0.563 1.063-1.031t2.125-0.344q0.5 0.063 1 0.406t0.875 0.781 0.656 0.906 0.406 0.719zM7 30q2.063 0 3.531-1.469t1.469-3.531-1.469-3.531-3.531-1.469-3.531 1.469-1.469 3.531 1.469 3.531 3.531 1.469zM25 30q2.063 0 3.531-1.469t1.469-3.531-1.469-3.531-3.531-1.469-3.531 1.469-1.469 3.531 1.469 3.531 3.531 1.469z"></path>
</svg>
