<!-- Generated by IcoMoon.io -->
<svg version="1.1" xmlns="http://www.w3.org/2000/svg" width="28" height="32" viewBox="0 0 28 32">
<title>uniE071</title>
<path d="M7.5 2q0.5 0 0.5 0.5v7q0 0.5-0.5 0.5h-7q-0.5 0-0.5-0.5v-7q0-0.5 0.5-0.5h7zM17.5 2q0.5 0 0.5 0.5v7q0 0.5-0.5 0.5h-7q-0.5 0-0.5-0.5v-7q0-0.5 0.5-0.5h7zM27.5 2q0.5 0 0.5 0.5v7q0 0.5-0.5 0.5h-7q-0.5 0-0.5-0.5v-7q0-0.5 0.5-0.5h7zM7.5 12q0.5 0 0.5 0.5v7q0 0.5-0.5 0.5h-7q-0.5 0-0.5-0.5v-7q0-0.5 0.5-0.5h7zM17.5 12q0.5 0 0.5 0.5v7q0 0.5-0.5 0.5h-7q-0.5 0-0.5-0.5v-7q0-0.5 0.5-0.5h7zM27.5 12q0.5 0 0.5 0.5v7q0 0.5-0.5 0.5h-7q-0.5 0-0.5-0.5v-7q0-0.5 0.5-0.5h7zM7.5 22q0.5 0 0.5 0.5v7q0 0.5-0.5 0.5h-7q-0.5 0-0.5-0.5v-7q0-0.5 0.5-0.5h7zM17.5 22q0.5 0 0.5 0.5v7q0 0.5-0.5 0.5h-7q-0.5 0-0.5-0.5v-7q0-0.5 0.5-0.5h7zM27.5 22q0.5 0 0.5 0.5v7q0 0.5-0.5 0.5h-7q-0.5 0-0.5-0.5v-7q0-0.5 0.5-0.5h7z"></path>
</svg>
