<!-- Generated by IcoMoon.io -->
<svg version="1.1" xmlns="http://www.w3.org/2000/svg" width="32" height="32" viewBox="0 0 32 32">
<title>uniE074</title>
<path d="M9.5 3.25q-0.125 0-0.25-0.031t-0.25-0.031-0.25 0.031-0.25 0.031v-3.25h1v3.25zM13.438 5.313q-0.313-0.375-0.688-0.688l2.25-2.313 0.75 0.688zM18 9.5h-3.25q0.063-0.125 0.063-0.5 0-0.313-0.063-0.5h3.25v1zM12.75 13.438q0.375-0.313 0.688-0.688l2.313 2.313-0.75 0.688zM9 14.813h0.5v3.188h-1v-3.188h0.5zM2.313 15.063l2.25-2.313q0.188 0.188 0.344 0.375t0.406 0.313l-2.313 2.313zM3.188 9q0 0.125 0.031 0.25t0.031 0.25h-3.25v-1h3.25q0 0.125-0.031 0.25t-0.031 0.25zM5.313 4.625q-0.25 0.125-0.406 0.313t-0.344 0.375l-2.25-2.313 0.688-0.688zM9 14q-2.063 0-3.531-1.438t-1.469-3.563q0-2.063 1.469-3.531t3.531-1.469 3.531 1.469 1.469 3.531q0 2.125-1.469 3.563t-3.531 1.438zM9 6q-1.25 0-2.125 0.875t-0.875 2.125 0.875 2.125 2.125 0.875 2.125-0.875 0.875-2.125-0.875-2.125-2.125-0.875zM32 14v2h-6v6h-2v-6h-6v-2h6v-6h2v6h6zM18 26h-5.688q-1.438 0-2.406-0.094t-1.781-0.5-1.656-1.188-1.969-2.219l-2.75-3.188q-0.313-0.313-0.719-0.375t-0.719 0.25-0.344 0.719 0.281 0.719l5.938 7.25-3.813 4.625h1.5l3.188-4h10.938q2.625 0 4.094 0.938t3.094 2.5q0.563 0.563 1.375 0.563h1.875q-1.125-1.375-2.188-2.469t-2.281-1.875-2.656-1.219-3.313-0.438z"></path>
</svg>
