<!-- Generated by IcoMoon.io -->
<svg version="1.1" xmlns="http://www.w3.org/2000/svg" width="32" height="32" viewBox="0 0 32 32">
<title>uniE0E8</title>
<path d="M26 8.563l-0.375-0.563 0.188-0.563 1.188 1.313-0.563 0.563h-0.625l0.563-0.625zM25.125 9.25l-0.188-0.5 0.25-0.438 0.313 0.5zM26.938 9.625q0.125 0.313 0.25 0.594t0.25 0.656l-0.563 0.5-0.938-0.188-0.313 1-1.188-0.5 0.688-1.063h1.5v-0.75zM27.125 12.188h0.563l-0.063 0.5zM16.563 17.063l1.188 1v2.25l-2.938 2.875-0.125 0.375-0.188 0.875-0.25 0.938-0.063 0.75q0 0.063 0.031 0.125t0.031 0.125l-0.25 0.25q-0.25 0-0.313 0.063l-0.563-1.25-0.688-1.563q-0.188-0.688-0.281-1.625t-0.281-2.063l-1.75-1.563 1.563-1.938-0.688-0.875q-1.563 0-2.688-1.125l-0.438-0.313-0.438-0.5 0.688 1.25-0.438 0.188-0.938-1.875 0.188-1.625-0.375-1.25-1.125-0.688-0.25-0.688q0-0.375 0.531-1.031t1.25-1.281 1.406-1.063 1.063-0.438q0.563 0 1.219 0.406t1.156 0.406q-0.063 0.063-0.063 0.188 0 0.25 0.188 0.313l-1 2.25 1.25 0.25 1-1 1.75 0.125 0.375 0.938-1 1.063v0.688l0.563 0.063 0.313-0.5 1.125-0.75v0.5l0.5 0.813-0.563 0.563 0.375 0.313-0.813 0.063 0.313 0.625-1.625 0.813 0.25 1.063h-0.5l-0.25-1.063h-1.313l-0.188 0.375-0.563-0.25-0.813 0.875 0.688 0.75-0.063 0.875 0.75 0.5zM27.625 13.125q0.75 0.313 0.875 1.344t0.125 1.719q0 2.313-0.938 4.281t-1.813 3.781q-0.188 0-0.188-0.438 0-0.563 0.188-1.625t0.188-2.125v-0.5l-0.125-0.563-0.875-1.438-2.375-0.563-0.625-1.313 0.438-2.063q0.5-0.125 1.094-0.219t1.531-0.531q0.125 0.125 0.313 0.125t0.406-0.031 0.469-0.031q0.313 0 0.656 0.063t0.656 0.125zM17.438 6.125q0.688-0.688 1.438-1.188t1.625-1q0.875 0.813 1.438 1.063-0.313 0.125-0.625 0.344t-0.688 0.781l-0.625 1-0.5 0.813-0.563 0.375q-0.375 0-0.594-0.563t-0.219-0.5q-0.438 0-0.688 0.188-0.188-0.188-0.625-0.188-0.125 0-0.188 0.031t-0.188 0.031q0.438-0.625 1-1.188zM24 7.25l-0.688 0.125 0.25-1h0.75l0.125 0.5zM16 0q3.313 0 6.219 1.25t5.094 3.406 3.438 5.094 1.25 6.25-1.25 6.219-3.438 5.094-5.094 3.438-6.219 1.25-6.25-1.25-5.094-3.438-3.406-5.094-1.25-6.219 1.25-6.25 3.406-5.094 5.094-3.406 6.25-1.25zM16 30q2.875 0 5.438-1.094t4.469-3 3-4.469 1.094-5.438-1.094-5.438-3-4.469-4.469-3-5.438-1.094q-2.938 0-5.469 1.094t-4.438 3-3 4.469-1.094 5.438 1.094 5.438 3 4.469 4.438 3 5.469 1.094z"></path>
</svg>
