<!-- Generated by IcoMoon.io -->
<svg version="1.1" xmlns="http://www.w3.org/2000/svg" width="32" height="32" viewBox="0 0 32 32">
<title>uniE02B</title>
<path d="M17.5 17.375q-0.625 0.625-1.438 0.625t-1.375-0.625l-6.375-6.313q-0.75-0.75 0-1.438 0.688-0.688 1.375 0l5.313 5.313v-13.938q0-1 1-1t1 1v14.063l5.438-5.438q0.688-0.688 1.438 0 0.313 0.313 0.313 0.719t-0.313 0.719zM30 20q0.813 0 1.406 0.594t0.594 1.406v8q0 0.875-0.594 1.438t-1.406 0.563h-28q-0.875 0-1.438-0.563t-0.563-1.438v-8q0-0.813 0.563-1.406t1.438-0.594h6q0 2 2 2h12.063q1.938 0 1.938-2h6zM30 22h-4.438q-1.063 2-3.5 2h-12.063q-2.5 0-3.563-2h-4.438v8h28v-8zM21 26q0.375 0 0.688 0.313t0.313 0.688q0 0.438-0.313 0.719t-0.688 0.281h-10q-1 0-1-1 0-0.375 0.281-0.688t0.719-0.313h10z"></path>
</svg>
