<!-- Generated by IcoMoon.io -->
<svg version="1.1" xmlns="http://www.w3.org/2000/svg" width="32" height="32" viewBox="0 0 32 32">
<title>uniE228</title>
<path d="M14.063 4.063q0.75 0 1.375 0.563t0.625 1.438v19.875q0 0.875-0.625 1.438t-1.375 0.563-1.25-0.438l-6.188-5q-0.688-0.438-1.25-0.438h-3.313q-0.813 0-1.188-0.313t-0.563-0.688q-0.25-0.438-0.25-1v-8.125q0-0.563 0.25-1 0.188-0.375 0.563-0.688t1.188-0.313h3.313q0.563 0 1.25-0.438l6.188-5q0.625-0.438 1.25-0.438zM14.063 6.063l-6.188 5q-1.188 0.875-2.5 0.875h-3.313v8.125h3.313q1.313 0 2.5 0.875l6.188 5v-19.875zM21.5 7.563q2.063 1.375 3.313 3.563t1.25 4.813q0 2.75-1.344 5t-3.531 3.563l-1.125-1.375v-0.313q1.813-1.063 2.906-2.875t1.094-4-1.094-4-2.906-2.875zM25.813 3.25q2.875 2.188 4.563 5.469t1.688 7.219q0 4.188-1.938 7.656t-5.188 5.594l-1.25-1.563q2.875-1.875 4.625-4.938t1.75-6.75q0-3.5-1.531-6.406t-4.156-4.844z"></path>
</svg>
