<!-- Generated by IcoMoon.io -->
<svg version="1.1" xmlns="http://www.w3.org/2000/svg" width="32" height="32" viewBox="0 0 32 32">
<title>uniE21C</title>
<path d="M16 15.125q-0.375 0-0.625-0.156t-0.375-0.906l-0.938-7.063q0-1 0.594-1.469t1.344-0.469 1.344 0.469 0.594 1.469l-0.938 7.063q-0.125 0.688-0.344 0.875t-0.656 0.188zM16 17q0.938 0 1.469 0.594t0.531 1.344q0 1-0.625 1.5t-1.344 0.5-1.344-0.5-0.625-1.5q0-0.75 0.531-1.344t1.406-0.594zM28 0q1.688 0 2.844 1.188t1.156 2.813v18q0 1.625-1.156 2.813t-2.844 1.188h-2v4.688q0 0.625-0.406 0.969t-0.906 0.344q-0.438 0-0.75-0.25l-4.938-5.75h-15q-1.625 0-2.813-1.188t-1.188-2.813v-18q0-1.625 1.188-2.813t2.813-1.188h24zM30 4q0-0.813-0.563-1.406t-1.438-0.594h-24q-0.813 0-1.406 0.594t-0.594 1.406v18q0 0.875 0.594 1.438t1.406 0.563h16l4 5v-5h4q0.875 0 1.438-0.563t0.563-1.438v-18z"></path>
</svg>
