<!-- Generated by IcoMoon.io -->
<svg version="1.1" xmlns="http://www.w3.org/2000/svg" width="32" height="32" viewBox="0 0 32 32">
<title>uniE128</title>
<path d="M16.063 6q1.063 0 2.125 0.375t1.906 1.125 1.375 1.813 0.531 2.438q0 1.25-0.344 1.969t-0.844 1.375-1.063 1.438-1 2.094l-0.313 1.375h-4.688l-0.313-1.438-0.875-1.813-1.125-1.438q-0.563-0.688-0.875-1.531t-0.438-2.031q0-1 0.563-2.25 0.688-1.625 2.125-2.563t3.25-0.938zM19 14.188q0.563-0.688 0.781-1.125t0.219-1.313q0-1-0.375-1.688t-0.969-1.156-1.281-0.688-1.313-0.219q-2.563 0-3.563 2.25-0.375 0.875-0.375 1.5 0.063 0.875 0.313 1.406t0.563 0.906l1.125 1.5 0.125 0.125 0.063 0.188 0.938 1.875 0.063 0.188v0.063h1.563q0.5-1.438 1.063-2.313t1.063-1.5zM17.5 21q0.5 0 0.5 0.5v1q0 0.5-0.5 0.5h-0.5q-0.125 0.125-0.313 0.25-0.375 0.25-0.688 0.25t-0.688-0.25q-0.188-0.125-0.313-0.25h-0.5q-0.5 0-0.5-0.5v-1q0-0.5 0.5-0.5h3zM6 24q3.375 0 4.688 1.313t1.313 4.688v2h-12v-2q0-3.375 1.344-4.688t4.656-1.313zM10 30q0-1.25-0.156-2.031t-0.594-1.219-1.219-0.594-2.031-0.156-2.031 0.156-1.219 0.594-0.594 1.219-0.156 2.031h8zM10 20q0 1.625-1.156 2.813t-2.844 1.188q-1.625 0-2.813-1.188t-1.188-2.813q0-1.688 1.188-2.844t2.813-1.156q1.688 0 2.844 1.156t1.156 2.844zM6 22q0.875 0 1.438-0.594t0.563-1.406q0-0.875-0.563-1.438t-1.438-0.563q-0.813 0-1.406 0.563t-0.594 1.438q0 0.813 0.594 1.406t1.406 0.594zM26 24q3.375 0 4.688 1.313t1.313 4.688v2h-12v-2q0-3.375 1.344-4.688t4.656-1.313zM30 30q0-1.25-0.156-2.031t-0.594-1.219-1.219-0.594-2.031-0.156-2.031 0.156-1.219 0.594-0.594 1.219-0.156 2.031h8zM30 20q0 1.625-1.156 2.813t-2.844 1.188q-1.625 0-2.813-1.188t-1.188-2.813q0-1.688 1.188-2.844t2.813-1.156q1.688 0 2.844 1.156t1.156 2.844zM26 22q0.875 0 1.438-0.594t0.563-1.406q0-0.875-0.563-1.438t-1.438-0.563q-0.813 0-1.406 0.563t-0.594 1.438q0 0.813 0.594 1.406t1.406 0.594zM4 14h-2v-10q0-0.875 0.594-1.438t1.406-0.563h24q0.875 0 1.438 0.563t0.563 1.438v10h-2v-10h-24v10z"></path>
</svg>
