<!-- Generated by IcoMoon.io -->
<svg version="1.1" xmlns="http://www.w3.org/2000/svg" width="32" height="32" viewBox="0 0 32 32">
<title>uniE0C1</title>
<path d="M31.625 7.125q0.688 0.688 0 1.375l-16.25 16.188q-0.063 0.125-1.063 0.438t-2.25 0.625q-1.438 0.375-3.188 0.875l1.125-3q0.438-1.125 0.781-2.094t0.406-1.031l16.188-16.188q0.313-0.313 0.688-0.313 0.438 0 0.75 0.313zM25.563 11.75l-1.438-1.375-11.25 11.25q-0.125 0.313-0.313 0.844t-0.5 1.219q0.75-0.25 1.344-0.406t0.906-0.281zM29.5 7.813l-1.438-1.375-2.5 2.5 1.375 1.438zM8 27.063h0.25q0.25 0.188-0.688 0.875-0.375 0.25-1.344 0.844t-2.063 1.031-2.094 0.469-1.438-0.781q-0.375-0.688-0.094-1.688t0.906-2.219 1.375-2.531 1.313-2.531 0.75-2.313-0.25-1.906q-0.5-0.875-1.844-0.594t-2.594 1.281q-0.063 0.063-0.094 0t-0.094-0.063q-0.188-0.125-0.063-0.25 0.125-0.188 0.75-0.875t1.5-1.313 1.875-0.844 1.938 0.531q1.313 1 1.375 2.313t-0.5 2.719-1.469 2.906-1.625 2.781-0.969 2.344 0.563 1.688q0.375 0.25 1.125-0.031t1.563-0.719q0.875-0.5 1.938-1.125z"></path>
</svg>
