<!-- Generated by IcoMoon.io -->
<svg version="1.1" xmlns="http://www.w3.org/2000/svg" width="28" height="32" viewBox="0 0 28 32">
<title>uniE26C</title>
<path d="M1.75 7.688q-0.313 0.313-0.719 0.313t-0.719-0.313-0.313-0.719 0.313-0.719l5.25-5.625q0.563-0.625 1.406-0.625t1.406 0.625l5.313 5.625q0.313 0.313 0.313 0.719t-0.313 0.719-0.719 0.313-0.719-0.313l-4.25-4.688v10q0 0.563-0.25 0.781t-0.75 0.219q-1 0-1-1v-10zM0.375 25.813q-0.688-0.688 0-1.438 0.75-0.75 1.438 0l4.188 4.688v-10.063q0-1 1-1 0.563 0 0.781 0.281t0.219 0.719v10.063l4.25-4.688q0.75-0.75 1.438 0t0 1.438l-5.313 5.625q-0.563 0.625-1.406 0.625t-1.406-0.625zM17.063 18q-1 0-1-1t1-1h9.938q1 0 1 1t-1 1h-9.938zM17.063 30q-1 0-1-1t1-1h9.938q1 0 1 1t-1 1h-9.938zM17.063 6q-1 0-1-1t1-1h9.938q1 0 1 1t-1 1h-9.938z"></path>
</svg>
