<!-- Generated by IcoMoon.io -->
<svg version="1.1" xmlns="http://www.w3.org/2000/svg" width="32" height="32" viewBox="0 0 32 32">
<title>uniE1AC</title>
<path d="M16 4q2.5 0 4.688 0.938t3.813 2.563 2.563 3.813 0.938 4.688-0.938 4.688-2.563 3.813-3.813 2.563-4.688 0.938-4.688-0.938-3.813-2.563-2.563-3.813-0.938-4.688 0.938-4.688 2.563-3.813 3.813-2.563 4.688-0.938zM16 24q1.625 0 3.094-0.625t2.563-1.719 1.719-2.563 0.625-3.094q0-1.688-0.625-3.125t-1.719-2.531-2.563-1.719-3.094-0.625q-1.688 0-3.125 0.625t-2.531 1.719-1.719 2.531-0.625 3.125q0 1.625 0.625 3.094t1.719 2.563 2.531 1.719 3.125 0.625zM4 6l-4-4 2-2 4 4zM28 26l4 4-2 2-4-4zM28 6l-2-2 4-4 2 2zM4 26l2 2-4 4-2-2z"></path>
</svg>
