<!-- Generated by IcoMoon.io -->
<svg version="1.1" xmlns="http://www.w3.org/2000/svg" width="32" height="32" viewBox="0 0 32 32">
<title>uniE142</title>
<path d="M4.563 19.375l6.813 3.313v2.938l-6.813-3.375v-2.875zM15.75 30.875l-2.125 1-13.625-6.875v-18.125l6.813-3.438 13.625 6.813v3.875q-0.5 0.125-0.906 0.313t-0.719 0.313q-0.375 0.25-0.688 0.375v-3.438l-11.313-5.75-4.563 2.313v15.375l11.375 5.688 0.5-0.25q0.188-0.063 0.375-0.063l0.5 0.875zM11.875 3.438l-2.5-1.25 4.25-2.188 13.625 6.875v7.438q-1.125-0.375-2.25-0.5v-5.563l-11.375-5.688zM26 18h-2v6h-6v2h6v6h2v-6h6v-2h-6v-6z"></path>
</svg>
