<!-- Generated by IcoMoon.io -->
<svg version="1.1" xmlns="http://www.w3.org/2000/svg" width="32" height="32" viewBox="0 0 32 32">
<title>uniE013</title>
<path d="M22 27h2v3q0 0.875-0.563 1.438t-1.438 0.563h-20q-0.875 0-1.438-0.563t-0.563-1.438v-22l8-8h14q0.813 0 1.406 0.563t0.594 1.438v4h-2v-4h-12v6q0 0.875-0.594 1.438t-1.469 0.563h-5.938v20h20v-3zM30 12q0.813 0 1.406 0.594t0.594 1.406v8q0 0.875-0.594 1.438t-1.406 0.563h-10q-0.875 0-1.438-0.563t-0.563-1.438v-2h-2q-0.875 0-1.438-0.563t-0.563-1.438v-8q0-0.813 0.563-1.406t1.438-0.594h10q0.813 0 1.406 0.594t0.594 1.406v2h2zM18 14q0-0.813 0.563-1.406t1.438-0.594h6v-2h-10v8h2v-4zM30 14h-10v8h10v-8z"></path>
</svg>
