<!-- Generated by IcoMoon.io -->
<svg version="1.1" xmlns="http://www.w3.org/2000/svg" width="32" height="32" viewBox="0 0 32 32">
<title>uniE005</title>
<path d="M12 2.063h20v25.875h-9.938v-1.938h8v-22h-16v2h-2.063v-3.938zM16.063 13.938q0 2.5-1.75 4.25t-4.25 1.75-4.25-1.75-1.75-4.25 1.75-4.25 4.25-1.75 4.25 1.75 1.75 4.25zM10.063 17.938q1.625 0 2.813-1.188t1.188-2.813-1.188-2.813-2.813-1.188-2.813 1.188-1.188 2.813 1.188 2.813 2.813 1.188zM12.063 19.938q1.625 0 3.063 0.625t2.531 1.719 1.719 2.563 0.625 3.094v2.063h-20v-2.063q0-1.625 0.625-3.094t1.719-2.563 2.563-1.719 3.156-0.625h4zM18.063 27.938q0-2.5-1.75-4.219t-4.25-1.719h-4q-1.25 0-2.313 0.469t-1.906 1.25-1.313 1.875-0.469 2.344h16zM27.438 13.5q0.563 0.625 0.563 1.438t-0.563 1.438l-3.875 3.625q-0.313 0.313-0.688 0.313t-0.688-0.313-0.313-0.719 0.313-0.719l2.813-2.563h-6q-1 0-1-1t1-1h6l-2.875-2.563q-0.313-0.313-0.313-0.719t0.313-0.719 0.688-0.313 0.688 0.313z"></path>
</svg>
