<!-- Generated by IcoMoon.io -->
<svg version="1.1" xmlns="http://www.w3.org/2000/svg" width="24" height="32" viewBox="0 0 24 32">
<title>uniE1B9</title>
<path d="M12.75 5.563q-0.313-0.313-0.719-0.313t-0.719 0.313l-7.875 6.063q-0.688 0.563-1.469 0.594t-1.344-0.594q-0.625-0.563-0.625-1.406t0.625-1.406l10-8.188q0.563-0.625 1.406-0.625t1.406 0.625l10 8.063q0.563 0.563 0.563 1.406t-0.563 1.406q-0.625 0.625-1.375 0.594t-1.438-0.594zM12.625 15.625q-0.25-0.25-0.594-0.25t-0.594 0.25l-6.625 5.125q-0.563 0.5-1.219 0.5t-1.156-0.5-0.5-1.188 0.5-1.188l8.375-6.875q0.5-0.5 1.188-0.5t1.188 0.5l8.438 6.813q0.5 0.5 0.5 1.156t-0.5 1.156q-1.063 1.063-2.375 0zM12.625 24.938q-0.563-0.563-1.063 0l-5.938 4.563q-0.5 0.438-1.094 0.438t-1.031-0.438-0.438-1.063 0.438-1.063l7.5-6.125q0.5-0.5 1.094-0.5t1.031 0.5l7.5 6.063q0.438 0.438 0.438 1.031t-0.438 1.031q-0.938 0.938-2.063 0z"></path>
</svg>
