<!-- Generated by IcoMoon.io -->
<svg version="1.1" xmlns="http://www.w3.org/2000/svg" width="24" height="32" viewBox="0 0 24 32">
<title>uniE0AA</title>
<path d="M0 0h2v32h-2v-32zM19.188 2.063q0.875 0 1.469-0.125t1.063-0.375 1-0.625 1.281-0.938v14.938q-0.875 0.875-1.875 1.563-0.875 0.563-1.938 1.031t-2.188 0.469q-0.313 0-1.469-0.313t-2.5-0.688-2.5-0.688-1.531-0.313q-1.813 0-3.188 0.469t-2.813 1.531v-14.063q0.625-1.063 1.625-1.938 0.875-0.75 2.094-1.375t2.969-0.625q0.438 0 1.688 0.313t2.656 0.719 2.594 0.719 1.563 0.313z"></path>
</svg>
