<!-- Generated by IcoMoon.io -->
<svg version="1.1" xmlns="http://www.w3.org/2000/svg" width="33" height="32" viewBox="0 0 33 32">
<title>uniE120</title>
<path d="M8.938 22.875q0.25 0 0.25 0.313v4.875q0 0.313-0.25 0.313h-4.938q-0.313 0-0.313-0.313v-4.875q0-0.313 0.313-0.313h4.938zM8.313 11.313q0.375 0 0.625 0.281t0.25 0.656v7.375q0 0.375-0.25 0.656t-0.625 0.281h-7.375q-0.375 0-0.656-0.281t-0.281-0.656v-7.375q0-0.375 0.281-0.656t0.656-0.281h7.375zM7.813 12.75h-6.375v6.375h6.375v-6.375zM29.438 0q0.5 0 0.875 0.406t0.375 0.906v17.875q0 0.563-0.375 0.938t-0.875 0.375h-16.563q-0.563 0-0.938-0.375t-0.375-0.938v-17.875q0-0.5 0.375-0.906t0.938-0.406h16.563zM17.625 9.625h-2.938v6h2.938v-6zM22.625 4.688h-3v10.938h3v-10.938zM27.438 6.875h-2.938v8.75h2.938v-8.75zM19.813 22.875q0.938 0 0.938 0.938v7.25q0 0.938-0.938 0.938h-7.375q-0.375 0-0.656-0.25t-0.281-0.688v-7.25q0-0.375 0.281-0.656t0.656-0.281h7.375zM19.375 24.25h-6.375v6.375h6.375v-6.375z"></path>
</svg>
