<!-- Generated by IcoMoon.io -->
<svg version="1.1" xmlns="http://www.w3.org/2000/svg" width="32" height="32" viewBox="0 0 32 32">
<title>uniE05D</title>
<path d="M12 18q1.688 0 3.125 0.625t2.531 1.719 1.719 2.531 0.625 3.125v6h-20v-6q0-1.688 0.625-3.125t1.719-2.531 2.563-1.719 3.094-0.625h4zM18 26q0-2.5-1.75-4.25t-4.25-1.75h-4q-1.25 0-2.313 0.469t-1.906 1.281-1.313 1.906-0.469 2.344v4h16v-4zM16 12q0 2.5-1.75 4.25t-4.25 1.75-4.25-1.75-1.75-4.25 1.75-4.25 4.25-1.75 4.25 1.75 1.75 4.25zM10 16q1.688 0 2.844-1.188t1.156-2.813q0-1.688-1.156-2.844t-2.844-1.156q-1.625 0-2.813 1.156t-1.188 2.844q0 1.625 1.188 2.813t2.813 1.188zM28 5q0 2.063-1.438 3.531t-3.563 1.469q-2.063 0-3.531-1.469t-1.469-3.531 1.469-3.531 3.531-1.469q2.125 0 3.563 1.469t1.438 3.531zM23 8q1.25 0 2.125-0.875t0.875-2.125-0.875-2.125-2.125-0.875-2.125 0.875-0.875 2.125 0.875 2.125 2.125 0.875zM24 10q1.688 0 3.125 0.625t2.531 1.719 1.719 2.531 0.625 3.125v4h-9.938v-2h7.938v-2q0-2.5-1.75-4.25t-4.25-1.75h-2q-2.313 0-4 1.563v-2.438q1.75-1.125 4-1.125h2z"></path>
</svg>
