<!-- Generated by IcoMoon.io -->
<svg version="1.1" xmlns="http://www.w3.org/2000/svg" width="32" height="32" viewBox="0 0 32 32">
<title>uniE19D</title>
<path d="M10 20q-0.938 0-1.375-0.313t-0.563-0.688q-0.188-0.438-0.063-1v-2q-0.125-0.563 0.063-1 0.125-0.375 0.563-0.688t1.375-0.313h1.688q0.313 0 0.625-0.188l6.063-4.625q0.25-0.188 0.625-0.188t0.688 0.281 0.313 0.719v14q0 0.5-0.313 0.75t-0.688 0.25-0.625-0.188l-6.063-4.625q-0.313-0.188-0.625-0.188h-1.688zM10 18h1.688q1 0 1.813 0.625l4.5 3.375v-10l-4.5 3.438q-0.75 0.563-1.813 0.563h-1.688v2zM22 28h2v2q0 0.875-0.563 1.438t-1.438 0.563h-20q-0.875 0-1.438-0.563t-0.563-1.438v-22l8-8h14q0.813 0 1.406 0.563t0.594 1.438v2h-2v-2h-12v6q0 0.875-0.594 1.438t-1.469 0.563h-5.938v20h20v-2zM23.625 11.813q1.063 0.938 1.719 2.281t0.656 2.906q0 1.5-0.594 2.813t-1.594 2.25l-1.688-1.25q0.875-0.688 1.375-1.656t0.5-2.156q0-1.25-0.563-2.25t-1.438-1.688v-0.063zM28.5 8.125q1.625 1.75 2.563 4t0.938 4.875q0 2.5-0.875 4.719t-2.438 3.906l-1.625-1.188q1.375-1.438 2.156-3.344t0.781-4.094q0-2.25-0.844-4.219t-2.281-3.406z"></path>
</svg>
