<!-- Generated by IcoMoon.io -->
<svg version="1.1" xmlns="http://www.w3.org/2000/svg" width="32" height="32" viewBox="0 0 32 32">
<title>uniE0AC</title>
<path d="M30 0q0.875 0 1.438 0.594t0.563 1.406v20q0 0.875-0.563 1.438t-1.438 0.563h-20q-0.875 0-1.438-0.563t-0.563-1.438v-20q0-0.813 0.563-1.406t1.438-0.594h20zM30 2h-20v20h20v-20zM22 28h2v2q0 0.875-0.563 1.438t-1.438 0.563h-20q-0.875 0-1.438-0.563t-0.563-1.438v-20q0-0.813 0.563-1.406t1.438-0.594h2v2h-2v20h20v-2zM24 6h-9q-1 0.125-1 1.125 0.063 0.375 0.344 0.656t0.656 0.281h7.688l-8.313 8.25q-0.625 0.625 0 1.5 0.75 0.563 1.5-0.063l8.188-8.25v7.5q0 0.438 0.281 0.719t0.656 0.344q1-0.125 1-1.125v-8.938q0-0.875-0.563-1.438t-1.438-0.563z"></path>
</svg>
