<!-- Generated by IcoMoon.io -->
<svg version="1.1" xmlns="http://www.w3.org/2000/svg" width="28" height="32" viewBox="0 0 28 32">
<title>uniE264</title>
<path d="M11 10q0.438 0 0.719 0.313t0.281 0.688q0 1-1 1h-10q-1 0-1-1 0-0.375 0.281-0.688t0.719-0.313h10zM27 10q0.438 0 0.719 0.313t0.281 0.688q0 1-1 1h-10q-1 0-1-1 0-0.375 0.281-0.688t0.719-0.313h10zM11 4q0.438 0 0.719 0.313t0.281 0.688q0 1-1 1h-10q-1 0-1-1 0-0.375 0.281-0.688t0.719-0.313h10zM27 4q0.438 0 0.719 0.313t0.281 0.688q0 1-1 1h-10q-1 0-1-1 0-0.375 0.281-0.688t0.719-0.313h10zM11 16q0.438 0 0.719 0.313t0.281 0.688q0 1-1 1h-10q-1 0-1-1 0-0.375 0.281-0.688t0.719-0.313h10zM27 16q0.438 0 0.719 0.313t0.281 0.688q0 1-1 1h-10q-1 0-1-1 0-0.375 0.281-0.688t0.719-0.313h10zM11 22q0.438 0 0.719 0.313t0.281 0.688q0 1-1 1h-10q-1 0-1-1 0-0.375 0.281-0.688t0.719-0.313h10zM27 22q0.438 0 0.719 0.313t0.281 0.688q0 1-1 1h-10q-1 0-1-1 0-0.375 0.281-0.688t0.719-0.313h10zM11 28q0.438 0 0.719 0.313t0.281 0.688q0 1-1 1h-10q-1 0-1-1 0-0.375 0.281-0.688t0.719-0.313h10zM27 28q0.438 0 0.719 0.313t0.281 0.688q0 1-1 1h-10q-1 0-1-1 0-0.375 0.281-0.688t0.719-0.313h10z"></path>
</svg>
