<!-- Generated by IcoMoon.io -->
<svg version="1.1" xmlns="http://www.w3.org/2000/svg" width="24" height="32" viewBox="0 0 24 32">
<title>uniE009</title>
<path d="M22 4q0.813 0 1.406 0.563t0.594 1.438v24q0 0.875-0.594 1.438t-1.406 0.563h-20q-0.875 0-1.438-0.563t-0.563-1.438v-24q0-0.875 0.563-1.438t1.438-0.563h4.188q0.25-0.75 0.875-1.281t1.438-0.656q0.5-0.938 1.438-1.5t2.063-0.563 2.031 0.563 1.406 1.5q0.875 0.125 1.469 0.656t0.906 1.281h4.188zM9 4q-1 0-1 1t1 1h6q1 0 1-1t-1-1h-1q0-0.875-0.594-1.438t-1.406-0.563q-0.875 0-1.438 0.563t-0.563 1.438h-1zM22 6h-4.188q-0.188 0.688-0.688 1.25-0.625 0.75-1.563 0.75h-7.125q-1 0-1.625-0.75-0.438-0.625-0.625-1.25h-4.188v24h20v-24zM9.625 12.375l1.438 1.375-4.25 4.25-2.813-2.813 1.375-1.438 1.438 1.438zM9.625 20.375l1.438 1.375-4.25 4.25-2.813-2.813 1.375-1.438 1.438 1.438zM19 14q1 0 1 1 0 0.375-0.281 0.688t-0.719 0.313h-4q-0.375 0-0.688-0.313t-0.313-0.688q0-0.438 0.313-0.719t0.688-0.281h4zM19 22q1 0 1 1 0 0.375-0.281 0.688t-0.719 0.313h-4q-0.375 0-0.688-0.313t-0.313-0.688q0-0.438 0.313-0.719t0.688-0.281h4z"></path>
</svg>
