<!-- Generated by IcoMoon.io -->
<svg version="1.1" xmlns="http://www.w3.org/2000/svg" width="33" height="32" viewBox="0 0 33 32">
<title>uniE1B5</title>
<path d="M18.938 7.688h-4.813l2.375-3.563zM16.5-0.625q3.438 0 6.469 1.313t5.281 3.563 3.563 5.281 1.313 6.469q0 3.375-1.313 6.375t-3.563 5.25-5.281 3.563-6.469 1.313q-3.375 0-6.375-1.313t-5.25-3.563-3.563-5.25-1.313-6.375q0-3.438 1.313-6.469t3.563-5.281 5.25-3.563 6.375-1.313zM16.5 30.125q2.938 0 5.531-1.125t4.531-3.031 3.063-4.469 1.125-5.5-1.125-5.531-3.063-4.531-4.531-3.063-5.531-1.125-5.5 1.125-4.469 3.063-3.031 4.531-1.125 5.531 1.125 5.5 3.031 4.469 4.469 3.031 5.5 1.125zM26.25 8.688q0.438 0 0.438 0.5 0 0.313-0.125 0.438l-8.25 8.5q-0.188 0.188-0.25 0.188l-10.938 4.875q-0.063 0.063-0.25 0.063-0.5-0.188-0.5-0.625 0-0.188 0.125-0.313l8.625-8.75q4.063-1.813 6.281-2.813t3.25-1.469 1.219-0.563l0.188-0.094q0.063 0 0.094 0.031t0.094 0.031zM16.5 17.125q0.5 0 0.875-0.313t0.375-0.813-0.375-0.875-0.875-0.375-0.813 0.375-0.313 0.875 0.313 0.813 0.813 0.313z"></path>
</svg>
