<!-- Generated by IcoMoon.io -->
<svg version="1.1" xmlns="http://www.w3.org/2000/svg" width="28" height="32" viewBox="0 0 28 32">
<title>uniE156</title>
<path d="M27.5 25.5q0.563 0.625 0.563 1.438t-0.563 1.438l-3.813 3.25q-0.313 0.313-0.688 0.313t-0.688-0.313-0.313-0.719 0.313-0.719l2.75-2.25h-21.938q-1 0-1-1 0-0.438 0.219-0.781t0.281-0.344l19.813-19.875h-19.375l2.688 2.25q0.688 0.75 0 1.438-0.313 0.313-0.688 0.313t-0.688-0.313l-3.75-3.25q-0.563-0.625-0.563-1.438t0.563-1.438l3.75-3.313q0.688-0.688 1.375 0 0.688 0.75 0 1.438l-2.688 2.313h22.063q0.375 0 0.656 0.281t0.281 0.719-0.219 0.781-0.219 0.406l-19.875 19.813h19.313l-2.75-2.313q-0.313-0.313-0.313-0.719t0.313-0.719 0.688-0.313 0.688 0.313l3.813 3.313z"></path>
</svg>
