<!-- Generated by IcoMoon.io -->
<svg version="1.1" xmlns="http://www.w3.org/2000/svg" width="28" height="32" viewBox="0 0 28 32">
<title>uniE0AE</title>
<path d="M26 2.063q0.875 0 1.438 0.563t0.563 1.438v26q0 0.875-0.563 1.438t-1.438 0.563h-24q-0.813 0-1.406-0.563t-0.594-1.438v-26q0-0.875 0.594-1.438t1.406-0.563h4v-2h2v2h12v-2h2v2h4zM20 6.063h2v-2h-2v2zM6 6.063h2v-2h-2v2zM26 8.063h-24v22h24v-22zM6 16.063q-0.875 0-1.438-0.563t-0.563-1.438 0.563-1.438 1.438-0.563 1.438 0.563 0.563 1.438-0.563 1.438-1.438 0.563zM14 16.063q-0.875 0-1.438-0.563t-0.563-1.438 0.563-1.438 1.438-0.563 1.438 0.563 0.563 1.438-0.563 1.438-1.438 0.563zM22 16.063q-0.875 0-1.438-0.563t-0.563-1.438 0.563-1.438 1.438-0.563 1.438 0.563 0.563 1.438-0.563 1.438-1.438 0.563zM22 24.063q-0.875 0-1.438-0.563t-0.563-1.438 0.563-1.438 1.438-0.563 1.438 0.563 0.563 1.438-0.563 1.438-1.438 0.563zM14 24.063q-0.875 0-1.438-0.563t-0.563-1.438 0.563-1.438 1.438-0.563 1.438 0.563 0.563 1.438-0.563 1.438-1.438 0.563zM6 24.063q-0.875 0-1.438-0.563t-0.563-1.438 0.563-1.438 1.438-0.563 1.438 0.563 0.563 1.438-0.563 1.438-1.438 0.563z"></path>
</svg>
