<!-- Generated by IcoMoon.io -->
<svg version="1.1" xmlns="http://www.w3.org/2000/svg" width="33" height="32" viewBox="0 0 33 32">
<title>uniE026</title>
<path d="M16.688 15.063q2.625 0.563 3.688 1.938t1.063 2.688q0 1.938-1.281 3.344t-3.469 1.531v2.063h-1.563v-2q-1.625-0.063-2.938-1.25t-1.563-3.563l2.563-0.313q0.188 0.875 0.75 1.563t1.188 0.938v-4.563q-2-0.688-3.219-2.031t-1.219-2.781q0-0.75 0.313-1.563t0.906-1.5 1.406-1.156 1.813-0.531v-1.313h1.563v1.313q3.625 0.25 4.375 3.875l-2.25 0.375q-0.125-0.75-0.688-1.25t-1.438-0.563v4.75zM16.688 22.25q0.875-0.25 1.469-0.906t0.594-1.406q0-1.5-2.063-2.188v4.5zM15.125 10.25q-0.688 0.25-1.125 0.813t-0.438 1.188q0 1.25 1.563 2v-4zM16 0q3.313 0 6.25 1.25t5.094 3.438 3.406 5.094 1.25 6.219-1.25 6.25-3.406 5.094-5.094 3.406-6.25 1.25-6.219-1.25-5.094-3.406-3.438-5.094-1.25-6.25 1.25-6.219 3.438-5.094 5.094-3.438 6.219-1.25zM16 30q2.875 0 5.438-1.094t4.469-3 3-4.438 1.094-5.469q0-2.875-1.094-5.438t-3-4.469-4.469-3-5.438-1.094-5.438 1.094-4.469 3-3 4.469-1.094 5.438q0 2.938 1.094 5.469t3 4.438 4.469 3 5.438 1.094z"></path>
</svg>
