<!-- Generated by IcoMoon.io -->
<svg version="1.1" xmlns="http://www.w3.org/2000/svg" width="32" height="32" viewBox="0 0 32 32">
<title>uniE073</title>
<path d="M21 17.125q-2.563 0-4.344-1.781t-1.781-4.344 1.781-4.313 4.344-1.75 4.344 1.75 1.781 4.313-1.781 4.344-4.344 1.781zM21 6.938q-1.75 0-2.938 1.188t-1.188 2.875q0 1.75 1.188 2.938t2.938 1.188q1.688 0 2.906-1.188t1.219-2.938q0-1.688-1.219-2.875t-2.906-1.188zM21.625 4q-0.25-0.063-0.625-0.063-0.438 0-0.625 0.063v-4h1.25v4zM25.563 16.438q0.25-0.188 0.438-0.406t0.375-0.469l2.813 2.813-0.875 0.875zM26.375 6.5q-0.188-0.25-0.375-0.469t-0.438-0.406l2.75-2.813 0.875 0.875zM20.375 18.063q0.125 0 0.281 0.031t0.344 0.031q0.125 0 0.281-0.031t0.344-0.031v3.938h-1.25v-3.938zM13.875 11q0 0.188 0.031 0.344t0.031 0.281h-3.938v-1.188h3.938q0 0.125-0.031 0.281t-0.031 0.281zM12.75 18.375l2.813-2.813q0.375 0.5 0.875 0.875l-2.813 2.813zM32 10.438v1.188h-4q0.063-0.188 0.063-0.625 0-0.375-0.063-0.563h4zM16.438 5.625q-0.5 0.375-0.875 0.875l-2.813-2.813 0.875-0.875zM18 26q1.875 0 3.313 0.438t2.656 1.219 2.281 1.875 2.188 2.469h-1.875q-0.813 0-1.375-0.563-1.625-1.563-3.094-2.5t-4.094-0.938h-10.938l-3.188 4h-1.5l3.813-4.625-5.938-7.25q-0.313-0.313-0.281-0.719t0.344-0.719 0.719-0.25 0.719 0.375l2.75 3.188q1.125 1.438 1.969 2.219t1.656 1.188 1.781 0.5 2.406 0.094h5.688z"></path>
</svg>
