<!-- Generated by IcoMoon.io -->
<svg version="1.1" xmlns="http://www.w3.org/2000/svg" width="16" height="32" viewBox="0 0 16 32">
<title>uniE035</title>
<path d="M4.625 20.625q-0.188-0.875-0.563-1.563l9.375-2.875q0.75-0.188 0.75-1 0-0.5-0.281-0.906t-0.781-0.406q-0.125 0-0.188 0.031t-0.188 0.031l-11.625 3.5q-0.125 0.125-0.313 0.156t-0.313 0.281l-0.125 0.5q-0.063 0.063-0.063 0.25 0 0.563 0.219 0.813t0.469 0.313 0.406 0.031-0.031-0.031q0.5 0 0.906 1t0.406 2.5h2.25q0-1.25-0.313-2.625zM1.5 15.125q-0.875 0-1.125-0.813-0.125-0.563 0.094-0.969t0.656-0.531l11.625-3.5q0.438-0.125 0.875 0.094t0.563 0.719-0.094 0.906-0.656 0.531l-11.625 3.5q-0.188 0.063-0.313 0.063zM1.5 10.5q-0.875 0-1.125-0.875-0.125-0.5 0.094-0.906t0.656-0.531l11.625-3.5q0.438-0.125 0.875 0.094t0.563 0.688-0.094 0.906-0.656 0.563l-11.625 3.5q-0.188 0.063-0.313 0.063zM1.5 5.813q-0.875 0-1.125-0.875-0.125-0.438 0.094-0.844t0.656-0.531l11.625-3.5q0.438-0.125 0.875 0.094t0.563 0.656-0.094 0.906-0.656 0.594l-11.625 3.438q-0.188 0.063-0.313 0.063zM12.188 22.25q0.375-1.375 0.875-1.375t0.844-0.344 0.344-0.813-0.344-0.781-0.844-0.313q-2.313 0-3.125 3.125-0.188 0.688-0.25 1.5h2.375zM4.063 30.625q1.375 1.375 3.438 1.375 2 0 3.375-1.375l0.625-0.625h-8zM11.063 25h-7.188q-0.875 0-0.875 1v2q0 1 0.875 1h7.188q0.375 0 0.656-0.281t0.281-0.719v-2q0-0.438-0.281-0.719t-0.656-0.281zM8.375 28q-0.875 0-0.875-1t0.875-1 0.875 1-0.875 1z"></path>
</svg>
