<!-- Generated by IcoMoon.io -->
<svg version="1.1" xmlns="http://www.w3.org/2000/svg" width="32" height="32" viewBox="0 0 32 32">
<title>uniE189</title>
<path d="M3.375 22l1.25 3.063-2.313 6.25q-0.188 0.688-1.063 0.688-1.125 0-1.125-1.125 0-0.313 0.063-0.375zM31.75 23.75q0.063 0.063 0.063 0.375 0 0.438-0.313 0.75t-0.813 0.313q-0.813 0-1.063-0.75l-1.938-5.438 1.188-3.563zM7 18.75l-1.25-3.313 2.125-5.5 2.438 4.75-1.125 2.938-1.063-2zM18.5 17.5l1.313 3.125-3.625 10.938-4.25-8.313 1.188-3 2.625 5.375zM22 14.188l-1.375-3.125 3.188-9.75 2.438 6.813-1.125 3.688-1.25-3.563zM30.938 0.25q0.875 0.313 0.875 1.125 0 0.125-0.031 0.188t-0.031 0.125l-7.75 25.688-7.938-18.438-8.063 21.688-7.875-19.75q-0.063-0.063-0.063-0.375 0-1.125 1.188-1.125 0.688 0 1.063 0.688l5.625 14.25 7.875-21.375 7.875 17.875 5.875-19.75q0.313-0.813 1.125-0.813h0.25z"></path>
</svg>
