<!-- Generated by IcoMoon.io -->
<svg version="1.1" xmlns="http://www.w3.org/2000/svg" width="32" height="32" viewBox="0 0 32 32">
<title>uniE132</title>
<path d="M12.563 18.313v-0.938q-2.188-0.25-2.563-2.563l1.5-0.188q0.125 0.5 0.313 0.75t0.75 0.563v-2.438q-1.438-0.438-1.875-1.094t-0.438-1.531q0-2.125 2.313-2.438v-0.563h0.875v0.563q1.125 0.125 1.688 0.656t0.688 1.406l-1.5 0.188q-0.063-0.563-0.875-0.938v2.313q1.75 0.5 2.063 1 0.563 0.688 0.563 1.563 0 1.125-0.594 1.75t-2.031 0.938v1h-0.875zM13.438 16.063q0.75-0.188 0.875-0.438 0.313-0.438 0.313-0.75 0-0.438-0.188-0.656t-1-0.469v2.313zM11.625 10.75q0 0.313 0.156 0.531t0.781 0.531v-2.063q-0.563 0.188-0.75 0.469t-0.188 0.531zM21 8q0.375 0 0.688 0.281t0.313 0.719-0.313 0.719-0.688 0.281h-2q-1 0-1-1t1-1h2zM21 12q0.375 0 0.688 0.281t0.313 0.719-0.313 0.719-0.688 0.281h-2q-1 0-1-1t1-1h2zM32 10.938v19.063q0 0.875-0.594 1.438t-1.406 0.563h-28q-0.875 0-1.438-0.563t-0.563-1.438v-19.063l4-2.25v2.188l-2 1.063 9.438 8.438-1.063 1.125-8.375-7.563v15.125l13.938-10.688 14.063 10.5v-14.875l-8.313 7.5-1.188-1.125 9.5-8.438-2-1.063v-2.125zM29 30l-13-9.625-13 9.625h26zM8 15.313l-2-1.813v-7.5q0-0.813 0.563-1.406t1.438-0.594h16q0.813 0 1.406 0.594t0.594 1.406v7.5l-2 1.75v-9.25h-16v9.313zM14.688 3h-4.188l5.375-3 5.375 3h-4.063l-1.25-0.688z"></path>
</svg>
