<!-- Generated by IcoMoon.io -->
<svg version="1.1" xmlns="http://www.w3.org/2000/svg" width="31" height="32" viewBox="0 0 31 32">
<title>uniE117</title>
<path d="M29.438 3.625q1.688 1.688 1.688 3.813 0 2.25-1.688 3.813l-1.875 1.813-0.313-0.25q1.313-1.563 1.313-3.5 0-1.75-1.063-2.813l-2.438-2.313-1.688 1.688q-0.188 0-0.188-0.125v-5.75h5.875l0.125 0.25-1.563 1.563zM15.688 4.625q2.125 0 4 0.813t3.281 2.219 2.219 3.313 0.813 4.031-0.813 3.969-2.219 3.25-3.281 2.219-4 0.813q-2.188 0-4.063-0.813t-3.25-2.219-2.188-3.25-0.813-3.969 0.813-4.031 2.188-3.313 3.25-2.219 4.063-0.813zM15.688 23.5q1.75 0 3.313-0.656t2.719-1.813 1.844-2.688 0.688-3.344-0.688-3.375-1.844-2.75-2.719-1.844-3.313-0.656q-1.813 0-3.375 0.656t-2.719 1.844-1.844 2.75-0.688 3.375 0.688 3.344 1.844 2.688 2.719 1.813 3.375 0.656zM16.188 13.938q1.875 0.375 2.625 1.219t0.75 2.281q0 1.5-0.938 2.5t-2.438 1.188v1.125h-1.25v-1.063q-1.375-0.188-2.313-1.031t-1.125-2.469l2.188-0.25q0.188 1.125 1.25 1.813v-3.438q-3.125-1.063-3.125-3.625 0-1.313 0.875-2.25t2.25-1.063v-1.188h1.25v1.188q1.375 0.125 2.063 0.875t1 2l-2.188 0.25q-0.125-1.063-0.875-1.375v3.313zM14.938 10.563q-0.563 0.313-0.781 0.75t-0.219 0.813q0 0.25 0.219 0.688t0.781 0.625v-2.875zM17.063 18.75q0.438-0.438 0.438-1 0-0.5-0.313-0.969t-1-0.656v3.188q0.688-0.125 0.875-0.563zM1.75 26.375q-1.688-1.688-1.688-3.813 0-2.188 1.688-3.813l1.875-1.813 0.313 0.25q-1.313 1.625-1.313 3.5 0 1.75 1.063 2.813l2.438 2.313 1.688-1.688q0.188 0 0.188 0.125v5.75h-5.875q-0.125 0-0.094-0.031t-0.031-0.219l1.563-1.563z"></path>
</svg>
