<!-- Generated by IcoMoon.io -->
<svg version="1.1" xmlns="http://www.w3.org/2000/svg" width="28" height="32" viewBox="0 0 28 32">
<title>uniE002</title>
<path d="M27.438 23.813q0.563 0.625 0.563 1.406t-0.563 1.344l-2.875 2.875q-0.563 0.563-1.313 0.563-0.875 0-1.438-0.563l-10.188-10.25q-1.438 0.625-3.25 0.625-2.938 0-5.188-1.656t-3.188-4.156h7.375q0.875 0 1.719-0.594t0.844-1.469v-2q0-0.875-0.844-1.438t-1.719-0.563h-7.375q0.938-2.625 3.188-4.281t5.188-1.656q1.875 0 3.469 0.719t2.813 1.938 1.906 2.844 0.688 3.438q0 1.25-0.375 2.438zM26 25.25l-10.5-10.5-0.875-0.813 0.313-1.125q0.188-0.563 0.25-1t0.063-0.875q0-1.438-0.531-2.688t-1.469-2.188-2.188-1.5-2.688-0.563q-2.875 0-4.813 2.063h3.813q0.813 0 1.625 0.313t1.469 0.813 1.063 1.219 0.406 1.531v2q0 0.813-0.406 1.531t-1.063 1.281-1.469 0.875-1.625 0.313h-3.813q0.938 0.875 2.188 1.375t2.625 0.5q1.063 0 2.563-0.5l1.188-0.5 0.938 0.938 10.188 10.25z"></path>
</svg>
