<!-- Generated by IcoMoon.io -->
<svg version="1.1" xmlns="http://www.w3.org/2000/svg" width="28" height="32" viewBox="0 0 28 32">
<title>uniE0E5</title>
<path d="M26 2q0.875 0 1.438 0.594t0.563 1.406v26q0 0.875-0.563 1.438t-1.438 0.563h-24q-0.875 0-1.438-0.563t-0.563-1.438v-26q0-0.813 0.563-1.406t1.438-0.594h4v-2h2v2h12v-2h2v2h4zM20 6h2v-2h-2v2zM6 6h2v-2h-2v2zM26 8h-24v22h24v-22zM21.313 17.5q0.563 0.625 0.563 1.438t-0.563 1.438l-5.75 5.375q-0.313 0.313-0.688 0.313t-0.688-0.313-0.313-0.719 0.313-0.719l4.688-4.313h-11.938q-1 0-1-1t1-1h11.938l-4.688-4.25q-0.313-0.313-0.313-0.719t0.313-0.719q0.688-0.688 1.375 0z"></path>
</svg>
