<!-- Generated by IcoMoon.io -->
<svg version="1.1" xmlns="http://www.w3.org/2000/svg" width="20" height="32" viewBox="0 0 20 32">
<title>uniE06A</title>
<path d="M1 2q-1 0-1-1t1-1h18q1 0 1 1t-1 1h-18zM19 30q1 0 1 1t-1 1h-18q-1 0-1-1t1-1h18zM14 28.125h-8v-5q0-1.688 1.188-2.406t2.813-0.719 2.813 0.719 1.188 2.406v5zM2 22q0-0.938 0.438-1.656t1.031-1.344 1.281-1.25 1.25-1.375q0.125-0.125 0.125-0.375t-0.125-0.375q-0.563-0.75-1.25-1.344t-1.281-1.219-1.031-1.344-0.438-1.719v-6h2v6q0 0.813 0.313 1.344t0.781 0.969 1.094 0.844 1.188 0.969q0.125 0.125 0.344 0.469t0.313 0.781 0 0.969-0.469 0.969q-0.563 0.625-1.188 1.125t-1.156 1.031-0.875 1.125-0.344 1.406v6h-2v-6zM18 10q0 1-0.438 1.719t-1.031 1.344-1.281 1.219-1.25 1.344q-0.125 0.125-0.125 0.375t0.125 0.375q0.563 0.75 1.25 1.375t1.281 1.25 1.031 1.344 0.438 1.656v6h-2v-6q0-0.813-0.344-1.406t-0.875-1.125-1.156-1.031-1.188-1.125q-0.375-0.438-0.438-0.969t0.031-0.969 0.281-0.781 0.313-0.469q0.563-0.563 1.188-0.969t1.094-0.844 0.781-0.969 0.313-1.344v-6h2v6z"></path>
</svg>
