<!-- Generated by IcoMoon.io -->
<svg version="1.1" xmlns="http://www.w3.org/2000/svg" width="20" height="32" viewBox="0 0 20 32">
<title>uniE15A</title>
<path d="M18 0q0.875 0 1.438 0.563t0.563 1.438v28q0 0.875-0.563 1.438t-1.438 0.563h-16q-0.875 0-1.438-0.563t-0.563-1.438v-28q0-0.875 0.563-1.438t1.438-0.563h16zM18 2h-16v28h16v-28zM5 28q-1 0-1-1t1-1h10q1 0 1 1t-1 1h-10zM5 24q-1 0-1-1t1-1h10q1 0 1 1t-1 1h-10zM13 10q-1.25 0-2.125-0.875t-0.875-2.125 0.875-2.125 2.125-0.875 2.125 0.875 0.875 2.125-0.875 2.125-2.125 0.875z"></path>
</svg>
