<!-- Generated by IcoMoon.io -->
<svg version="1.1" xmlns="http://www.w3.org/2000/svg" width="28" height="32" viewBox="0 0 28 32">
<title>uniE18E</title>
<path d="M28 28v2h-27.938v-28h1.938v26h26zM4.625 23.688q0-1.063 0.688-1.625t1.563-0.563 1.594 0.563 0.719 1.625q0 0.938-0.688 1.594t-1.625 0.656-1.594-0.656-0.656-1.594zM11.313 21.875q-0.5-0.5-0.75-1.156t-0.25-1.344q0-1.438 1-2.438t2.438-1 2.406 1 0.969 2.438q0 1.375-0.969 2.438t-2.406 1.063q-1.5 0-2.438-1zM11.625 11.563q-1 1-2.438 1t-2.438-1-1-2.438 1-2.438 2.438-1 2.438 1 1 2.438-1 2.438zM24.188 14.375q-0.625 0.313-1.219 0.406t-1.156 0.094q-1.313 0-2.469-0.5t-2.063-1.344-1.406-1.969-0.5-2.438q0-1.25 0.5-2.406t1.375-2.031 2-1.375 2.438-0.5q1.25 0 2.375 0.5t2 1.344 1.406 1.969 0.531 2.375q0 1.875-1.063 3.5t-2.75 2.375zM21.625 24.125q-0.5-0.5-0.75-1.125t-0.25-1.313q0-1.438 1-2.438t2.438-1 2.406 1 0.969 2.438-0.969 2.438-2.406 1q-1.5 0-2.438-1z"></path>
</svg>
