<!-- Generated by IcoMoon.io -->
<svg version="1.1" xmlns="http://www.w3.org/2000/svg" width="32" height="32" viewBox="0 0 32 32">
<title>uniE16A</title>
<path d="M28 10l-11.438-6.875q-0.188-0.188-0.625-0.188-0.375 0-0.563 0.188l-11.375 6.875h-4l13.938-9.25q0.5-0.313 0.969-0.531t1.031-0.219 1.063 0.219 0.938 0.531l14.063 9.25h-4zM23 20q1.25 0 2.125-0.875t0.875-2.125-0.875-2.125-2.125-0.875-2.125 0.875-0.875 2.125q0 0.313 0.125 0.938-0.875-0.625-2.125-0.813v-0.125q0-2.063 1.438-3.531t3.563-1.469q2.063 0 3.531 1.469t1.469 3.531-1.469 3.531-3.531 1.469h-0.125q-0.125-0.625-0.313-1.156t-0.5-1.031q0.375 0.188 0.938 0.188zM15.438 17.25q-2.375 0.563-3.563 2.688-0.063 0.063-0.063 0.094t-0.063 0.094q-0.75-0.188-1.75-0.188-2.5 0-4.25 0.781t-1.75 3.219v8.063h-2v-8.063q0-2.563 1.469-3.906t3.719-1.781q-1.188-1.375-1.188-3.25 0-2.063 1.438-3.531t3.563-1.469q2.063 0 3.531 1.469t1.469 3.531q0 0.625-0.156 1.188t-0.406 1.063zM11.125 18q1.188-0.125 2.031-0.938t0.844-2.063-0.875-2.125-2.125-0.875-2.125 0.875-0.875 2.125q0 1.188 0.781 2.031t1.969 0.969h0.375zM19.188 26.313q0.625 0.375 1.219 1.031t0.75 1.438 0.313 1.625 0.281 1.594h-1.75q0-1.063 0.063-1.906t-0.438-1.719q-0.125-0.25-0.625-0.813t-1-0.563h-2q-0.5 0-1.031 0.563t-0.656 0.813q-0.188 0.813-0.281 1.688t-0.094 1.938h-1.813q0.063-0.75 0.25-1.594t0.344-1.625 0.75-1.438 1.281-1.031q-0.813-0.563-1.281-1.406t-0.469-1.906q0-1.625 1.156-2.813t2.844-1.188q1.625 0 2.813 1.188t1.188 2.813q0 1.063-0.5 1.938t-1.313 1.375zM17 25q0.813 0 1.406-0.563t0.594-1.438-0.594-1.438-1.406-0.563q-0.875 0-1.438 0.563t-0.563 1.438 0.563 1.438 1.438 0.563zM24 22q1.813 0 2.969 0.625t1.844 1.719 0.938 2.563 0.25 3.094v2h-2v-2q0-2.5-0.781-4.25t-3.219-1.75q-0.375 0-0.625 0.031t-0.5 0.094v-0.063q0.063-0.313 0.094-0.531t0.031-0.531q0-0.25-0.031-0.438t-0.094-0.438q0.313-0.063 0.563-0.094t0.563-0.031z"></path>
</svg>
