<!-- Generated by IcoMoon.io -->
<svg version="1.1" xmlns="http://www.w3.org/2000/svg" width="32" height="32" viewBox="0 0 32 32">
<title>uniE1B3</title>
<path d="M16 16q0 2.5-1.75 4.25t-4.25 1.75-4.25-1.75-1.75-4.25 1.75-4.25 4.25-1.75 4.25 1.75 1.75 4.25zM10 20q1.625 0 2.813-1.188t1.188-2.813-1.188-2.813-2.813-1.188q-1.688 0-2.844 1.188t-1.156 2.813 1.156 2.813 2.844 1.188zM28 13q0 2.063-1.469 3.531t-3.531 1.469q-2.125 0-3.563-1.469t-1.438-3.531 1.438-3.531 3.563-1.469q2.063 0 3.531 1.469t1.469 3.531zM23 16q1.25 0 2.125-0.875t0.875-2.125-0.875-2.125-2.125-0.875-2.125 0.875-0.875 2.125 0.875 2.125 2.125 0.875zM30 2q0.813 0 1.406 0.563t0.594 1.438v16.063q-0.5-0.563-0.969-1.063t-1.031-0.938v-14.063h-20v4h-2v-4q0-0.875 0.563-1.438t1.438-0.563h20zM24 18q1.625 0 3.094 0.625t2.563 1.719 1.719 2.531 0.625 3.125v2h-10v-2h8q0-1.25-0.469-2.344t-1.313-1.906-1.938-1.281-2.281-0.469h-2q-2.625 0-4.313 1.813-0.438-0.313-0.844-0.563t-0.906-0.438q1.063-1.25 2.656-2.031t3.406-0.781h2zM12 22q1.625 0 3.094 0.625t2.563 1.719 1.719 2.531 0.625 3.125v2h-20v-2q0-1.688 0.625-3.125t1.719-2.531 2.531-1.719 3.125-0.625h4zM18 30q0-1.25-0.469-2.344t-1.313-1.906-1.938-1.281-2.281-0.469h-4q-2.5 0-4.25 1.75t-1.75 4.25h16z"></path>
</svg>
