<!-- Generated by IcoMoon.io -->
<svg version="1.1" xmlns="http://www.w3.org/2000/svg" width="32" height="32" viewBox="0 0 32 32">
<title>uniE095</title>
<path d="M25.438 31.313q-0.625 0.625-1.438 0.625t-1.375-0.625l-6.375-6.313q-0.75-0.75 0-1.438 0.313-0.313 0.688-0.313t0.688 0.313l5.313 5.313v-19.938q0-1 1-1t1 1v20.063l5.438-5.438q0.688-0.688 1.438 0 0.688 0.688 0 1.438zM15.938 6.938q0.688 0.75 0 1.438-0.313 0.313-0.719 0.313t-0.719-0.313l-5.438-5.438v20.063q0 1-1 1t-1-1v-19.938l-5.313 5.313q-0.313 0.313-0.688 0.313t-0.688-0.313q-0.75-0.688 0-1.438l6.375-6.313q0.563-0.625 1.375-0.625t1.438 0.625z"></path>
</svg>
