<!-- Generated by IcoMoon.io -->
<svg version="1.1" xmlns="http://www.w3.org/2000/svg" width="24" height="32" viewBox="0 0 24 32">
<title>uniE0F2</title>
<path d="M12 22q-2.5 0-4.25-1.75t-1.75-4.25v-10q0-2.5 1.75-4.25t4.25-1.75 4.25 1.75 1.75 4.25v10q0 2.5-1.75 4.25t-4.25 1.75zM8 16q0 1.625 1.188 2.813t2.813 1.188q1.688 0 2.844-1.188t1.156-2.813v-10q0-1.625-1.156-2.813t-2.844-1.188q-1.625 0-2.813 1.188t-1.188 2.813v10zM23 12q1 0 1 1t-1 1h-1v2q0 1.813-0.594 3.438t-1.688 2.938-2.563 2.188-3.156 1.25v4.188h7q1 0 1 1t-1 1h-18q-1 0-1-1t1-1h7v-4.188q-1.688-0.375-3.156-1.25t-2.563-2.188-1.688-2.938-0.594-3.438v-2h-1q-1 0-1-1t1-1h3v4q0 1.688 0.625 3.125t1.719 2.531 2.563 1.719 3.094 0.625q1.688 0 3.125-0.625t2.531-1.719 1.719-2.531 0.625-3.125v-4h3z"></path>
</svg>
