<!-- Generated by IcoMoon.io -->
<svg version="1.1" xmlns="http://www.w3.org/2000/svg" width="28" height="32" viewBox="0 0 28 32">
<title>uniE00F</title>
<path d="M24.813 4l3.188 6v2q0 0.875-0.563 1.438t-1.438 0.563q-0.813 0-1.406-0.563t-0.594-1.438q0 0.875-0.563 1.438t-1.438 0.563q-0.813 0-1.406-0.563t-0.594-1.438q0 0.875-0.563 1.438t-1.438 0.563q-0.813 0-1.406-0.563t-0.594-1.438q0 0.875-0.563 1.438t-1.438 0.563q-0.813 0-1.406-0.563t-0.594-1.438q0 0.875-0.563 1.438t-1.438 0.563q-0.813 0-1.406-0.563t-0.594-1.438q0 0.875-0.563 1.438t-1.438 0.563q-0.813 0-1.406-0.563t-0.594-1.438q0 0.875-0.563 1.438t-1.438 0.563q-0.813 0-1.406-0.563t-0.594-1.438v-2l3.25-6h2.188l-2.625 6h3.5l1.375-6h2.063l-1.375 6h4.625v-6h2v6h4.688l-1.375-6h2.063l1.375 6h3.5l-2.688-6h2.25zM3 4q-0.375 0-0.688-0.281t-0.313-0.719q0-0.375 0.313-0.688t0.688-0.313h22q0.438 0 0.719 0.313t0.281 0.688q0 1-1 1h-22zM7 26q-0.375 0-0.688-0.281t-0.313-0.719v-6q0-0.375 0.313-0.688t0.688-0.313h6q0.438 0 0.719 0.313t0.281 0.688v6q0 1-1 1h-6zM8 24h4v-4h-4v4zM24 16h2v14h-6v-10h-2v10h-16v-14h2v12h12v-9q0-0.375 0.313-0.688t0.688-0.313h4q0.438 0 0.719 0.313t0.281 0.688v9h2v-12z"></path>
</svg>
