<!-- Generated by IcoMoon.io -->
<svg version="1.1" xmlns="http://www.w3.org/2000/svg" width="32" height="32" viewBox="0 0 32 32">
<title>uniE213</title>
<path d="M22.5 11.375q-0.938-1.375-2.375-2.219t-3.063-1.094v-8.063q3.938 0.313 7.25 2.313t5.313 5.313zM17.5 23.813q1.063-0.188 2-0.656t1.688-1.156l6 5.438q-1.625 1.563-3.688 2.656t-4.438 1.594q-3.25 0.625-6.344-0.063t-5.656-2.406-4.344-4.344-2.406-5.875 0.031-6.344 2.375-5.625 4.344-4.344 5.875-2.438q0.5-0.125 1.031-0.156t1.094-0.094v8.063q-0.438 0-0.625 0.063-1.625 0.313-2.938 1.219t-2.156 2.156-1.188 2.813-0.031 3.188 1.219 2.938 2.188 2.156 2.813 1.188 3.156 0.031zM31.688 12.875q0.688 3.625-0.188 7t-3 6.063l-5.938-5.375q0.875-1.313 1.219-2.906t0.031-3.219q-0.063-0.313-0.125-0.656t-0.188-0.656l7.063-3.688q0.75 1.563 1.125 3.438z"></path>
</svg>
