<!-- Generated by IcoMoon.io -->
<svg version="1.1" xmlns="http://www.w3.org/2000/svg" width="27" height="32" viewBox="0 0 27 32">
<title>uniE188</title>
<path d="M27.313 8.625v14.75l-13.563 8.625-13.688-8.625v-14.75l13.688-8.625zM25.938 9.375l-12.188-7.688-12.313 7.688v13.25l12.313 7.688 12.188-7.688v-13.25zM9.75 15.813q-0.688-0.063-1.094-0.563t-0.406-1.125q0-0.688 0.438-1.188t1.313-0.5l0.188-0.625h1.563l-0.438 1.188q0.313 0.5 0.313 1.063 0 0.875-0.5 1.25l0.188 0.75-1.25 0.688zM17.063 12.938l-0.563-1.125h1.625l0.188 0.5zM21.75 18.75q0.688 0 1.063 0.5t0.375 1.188-0.406 1.188-1.281 0.5q-0.375 0-0.75-0.188l-5.438 4q0 0.125 0.031 0.219t0.031 0.156q0 0.688-0.5 1.219t-1.188 0.531q-0.75 0-1.25-0.531t-0.5-1.219q0-0.813 0.625-1.25l-1.875-6.25 1.25-0.625 1.938 6.438q0.375 0 0.625 0.25l5.375-4.063q0-0.5 0.063-0.906t0.375-0.656l-2.188-4.375 1.25-0.688zM13.688 3.25q0.688 0 1.188 0.5t0.5 1.188q0 0.438-0.313 0.938l1.938 3.75h-1.625q-0.313-0.625-0.719-1.531t-0.906-1.406l-1.188 2.938h-1.438l1.313-3.5q-0.5-0.438-0.5-1.188 0-0.688 0.469-1.188t1.281-0.5zM3.813 9.188q1.063 0 1.5 0.813h16.563q0.375-0.813 1.438-0.813 1.25 0 1.75 1.438 0 0.813-0.438 1.375t-1.313 0.563q-0.688 0-1.125-0.438l-16.125 8.938q0 0.688-0.5 1.188t-1.188 0.5q-0.75 0-1.25-0.469t-0.5-1.156q0-0.5 0.281-0.906t0.656-0.656l-0.375-7.125q-1.063-0.5-1.063-1.625 0-0.688 0.5-1.156t1.188-0.469zM5.438 11.438q-0.313 0.625-0.875 0.938l0.438 7.125q0.125 0 0.219 0.063t0.219 0.125l15.188-8.25h-15.188z"></path>
</svg>
