<!-- Generated by IcoMoon.io -->
<svg version="1.1" xmlns="http://www.w3.org/2000/svg" width="26" height="32" viewBox="0 0 26 32">
<title>uniE0D6</title>
<path d="M13.625 8.25q2.125 0.5 4.031 1.938t3.313 3.406 2.219 4.188 0.813 4.219q0 3-0.563 4.938t-1.969 3.063-3.719 1.563-5.75 0.438q-3.063 0-5.313-0.438t-3.75-1.563-2.219-3.063-0.719-4.938q0-1.938 0.719-4.094t1.969-4.094 3-3.438 3.813-2.063q-1.063-1.563-1.938-3.188t-0.875-2.5v-2.094t0.5-0.531q0.375 0 0.656 0.344t0.563 0.719 0.594 0.406 0.75 0.031q0.5-0.063 0.75-0.406t0.75-0.406q0.625-0.063 1.219 0.25t1.031 0.375q0.75-0.125 1.094-0.156t0.531-0.344 0.313-0.563 0.375-0.25q0.5 0 0.5 0.531v2.031q0 1.125-0.813 2.656t-1.875 3.031zM7.813 2.188q0.063 1.563 1.125 3.156t1.938 2.656q0.313-0.063 0.344-0.031t0.344 0.031q0.438 0 0.625 0.063-0.063-0.063-0.188-0.063 0.25-0.375 0.719-0.813t0.906-1.063 0.813-1.438 0.563-1.875q-0.313 0.125-0.844 0.375t-0.844 0.25q-0.563 0.063-1-0.281t-0.813-0.656q-0.125-0.125-0.281 0.125t-0.219 0.188q-0.313 0.25-0.594 0.438t-0.781 0.125q-0.75-0.125-1.219-0.625t-0.594-0.563zM20.5 28.188q0.813-0.875 1.188-2.344t0.313-3.844q0-1.938-0.875-4.063t-2.281-3.906-3.281-2.906-3.813-1.125q-2 0-3.781 1.219t-3.094 3-2.094 3.906-0.781 3.875q0 2.375 0.469 3.906t1.594 2.438 3.063 1.281 4.875 0.375q3.563 0 5.563-0.438t2.938-1.375zM12 19.438q2.5 0.688 3.188 1.5 0.813 0.875 0.813 2.375 0 1.688-1 2.75-0.938 1.063-3 1.375v1.563h-1.375v-1.5q-1.813-0.25-2.688-1.188-0.938-0.875-1.25-2.75l2.375-0.25q0.063 0.75 0.5 1.25 0.25 0.375 1.063 0.75v-3.75q-2.063-0.563-2.75-1.563-0.813-1-0.813-2.438t0.938-2.5q0.813-1 2.625-1.188l0.063-1.875h1.375l-0.063 1.875q1.688 0.313 2.5 1 0.875 0.875 1.125 2.188l-2.313 0.25q-0.188-1-1.313-1.438v3.563zM10.625 15.875q-0.75 0.25-1 0.625-0.313 0.438-0.313 0.938t0.25 0.875q0.375 0.375 1.063 0.688v-3.125zM13.375 24.813q0.375-0.438 0.375-1.188 0-0.5-0.313-1-0.313-0.375-1.438-0.688v3.5q1-0.188 1.375-0.625zM16 5.813l1.688-2.25 6.688-2.5 1.75 5-6.688 2.375-2.75-0.688-0.375-0.938z"></path>
</svg>
