<!-- Generated by IcoMoon.io -->
<svg version="1.1" xmlns="http://www.w3.org/2000/svg" width="32" height="32" viewBox="0 0 32 32">
<title>uniE110</title>
<path d="M32 4v4h-4v4h-4v-4h-4v-4h4v-4h4v4h4zM14.938 22.625l1.188-2.125q0.188-0.313 0.563-0.438h0.5q0.438 0 0.625 0.375l1.938 2.5 1.25-0.813q0.25-0.188 0.625-0.188 0.438 0 0.625 0.25l1.5 1.375q0.25 0.375 0.25 0.563 0 0.813-1 0.813-0.438 0-0.75-0.25l-0.813-0.875-1.375 0.938q-0.313 0.188-0.75 0.188-0.375-0.063-0.688-0.375l-1.438-2.063-0.75 1.188q-0.375 0.438-0.75 0.438l-1.563 0.188-1.125 3.25q-0.25 0.438-0.938 0.438-0.625-0.063-0.719-0.719t-0.094-1.156l-0.188-0.563-0.75-5.875-1.5 4.75q-0.188 0.5-0.625 0.563l-0.375 0.063q-0.438 0-0.75-0.25l-0.625-0.75-0.75 0.75q-0.25 0.25-0.75 0.25-0.375 0-0.656-0.219t-0.281-0.531q0-0.375 0.25-0.625l1.438-1.313q0.313-0.313 0.75-0.313t0.625 0.313l0.313 0.188 2.625-9.938q0.188-0.625 0.938-0.625 0.875 0 1.063 0.75l0.875 10.125q0.063-0.063 0.375-0.063zM26 16h2v14q0 0.813-0.594 1.406t-1.406 0.594h-24q-0.875 0-1.438-0.594t-0.563-1.406v-20q0-0.875 0.563-1.438t1.438-0.563h14v2h-14v20h24v-14z"></path>
</svg>
