<!-- Generated by IcoMoon.io -->
<svg version="1.1" xmlns="http://www.w3.org/2000/svg" width="28" height="32" viewBox="0 0 28 32">
<title>uniE17A</title>
<path d="M18.313 21.625l3.188-13.125-4.75-1.563q-0.5 0.375-0.75 0.5v22.563h7q1 0 1 1t-1 1h-18q-0.375 0-0.688-0.281t-0.313-0.719 0.313-0.719 0.688-0.281h7v-22.563q-0.688-0.438-1.219-1.094t-0.656-1.531l-3.375-1.125 2.875 11.875h0.313q-0.375 1.75-1.75 2.875t-3.188 1.125-3.188-1.125-1.688-2.875h0.313l3.125-12.875-0.313-0.125q-0.375-0.125-0.563-0.469t-0.063-0.781q0.125-0.375 0.469-0.563t0.781-0.063l6.375 2.063q0.375-1.188 1.406-1.969t2.344-0.781q1.688 0 2.844 1.188t1.156 2.813q0 0.625-0.188 1.188l7 2.25q0.375 0.125 0.563 0.5t0.063 0.75q-0.25 0.688-0.875 0.688l3 12.25h0.25q-0.313 1.688-1.688 2.844t-3.188 1.156-3.188-1.156-1.75-2.844h0.313zM5.625 3.375l-1.125-0.375-3.063 12.563h7.188zM14 6q0.875 0 1.438-0.563t0.563-1.438-0.563-1.438-1.438-0.563q-0.813 0-1.406 0.563t-0.594 1.438 0.594 1.438 1.406 0.563zM19.313 21.625h7.188l-3.063-12.5-0.938-0.313z"></path>
</svg>
