<!-- Generated by IcoMoon.io -->
<svg version="1.1" xmlns="http://www.w3.org/2000/svg" width="24" height="32" viewBox="0 0 24 32">
<title>uniE04F</title>
<path d="M16.688 17.563l1.375 1.375-6.625 7.688-4-3.938 1.313-1.375 2.688 2.688zM22 0q0.875 0 1.438 0.594t0.563 1.406v28q0 0.875-0.563 1.438t-1.438 0.563h-20q-0.875 0-1.438-0.563t-0.563-1.438v-28q0-0.813 0.563-1.406t1.438-0.594h20zM22 2h-20v28h20v-28zM17 10q1 0 1 1 0 0.375-0.281 0.688t-0.719 0.313h-10q-0.375 0-0.688-0.313t-0.313-0.688q0-0.438 0.313-0.719t0.688-0.281h10zM17 6q1 0 1 1 0 0.375-0.281 0.688t-0.719 0.313h-10q-0.375 0-0.688-0.313t-0.313-0.688q0-0.438 0.313-0.719t0.688-0.281h10z"></path>
</svg>
