<!-- Generated by IcoMoon.io -->
<svg version="1.1" xmlns="http://www.w3.org/2000/svg" width="32" height="32" viewBox="0 0 32 32">
<title>uniE0EA</title>
<path d="M30 4q0.688 0 1.125 0.313t0.625 0.688q0.25 0.438 0.25 1v22q0 0.75-0.313 1.156t-0.688 0.594q-0.438 0.25-1 0.25h-28q-0.563 0-1-0.25-0.375-0.188-0.688-0.594t-0.313-1.156v-24q0-0.563 0.25-1 0.188-0.375 0.594-0.688t1.156-0.313h11.688l2.313 2h14zM30 8q-0.063-0.563-0.313-1-0.188-0.375-0.594-0.688t-1.094-0.313h-14l-2-2h-8q-0.75 0-1.156 0.313t-0.594 0.688q-0.25 0.438-0.25 1v20q0 0.813 0.313 1.188t0.688 0.563q0.438 0.25 1 0.25h24q0.563 0 1-0.25 0.375-0.188 0.688-0.563t0.313-1.188v-18zM12 17.938q1.438 0 2.563 0.125t1.875 0.688 1.156 1.781 0.406 3.406h-12q0-2.188 0.406-3.406t1.156-1.781 1.875-0.688 2.563-0.125zM16 13.938q0 1.688-1.188 2.844t-2.813 1.156-2.813-1.156-1.188-2.844q0-1.625 1.188-2.813t2.813-1.188 2.813 1.188 1.188 2.813zM25 13.938q1 0 1 1 0 0.375-0.281 0.688t-0.719 0.313h-6q-0.375 0-0.688-0.313t-0.313-0.688q0-0.438 0.313-0.719t0.688-0.281h6zM25 9.938q1 0 1 1 0 0.375-0.281 0.688t-0.719 0.313h-6q-0.375 0-0.688-0.313t-0.313-0.688q0-0.438 0.313-0.719t0.688-0.281h6z"></path>
</svg>
