<!-- Generated by IcoMoon.io -->
<svg version="1.1" xmlns="http://www.w3.org/2000/svg" width="32" height="32" viewBox="0 0 32 32">
<title>uniE0DD</title>
<path d="M32 8q0 0.813-0.563 1.406t-1.438 0.594v2q0.875 0 1.438 0.563t0.563 1.438v4q0 0.813-0.563 1.406t-1.438 0.594v2q0.875 0 1.438 0.563t0.563 1.438v4q0 0.813-0.563 1.406t-1.438 0.594q0 0.813-0.563 1.406t-1.438 0.594h-24q-0.813 0-1.406-0.594t-0.594-1.406v-4h-2v-2h2v-2h-2v-2h2v-8h-2v-2h2v-2h-2v-2h2v-4q0-0.875 0.594-1.438t1.406-0.563h24q0.875 0 1.438 0.563t0.563 1.438q0.875 0 1.438 0.563t0.563 1.438v4zM28 2h-24v4h2v2h-2v2h2v2h-2v8h2v2h-2v2h2v2h-2v4h24v-28zM24 24h-14v-2q0-3.375 1.344-4.688t4.656-1.313h2q3.375 0 4.688 1.313t1.313 4.688v2zM22 22q0-1.25-0.156-2.031t-0.594-1.219-1.219-0.594-2.031-0.156h-2q-1.25 0-2.031 0.156t-1.219 0.594-0.594 1.219-0.156 2.031h10zM22 11q0 2.063-1.469 3.531t-3.531 1.469-3.531-1.469-1.469-3.531 1.469-3.531 3.531-1.469 3.531 1.469 1.469 3.531zM17 14q1.25 0 2.125-0.875t0.875-2.125-0.875-2.125-2.125-0.875-2.125 0.875-0.875 2.125 0.875 2.125 2.125 0.875z"></path>
</svg>
