<!-- Generated by IcoMoon.io -->
<svg version="1.1" xmlns="http://www.w3.org/2000/svg" width="31" height="32" viewBox="0 0 31 32">
<title>uniE033</title>
<path d="M30.438 18.813q0.688 0.875 0.688 2.063 0 1.438-0.781 2.313t-2.656 1.188v1.313h-1.125v-1.25q-2.875-0.375-3.375-3.313l2-0.25q0.125 0.625 0.375 0.969t1 0.781v-3.25q-1.813-0.5-2.438-1.406t-0.625-2.031q0-1.25 0.781-2.125t2.281-1v-0.813h1.125v0.813q1.5 0.125 2.219 0.844t0.906 1.844l-1.938 0.25q-0.188-0.813-1.188-1.25v3q2.188 0.688 2.75 1.313zM26.563 14.5q-0.75 0.25-0.969 0.625t-0.219 0.688q0 0.438 0.188 0.719t1 0.656v-2.688zM28.875 22.188q0.375-0.438 0.375-1 0-0.5-0.25-0.844t-1.313-0.656v3.063q0.938-0.188 1.188-0.563zM26 28h2v2q0 0.875-0.563 1.438t-1.438 0.563h-18q-0.875 0-1.438-0.563t-0.563-1.438v-18l6.063-6h13.938q0.813 0 1.406 0.563t0.594 1.438v2h-2v-2h-11.938v4q0 0.875-0.594 1.438t-1.469 0.563h-4v16h18v-2zM2 26h-2v-24q0-0.875 0.594-1.438t1.406-0.563h18v2h-18v24zM18.938 20q1 0 1 1 0 0.375-0.281 0.688t-0.719 0.313h-7.938q-0.375 0-0.688-0.313t-0.313-0.688q0-0.438 0.313-0.719t0.688-0.281h7.938zM18.938 24q1 0 1 1 0 0.375-0.281 0.688t-0.719 0.313h-7.938q-0.375 0-0.688-0.313t-0.313-0.688q0-0.438 0.313-0.719t0.688-0.281h7.938z"></path>
</svg>
