<!-- Generated by IcoMoon.io -->
<svg version="1.1" xmlns="http://www.w3.org/2000/svg" width="28" height="32" viewBox="0 0 28 32">
<title>uniE245</title>
<path d="M20 6q0.813 0 1.406 0.563t0.594 1.438v22q0 0.875-0.563 1.438t-1.438 0.563h-17.938q-0.875 0-1.469-0.563t-0.594-1.438v-18l6-6h14zM20 8h-12v4q0 0.875-0.594 1.438t-1.469 0.563h-3.875v16h17.938v-22zM26 0q0.75 0 1.375 0.563t0.625 1.438v22q0 0.875-0.563 1.438t-1.438 0.563h-2v-2h2v-22h-12v2h-6.063l4.063-4h14zM15 20q1 0 1 1 0 0.375-0.281 0.688t-0.719 0.313h-8q-0.375 0-0.688-0.313t-0.313-0.688q0-0.438 0.313-0.719t0.688-0.281h8zM15 24q1 0 1 1 0 0.375-0.281 0.688t-0.719 0.313h-8q-0.375 0-0.688-0.313t-0.313-0.688q0-0.438 0.313-0.719t0.688-0.281h8z"></path>
</svg>
