<!-- Generated by IcoMoon.io -->
<svg version="1.1" xmlns="http://www.w3.org/2000/svg" width="28" height="32" viewBox="0 0 28 32">
<title>uniE23A</title>
<path d="M23.25 11.625q-0.75 3.75-0.094 6.313t1.719 4.219 2.094 2.531 1.031 1.313q0 0.875-0.563 1.438t-1.438 0.563h-8q0 1.625-1.188 2.813t-2.813 1.188-2.813-1.188-1.188-2.813h-8q-0.875 0-1.438-0.563t-0.563-1.438q0-0.438 0.938-1.313t1.938-2.531 1.594-4.219-0.094-6.313q-0.313-1.813 0.156-3.406t1.563-2.813 2.625-2.063 3.344-1.156q0-0.063-0.031-0.094t-0.031-0.094q0-0.875 0.563-1.438t1.438-0.563 1.438 0.563 0.563 1.438q0 0.125-0.063 0.188 1.625 0.313 3.125 1.125t2.563 2.063 1.531 2.844 0.094 3.406zM25.5 26q-0.625-0.688-1.594-1.906t-1.75-3.031-1.125-4.25 0.281-5.563q0.313-1.563-0.156-2.75t-1.031-1.875q-1.188-1.438-2.625-2.031t-3.5-0.594q-2 0-3.594 0.594t-2.781 2.031q-0.625 0.688-1.125 1.875t-0.188 2.75q0.563 3.125 0.281 5.563t-1 4.25-1.625 3.031-1.531 1.906h23.063z"></path>
</svg>
