<!-- Generated by IcoMoon.io -->
<svg version="1.1" xmlns="http://www.w3.org/2000/svg" width="28" height="32" viewBox="0 0 28 32">
<title>uniE143</title>
<path d="M2 4v6h3q1 0 1 1 0 0.375-0.281 0.688t-0.719 0.313h-3v4h3q1 0 1 1 0 0.375-0.281 0.688t-0.719 0.313h-3v4h3q1 0 1 1t-1 1h-3v4h3q1 0 1 1 0 0.375-0.281 0.688t-0.719 0.313h-3q-0.875 0-1.438-0.594t-0.563-1.406v-24q0-0.875 0.563-1.438t1.438-0.563h3q1 0 1 1 0 0.375-0.281 0.688t-0.719 0.313h-3zM27.375 4q0.625 0 0.5 0.625l-5.75 23q-0.125 0.375-0.5 0.375h-7.25q-0.438 0-0.438-0.375l-5.75-23q-0.125-0.25 0.031-0.438t0.406-0.188h18.75zM20.938 24h-5.875l0.5 2h4.875zM22.438 18h-8.875l1 4h6.875zM23.938 12h-11.875l1 4h9.875zM25.438 6h-14.875l1 4h12.875z"></path>
</svg>
