<!-- Generated by IcoMoon.io -->
<svg version="1.1" xmlns="http://www.w3.org/2000/svg" width="32" height="32" viewBox="0 0 32 32">
<title>uniE0BD</title>
<path d="M23 30q1 0 1 1 0 0.375-0.281 0.688t-0.719 0.313h-14q-0.375 0-0.688-0.313t-0.313-0.688q0-0.438 0.313-0.719t0.688-0.281h14zM30 0q0.75 0 1.156 0.313t0.594 0.688q0.25 0.438 0.25 1v16q0 0.75-0.313 1.156t-0.688 0.594q-0.438 0.25-1 0.25h-4q-0.625 0-1.313 0.156t-1.344 0.438-1.188 0.563-0.844 0.531q-0.125 0.125-0.156 0.188t-0.156 0.125v-0.063l-0.063 0.063q-0.063-0.063-0.094-0.125t-0.156-0.125q-0.688-0.5-2.063-1.156t-2.625-0.594h-4q-0.563 0-1-0.25-0.375-0.188-0.688-0.594t-0.313-1.156v-16q0-0.563 0.25-1 0.188-0.375 0.563-0.688t1.188-0.313h6q1.313 0 2 0.75t1 1.188q0.313-0.438 1-1.188t1.938-0.75h6.063zM20 4q-0.188-0.563-0.625-1-0.438-0.375-1.188-0.656t-2.188-0.344h-4v14h4q0.75 0.063 1.469 0.344t1.281 0.656q0.688 0.438 1.25 1v-14zM30 2h-4q-1.438 0.063-2.25 0.344t-1.188 0.656q-0.438 0.438-0.563 1v14q0.563-0.563 1.25-1 0.563-0.375 1.281-0.656t1.469-0.344h4v-14zM30 22h2v4q0 0.813-0.563 1.406t-1.438 0.594h-28q-0.813 0-1.406-0.594t-0.594-1.406v-20q0-0.875 0.594-1.438t1.406-0.563h6v2h-6v20h28v-4z"></path>
</svg>
