<!-- Generated by IcoMoon.io -->
<svg version="1.1" xmlns="http://www.w3.org/2000/svg" width="32" height="32" viewBox="0 0 32 32">
<title>uniE09F</title>
<path d="M22.063 26h1.938v4q0 0.875-0.531 1.438t-1.406 0.563h-20q-0.875 0-1.469-0.563t-0.594-1.438v-22l8-8h8v2h-6v6q0 0.875-0.563 1.438t-1.438 0.563h-6v20h20.063v-4zM31.5 7.938q0.5 0.5 0.5 1.125t-0.5 1.125q-0.438 0.438-1.156 0.844t-1.563 0.75-1.688 0.656-1.594 0.5q0.625 1.813 0.188 3.75t-1.875 3.375l-4.25-4.25-4.938 4.938q-0.313 0.313-0.719 0.313t-0.719-0.313-0.313-0.688 0.313-0.688l5-5-4.25-4.188q1.438-1.438 3.344-1.875t3.719 0.188q0.25-0.75 0.563-1.594t0.656-1.688 0.75-1.594 0.844-1.188q0.5-0.438 1.125-0.438t1.063 0.438zM24.938 11.063q1.938-0.625 3.125-1.156t1.688-0.906l-4.813-4.813q-0.375 0.563-0.875 1.75t-1.125 3.125l-0.625 1.938-1.938-0.625q-1.625-0.563-3.313 0.063l6.438 6.5q0.625-1.563 0.125-3.375l-0.625-1.875z"></path>
</svg>
