<!-- Generated by IcoMoon.io -->
<svg version="1.1" xmlns="http://www.w3.org/2000/svg" width="28" height="32" viewBox="0 0 28 32">
<title>uniE03C</title>
<path d="M23 8q-1 0-1-1t1-1 1 1-1 1zM19 8q-1 0-1-1t1-1 1 1-1 1zM28 28.063q0 0.813-0.594 1.406t-1.406 0.594h-24q-0.875 0-1.438-0.594t-0.563-1.406v-24q0-0.875 0.563-1.438t1.438-0.563h24q0.813 0 1.406 0.563t0.594 1.438v24zM25.938 12h-24v16h24v-16zM25.938 4h-24v6.063h24v-6.063zM4.313 26.063q-0.313-1.125-0.313-2 0-1.25 0.469-2.344t1.281-1.938 1.906-1.313 2.344-0.469 2.344 0.469 1.906 1.313 1.281 1.938 0.469 2.344q0 0.5-0.125 1l-0.25 1h-2.188q0.25-0.5 0.406-1t0.156-1q0-1.688-1.188-2.875t-2.813-1.188q-1.688 0-2.844 1.188t-1.156 2.875q0 1 0.5 2h-2.188zM19 20q2.063 0 3.531 1.469t1.469 3.594q0 0.25-0.031 0.469t-0.094 0.531h-2.063l0.125-0.5t0.063-0.5q0-1.25-0.875-2.156t-2.125-0.906q-0.625 0-1.25 0.313-0.188-0.938-0.688-1.875 1-0.438 1.938-0.438zM17.688 17q-0.375 0.375-0.688 0-0.375-0.313 0-0.688l2.125-2.125q0.313-0.313 0.688 0 0.313 0.375 0 0.688zM13.688 17q-0.375 0.375-0.688 0-0.375-0.313 0-0.688l2.125-2.125q0.313-0.313 0.688 0 0.313 0.375 0 0.688zM21 17.875q-0.313 0.313-0.75 0-0.375-0.313 0-0.688l2.875-2.875q0.313-0.313 0.688 0 0.313 0.313 0 0.75z"></path>
</svg>
