<!-- Generated by IcoMoon.io -->
<svg version="1.1" xmlns="http://www.w3.org/2000/svg" width="32" height="32" viewBox="0 0 32 32">
<title>uniE133</title>
<path d="M14.25 13.25l-4.438 3.375v4.625l-1.625 1.625-3.188-5-5-3.188 1.625-1.625h4.625l3.375-4.438-9.25-4.625 3.438-3.438 10.438 3.438 2.313-2.313q0.688-0.688 1.875-1.188t2.25-0.5 1.625 0.563q0.438 0.5 0.5 1.281t-0.125 1.625-0.625 1.625-0.875 1.219l-2.313 2.313 2.125 6.438h-1.031t-0.656 0.063l-2-5.938-0.313-1 3-3q0.375-0.375 0.625-0.906t0.406-1.031 0.188-0.938-0.094-0.625h-0.125q-0.063 0-0.125-0.031t-0.188-0.031q-0.75 0-1.656 0.406t-1.344 0.844l-3 3-1-0.313-9.438-3.125-1.125 1.125 7.188 3.625 1.813 0.875-4.563 6-0.5 0.625h-4l2.813 1.813 0.313 0.188 0.188 0.313 1.813 2.813v-4l0.625-0.5 6-4.563 0.875 1.813 1.563 3.125q-0.688 0.25-1.438 0.688zM25.25 21.875q1.188 0 2.406 0.469t2.188 1.281 1.563 1.906 0.594 2.281v2h-4.188q-0.313 0.875-1.063 1.438t-1.75 0.563q-0.938 0-1.688-0.563t-1.063-1.438h-4.375q-0.313 0.875-1.063 1.438t-1.75 0.563-1.75-0.563-1.063-1.438h-2.188v-3.938q0-1.313 0.75-2.313t1.938-1.438l0.063-0.063q1.313-2.188 3.375-3.594t4.438-1.406h0.625q0.5 0 0.875 0.188t0.781 0.688 0.938 1.469 1.406 2.469zM21.25 18.313q-0.813 0-1.625 0.063t-1.594 0.406-1.594 1.063-1.688 2.031h8.875q-0.625-1.125-0.969-1.813t-0.563-1.063-0.406-0.531-0.438-0.156zM15.063 30.813q0.875 0 1.438-0.563t0.563-1.438q0-0.813-0.563-1.406t-1.438-0.594q-0.813 0-1.406 0.594t-0.594 1.406q0 0.875 0.594 1.438t1.406 0.563zM25 30.813q0.875 0 1.438-0.563t0.563-1.438q0-0.813-0.563-1.406t-1.438-0.594q-0.813 0-1.375 0.594t-0.563 1.406q0 0.875 0.563 1.438t1.375 0.563zM30.5 27.813q0-0.938-0.469-1.719t-1.25-1.406-1.719-0.969-1.875-0.344h-11.125q-1.063 0-1.781 0.719t-0.719 1.781v2.438h0.563q0.188-1.063 1-1.75t1.938-0.688 1.938 0.688 1 1.75h4.063q0.188-1.063 1.031-1.75t1.906-0.688q1.125 0 1.969 0.688t0.969 1.75h2.563v-0.5z"></path>
</svg>
