<!-- Generated by IcoMoon.io -->
<svg version="1.1" xmlns="http://www.w3.org/2000/svg" width="28" height="32" viewBox="0 0 28 32">
<title>uniE181</title>
<path d="M2.5 26q-0.5 0-0.5-0.5v-3q0-0.5 0.5-0.5h3q0.5 0 0.5 0.5v3q0 0.5-0.5 0.5h-3zM8.5 26q-0.5 0-0.5-0.5v-15q0-0.5 0.5-0.5h3q0.5 0 0.5 0.5v15q0 0.5-0.5 0.5h-3zM16.5 26q-0.5 0-0.5-0.5v-11q0-0.5 0.5-0.5h3q0.5 0 0.5 0.5v11q0 0.5-0.5 0.5h-3zM22.5 26q-0.5 0-0.5-0.5v-23q0-0.5 0.5-0.5h3q0.5 0 0.5 0.5v23q0 0.5-0.5 0.5h-3zM0 28h28v2h-28v-2z"></path>
</svg>
