<!-- Generated by IcoMoon.io -->
<svg version="1.1" xmlns="http://www.w3.org/2000/svg" width="32" height="32" viewBox="0 0 32 32">
<title>uniE19F</title>
<path d="M15.063 11.438q0.438 0.375 0.438 0.938 0 0.375-0.188 0.625l-4 5 4 5.063q0.125 0.375 0.125 0.688 0 0.375-0.219 0.75t-0.844 0.375q-0.438 0-0.875-0.438l-5.125-6.438 5.125-6.375q0.25-0.438 0.875-0.438 0.375 0 0.688 0.25zM21.313 10.875q0.313-0.875 1.125-0.875 0.5 0 0.781 0.375t0.281 0.75-0.063 0.438l-4.5 13.688q-0.25 0.813-1.125 0.813-0.5 0-0.813-0.375t-0.313-0.813q0-0.313 0.063-0.375zM25.125 24.625q-0.438-0.25-0.438-0.875 0-0.438 0.25-0.688l4-5.063-4-5q-0.25-0.25-0.25-0.688 0-0.5 0.313-0.813t0.813-0.313 0.938 0.438l5.125 6.375-5.125 6.438q-0.438 0.438-0.938 0.438-0.438 0-0.688-0.25zM22 28h2v2q0 0.875-0.563 1.438t-1.438 0.563h-20q-0.875 0-1.438-0.563t-0.563-1.438v-22l8-8h14q0.813 0 1.406 0.563t0.594 1.438v2h-2v-2h-12v6q0 0.875-0.594 1.438t-1.469 0.563h-5.938v20h20v-2z"></path>
</svg>
