<!-- Generated by IcoMoon.io -->
<svg version="1.1" xmlns="http://www.w3.org/2000/svg" width="31" height="32" viewBox="0 0 31 32">
<title>uniE03B</title>
<path d="M31.875 9.063l-3.438 13.75h-2.313l-3.313-10.313-3.438 10.313h-2.313l-3.438-13.75h2.313l2.313 10.313 3.375-10.313h2.25l3.438 10.313 2.25-10.313h2.313zM24 27v3q0 0.875-0.563 1.438t-1.438 0.563h-20q-0.875 0-1.438-0.563t-0.563-1.438v-22l8-8h14q0.813 0 1.406 0.563t0.594 1.438v4h-2v-4h-12v6q0 0.875-0.594 1.438t-1.469 0.563h-5.938v20h20v-3h2z"></path>
</svg>
