<!-- Generated by IcoMoon.io -->
<svg version="1.1" xmlns="http://www.w3.org/2000/svg" width="31" height="32" viewBox="0 0 31 32">
<title>uniE02E</title>
<path d="M13 0.563l1.375 5.438v3.375q-2.438 0.375-4.063 2.313t-1.625 4.563 1.625 4.531 4.063 2.344v3.313l-1.625 5.438-1.313-8.688-7.125 4.438 4.375-7.313-8.688-0.688 7.5-3.375-7.5-4.188h8.688l-4.375-7.188 7.313 4.375zM14.375 20.438q-1.375-0.375-2.375-1.656t-1-2.781q0-1.625 1-2.906t2.375-1.656v9zM30.688 17.313h-2.313l1.188 3.25h-2.438l-1.063-3.25h-3.063l-0.688 1.313 1.5 1.063 1.125 2.375h-2.313l-1.625-1.125-0.688 1.063 1.563 2.688h3.188l1.125 1.875h-3.188l1.188 2.125-0.438 1.563-1.563-0.375-1.188-2.125-1.5 2.313-1.063-2.063 1.375-2.125-1.5-2.688h-2.375v-2.313h2l2.813-4.625-2.813-4.688h-2v-2.313h2.375l1.5-2.625-1.375-2.063 1.125-2.125 1.5 2.25 1.125-2.125 1.625-0.375 0.375 1.625-1.188 2h2.625l-1.125 2.125-2.625-0.188-1.563 2.75 0.625 1.063 1.688-1.125h2.375l-1.188 2.313-1.5 1.063 0.688 1.313h3.063l1.063-2.375h2.438l-1.188 2.375h2.313l1.188 1.125zM17.938 16.25l-1.938 2.25v-4.5z"></path>
</svg>
