<!-- Generated by IcoMoon.io -->
<svg version="1.1" xmlns="http://www.w3.org/2000/svg" width="32" height="32" viewBox="0 0 32 32">
<title>uniE0E2</title>
<path d="M31.875 16l-15.938 15.938-15.938-15.938 15.938-15.875zM15.938 28.5l12.438-12.5-12.438-12.438-12.5 12.438zM15.938 18q-0.375 0-0.625-0.156t-0.375-0.906l-0.938-6.813q0-0.875 0.531-1.438t1.406-0.563 1.406 0.563 0.531 1.438l-0.938 6.813q-0.125 0.688-0.344 0.875t-0.656 0.188zM17.875 21.688q0 0.875-0.531 1.438t-1.406 0.563-1.406-0.563-0.531-1.438q0-0.75 0.531-1.344t1.406-0.594 1.406 0.594 0.531 1.344z"></path>
</svg>
