<!-- Generated by IcoMoon.io -->
<svg version="1.1" xmlns="http://www.w3.org/2000/svg" width="26" height="32" viewBox="0 0 26 32">
<title>uniE0F0</title>
<path d="M5.5 24q0.5 0 0.5 0.5v5q0 0.5-0.5 0.5h-5q-0.5 0-0.5-0.5v-5q0-0.5 0.5-0.5h5zM5.5 18q0.5 0 0.5 0.5v3q0 0.5-0.5 0.5h-5q-0.5 0-0.5-0.5v-3q0-0.5 0.5-0.5h5zM5.5 10q0.5 0 0.5 0.5v5q0 0.5-0.5 0.5h-5q-0.5 0-0.5-0.5v-5q0-0.5 0.5-0.5h5zM15.5 4q0.5 0 0.5 0.5v9q0 0.5-0.5 0.5h-5q-0.5 0-0.5-0.5v-9q0-0.5 0.5-0.5h5zM15.5 16q0.5 0 0.5 0.5v3q0 0.5-0.5 0.5h-5q-0.5 0-0.5-0.5v-3q0-0.5 0.5-0.5h5zM15.5 22q0.5 0 0.5 0.5v7q0 0.5-0.5 0.5h-5q-0.5 0-0.5-0.5v-7q0-0.5 0.5-0.5h5zM25.5 18q0.5 0 0.5 0.5v11q0 0.5-0.5 0.5h-5q-0.5 0-0.5-0.5v-11q0-0.5 0.5-0.5h5zM25.5 8q0.5 0 0.5 0.5v7q0 0.5-0.5 0.5h-5q-0.5 0-0.5-0.5v-7q0-0.5 0.5-0.5h5zM25.5 2q0.5 0 0.5 0.5v3q0 0.5-0.5 0.5h-5q-0.5 0-0.5-0.5v-3q0-0.5 0.5-0.5h5z"></path>
</svg>
