<!-- Generated by IcoMoon.io -->
<svg version="1.1" xmlns="http://www.w3.org/2000/svg" width="28" height="32" viewBox="0 0 28 32">
<title>uniE088</title>
<path d="M26.063 4.25q0.813 0.813 1.188 1.813t0.375 2.063-0.375 2.094-1.188 1.844l-7.375 7.313q-1.625 1.625-3.875 1.625-1.063 0-2.063-0.406t-1.813-1.219l-0.688-0.688q-0.188-0.188-0.313-0.375l-0.25-0.375 1.313-1.313 1.375 1.375q1 1 2.438 1 1.375 0 2.5-1l7.313-7.375q1.063-1.063 1.063-2.469t-1.063-2.469l-0.688-0.75q-1-1-2.5-1-1.438 0-2.438 1l-4.688 4.75h-2.813l6.063-6.125q0.813-0.813 1.813-1.219t2.063-0.406q2.313 0 3.938 1.625zM12.563 23.5h2.813l-4.875 4.875q-1.563 1.563-3.875 1.563-1.063 0-2.063-0.375t-1.813-1.188l-0.688-0.75q-1.625-1.625-1.625-3.875t1.625-3.875l6.25-6.313q0.813-0.813 1.813-1.188t2.063-0.375q2.313 0 3.938 1.563l0.688 0.75 0.125 0.125-1.375 1.375-1.625-1.375q-0.688-0.438-1.75-0.438-1.5 0-2.438 1l-6.313 6.25q-1 1.125-1 2.5t1 2.5l0.75 0.688q1 1 2.438 1 1.375 0 2.5-1z"></path>
</svg>
