<!-- Generated by IcoMoon.io -->
<svg version="1.1" xmlns="http://www.w3.org/2000/svg" width="32" height="32" viewBox="0 0 32 32">
<title>uniE1A6</title>
<path d="M24 20q1.688 0 3.125 0.625t2.531 1.719 1.719 2.531 0.625 3.125v4h-20v-4q0-1.688 0.625-3.125t1.719-2.531 2.563-1.719 3.094-0.625h4zM30 28q0-2.5-1.75-4.25t-4.25-1.75h-4q-2.5 0-4.25 1.75t-1.75 4.25v2h16v-2zM28 14q0 2.5-1.75 4.25t-4.25 1.75-4.25-1.75-1.75-4.25 1.75-4.25 4.25-1.75 4.25 1.75 1.75 4.25zM22 18q1.625 0 2.813-1.188t1.188-2.813q0-1.688-1.188-2.844t-2.813-1.156-2.813 1.156-1.188 2.844q0 1.625 1.188 2.813t2.813 1.188zM2 30h8v2h-8q-0.813 0-1.406-0.594t-0.594-1.406v-24q0-0.875 0.594-1.438t1.406-0.563h4.188q0.625-1.688 2.313-2 0.5-0.875 1.438-1.438t2.063-0.563 2.063 0.563 1.438 1.438q0.813 0.125 1.438 0.656t0.875 1.344h4.188q0.875 0 1.438 0.563t0.563 1.438h-6.188q-0.125 0.313-0.25 0.594t-0.375 0.594q-0.625 0.813-1.625 0.813h-7.125q-0.938 0-1.625-0.813-0.25-0.313-0.375-0.594t-0.25-0.594h-4.188v24zM9 4q-1 0-1 1 0 0.375 0.281 0.688t0.719 0.313h6q0.438 0 0.719-0.313t0.281-0.688q0-1-1-1h-1q0-0.875-0.563-1.438t-1.438-0.563q-0.813 0-1.406 0.563t-0.594 1.438h-1zM11 16q1 0 1 1 0 0.375-0.281 0.688t-0.719 0.313h-6q-0.375 0-0.688-0.313t-0.313-0.688q0-0.438 0.313-0.719t0.688-0.281h6zM11 12q1 0 1 1 0 0.375-0.281 0.688t-0.719 0.313h-6q-0.375 0-0.688-0.313t-0.313-0.688q0-0.438 0.313-0.719t0.688-0.281h6z"></path>
</svg>
