<!-- Generated by IcoMoon.io -->
<svg version="1.1" xmlns="http://www.w3.org/2000/svg" width="33" height="32" viewBox="0 0 33 32">
<title>uniE072</title>
<path d="M1.313 9.5q0.938-2.188 2.5-4.063t3.531-3.219 4.313-2.094 4.906-0.75q3.438 0 6.438 1.313t5.25 3.594 3.563 5.281 1.313 6.375q0 3.438-1.313 6.469t-3.594 5.281-5.281 3.531-6.375 1.281q-3.438 0-6.469-1.313t-5.281-3.594-3.531-5.281-1.281-6.375q0-3.438 1.313-6.438zM11 29q2.625 1.125 5.375 1.125 2.938 0 5.563-1.094t4.594-3 3.094-4.469 1.125-5.5q0-2.875-1.094-5.5t-3-4.594-4.469-3.125-5.5-1.156q-2.875 0-5.469 1.094t-4.563 3-3.125 4.469-1.156 5.563q0 2.125 0.625 4.156t1.75 3.781 2.719 3.125 3.531 2.125zM24.938 24.313l-5.063-5.063q1.438-1.438 1.438-3.313 0-1.938-1.406-3.344t-3.344-1.406-3.344 1.406-1.406 3.344h-7.063q0-2.563 1-4.719t2.625-3.75 3.781-2.469 4.469-0.875q2.438 0 4.563 0.969t3.719 2.563 2.531 3.75 0.938 4.469q0 2.375-0.906 4.594t-2.531 3.844z"></path>
</svg>
