<!-- Generated by IcoMoon.io -->
<svg version="1.1" xmlns="http://www.w3.org/2000/svg" width="32" height="32" viewBox="0 0 32 32">
<title>uniE163</title>
<path d="M22.938 8q1 0 1 1 0 0.375-0.281 0.688t-0.719 0.313h-14q-0.375 0-0.688-0.313t-0.313-0.688q0-0.438 0.313-0.719t0.688-0.281h14zM22.938 14q1 0 1 1 0 0.375-0.281 0.688t-0.719 0.313h-14q-0.375 0-0.688-0.313t-0.313-0.688q0-0.438 0.313-0.719t0.688-0.281h14zM22.938 20q1 0 1 1 0 0.375-0.281 0.688t-0.719 0.313h-14q-0.375 0-0.688-0.313t-0.313-0.688q0-0.438 0.313-0.719t0.688-0.281h14zM-0.063 6q0-0.875 0.594-1.438t1.406-0.563h4v2h-4v20h4v2h-4q-0.813 0-1.406-0.594t-0.594-1.406v-20zM29.938 4q0.875 0 1.438 0.563t0.563 1.438v20q0 0.813-0.563 1.406t-1.438 0.594h-4v-2h4v-20h-4v-2h4z"></path>
</svg>
