<!-- Generated by IcoMoon.io -->
<svg version="1.1" xmlns="http://www.w3.org/2000/svg" width="32" height="32" viewBox="0 0 32 32">
<title>uniE0F5</title>
<path d="M31 2q1 0 1 1t-1 1h-1v14q0 1.625-1.156 2.813t-2.844 1.188v-2q0.875 0 1.438-0.563t0.563-1.438v-14h-24v14q0 0.875 0.594 1.438t1.406 0.563v2q-1.625 0-2.813-1.188t-1.188-2.813v-14h-1q-0.375 0-0.688-0.281t-0.313-0.719 0.313-0.719 0.688-0.281h30zM23.875 20.938q0.688 0.75 0 1.438-0.75 0.688-1.438 0l-5.438-5.438v14.063q0 1-1 1t-1-1v-13.938l-5.313 5.313q-0.313 0.313-0.688 0.313t-0.688-0.313q-0.75-0.688 0-1.438l6.375-6.313q0.563-0.625 1.375-0.625t1.438 0.625zM13 10q1 0 1 1 0 0.375-0.281 0.688t-0.719 0.313h-6q-0.375 0-0.688-0.313t-0.313-0.688q0-0.438 0.313-0.719t0.688-0.281h6zM25 6q1 0 1 1 0 0.375-0.281 0.688t-0.719 0.313h-18q-0.375 0-0.688-0.313t-0.313-0.688q0-0.438 0.313-0.719t0.688-0.281h18z"></path>
</svg>
