<!-- Generated by IcoMoon.io -->
<svg version="1.1" xmlns="http://www.w3.org/2000/svg" width="32" height="32" viewBox="0 0 32 32">
<title>uniE20A</title>
<path d="M31 18h-30q-1 0-1 1t1 1h30q0.375 0 0.688-0.281t0.313-0.719-0.313-0.719-0.688-0.281zM31 12h-30q-1 0-1 1t1 1h30q0.375 0 0.688-0.281t0.313-0.719-0.313-0.719-0.688-0.281zM22.25 24.313q0.688-0.75 1.438 0 0.313 0.313 0.313 0.688t-0.313 0.688l-6.188 5.75q-0.625 0.563-1.438 0.563t-1.375-0.563l-6.313-5.75q-0.313-0.313-0.313-0.719t0.313-0.719 0.719-0.313 0.719 0.313l5.938 5.438q0.313 0.375 0.688 0zM16.438 2.313q-0.375-0.375-0.688 0l-5.938 5.438q-0.313 0.313-0.719 0.313t-0.719-0.313-0.313-0.719 0.313-0.719l6.313-5.75q0.563-0.563 1.375-0.563t1.438 0.563l6.188 5.75q0.313 0.313 0.313 0.688t-0.313 0.688q-0.75 0.75-1.438 0z"></path>
</svg>
