<!-- Generated by IcoMoon.io -->
<svg version="1.1" xmlns="http://www.w3.org/2000/svg" width="32" height="32" viewBox="0 0 32 32">
<title>uniE1D4</title>
<path d="M18 14q0.813 0 1.406 0.563t0.594 1.438v14q0 0.813-0.594 1.406t-1.406 0.594h-16q-0.875 0-1.438-0.594t-0.563-1.406v-14q0-0.875 0.563-1.438t1.438-0.563h16zM18 16h-16v14h16v-14zM31.438 5.5q0.563 0.625 0.563 1.438t-0.563 1.438l-5.75 5.375q-0.313 0.313-0.688 0.313t-0.688-0.313-0.313-0.719 0.313-0.719l4.688-4.313h-11.938q-1 0-1-1t1-1h11.938l-4.688-4.25q-0.313-0.313-0.313-0.719t0.313-0.719 0.688-0.313 0.688 0.313z"></path>
</svg>
