<!-- Generated by IcoMoon.io -->
<svg version="1.1" xmlns="http://www.w3.org/2000/svg" width="32" height="32" viewBox="0 0 32 32">
<title>uniE14F</title>
<path d="M14 10h2v20q0 0.813-0.594 1.406t-1.406 0.594h-10q-0.875 0-1.438-0.594t-0.563-1.406v-13.063q-0.063-1.375-0.313-2.688-0.188-1.125-0.563-2.313t-1.063-1.938h2.313q0.313 0.25 0.594 1.219t0.531 2.031q0.25 1.25 0.5 2.75h6v2h-6v2h6v2h-6v2h6v2h-6v4h10v-20zM30 2q0.813 0 1.406 0.563t0.594 1.438v22q0 0.813-0.594 1.406t-1.406 0.594h-12v-2h12v-18h-20v2h-2v-6q0-0.875 0.563-1.438t1.438-0.563h2v-2h2v2h12v-2h2v2h2zM14 4h-2v2h2v-2zM28 4h-2v2h2v-2zM20 16v6h2v-10h2v10h2v-6h2v8h-10v-8h2z"></path>
</svg>
