<!-- Generated by IcoMoon.io -->
<svg version="1.1" xmlns="http://www.w3.org/2000/svg" width="32" height="32" viewBox="0 0 32 32">
<title>uniE26E</title>
<path d="M26 24h6v2h-6v6h-2v-6h-6v-2h6v-6h2v6zM30 4q0.688 0 1.125 0.313t0.625 0.688q0.25 0.438 0.25 1v8h-2v-6q-0.063-0.563-0.313-1-0.188-0.375-0.594-0.688t-1.094-0.313h-14l-2-2h-8q-0.75 0-1.156 0.313t-0.594 0.688q-0.25 0.438-0.25 1v20q0 0.813 0.313 1.188t0.688 0.563q0.438 0.25 1 0.25h10.063v2h-12.063q-0.563 0-1-0.25-0.375-0.188-0.688-0.594t-0.313-1.156v-24q0-0.563 0.25-1 0.188-0.375 0.594-0.688t1.156-0.313h11.625l1.875 2h14.5z"></path>
</svg>
