<!-- Generated by IcoMoon.io -->
<svg version="1.1" xmlns="http://www.w3.org/2000/svg" width="33" height="32" viewBox="0 0 33 32">
<title>uniE0D9</title>
<path d="M23.813 12.688q-3.313-2.125-7.25-2.125-2.875 0-5.219 1t-4.031 2.781-2.625 4.25-0.938 5.344q0 1.063 0.188 2.125t0.188 2.125q0 0.75-0.531 1.313t-1.281 0.563q-0.813 0-1.281-0.594t-0.688-1.469-0.25-1.844-0.031-1.781q0-4 1.281-7.25t3.531-5.5 5.25-3.469 6.438-1.219q3.25 0 6.188 1.125t5.125 3.125l-1.313 0.813-1.938 1.25zM31.75 17q1.188 3 1.188 6.813v0.313q0 0.75-0.031 1.781t-0.25 1.938-0.656 1.531-1.25 0.625-1.344-0.5-0.531-1.25q0-1.125 0.219-2.188t0.219-2.125q0-4-1.563-7l2.188-3.375q1.188 1.688 1.813 3.438zM14.063 22.188q0.188-0.188 0.938-0.688l1.75-1.25 2.438-1.625 2.688-1.813 7.188-4.688-6.438 9.875-1.625 2.438-1.25 1.813-0.688 0.875q-1.063 1.063-2.5 1.063t-2.5-1.031-1.063-2.469 1.063-2.5zM16.563 26.313q0.75 0 1.25-0.531t0.5-1.219q0-0.75-0.5-1.25t-1.25-0.5q-0.688 0-1.219 0.5t-0.531 1.25q0 0.688 0.531 1.219t1.219 0.531z"></path>
</svg>
