<!-- Generated by IcoMoon.io -->
<svg version="1.1" xmlns="http://www.w3.org/2000/svg" width="30" height="32" viewBox="0 0 30 32">
<title>uniE259</title>
<path d="M29.5 23.188q0.563 1.188 0.469 2.406t-0.688 2.188-1.656 1.594-2.375 0.625h-18.563q-1.313 0-2.344-0.625t-1.656-1.594-0.688-2.188 0.5-2.406l3.125-6.313q0.313 0.063 0.656 0.094t0.719 0.031q2.063 0 3.875-0.781t3.188-2.156 2.156-3.188 0.781-3.875q0-1.375-0.375-2.625t-1-2.313q1.313-0.125 2.594 0.5t1.969 2zM7 14q-1.438 0-2.719-0.563t-2.219-1.5-1.5-2.219-0.563-2.719 0.563-2.719 1.5-2.219 2.219-1.5 2.719-0.563 2.719 0.563 2.219 1.5 1.5 2.219 0.563 2.719-0.563 2.719-1.5 2.219-2.219 1.5-2.719 0.563z"></path>
</svg>
