<!-- Generated by IcoMoon.io -->
<svg version="1.1" xmlns="http://www.w3.org/2000/svg" width="32" height="32" viewBox="0 0 32 32">
<title>uniE053</title>
<path d="M31.313 23.375q0.313 0.625 0.469 1.219t0.219 1.156v0.313q0 1.938-1.438 2.969t-3.125 1.031h-22.813q-0.813 0-1.625-0.281t-1.469-0.781-1.063-1.25-0.406-1.688q-0.063-0.813 0.188-1.406t0.563-1.281l11.563-21q1.5-2.375 3.813-2.375t3.688 2.375zM16.063 7.938q-0.813 0-1.469 0.5t-0.656 1.625q0.063 0.438 0.188 1.438 0.125 0.875 0.219 2.313t0.219 3.813q0 0.688 0.469 1t0.969 0.313q1.375 0 1.5-1.313l0.125-2.25 0.563-5.313q0-1.125-0.656-1.625t-1.469-0.5zM16.063 26.625q1.25 0 1.969-0.75t0.719-2q0-1.188-0.719-1.938t-1.969-0.75-1.969 0.75-0.719 1.938q0 1.25 0.719 2t1.969 0.75z"></path>
</svg>
