<!-- Generated by IcoMoon.io -->
<svg version="1.1" xmlns="http://www.w3.org/2000/svg" width="32" height="32" viewBox="0 0 32 32">
<title>uniE060</title>
<path d="M32 2.063l-8.25 9.938-5.188-5.25 2-1.938 3.125 3.125 6.313-7.938zM24 16.063v14q0 0.813-0.563 1.406t-1.438 0.594h-20q-0.875 0-1.438-0.594t-0.563-1.406v-28q0-0.875 0.563-1.469t1.438-0.594h16v2.063h-16v28h20v-14h2zM11.25 26.688v-2q-1.625-0.063-2.938-1.25t-1.563-3.563l2.563-0.313q0.188 0.875 0.75 1.563t1.188 0.875v-4.5q-2-0.75-3.219-2.063t-1.219-2.813q0-0.75 0.313-1.531t0.906-1.469 1.406-1.156 1.813-0.594v-1.25h1.563v1.25q3.625 0.375 4.375 3.938l-2.25 0.375q-0.125-0.75-0.688-1.25t-1.438-0.625v4.75q2.625 0.563 3.688 1.969t1.063 2.656q0 2-1.281 3.375t-3.469 1.563v2.063h-1.563zM12.813 22.313q0.875-0.25 1.469-0.906t0.594-1.406q0-1.625-2.063-2.188v4.5zM9.688 12.313q0 1.313 1.563 1.938v-4q-0.688 0.313-1.125 0.875t-0.438 1.188z"></path>
</svg>
