<!-- Generated by IcoMoon.io -->
<svg version="1.1" xmlns="http://www.w3.org/2000/svg" width="32" height="32" viewBox="0 0 32 32">
<title>uniE04A</title>
<path d="M30.188 3.5q1.813 2 1.813 4.375 0 2.5-1.813 4.313l-15.563 15.563q-2.5 2.5-6.063 2.5-1.75 0-3.313-0.688t-2.719-1.844-1.844-2.719-0.688-3.313q0-3.563 2.5-6.063l13.875-13.813 1.688 1.688-13.813 13.875q-0.938 0.938-1.375 2.031t-0.438 2.219q0 1.188 0.438 2.313t1.25 1.969 1.938 1.375 2.5 0.531q2.5 0 4.313-1.813l15.625-15.563q1.063-1.063 1.063-2.563 0-1.438-1.125-2.563t-2.563-1.125q-1.563 0-2.625 1.063l-12.938 13q-0.375 0.375-0.375 0.813 0 0.563 0.375 0.906t0.875 0.344 0.875-0.375l11.188-11.188 1.75 1.688-11.25 11.25q-1.063 1.063-2.625 1.063-1.438 0-2.531-1.094t-1.094-2.531q0-1.563 1.063-2.625l13-13q1.75-1.75 4.25-1.75 1.125 0 2.281 0.438t2.094 1.313z"></path>
</svg>
