<!-- Generated by IcoMoon.io -->
<svg version="1.1" xmlns="http://www.w3.org/2000/svg" width="28" height="32" viewBox="0 0 28 32">
<title>uniE07A</title>
<path d="M20 12q0 2.5-1.75 4.25t-4.25 1.75-4.25-1.75-1.75-4.25 1.75-4.25 4.25-1.75 4.25 1.75 1.75 4.25zM14 16q1.625 0 2.813-1.156t1.188-2.844q0-1.625-1.188-2.813t-2.813-1.188-2.813 1.188-1.188 2.813q0 1.688 1.188 2.844t2.813 1.156zM14 24h6v2h-6v-2zM26 2q0.875 0 1.438 0.563t0.563 1.438v24q0 0.875-0.563 1.438t-1.438 0.563h-24q-0.813 0-1.406-0.563t-0.594-1.438v-24q0-0.875 0.594-1.438t1.406-0.563h24zM22 26q0-6-6-6h-4q-6 0-6 6v2h16v-2zM26 4h-24v24h2v-2q0-1.625 0.438-3.094t1.406-2.563 2.469-1.719 3.688-0.625h4q2.188 0 3.719 0.625t2.469 1.719 1.375 2.563 0.438 3.094v2h2v-24z"></path>
</svg>
