<!-- Generated by IcoMoon.io -->
<svg version="1.1" xmlns="http://www.w3.org/2000/svg" width="28" height="32" viewBox="0 0 28 32">
<title>uniE1E6</title>
<path d="M21 12q-1.25 0-2.125-0.875t-0.875-2.125 0.875-2.125 2.125-0.875 2.125 0.875 0.875 2.125-0.875 2.125-2.125 0.875zM26 2q0.875 0 1.438 0.563t0.563 1.438v24q0 0.875-0.563 1.438t-1.438 0.563h-24q-0.813 0-1.406-0.563t-0.594-1.438v-24q0-0.875 0.594-1.438t1.406-0.563h24zM26 4h-24v24h24v-24zM20.25 22l-3.625-5.313 1.375-2.688 6 8h-3.75zM19.813 24h-15.938l8.125-11.438z"></path>
</svg>
