<!-- Generated by IcoMoon.io -->
<svg version="1.1" xmlns="http://www.w3.org/2000/svg" width="32" height="32" viewBox="0 0 32 32">
<title>uniE20E</title>
<path d="M31.875 28.063q0.125 1-0.219 1.656t-0.656 1.031q-0.813 0.875-1.781 1.063t-1.219 0.188h-6v-4h-4v-4h-4v-4h-4q-2 0-3.813-0.813t-3.188-2.188-2.188-3.188-0.813-3.813 0.813-3.813 2.188-3.188 3.188-2.188 3.813-0.813q2.063 0 3.875 0.813t3.156 2.156 2.156 3.156 0.813 3.875q0 1.063-0.281 1.906t-0.531 1.406l-0.063 0.063 11.688 12.125q1 1.188 1.063 2.563zM28 30q0.563 0.063 1-0.188 0.375-0.125 0.656-0.5t0.219-1.063q0-0.75-0.625-1.438l-11.625-12.063q-0.625-0.563-0.625-1.313 0-0.438 0.188-0.688 0.25-0.5 0.531-1.188t0.281-1.563q0-1.625-0.656-3.063t-1.75-2.531-2.563-1.75-3.031-0.656q-1.625 0-3.063 0.656t-2.531 1.781-1.75 2.563-0.656 3q0 1.688 0.656 3.125t1.75 2.531 2.531 1.719 3.063 0.625h6v4h4v4h4v4h4zM9 6q1.25 0 2.125 0.875t0.875 2.125-0.875 2.125-2.125 0.875-2.125-0.875-0.875-2.125 0.875-2.125 2.125-0.875z"></path>
</svg>
