<!-- Generated by IcoMoon.io -->
<svg version="1.1" xmlns="http://www.w3.org/2000/svg" width="24" height="32" viewBox="0 0 24 32">
<title>uniE102</title>
<path d="M14 18h4v4h-4v4h-4v-4h-4v-4h4v-4h4v4zM18 8q2.5 0 4.25 1.75t1.75 4.25v16q0 0.875-0.563 1.438t-1.438 0.563h-20q-0.875 0-1.438-0.563t-0.563-1.438v-16q0-2.5 1.75-4.25t4.25-1.75v-2h-2q-0.875 0-1.438-0.563t-0.563-1.438v-2q0-0.875 0.563-1.438t1.438-0.563h16q0.875 0 1.438 0.563t0.563 1.438v2q0 0.875-0.563 1.438t-1.438 0.563h-2v2zM6 4h14v-2h-16v2h2zM22 14q0-1.625-1.188-2.813t-2.813-1.188h-2v-4h-8v4h-2q-1.625 0-2.813 1.188t-1.188 2.813v16h20v-16z"></path>
</svg>
