<!-- Generated by IcoMoon.io -->
<svg version="1.1" xmlns="http://www.w3.org/2000/svg" width="24" height="32" viewBox="0 0 24 32">
<title>uniE272</title>
<path d="M8.75 0q0.625 0 1.938 0.781t3 2.188 3.469 3.344 3.219 4.188 2.375 4.719 0.938 4.969q0 2.438-0.938 4.594t-2.531 3.75-3.75 2.531-4.594 0.938-4.594-0.938-3.75-2.531-2.531-3.75-0.938-4.594q0-2.688 0.906-4.406t2.188-2.969 2.656-2.281 2.344-2.281 1.188-3-0.844-4.5q-0.313-0.75 0.25-0.75zM11.875 30q2 0 3.781-0.781t3.125-2.094 2.125-3.094 0.781-3.844q0-2.5-1.063-4.969t-2.656-4.688-3.406-4-3.313-2.906q0.188 1.75-0.188 3.094t-1.094 2.406-1.656 1.875-1.813 1.563q-0.875 0.688-1.688 1.406t-1.438 1.594-0.969 2-0.344 2.625q0 2.063 0.781 3.844t2.125 3.094 3.125 2.094 3.781 0.781zM13.75 22.938q1.375-0.313 2.25-1.125t1.375-1.688q0.625-1 0.875-2.063 1.625 7.938-4.688 9-0.875 0.063-1.344-0.469t-0.469-1.25 0.469-1.438 1.531-0.969z"></path>
</svg>
