<!-- Generated by IcoMoon.io -->
<svg version="1.1" xmlns="http://www.w3.org/2000/svg" width="24" height="32" viewBox="0 0 24 32">
<title>uniE153</title>
<path d="M22 14.563q0.875 0.5 1.438 1.406t0.563 2.031v9.938q0 1.688-1.188 2.844t-2.813 1.156h-16q-1.688 0-2.844-1.156t-1.156-2.844v-9.938q0-1.125 0.531-2.031t1.406-1.406v-1.563t0.031-1.781 0.031-1.5v-0.781q0-1.875 0.781-3.5t2.125-2.844 3.188-1.938 3.906-0.719 3.875 0.719 3.188 1.938 2.156 2.844 0.781 3.5v5.625zM6 8.938v0.656t-0.031 1.281-0.031 1.594v1.531h12.063v-5.063q0-2.063-1.75-3.531t-4.25-1.469-4.25 1.469-1.75 3.531zM22 18q0-0.875-0.594-1.469t-1.406-0.594h-16q-0.875 0-1.438 0.594t-0.563 1.469v9.938q0 0.875 0.563 1.469t1.438 0.594h16q0.813 0 1.406-0.594t0.594-1.469v-9.938zM15.063 21.063q0 0.938-0.5 1.688t-1.313 1.125l2.75 4.063h-8l2.688-4.063q-0.813-0.375-1.313-1.125t-0.5-1.688q0-1.25 0.906-2.156t2.219-0.906q1.25 0 2.156 0.906t0.906 2.156z"></path>
</svg>
