<!-- Generated by IcoMoon.io -->
<svg version="1.1" xmlns="http://www.w3.org/2000/svg" width="28" height="32" viewBox="0 0 28 32">
<title>uniE265</title>
<path d="M1 4q-0.375 0-0.688-0.281t-0.313-0.719q0-0.375 0.313-0.688t0.688-0.313h10q0.438 0 0.719 0.313t0.281 0.688q0 1-1 1h-10zM1 20q-0.375 0-0.688-0.281t-0.313-0.719q0-0.375 0.313-0.688t0.688-0.313h10q0.438 0 0.719 0.313t0.281 0.688q0 1-1 1h-10zM26 6q0.875 0 1.438 0.594t0.563 1.406v4q0 0.875-0.563 1.438t-1.438 0.563h-24q-0.813 0-1.406-0.563t-0.594-1.438v-4q0-0.813 0.594-1.406t1.406-0.594h24zM26 8h-24v4h24v-4zM26 22q0.875 0 1.438 0.594t0.563 1.406v4q0 0.875-0.563 1.438t-1.438 0.563h-24q-0.813 0-1.406-0.563t-0.594-1.438v-4q0-0.813 0.594-1.406t1.406-0.594h24zM26 24h-24v4h24v-4z"></path>
</svg>
