<!-- Generated by IcoMoon.io -->
<svg version="1.1" xmlns="http://www.w3.org/2000/svg" width="36" height="32" viewBox="0 0 36 32">
<title>uniE042</title>
<path d="M32.563 4.188q1 0 1.75 0.719t0.75 1.719v20.563q0 1.063-0.75 1.938t-1.75 0.875h-30q-1.063 0-1.813-0.875t-0.75-1.938v-20.563q0-1 0.75-1.719t1.813-0.719h30zM30 9.438h-2q-0.375 1.188-1.5 2-1.063 0.875-2 1.125v2.188q1.813-0.563 3.125-1.813v9.063h2.375v-12.563zM4.5 14.75q1.875-0.563 3.125-1.813v9.063h2.375v-12.563h-1.938q-0.375 1.188-1.469 2t-2.094 1.125v2.188zM16.313 22l1.625-2.563 1.625 2.563h2.688l-3-4.25 2.75-3.875h-2.563l-1.5 2.188-1.438-2.188h-2.625l2.813 3.938-2.938 4.188h2.563zM27.563 27.313v-2.563h-10v2.563h10z"></path>
</svg>
