<!-- Generated by IcoMoon.io -->
<svg version="1.1" xmlns="http://www.w3.org/2000/svg" width="30" height="32" viewBox="0 0 30 32">
<title>uniE21B</title>
<path d="M14.625 0.563q0.875 0.688 2.344 1.281t3.188 1.406 3.469 1.875 3.156 2.688 2.313 3.875 0.906 5.375-1.188 5.844-3.25 4.75-4.813 3.188-5.875 1.156q-2.563 0-4.875-0.813t-4.188-2.25-3.219-3.375-2.031-4.25q-0.188-0.5-0.375-1.531t-0.125-2.313 0.375-2.688 1.188-2.656q0.938-1.375 2.156-2.406t2.469-1.844 2.438-1.5 2.063-1.5q-0.188 0.75-0.625 1.375t-1.063 1.188-1.313 1.125-1.313 1.313q-1.625 1.813-1.969 3.344t-0.344 2.469q0 1.063 0.406 2.219t1.156 2.125 1.813 1.594 2.313 0.625q1.313 0 2.125-0.625t1.094-1.438 0.031-1.594-1.063-1.094q-1.125-0.438-1.875-0.125-0.375 0.188-0.688 0.438-0.375-0.688-0.125-1.375 0.188-0.625 0.938-1.406t2.563-1.656q1.75-0.813 2.656-1.594t1.344-1.406q0.5-0.688 0.5-1.313 0.313 0.688 0.344 1.25t-0.094 1.063q-0.125 0.563-0.313 1.063 0.75-0.313 1.25-0.719t0.813-0.719q0.313-0.375 0.563-0.75 0.125 0.938 0.094 1.656t-0.156 1.219q-0.125 0.563-0.313 0.938 0.188-0.063 0.469-0.219t0.594-0.281q0.313-0.188 0.688-0.375 0 0.688-0.25 1.219t-0.563 0.906q-0.313 0.438-0.75 0.813 0.563 0.688 1.438 0.625t1.656-0.625 1.344-1.531 0.563-2.219q0-0.25-0.094-1.063t-0.719-1.969-1.969-2.563-3.844-2.906q-1.313-0.75-2-1.375t-1-1.063q-0.375-0.5-0.438-0.875zM12.688 15.813q0.5-0.125 0.313-0.5-0.25-0.5-1-0.188-0.125 0.125-0.25 0.156t-0.25 0.156-0.25 0.188h0.563q0.25 0.125 0.438 0.188t0.438 0z"></path>
</svg>
