<!-- Generated by IcoMoon.io -->
<svg version="1.1" xmlns="http://www.w3.org/2000/svg" width="33" height="32" viewBox="0 0 33 32">
<title>uniE015</title>
<path d="M32.188 10.75q0.938 2.813 0.938 5.813 0 6.313-4.125 11.125l-1-0.875-9.813-9.875zM29.813 8.875l-12.563 5.563v-15.063q4.438 0.313 8.094 2.719t5.719 6.219zM17.25 19.688l8.938 8.938q-3.938 3.313-8.938 3.75-0.75 0.063-1.375 0.063t-1.313-0.063q-4-0.313-7.344-2.531t-5.281-5.719q-0.625-1.125-1.063-2.375-0.875-2.5-0.875-5.188 0-5.875 3.75-10.375 0.938-1 1.875-1.813 3.875-3.25 8.938-3.75v16.438z"></path>
</svg>
