<!-- Generated by IcoMoon.io -->
<svg version="1.1" xmlns="http://www.w3.org/2000/svg" width="28" height="32" viewBox="0 0 28 32">
<title>uniE158</title>
<path d="M18 19q0-1 1-1h4q1 0 1 1t-1 1h-4q-1 0-1-1zM24 8q0 0.875-0.563 1.438t-1.438 0.563-1.438-0.563-0.563-1.438 0.563-1.438 1.438-0.563 1.438 0.563 0.563 1.438zM12 8q0.813 0 1.406 0.563t0.594 1.438v18q0 0.875-0.594 1.438t-1.406 0.563h-10q-0.875 0-1.438-0.563t-0.563-1.438v-18q0-0.875 0.563-1.438t1.438-0.563h10zM12 10h-10v18h10v-18zM5 26q-1 0-1-1t1-1h4q1 0 1 1t-1 1h-4zM8 16q-0.875 0-1.438-0.563t-0.563-1.438 0.563-1.438 1.438-0.563 1.438 0.563 0.563 1.438-0.563 1.438-1.438 0.563zM26 2q0.813 0 1.406 0.563t0.594 1.438v18q0 0.875-0.594 1.438t-1.406 0.563h-10v-2h10v-18h-10v2h-2v-2q0-0.875 0.563-1.438t1.438-0.563h10z"></path>
</svg>
