<!-- Generated by IcoMoon.io -->
<svg version="1.1" xmlns="http://www.w3.org/2000/svg" width="32" height="32" viewBox="0 0 32 32">
<title>uniE0CE</title>
<path d="M16.813 19.75q0.813-1.25 1.406-2.469t0.969-2.469q-0.375-0.375-0.5-1.25t-0.125-1.375q0-1.25 0.375-2.125t1.188-0.875q1.313 0 1.313 2.688 0 1.125-0.375 2.688 1.375 2.625 2.813 3.5l1.688-0.375q0.313-0.063 0.531-0.094t0.406-0.031q1.25 0 2.375 0.625t1.125 1.438q0 1.313-1.938 1.313-1 0-2.313-0.313t-2.188-0.813q-1.813 0.375-3.219 0.688t-2.344 0.625q-1.875 2.875-3 2.875l-0.438-0.063q-1.125-0.375-1.125-1.438 0-1 1.625-2.063zM26 26q0 0.875-0.563 1.438t-1.438 0.563h-16q-0.875 0-1.438-0.563t-0.563-1.438v-16l6-6h12q0.813 0 1.406 0.563t0.594 1.438v2h-2v-2h-10v4q0 0.875-0.594 1.438t-1.469 0.563h-3.938v14h16v-2h2v2zM2 8h-2v-2q0-2.5 1.75-4.25t4.25-1.75h2v2h-2q-1.688 0-2.844 1.188t-1.156 2.813v2zM2 26q0 1.625 1.156 2.813t2.844 1.188h2v2h-2q-2.5 0-4.25-1.75t-1.75-4.25v-2h2v2zM26 0q1.188 0 2.281 0.469t1.938 1.281 1.313 1.906 0.469 2.344v2h-2v-2q0-1.625-1.188-2.813t-2.813-1.188h-2v-2h2zM30 24h2v2q0 1.25-0.469 2.344t-1.313 1.906-1.938 1.281-2.281 0.469h-2v-2h2q1.625 0 2.813-1.188t1.188-2.813v-2z"></path>
</svg>
