<!-- Generated by IcoMoon.io -->
<svg version="1.1" xmlns="http://www.w3.org/2000/svg" width="32" height="32" viewBox="0 0 32 32">
<title>uniE270</title>
<path d="M16 0q3.313 0 6.25 1.25t5.094 3.438 3.406 5.094 1.25 6.219-1.25 6.25-3.406 5.094-5.094 3.406-6.25 1.25-6.219-1.25-5.094-3.406-3.438-5.094-1.25-6.25 1.25-6.219 3.438-5.094 5.094-3.438 6.219-1.25zM16 21.375q1.125 0 2.094-0.438t1.688-1.156 1.156-1.688 0.438-2.094-0.438-2.094-1.156-1.688-1.688-1.125-2.094-0.406q-2.188 0-3.75 1.563t-1.563 3.75q0 1.125 0.406 2.094t1.125 1.688 1.688 1.156 2.094 0.438z"></path>
</svg>
