<!-- Generated by IcoMoon.io -->
<svg version="1.1" xmlns="http://www.w3.org/2000/svg" width="31" height="32" viewBox="0 0 31 32">
<title>uniE0B8</title>
<path d="M29.188 15.438q0.688 0 1.125 0.469t0.438 1.156v6.375q0 0.688-0.438 1.188t-1.125 0.5h-9.188q-0.688 0-1.188-0.5t-0.5-1.188v-6.375q0-0.688 0.5-1.156t1.188-0.469h0.438v-2.625q0-0.375 0.188-1.156t0.719-1.563 1.469-1.406 2.5-0.625q1.625 0 2.594 0.688t1.438 1.5 0.594 1.563 0.125 0.813h-2.125q0-0.25-0.156-0.656t-0.469-0.813-0.813-0.688-1.188-0.281q-0.75 0-1.25 0.281t-0.813 0.688-0.469 0.844-0.156 0.813v2.625h6.563zM25.125 20.188q1-0.313 1-1.438 0-0.688-0.469-1.125t-1.094-0.438q-0.688 0-1.156 0.438t-0.469 1.125q0 0.5 0.313 0.875t0.75 0.563l-1.063 3.125h3.188zM24 27v3q0 0.875-0.563 1.438t-1.438 0.563h-20q-0.875 0-1.438-0.563t-0.563-1.438v-22l8-8h14q0.813 0 1.406 0.563t0.594 1.438v3h-2v-3h-12v6q0 0.875-0.594 1.438t-1.469 0.563h-5.938v20h20v-3h2z"></path>
</svg>
