<!-- Generated by IcoMoon.io -->
<svg version="1.1" xmlns="http://www.w3.org/2000/svg" width="32" height="32" viewBox="0 0 32 32">
<title>uniE083</title>
<path d="M28 4q1.625 0 2.813 1.156t1.188 2.844v16q0 1.625-1.188 2.813t-2.813 1.188h-24q-1.625 0-2.813-1.188t-1.188-2.813v-16q0-1.688 1.188-2.844t2.813-1.156h24zM30 8q0-0.875-0.563-1.438t-1.438-0.563h-24q-0.875 0-1.438 0.563t-0.563 1.438v16q0 0.813 0.563 1.406t1.438 0.594h24q0.875 0 1.438-0.594t0.563-1.406v-16zM24.625 8q1 0 1.688 0.688t0.688 1.75q0 1-0.688 1.688t-1.688 0.688q-0.875 0-1.625-0.625-0.75 0.625-1.563 0.625-1.063 0-1.75-0.688t-0.688-1.688q0-1.063 0.688-1.75t1.75-0.688q0.813 0 1.563 0.625 0.75-0.625 1.625-0.625zM5 12q-0.438 0-0.719-0.313t-0.281-0.688v-2q0-1 1-1h4q1 0 1 1v2q0 0.375-0.281 0.688t-0.719 0.313h-4zM27 16q1 0 1 1v2q0 0.375-0.281 0.688t-0.719 0.313h-22q-0.438 0-0.719-0.313t-0.281-0.688v-2q0-1 1-1h22zM15 22q1 0 1 1 0 0.375-0.281 0.688t-0.719 0.313h-10q-0.438 0-0.719-0.313t-0.281-0.688q0-1 1-1h10z"></path>
</svg>
