<!-- Generated by IcoMoon.io -->
<svg version="1.1" xmlns="http://www.w3.org/2000/svg" width="28" height="32" viewBox="0 0 28 32">
<title>uniE09A</title>
<path d="M24.625 2q1.375 0 2.375 0.969t1 2.406v21.25q0 1.438-1 2.406t-2.375 0.969h-17.313q-0.375 0-0.813-0.313l-6.188-6.25q-0.313-0.25-0.313-0.75v-17.313q0-1.438 0.969-2.406t2.406-0.969h21.25zM8 4v8h12v-8h-12zM18 28v-8h-8v8h8zM26 5.375q0-0.563-0.406-0.969t-0.969-0.406h-2.625v8q0 0.875-0.594 1.438t-1.406 0.563h-12q-0.875 0-1.438-0.563t-0.563-1.438v-8h-2.625q-0.563 0-0.969 0.406t-0.406 0.969v16.938l5.688 5.688h0.313v-8q0-0.875 0.563-1.438t1.438-0.563h8q0.813 0 1.406 0.563t0.594 1.438v8h4.625q0.563 0 0.969-0.406t0.406-0.969v-21.25zM13.5 21q0.5 0 0.5 0.5v3q0 0.5-0.5 0.5h-1.063q-0.438 0-0.438-0.5v-3q0-0.5 0.438-0.5h1.063z"></path>
</svg>
