<!-- Generated by IcoMoon.io -->
<svg version="1.1" xmlns="http://www.w3.org/2000/svg" width="32" height="32" viewBox="0 0 32 32">
<title>uniE0C9</title>
<path d="M30 0q0.875 0 1.438 0.594t0.563 1.406v18q0 0.875-0.563 1.438t-1.438 0.563h-20q-0.813 0-1.406-0.563t-0.594-1.438v-18q0-0.813 0.594-1.406t1.406-0.594h20zM30 2h-20v18h20v-18zM23 30q1 0 1 1 0 0.375-0.281 0.688t-0.719 0.313h-14q-0.375 0-0.688-0.313t-0.313-0.688q0-0.438 0.313-0.719t0.688-0.281h14zM30 24h2v2q0 0.813-0.563 1.406t-1.438 0.594h-28q-0.813 0-1.406-0.594t-0.594-1.406v-20q0-0.875 0.594-1.438t1.406-0.563h4v2h-4v20h28v-2z"></path>
</svg>
