<!-- Generated by IcoMoon.io -->
<svg version="1.1" xmlns="http://www.w3.org/2000/svg" width="32" height="32" viewBox="0 0 32 32">
<title>uniE0EC</title>
<path d="M32 4v4h-4v4h-4v-4h-4v-4h4v-4h4v4h4zM14 16q1.625 0 3.094 0.625t2.563 1.719 1.719 2.531 0.625 3.125v8h-22v-8q0-1.688 0.625-3.125t1.719-2.531 2.563-1.719 3.094-0.625h6zM15.75 18.25q-0.75-0.25-1.75-0.25h-6q-2.5 0-4.25 1.75t-1.75 4.25v6h3.688zM20 24q0-2.688-2-4.5v10.5h2v-6zM18 8.938q0 1.438-0.563 2.719t-1.5 2.25-2.219 1.531-2.719 0.563-2.719-0.563-2.219-1.531-1.5-2.25-0.563-2.719 0.563-2.688 1.5-2.188 2.219-1.5 2.719-0.563 2.719 0.563 2.219 1.5 1.5 2.188 0.563 2.688zM11 4q-1.625 0-3 1l7.688 2.375q-0.5-1.5-1.781-2.438t-2.906-0.938zM11 14q1.938 0 3.344-1.313t1.594-3.188l-5-1.5h-4.813q-0.125 0.625-0.125 0.938 0 2.125 1.469 3.594t3.531 1.469z"></path>
</svg>
