<!-- Generated by IcoMoon.io -->
<svg version="1.1" xmlns="http://www.w3.org/2000/svg" width="32" height="32" viewBox="0 0 32 32">
<title>uniE141</title>
<path d="M26 4q2.5 0 4.25 1.75t1.75 4.25v8q0 2.5-1.75 4.25t-4.25 1.75h-20q-2.5 0-4.25-1.75t-1.75-4.25v-8q0-2.5 1.75-4.25t4.25-1.75h20zM30 10q0-1.688-1.188-2.844t-2.813-1.156h-20q-1.688 0-2.844 1.156t-1.156 2.844v8q0 1.625 1.156 2.813t2.844 1.188h20q1.625 0 2.813-1.188t1.188-2.813v-8zM11 26q0.375 0 0.688 0.281t0.313 0.719-0.313 0.719-0.688 0.281h-4q-1 0-1-1t1-1h4zM25 26q0.375 0 0.688 0.281t0.313 0.719-0.313 0.719-0.688 0.281h-4q-1 0-1-1t1-1h4zM22 8q2.5 0 4.25 1.75t1.75 4.25-1.75 4.25-4.25 1.75-4.25-1.75-1.75-4.25 1.75-4.25 4.25-1.75zM22 18q1.625 0 2.813-1.188t1.188-2.813q0-1.688-1.188-2.844t-2.813-1.156q-1.688 0-2.844 1.156t-1.156 2.844q0 1.625 1.156 2.813t2.844 1.188zM5 10q0.375 0 0.688 0.281t0.313 0.719v6q0 0.438-0.313 0.719t-0.688 0.281q-1 0-1-1v-6q0-1 1-1zM9 10q0.375 0 0.688 0.281t0.313 0.719v6q0 0.438-0.313 0.719t-0.688 0.281q-1 0-1-1v-6q0-1 1-1z"></path>
</svg>
