<!-- Generated by IcoMoon.io -->
<svg version="1.1" xmlns="http://www.w3.org/2000/svg" width="32" height="32" viewBox="0 0 32 32">
<title>uniE114</title>
<path d="M20.938 0q1.438-0.625 3-0.625t2.969 0.625 2.5 1.656 1.75 2.469 0.656 3q0 1.625-0.594 3.063t-1.656 2.5-2.469 1.719-3.031 0.656q-1.563 0-2.969-0.625t-2.5-1.688-1.75-2.469-0.656-3.031q0-2.375 1.344-4.344t3.406-2.906zM26.938 11.375q0.75-0.813 0.75-2.188 0-1.25-0.656-1.906t-2.469-1.156v-2.813q0.313 0.125 0.625 0.406t0.375 0.781l1.813-0.25q-0.375-2.313-2.813-2.5v-0.75h-1.063v0.75q-2.875 0.188-2.875 2.875 0 2.375 2.875 3.188v3q-0.563-0.313-0.875-0.625t-0.438-1l-1.875 0.25q0.313 1.5 1.031 2.188t2.156 0.938v1.125h1.063v-1.188q0.688-0.125 1.344-0.375t1.031-0.75zM24.563 8.125q0.625 0.188 1 0.438t0.375 0.875q0 1.313-1.375 1.5v-2.813zM22.688 3.75q0.125-0.188 0.813-0.5v2.5q-1.063-0.375-1.063-1.188 0-0.563 0.25-0.813zM8 8q2.938 0 4.469 1.313t1.531 4.625h-12q0-3.313 1.531-4.625t4.469-1.313zM12 4q0 1.625-1.188 2.813t-2.813 1.188-2.813-1.188-1.188-2.813q0-1.688 1.188-2.844t2.813-1.156 2.813 1.156 1.188 2.844zM11.875 25.438q-0.188 0.125-0.125 0.25l2.25 6.063q0.063 0.188-0.063 0.313t-0.313 0l-5.438-3.875q-0.188-0.063-0.313 0l-5.5 3.875q-0.125 0.125-0.281 0t-0.094-0.313l2.25-6.063q0.063-0.188-0.063-0.25l-4.063-2.938q-0.188-0.063-0.125-0.25t0.25-0.188h5.188q0.125 0 0.25-0.125l2.063-5.688q0.063-0.188 0.25-0.188t0.25 0.188l2.125 5.688q0.063 0.125 0.25 0.125h5.125q0.188 0 0.281 0.188t-0.094 0.25zM29 28q1 0 1 1 0 0.375-0.281 0.688t-0.719 0.313h-10q-0.375 0-0.688-0.313t-0.313-0.688q0-0.438 0.313-0.719t0.688-0.281h10zM29 24q1 0 1 1 0 0.375-0.281 0.688t-0.719 0.313h-10q-0.375 0-0.688-0.313t-0.313-0.688q0-0.438 0.313-0.719t0.688-0.281h10zM29 20q1 0 1 1 0 0.375-0.281 0.688t-0.719 0.313h-10q-0.375 0-0.688-0.313t-0.313-0.688q0-0.438 0.313-0.719t0.688-0.281h10z"></path>
</svg>
