<!-- Generated by IcoMoon.io -->
<svg version="1.1" xmlns="http://www.w3.org/2000/svg" width="32" height="32" viewBox="0 0 32 32">
<title>uniE085</title>
<path d="M32 8q0 0.875-0.563 1.438t-1.438 0.563v2q0.875 0 1.438 0.563t0.563 1.438v4q0 0.875-0.563 1.438t-1.438 0.563v2q0.875 0 1.438 0.563t0.563 1.438v4q0 0.875-0.563 1.438t-1.438 0.563q0 0.875-0.563 1.438t-1.438 0.563h-24q-0.813 0-1.406-0.563t-0.594-1.438v-4h-2v-2h2v-2h-2v-2h2v-8h-2v-2h2v-2h-2v-2h2v-4q0-0.875 0.594-1.438t1.406-0.563h24q0.875 0 1.438 0.563t0.563 1.438q0.875 0 1.438 0.563t0.563 1.438v4zM28 28v-26h-24v4h2v2h-2v2h2v2h-2v8h2v2h-2v2h2v2h-2v4h24v-2zM10 6h14v4h-14v-4z"></path>
</svg>
