<!-- Generated by IcoMoon.io -->
<svg version="1.1" xmlns="http://www.w3.org/2000/svg" width="32" height="32" viewBox="0 0 32 32">
<title>uniE0F9</title>
<path d="M14.875 20.375q0.75-0.563 0.938 0.375 0.125 0.438 0.156 1.406t0.031 1.219q-0.125 2-1.469 2.813t-3.156 0q-0.625-0.25-1.156-0.625t-1.031-0.75q-0.188-0.125-0.375-0.375t-0.125-0.375q0.25-0.438 0.813-0.563 1.5-0.313 2.781-1t2.344-1.875q0.063-0.188 0.25-0.25zM11.5 18.813q0.188-1 0.313-1.844t0.531-1.25 1.25-0.219 2.469 1.25q-1.188 0.5-2.281 1.031t-2.281 1.031zM5.625 22.688q0-2 0.313-2.844t0.875-1 1.313 0.188 1.625 0.719q-1.063 0.75-2.063 1.469t-2.063 1.469zM20.938 6.438q-0.313 0.938-0.75 1.531t-1.25 0.656q-0.875 0.125-1.406-0.375t-1.031-1q0-0.063 0.469-0.156t1.188-0.25 1.469-0.25 1.313-0.156zM26.688 10.688q-2.188 0.688-3.094-0.219t-0.344-3.156q0.875 0.938 1.719 1.719t1.719 1.656zM19.875 12.438q2.563 0.375 3.938 2.625 0.125 0.25 0.219 0.594t-0.281 0.594q-0.313 0.313-0.594 0.031t-0.406-0.531q-1.188-1.5-2.813-1.938l-0.625-1.563zM31.688 7.063q0.313 0.438 0.313 1.031t-0.125 1.031q-0.5 1.375-0.875 2.063t-0.875 1.75q-1.75 3.375-3.813 5.469t-4.813 3.156q-0.375 0.188-0.5 0.375t-0.063 0.688q0.188 4.688-2.25 8.125-0.813 1.125-2.5 1.25h-0.563q-3 0-5.75-1.375-3-1.5-5.063-3.813t-3.813-4.75q-1.063-1.438-1-2.781t1.125-2.906q0.438-0.625 1-1.188 3.813-3.813 8.938-5.125 0.563-0.125 0.75-0.344t0.313-0.844q0.063-0.438 0.25-1.188t0.438-1.563 0.438-1.5 0.25-1q0.438-2.688 3.563-3.25 0.375-0.063 0.75-0.094t0.688-0.031l0.625-0.125q3.313 0.25 5.656 1.281t4.531 2.719q0.813 0.625 1.375 1.438t1 1.5zM17.5 29.063q1.5-2.5 1.5-5.875 0-5.063-3.313-10.938-0.125-0.188-0.375-0.344t-0.375-0.156q-0.875 0.063-1.563 0.063-0.625 0.063-1.188 0.063t-0.75 0.063q-1.5 0.313-3 1.156t-2.719 1.719-2.031 1.625-0.875 0.875q-0.875 1.25-0.938 1.875t0.813 1.875q1.625 2.625 3.375 4.375t3.75 2.938q2.563 1.625 5.75 1.75h0.063q1.25 0 1.875-1.063zM23.813 18q2.625-2.188 3.969-4.531t2.281-5.031q0-0.063-0.094-0.344t-0.281-0.594-0.406-0.656-0.344-0.469q-2.313-2-4.625-3.094t-5.188-1.094h-1.125q-0.688 0.063-1.156 0.156t-0.75 0.375-0.469 0.719-0.375 1.125l-0.344 1.375t-0.469 1.688q-0.25 1-0.625 2h0.063q0.188 0.063 0.438 0.063 1.438 0.125 2.219 0.781t1.344 1.781q0.25 0.5 0.719 1.75t0.969 2.563q0.563 1.563 1.188 3.375 0.188-0.125 0.375-0.219t0.375-0.219q0.625-0.375 1.219-0.719t1.094-0.781z"></path>
</svg>
