<!-- Generated by IcoMoon.io -->
<svg version="1.1" xmlns="http://www.w3.org/2000/svg" width="32" height="32" viewBox="0 0 32 32">
<title>uniE119</title>
<path d="M16 6q0 2.5-1.75 4.25t-4.25 1.75-4.25-1.75-1.75-4.25 1.75-4.25 4.25-1.75 4.25 1.75 1.75 4.25zM10 10q1.625 0 2.813-1.156t1.188-2.844q0-1.625-1.188-2.813t-2.813-1.188q-1.688 0-2.844 1.188t-1.156 2.813q0 1.688 1.156 2.844t2.844 1.156zM28 5q0 2.125-1.469 3.563t-3.531 1.438-3.531-1.438-1.469-3.563q0-2.063 1.469-3.531t3.531-1.469 3.531 1.469 1.469 3.531zM23 8q1.25 0 2.125-0.875t0.875-2.125-0.875-2.125-2.125-0.875-2.125 0.875-0.875 2.125 0.875 2.125 2.125 0.875zM8 14q-2.5 0-4.25 1.75t-1.75 4.25h-2q0-1.625 0.625-3.094t1.719-2.563 2.531-1.719 3.125-0.625h4q1.625 0 3.094 0.625t2.563 1.719 1.719 2.563 0.625 3.094h-2q0-2.5-1.75-4.25t-4.25-1.75h-4zM24 10q1.625 0 3.094 0.625t2.563 1.719 1.719 2.563 0.625 3.094h-2q0-2.5-1.75-4.25t-4.25-1.75h-4q-0.125-0.063-0.313-0.125t-0.688-0.313q-0.438-0.188-1-0.438 0.875-0.5 1.875-0.813t2.125-0.313h2zM29.438 25.5q0.563 0.625 0.563 1.438t-0.563 1.438l-3.813 3.375q-0.313 0.313-0.688 0.313t-0.688-0.313-0.313-0.719 0.313-0.719l2.813-2.313h-8.063q-1 0-1-1t1-1h8.063l-2.813-2.25q-0.313-0.313-0.313-0.719t0.313-0.719 0.688-0.313 0.688 0.313zM6.375 22.313q0.688-0.688 1.375 0t0 1.438l-2.813 2.25h8.125q1 0 1 1t-1 1h-8.125l2.813 2.313q0.688 0.688 0 1.438-0.313 0.313-0.688 0.313t-0.688-0.313l-3.813-3.375q-0.563-0.625-0.563-1.438t0.563-1.438z"></path>
</svg>
