<!-- Generated by IcoMoon.io -->
<svg version="1.1" xmlns="http://www.w3.org/2000/svg" width="32" height="32" viewBox="0 0 32 32">
<title>uniE13F</title>
<path d="M26 22h2v6q0 0.813-0.563 1.406t-1.438 0.594h-20q-0.813 0-1.406-0.594t-0.594-1.406v-9l-2.25 2.75q-0.313 0.313-0.719 0.313t-0.719-0.313-0.313-0.688 0.313-0.688l3.188-3.813q0.625-0.563 1.438-0.563t1.438 0.563l3.375 3.813q0.688 0.688 0 1.375-0.75 0.688-1.438 0l-2.313-2.75v9h20v-6zM31.75 10.313q0.688 0.688 0 1.375l-3.375 3.75q-0.625 0.563-1.438 0.563t-1.438-0.563l-3.188-3.75q-0.313-0.313-0.313-0.688t0.313-0.688q0.688-0.688 1.438 0l2.25 2.688v-9h-20v6h-2v-6q0-0.875 0.594-1.438t1.406-0.563h20q0.875 0 1.438 0.563t0.563 1.438v9l2.313-2.688q0.688-0.688 1.438 0z"></path>
</svg>
