<!-- Generated by IcoMoon.io -->
<svg version="1.1" xmlns="http://www.w3.org/2000/svg" width="32" height="32" viewBox="0 0 32 32">
<title>uniE06C</title>
<path d="M2 26h6v2h-6q-0.813 0-1.406-0.594t-0.594-1.406v-25.5q0-0.5 0.5-0.5h7q0.5 0 0.5 0.5v3.5h19q1 0 1 1v3h-2v-2h-24v20zM22.75 10.125q1.938 0.313 3.656 1.281t2.938 2.406 1.938 3.281 0.719 3.906q0 2.25-0.844 4.25t-2.344 3.5-3.5 2.375-4.313 0.875q-2.25 0-4.25-0.875t-3.5-2.375-2.375-3.5-0.875-4.25q0-2.063 0.719-3.906t1.969-3.281 2.938-2.406 3.688-1.281q0.438-0.063 0.844-0.094t0.844-0.031q0.5 0 0.906 0.031t0.844 0.094zM28.5 16q-1.813-2.813-5.25-3.688 1.25 1.563 2 3.688h3.25zM24.688 20.75q0-1.313-0.313-2.75h-6.688q-0.313 1.438-0.313 2.75 0 0.875 0.125 1.688t0.313 1.563h6.438q0.188-0.75 0.313-1.563t0.125-1.688zM21 12.125q-1.688 1.188-2.75 3.875h5.563q-0.5-1.25-1.219-2.25t-1.594-1.625zM18.813 12.313q-3.438 0.875-5.25 3.688h3.25q0.75-2.125 2-3.688zM16.375 24q-0.375-1.5-0.375-3.25 0-1.313 0.313-2.75h-3.75q-0.25 0.688-0.406 1.438t-0.156 1.563 0.156 1.563 0.406 1.438h3.813zM13.563 26q1 1.438 2.5 2.469t3.313 1.344q-1.438-1.438-2.438-3.813h-3.375zM21 29.438q1.688-1.188 2.625-3.438h-5.188q0.5 1.125 1.156 2t1.406 1.438zM22.688 29.813q1.813-0.313 3.313-1.344t2.5-2.469h-3.375q-1 2.375-2.438 3.813zM29.5 24q0.5-1.5 0.5-3t-0.5-3h-3.75q0.25 1.188 0.25 2.75 0 0.875-0.063 1.688t-0.25 1.563h3.813zM10.5 2q-0.5 0-0.5-0.5v-1q0-0.5 0.5-0.5h7q0.5 0 0.5 0.5v1q0 0.5-0.5 0.5h-7zM20.5 2q-0.5 0-0.5-0.5v-1q0-0.5 0.5-0.5h7q0.5 0 0.5 0.5v1q0 0.5-0.5 0.5h-7z"></path>
</svg>
