<!-- Generated by IcoMoon.io -->
<svg version="1.1" xmlns="http://www.w3.org/2000/svg" width="28" height="32" viewBox="0 0 28 32">
<title>uniE186</title>
<path d="M19.938 5.313h-2.313l2.313-3.313v3.313zM25.688 2h2.25v9.125l-2.25-2.313v2.313h-1.188l-1.125-2.313h-2.25l-2.313 3.438h-2.25v-3.438l2.25-2h2.313zM24 15q1.25 0 2.125 0.875t0.875 2.125-0.875 2.125-2.125 0.875-2.125-0.875-0.875-2.125 0.875-2.125 2.125-0.875zM27.938 17.375q-0.25-1.438-1.344-2.406t-2.594-0.969h3.938v3.375zM16.5 14h7.5q-1.625 0-2.813 1.188t-1.188 2.813q0 1.688 1.188 2.844t2.813 1.156q1.25 0 2.313-0.75l-0.375 0.75-4 6-3.125 2v-7.438l-4.625-4.625zM6 20q0 1.625 1.188 2.813t2.813 1.188h0.406t0.406-0.063l-2.813 6.063-2.125-1.938-0.938-5.938-2.875-5.438-2.063-0.938v-13.75h6q-1.625 0-2.813 1.188t-1.188 2.813q0 1.688 1.188 2.844t2.813 1.156 2.813-1.156 1.188-2.844q0-1.625-1.188-2.813t-2.813-1.188h5.938v3.5l-4 6.5v2.313l-2.313-2.313h-3.313v3.063l5.438 1.688q-0.813 0.5-1.281 1.344t-0.469 1.906zM6 9q-1.25 0-2.125-0.875t-0.875-2.125 0.875-2.125 2.125-0.875 2.125 0.875 0.875 2.125-0.875 2.125-2.125 0.875zM10 17q1.25 0 2.125 0.875t0.875 2.125-0.875 2.125-2.125 0.875-2.125-0.875-0.875-2.125 0.875-2.125 2.125-0.875z"></path>
</svg>
