<!-- Generated by IcoMoon.io -->
<svg version="1.1" xmlns="http://www.w3.org/2000/svg" width="32" height="32" viewBox="0 0 32 32">
<title>uniE147</title>
<path d="M9.625 11q2.188 0.688 2.75 1.313 0.688 0.875 0.688 2.063 0 1.438-0.781 2.313t-2.656 1.188v1.313h-1.125v-1.25q-2.875-0.375-3.375-3.313l2-0.25q0.125 0.625 0.375 0.969t1 0.781v-3.25q-1.813-0.5-2.438-1.406t-0.625-2.031q0-1.25 0.781-2.125t2.281-1v-0.813h1.125v0.813q1.5 0.125 2.219 0.844t0.906 1.844l-1.938 0.25q-0.188-0.813-1.188-1.25v3zM8.5 8q-0.75 0.25-0.969 0.625t-0.219 0.688q0 0.438 0.188 0.719t1 0.656v-2.688zM10.813 15.688q0.375-0.438 0.375-1 0-0.5-0.25-0.844t-1.313-0.656v3.063q0.938-0.188 1.188-0.563zM25 14q1 0 1 1 0 0.375-0.281 0.688t-0.719 0.313h-8q-0.375 0-0.688-0.313t-0.313-0.688q0-0.438 0.313-0.719t0.688-0.281h8zM25 8q1 0 1 1 0 0.375-0.281 0.688t-0.719 0.313h-8q-0.375 0-0.688-0.313t-0.313-0.688q0-0.438 0.313-0.719t0.688-0.281h8zM28 0q1.688 0 2.844 1.188t1.156 2.813v18q0 1.625-1.156 2.813t-2.844 1.188h-2v4.688q0 0.625-0.406 0.969t-0.906 0.344q-0.438 0-0.75-0.25l-4.938-5.688-15-0.063q-1.625 0-2.813-1.188t-1.188-2.813v-18q0-1.625 1.188-2.813t2.813-1.188h24zM30 4q0-0.813-0.563-1.406t-1.438-0.594h-24q-0.813 0-1.406 0.594t-0.594 1.406v18q0 0.875 0.594 1.438t1.406 0.563h16l4 5v-5h4q0.875 0 1.438-0.563t0.563-1.438v-18z"></path>
</svg>
