<!-- Generated by IcoMoon.io -->
<svg version="1.1" xmlns="http://www.w3.org/2000/svg" width="32" height="32" viewBox="0 0 32 32">
<title>uniE1CB</title>
<path d="M31.625 18.813q0.375 1.063 0.375 2.188 0 1.438-0.563 2.719t-1.5 2.219-2.219 1.5-2.719 0.563-2.719-0.563-2.219-1.5-1.5-2.219-0.563-2.719q0-0.063-0.031-0.313t-0.219-0.5-0.594-0.469-1.156-0.219-1.156 0.219-0.594 0.469-0.219 0.5-0.031 0.313q0 1.438-0.563 2.719t-1.5 2.219-2.219 1.5-2.719 0.563-2.719-0.563-2.219-1.5-1.5-2.219-0.563-2.719q0-0.563 0.125-1.125t0.313-1.125l-0.063 0.063q0-0.063 0.031-0.094t0.031-0.094q0.25-0.625 0.625-1.25 0.625-1.313 1.438-2.906t1.594-3.188 1.531-3.031 1.25-2.5q0.813-1.75 2.938-1.75 0.813 0 1.5 0.25 1.375 0.5 1.969 1.313t0.75 1.781 0.063 1.938-0.094 1.719v1h4v-2.063q-0.063-0.813-0.094-1.719t0.219-1.688 0.813-1.406 1.75-0.938q0.625-0.188 1.313-0.188 1.125 0 2.063 0.563t1.563 1.75q0.438 1 1.094 2.344t1.375 2.844 1.438 2.969 1.344 2.719q0.438 0.75 0.688 1.438 0 0.063 0.031 0.094t0.031 0.094zM7 26q2.063 0 3.531-1.469t1.469-3.531-1.469-3.531-3.531-1.469q-0.438 0-0.906 0.125t-0.969 0.25q-1.375 0.563-2.25 1.813t-0.875 2.813q0 2.063 1.469 3.531t3.531 1.469zM25 26q2.063 0 3.531-1.469t1.469-3.531-1.469-3.531-3.531-1.469-3.531 1.469-1.469 3.531 1.469 3.531 3.531 1.469z"></path>
</svg>
