<!-- Generated by IcoMoon.io -->
<svg version="1.1" xmlns="http://www.w3.org/2000/svg" width="32" height="32" viewBox="0 0 32 32">
<title>uniE244</title>
<path d="M3.188 15.563q-0.5 0.625 0 1.188l8.688 9.438q0.188 0.313 0.188 0.688 0 0.625-0.375 0.875-0.313 0.25-0.688 0.25-0.5 0-0.938-0.438l-9.813-10.813q-0.563-0.563 0-1.188l9.813-11.125q0.438-0.438 0.938-0.438 1.063 0 1.063 1.125 0 0.438-0.188 0.688zM31.813 15.563q0.563 0.625 0 1.188l-9.813 10.813q-0.438 0.438-0.938 0.438-0.375 0-0.688-0.25-0.375-0.25-0.375-0.875 0-0.438 0.25-0.688l8.688-9.438q0.375-0.563 0-1.188l-8.688-9.75q-0.25-0.25-0.25-0.688 0-1.125 1.063-1.125 0.5 0 0.938 0.438z"></path>
</svg>
